<svg xmlns="http://www.w3.org/2000/svg" xmlns:xlink="http://www.w3.org/1999/xlink" width="1920" zoomAndPan="magnify" viewBox="0 0 1440 809.999993" height="1080" preserveAspectRatio="xMidYMid meet" version="1.0"><defs><clipPath id="2cd0a72337"><path d="M 1005 497 L 1151 497 L 1151 646 L 1005 646 Z M 1005 497 " clip-rule="nonzero"/></clipPath><clipPath id="350e28388c"><path d="M 418.914062 928.664062 L 285.753906 586.136719 L 1020.4375 300.523438 L 1153.597656 643.050781 Z M 418.914062 928.664062 " clip-rule="nonzero"/></clipPath><clipPath id="0d3686375f"><path d="M 418.914062 928.664062 L 285.753906 586.136719 L 1020.4375 300.523438 L 1153.597656 643.050781 Z M 418.914062 928.664062 " clip-rule="nonzero"/></clipPath><clipPath id="4e91ab4f4a"><path d="M 418.914062 928.664062 L 285.753906 586.136719 L 1020.4375 300.523438 L 1153.597656 643.050781 Z M 418.914062 928.664062 " clip-rule="nonzero"/></clipPath><clipPath id="ecedf2155b"><path d="M 301 469 L 1131 469 L 1131 632 L 301 632 Z M 301 469 " clip-rule="nonzero"/></clipPath><clipPath id="ce5044ef94"><path d="M 418.914062 928.664062 L 285.753906 586.136719 L 1020.4375 300.523438 L 1153.597656 643.050781 Z M 418.914062 928.664062 " clip-rule="nonzero"/></clipPath><clipPath id="21de670ab1"><path d="M 418.914062 928.664062 L 285.753906 586.136719 L 1020.4375 300.523438 L 1153.597656 643.050781 Z M 418.914062 928.664062 " clip-rule="nonzero"/></clipPath><clipPath id="4c04ace3df"><path d="M 418.914062 928.664062 L 285.753906 586.136719 L 1020.4375 300.523438 L 1153.597656 643.050781 Z M 418.914062 928.664062 " clip-rule="nonzero"/></clipPath><clipPath id="6874a96c11"><path d="M 288 120 L 435 120 L 435 268 L 288 268 Z M 288 120 " clip-rule="nonzero"/></clipPath><clipPath id="508f310bec"><path d="M 1018.367188 -168.289062 L 1154.238281 173.171875 L 421.839844 464.601562 L 285.96875 123.140625 Z M 1018.367188 -168.289062 " clip-rule="nonzero"/></clipPath><clipPath id="f4ebb95978"><path d="M 1018.367188 -168.289062 L 1154.238281 173.171875 L 421.839844 464.601562 L 285.96875 123.140625 Z M 1018.367188 -168.289062 " clip-rule="nonzero"/></clipPath><clipPath id="e915e2b8ec"><path d="M 1018.367188 -168.289062 L 1154.238281 173.171875 L 421.839844 464.601562 L 285.96875 123.140625 Z M 1018.367188 -168.289062 " clip-rule="nonzero"/></clipPath><clipPath id="449c77851a"><path d="M 309 128 L 1139 128 L 1139 294 L 309 294 Z M 309 128 " clip-rule="nonzero"/></clipPath><clipPath id="08551f7687"><path d="M 1018.367188 -168.289062 L 1154.238281 173.171875 L 421.839844 464.601562 L 285.96875 123.140625 Z M 1018.367188 -168.289062 " clip-rule="nonzero"/></clipPath><clipPath id="a4153088e3"><path d="M 1018.367188 -168.289062 L 1154.238281 173.171875 L 421.839844 464.601562 L 285.96875 123.140625 Z M 1018.367188 -168.289062 " clip-rule="nonzero"/></clipPath><clipPath id="2f2ff7f3f9"><path d="M 1018.367188 -168.289062 L 1154.238281 173.171875 L 421.839844 464.601562 L 285.96875 123.140625 Z M 1018.367188 -168.289062 " clip-rule="nonzero"/></clipPath></defs><rect x="-144" width="1728" fill="#ffffff" y="-80.999999" height="971.999992" fill-opacity="1"/><rect x="-144" width="1728" fill="#f03232" y="-80.999999" height="971.999992" fill-opacity="1"/><g clip-path="url(#2cd0a72337)"><g clip-path="url(#350e28388c)"><g clip-path="url(#0d3686375f)"><g clip-path="url(#4e91ab4f4a)"><path fill="#231f20" d="M 1150.273438 634.59375 L 1150.339844 634.757812 C 1150.464844 635.078125 1150.566406 635.40625 1150.648438 635.738281 C 1150.734375 636.070312 1150.796875 636.410156 1150.835938 636.75 C 1150.875 637.089844 1150.894531 637.433594 1150.890625 637.777344 C 1150.890625 638.121094 1150.863281 638.460938 1150.816406 638.804688 C 1150.773438 639.144531 1150.703125 639.480469 1150.617188 639.8125 C 1150.527344 640.144531 1150.417969 640.46875 1150.289062 640.785156 C 1150.160156 641.105469 1150.007812 641.414062 1149.839844 641.710938 C 1149.671875 642.011719 1149.484375 642.296875 1149.28125 642.574219 C 1149.074219 642.847656 1148.851562 643.109375 1148.613281 643.359375 C 1148.375 643.605469 1148.125 643.835938 1147.855469 644.054688 C 1147.589844 644.269531 1147.308594 644.464844 1147.015625 644.648438 C 1146.722656 644.828125 1146.421875 644.988281 1146.109375 645.128906 C 1145.796875 645.273438 1145.472656 645.394531 1145.144531 645.496094 C 1144.816406 645.597656 1144.484375 645.675781 1144.144531 645.734375 C 1143.808594 645.792969 1143.46875 645.832031 1143.125 645.847656 C 1142.78125 645.863281 1142.4375 645.859375 1142.09375 645.832031 L 1012.953125 635.515625 C 1012.417969 635.472656 1011.894531 635.378906 1011.378906 635.234375 C 1010.863281 635.089844 1010.363281 634.894531 1009.886719 634.652344 C 1009.410156 634.40625 1008.960938 634.121094 1008.542969 633.789062 C 1008.121094 633.457031 1007.738281 633.085938 1007.390625 632.679688 C 1007.042969 632.273438 1006.738281 631.835938 1006.476562 631.367188 C 1006.214844 630.898438 1006 630.410156 1005.835938 629.902344 C 1005.671875 629.390625 1005.558594 628.871094 1005.496094 628.339844 C 1005.433594 627.804688 1005.421875 627.273438 1005.464844 626.738281 C 1005.507812 626.207031 1005.601562 625.679688 1005.75 625.164062 C 1005.894531 624.652344 1006.089844 624.15625 1006.335938 623.675781 C 1006.578125 623.199219 1006.867188 622.753906 1007.199219 622.332031 C 1007.53125 621.914062 1007.902344 621.527344 1008.308594 621.179688 C 1008.71875 620.835938 1009.15625 620.53125 1009.621094 620.269531 C 1010.089844 620.007812 1010.578125 619.796875 1011.089844 619.632812 C 1011.597656 619.46875 1012.121094 619.355469 1012.652344 619.292969 C 1013.183594 619.230469 1013.71875 619.222656 1014.25 619.265625 L 1130.261719 628.546875 C 1115.125 591.960938 1092.972656 547.6875 1070.777344 509.898438 C 1070.503906 509.433594 1070.28125 508.953125 1070.105469 508.445312 C 1069.925781 507.941406 1069.800781 507.421875 1069.726562 506.890625 C 1069.652344 506.363281 1069.628906 505.828125 1069.660156 505.292969 C 1069.691406 504.757812 1069.773438 504.234375 1069.90625 503.714844 C 1070.039062 503.195312 1070.222656 502.695312 1070.457031 502.210938 C 1070.6875 501.730469 1070.96875 501.273438 1071.289062 500.847656 C 1071.613281 500.417969 1071.972656 500.027344 1072.375 499.671875 C 1072.773438 499.316406 1073.203125 499 1073.667969 498.730469 C 1074.128906 498.457031 1074.613281 498.234375 1075.117188 498.058594 C 1075.625 497.882812 1076.140625 497.757812 1076.671875 497.683594 C 1077.203125 497.609375 1077.734375 497.585938 1078.269531 497.617188 C 1078.804688 497.648438 1079.332031 497.734375 1079.851562 497.867188 C 1080.367188 498.003906 1080.867188 498.1875 1081.351562 498.421875 C 1081.832031 498.65625 1082.289062 498.933594 1082.714844 499.257812 C 1083.140625 499.578125 1083.535156 499.941406 1083.890625 500.34375 C 1084.246094 500.742188 1084.558594 501.175781 1084.828125 501.636719 C 1109.933594 544.347656 1134.988281 595.277344 1150.273438 634.59375 Z M 1150.273438 634.59375 " fill-opacity="1" fill-rule="nonzero"/></g></g></g></g><g clip-path="url(#ecedf2155b)"><g clip-path="url(#ce5044ef94)"><g clip-path="url(#21de670ab1)"><g clip-path="url(#4c04ace3df)"><path fill="#231f20" d="M 1129.789062 618.867188 C 1130.109375 619.695312 1130.292969 620.550781 1130.335938 621.4375 C 1130.378906 622.320312 1130.277344 623.191406 1130.039062 624.042969 C 1129.796875 624.898438 1129.425781 625.691406 1128.925781 626.421875 C 1128.425781 627.15625 1127.824219 627.789062 1127.117188 628.324219 C 1126.410156 628.859375 1125.636719 629.269531 1124.796875 629.550781 C 1123.957031 629.835938 1123.09375 629.976562 1122.207031 629.976562 C 1121.320312 629.980469 1120.453125 629.839844 1119.613281 629.558594 C 1118.773438 629.277344 1118 628.871094 1117.289062 628.335938 C 1101.90625 616.746094 1085.871094 605.628906 1069.613281 595.28125 C 1069.171875 594.988281 1068.765625 594.65625 1068.390625 594.285156 C 1068.015625 593.914062 1067.675781 593.507812 1067.378906 593.070312 C 1067.082031 592.636719 1066.832031 592.171875 1066.625 591.6875 C 1066.417969 591.199219 1066.257812 590.699219 1066.148438 590.183594 C 1066.039062 589.664062 1065.980469 589.144531 1065.972656 588.613281 C 1065.964844 588.085938 1066.007812 587.5625 1066.101562 587.042969 C 1066.195312 586.523438 1066.339844 586.015625 1066.53125 585.523438 C 1066.722656 585.03125 1066.960938 584.5625 1067.246094 584.117188 C 1067.53125 583.671875 1067.855469 583.257812 1068.21875 582.875 C 1068.582031 582.492188 1068.980469 582.148438 1069.410156 581.839844 C 1069.84375 581.535156 1070.300781 581.273438 1070.78125 581.058594 C 1071.265625 580.839844 1071.761719 580.671875 1072.277344 580.554688 C 1072.792969 580.433594 1073.3125 580.367188 1073.84375 580.347656 C 1074.371094 580.328125 1074.894531 580.363281 1075.417969 580.445312 C 1075.9375 580.53125 1076.449219 580.664062 1076.941406 580.847656 C 1077.4375 581.03125 1077.914062 581.257812 1078.363281 581.535156 C 1094.980469 592.105469 1111.375 603.476562 1127.101562 615.320312 C 1128.335938 616.246094 1129.230469 617.429688 1129.789062 618.867188 Z M 1030.882812 555.949219 C 1031.191406 556.726562 1031.371094 557.53125 1031.429688 558.363281 C 1031.488281 559.195312 1031.421875 560.015625 1031.226562 560.828125 C 1031.035156 561.640625 1030.722656 562.40625 1030.292969 563.121094 C 1029.867188 563.835938 1029.339844 564.472656 1028.714844 565.027344 C 1028.09375 565.582031 1027.402344 566.027344 1026.640625 566.371094 C 1025.878906 566.710938 1025.082031 566.933594 1024.253906 567.03125 C 1023.425781 567.125 1022.601562 567.097656 1021.78125 566.941406 C 1020.960938 566.785156 1020.183594 566.511719 1019.449219 566.117188 C 1002.375 557.070312 984.777344 548.632812 967.148438 541.027344 C 966.65625 540.816406 966.1875 540.558594 965.746094 540.253906 C 965.304688 539.953125 964.898438 539.609375 964.523438 539.222656 C 964.148438 538.839844 963.816406 538.421875 963.523438 537.972656 C 963.234375 537.523438 962.988281 537.050781 962.789062 536.550781 C 962.59375 536.054688 962.445312 535.542969 962.347656 535.015625 C 962.25 534.488281 962.207031 533.957031 962.214844 533.421875 C 962.222656 532.882812 962.28125 532.355469 962.394531 531.832031 C 962.503906 531.304688 962.667969 530.796875 962.878906 530.304688 C 963.09375 529.8125 963.351562 529.347656 963.65625 528.90625 C 963.960938 528.464844 964.304688 528.058594 964.6875 527.683594 C 965.074219 527.3125 965.492188 526.980469 965.941406 526.691406 C 966.390625 526.398438 966.867188 526.15625 967.363281 525.957031 C 967.863281 525.761719 968.375 525.613281 968.902344 525.515625 C 969.429688 525.421875 969.960938 525.378906 970.496094 525.386719 C 971.03125 525.394531 971.5625 525.457031 972.085938 525.570312 C 972.609375 525.683594 973.117188 525.84375 973.609375 526.058594 C 991.644531 533.835938 1009.636719 542.464844 1027.089844 551.710938 C 1027.957031 552.164062 1028.71875 552.757812 1029.371094 553.488281 C 1030.023438 554.214844 1030.527344 555.039062 1030.882812 555.949219 Z M 923.226562 509.589844 C 923.507812 510.3125 923.683594 511.058594 923.75 511.832031 C 923.820312 512.601562 923.777344 513.371094 923.628906 514.128906 C 923.476562 514.890625 923.222656 515.613281 922.867188 516.300781 C 922.507812 516.988281 922.0625 517.613281 921.527344 518.175781 C 920.992188 518.734375 920.386719 519.210938 919.71875 519.597656 C 919.046875 519.984375 918.335938 520.273438 917.582031 520.457031 C 916.828125 520.640625 916.066406 520.71875 915.292969 520.683594 C 914.515625 520.652344 913.761719 520.511719 913.027344 520.261719 C 894.699219 514.097656 875.964844 508.644531 857.367188 504.089844 C 856.847656 503.960938 856.34375 503.785156 855.859375 503.558594 C 855.375 503.332031 854.914062 503.0625 854.484375 502.746094 C 854.054688 502.425781 853.65625 502.070312 853.296875 501.675781 C 852.933594 501.28125 852.613281 500.855469 852.335938 500.398438 C 852.058594 499.941406 851.828125 499.460938 851.644531 498.957031 C 851.464844 498.453125 851.332031 497.9375 851.25 497.410156 C 851.167969 496.878906 851.140625 496.347656 851.164062 495.8125 C 851.1875 495.277344 851.261719 494.75 851.390625 494.230469 C 851.519531 493.710938 851.695312 493.210938 851.921875 492.726562 C 852.148438 492.238281 852.417969 491.78125 852.734375 491.351562 C 853.050781 490.917969 853.40625 490.523438 853.804688 490.160156 C 854.199219 489.800781 854.625 489.480469 855.082031 489.203125 C 855.539062 488.925781 856.019531 488.695312 856.523438 488.511719 C 857.027344 488.328125 857.542969 488.195312 858.070312 488.117188 C 858.601562 488.035156 859.132812 488.007812 859.667969 488.03125 C 860.199219 488.054688 860.726562 488.128906 861.25 488.257812 C 880.292969 492.925781 899.460938 498.496094 918.234375 504.816406 C 919.382812 505.199219 920.390625 505.8125 921.261719 506.648438 C 922.136719 507.480469 922.789062 508.464844 923.226562 509.589844 Z M 809.386719 481.75 C 809.511719 482.082031 809.617188 482.417969 809.703125 482.765625 C 809.785156 483.109375 809.847656 483.460938 809.882812 483.8125 C 809.921875 484.167969 809.9375 484.519531 809.925781 484.875 C 809.917969 485.230469 809.886719 485.585938 809.832031 485.9375 C 809.777344 486.289062 809.699219 486.632812 809.597656 486.976562 C 809.496094 487.316406 809.375 487.648438 809.230469 487.972656 C 809.085938 488.300781 808.921875 488.613281 808.738281 488.917969 C 808.554688 489.21875 808.347656 489.511719 808.125 489.785156 C 807.902344 490.0625 807.660156 490.324219 807.40625 490.570312 C 807.148438 490.816406 806.875 491.042969 806.589844 491.253906 C 806.300781 491.460938 806 491.652344 805.6875 491.824219 C 805.378906 491.992188 805.054688 492.140625 804.722656 492.269531 C 804.390625 492.398438 804.054688 492.503906 803.707031 492.589844 C 803.363281 492.671875 803.011719 492.734375 802.660156 492.769531 C 802.304688 492.808594 801.953125 492.824219 801.597656 492.816406 C 801.242188 492.808594 800.886719 492.777344 800.535156 492.722656 C 781.414062 489.769531 762.039062 487.667969 742.957031 486.476562 C 742.421875 486.445312 741.898438 486.359375 741.378906 486.222656 C 740.863281 486.085938 740.363281 485.898438 739.882812 485.664062 C 739.402344 485.429688 738.949219 485.148438 738.523438 484.824219 C 738.097656 484.5 737.707031 484.136719 737.355469 483.734375 C 737 483.335938 736.6875 482.902344 736.421875 482.441406 C 736.152344 481.976562 735.929688 481.492188 735.757812 480.984375 C 735.582031 480.480469 735.460938 479.960938 735.390625 479.429688 C 735.320312 478.902344 735.300781 478.367188 735.332031 477.835938 C 735.367188 477.300781 735.453125 476.773438 735.589844 476.257812 C 735.726562 475.742188 735.914062 475.242188 736.148438 474.761719 C 736.382812 474.28125 736.664062 473.828125 736.988281 473.402344 C 737.3125 472.976562 737.675781 472.585938 738.078125 472.234375 C 738.476562 471.878906 738.910156 471.566406 739.371094 471.300781 C 739.835938 471.03125 740.320312 470.808594 740.824219 470.636719 C 741.332031 470.460938 741.851562 470.339844 742.378906 470.269531 C 742.910156 470.195312 743.441406 470.179688 743.976562 470.210938 C 763.546875 471.4375 783.410156 473.589844 803.023438 476.632812 C 803.734375 476.742188 804.414062 476.941406 805.070312 477.230469 C 805.726562 477.519531 806.335938 477.886719 806.890625 478.335938 C 807.449219 478.785156 807.941406 479.300781 808.363281 479.878906 C 808.785156 480.457031 809.128906 481.082031 809.386719 481.75 Z M 692.433594 474.511719 C 692.769531 475.378906 692.953125 476.273438 692.976562 477.203125 C 692.996094 477.738281 692.960938 478.269531 692.871094 478.796875 C 692.785156 479.324219 692.648438 479.839844 692.460938 480.339844 C 692.269531 480.84375 692.035156 481.320312 691.753906 481.773438 C 691.46875 482.226562 691.144531 482.652344 690.777344 483.042969 C 690.414062 483.429688 690.011719 483.78125 689.578125 484.09375 C 689.140625 484.40625 688.679688 484.671875 688.191406 484.890625 C 687.707031 485.113281 687.203125 485.28125 686.679688 485.402344 C 686.160156 485.523438 685.628906 485.59375 685.09375 485.609375 C 665.910156 486.230469 646.496094 487.777344 627.421875 490.195312 C 626.902344 490.25 626.378906 490.25 625.855469 490.203125 C 625.328125 490.15625 624.816406 490.058594 624.3125 489.910156 C 623.804688 489.761719 623.320312 489.566406 622.855469 489.324219 C 622.386719 489.085938 621.945312 488.800781 621.535156 488.472656 C 621.125 488.148438 620.746094 487.785156 620.40625 487.382812 C 620.0625 486.984375 619.761719 486.554688 619.503906 486.097656 C 619.246094 485.640625 619.035156 485.160156 618.867188 484.664062 C 618.703125 484.164062 618.585938 483.652344 618.515625 483.132812 C 618.449219 482.609375 618.433594 482.085938 618.46875 481.5625 C 618.5 481.039062 618.585938 480.519531 618.71875 480.011719 C 618.851562 479.503906 619.035156 479.011719 619.265625 478.539062 C 619.492188 478.066406 619.765625 477.621094 620.082031 477.199219 C 620.394531 476.777344 620.75 476.390625 621.140625 476.039062 C 621.53125 475.6875 621.949219 475.375 622.402344 475.105469 C 622.851562 474.832031 623.324219 474.609375 623.820312 474.429688 C 624.3125 474.25 624.820312 474.121094 625.339844 474.039062 C 644.945312 471.542969 664.875 469.957031 684.574219 469.320312 C 685.417969 469.292969 686.246094 469.394531 687.054688 469.625 C 687.867188 469.855469 688.625 470.203125 689.328125 470.667969 C 690.03125 471.132812 690.648438 471.695312 691.179688 472.351562 C 691.710938 473.003906 692.128906 473.726562 692.433594 474.511719 Z M 576.1875 489.296875 C 576.339844 489.679688 576.460938 490.074219 576.546875 490.472656 C 576.664062 490.996094 576.730469 491.523438 576.746094 492.058594 C 576.757812 492.59375 576.71875 493.125 576.628906 493.652344 C 576.535156 494.179688 576.394531 494.695312 576.203125 495.195312 C 576.007812 495.695312 575.769531 496.171875 575.484375 496.621094 C 575.195312 497.074219 574.871094 497.496094 574.5 497.882812 C 574.132812 498.269531 573.726562 498.617188 573.289062 498.925781 C 572.851562 499.234375 572.390625 499.496094 571.898438 499.714844 C 571.410156 499.929688 570.902344 500.097656 570.382812 500.214844 C 551.578125 504.433594 532.804688 509.597656 514.578125 515.558594 C 514.066406 515.726562 513.546875 515.84375 513.015625 515.90625 C 512.480469 515.972656 511.949219 515.984375 511.414062 515.941406 C 510.878906 515.902344 510.351562 515.808594 509.835938 515.667969 C 509.320312 515.523438 508.820312 515.328125 508.34375 515.085938 C 507.863281 514.84375 507.414062 514.558594 506.992188 514.226562 C 506.570312 513.894531 506.183594 513.527344 505.835938 513.121094 C 505.484375 512.710938 505.179688 512.273438 504.917969 511.808594 C 504.652344 511.339844 504.4375 510.851562 504.273438 510.34375 C 504.105469 509.832031 503.992188 509.3125 503.925781 508.777344 C 503.863281 508.246094 503.851562 507.710938 503.890625 507.175781 C 503.933594 506.644531 504.027344 506.117188 504.171875 505.601562 C 504.316406 505.085938 504.511719 504.585938 504.753906 504.109375 C 504.996094 503.628906 505.285156 503.179688 505.617188 502.757812 C 505.945312 502.335938 506.316406 501.953125 506.722656 501.605469 C 507.132812 501.253906 507.570312 500.949219 508.039062 500.6875 C 508.503906 500.425781 508.996094 500.210938 509.503906 500.046875 C 528.21875 493.921875 547.492188 488.621094 566.804688 484.289062 C 567.277344 484.179688 567.757812 484.117188 568.238281 484.097656 C 568.722656 484.074219 569.207031 484.097656 569.6875 484.164062 C 570.164062 484.226562 570.636719 484.335938 571.097656 484.484375 C 571.558594 484.632812 572 484.820312 572.429688 485.050781 C 572.855469 485.277344 573.257812 485.542969 573.640625 485.839844 C 574.019531 486.140625 574.371094 486.472656 574.691406 486.835938 C 575.011719 487.199219 575.296875 487.585938 575.550781 488 C 575.800781 488.414062 576.015625 488.847656 576.1875 489.296875 Z M 464.84375 525.773438 C 465.03125 526.257812 465.171875 526.757812 465.265625 527.269531 C 465.355469 527.78125 465.398438 528.300781 465.394531 528.820312 C 465.386719 529.34375 465.332031 529.859375 465.226562 530.367188 C 465.121094 530.878906 464.96875 531.375 464.765625 531.855469 C 464.566406 532.335938 464.320312 532.792969 464.035156 533.226562 C 463.746094 533.660156 463.417969 534.0625 463.054688 534.433594 C 462.6875 534.808594 462.289062 535.140625 461.859375 535.433594 C 461.429688 535.730469 460.976562 535.980469 460.5 536.191406 C 442.8125 543.949219 425.398438 552.632812 408.753906 562.011719 C 408.289062 562.289062 407.796875 562.519531 407.285156 562.699219 C 406.773438 562.878906 406.25 563.003906 405.710938 563.082031 C 405.171875 563.15625 404.632812 563.175781 404.089844 563.140625 C 403.550781 563.109375 403.015625 563.023438 402.492188 562.882812 C 401.964844 562.742188 401.460938 562.550781 400.972656 562.3125 C 400.488281 562.070312 400.03125 561.785156 399.601562 561.449219 C 399.171875 561.117188 398.78125 560.746094 398.425781 560.335938 C 398.070312 559.925781 397.757812 559.484375 397.492188 559.011719 C 397.226562 558.539062 397.007812 558.042969 396.839844 557.527344 C 396.671875 557.011719 396.558594 556.480469 396.496094 555.941406 C 396.433594 555.402344 396.425781 554.863281 396.472656 554.320312 C 396.515625 553.78125 396.617188 553.25 396.769531 552.730469 C 396.917969 552.207031 397.121094 551.707031 397.375 551.226562 C 397.625 550.746094 397.921875 550.292969 398.265625 549.871094 C 398.609375 549.449219 398.988281 549.066406 399.40625 548.722656 C 399.824219 548.375 400.273438 548.074219 400.753906 547.820312 C 417.867188 538.171875 435.769531 529.234375 453.953125 521.261719 C 454.445312 521.046875 454.953125 520.882812 455.476562 520.769531 C 456 520.65625 456.527344 520.59375 457.0625 520.582031 C 457.601562 520.574219 458.132812 520.617188 458.660156 520.710938 C 459.183594 520.804688 459.699219 520.949219 460.195312 521.148438 C 460.695312 521.34375 461.167969 521.585938 461.621094 521.875 C 462.070312 522.164062 462.488281 522.496094 462.875 522.867188 C 463.257812 523.238281 463.605469 523.644531 463.910156 524.085938 C 464.214844 524.527344 464.476562 524.992188 464.6875 525.484375 Z M 362.867188 583.34375 C 363.195312 584.1875 363.375 585.066406 363.410156 585.972656 C 363.445312 586.878906 363.332031 587.769531 363.070312 588.636719 C 362.808594 589.507812 362.414062 590.308594 361.886719 591.046875 C 361.355469 591.785156 360.722656 592.414062 359.980469 592.941406 C 344.253906 604.097656 329.167969 616.0625 314.726562 628.839844 C 314.328125 629.210938 313.898438 629.535156 313.433594 629.820312 C 312.972656 630.105469 312.484375 630.34375 311.972656 630.527344 C 311.464844 630.714844 310.941406 630.851562 310.402344 630.933594 C 309.863281 631.015625 309.324219 631.042969 308.78125 631.015625 C 308.238281 630.992188 307.703125 630.910156 307.175781 630.777344 C 306.648438 630.644531 306.140625 630.460938 305.648438 630.226562 C 305.160156 629.992188 304.699219 629.710938 304.261719 629.382812 C 303.828125 629.054688 303.433594 628.6875 303.070312 628.28125 C 302.710938 627.875 302.394531 627.4375 302.121094 626.964844 C 301.847656 626.496094 301.625 626.003906 301.449219 625.488281 C 301.277344 624.972656 301.15625 624.445312 301.085938 623.90625 C 301.019531 623.367188 301.003906 622.824219 301.042969 622.285156 C 301.082031 621.742188 301.175781 621.207031 301.324219 620.683594 C 301.46875 620.160156 301.664062 619.65625 301.914062 619.171875 C 302.160156 618.6875 302.453125 618.234375 302.789062 617.808594 C 303.128906 617.382812 303.507812 616.996094 303.921875 616.644531 C 318.800781 603.46875 334.339844 591.132812 350.546875 579.632812 C 350.984375 579.324219 351.445312 579.0625 351.9375 578.84375 C 352.425781 578.625 352.929688 578.457031 353.449219 578.335938 C 353.972656 578.21875 354.5 578.152344 355.035156 578.136719 C 355.570312 578.121094 356.101562 578.160156 356.628906 578.25 C 357.15625 578.339844 357.671875 578.480469 358.171875 578.671875 C 358.671875 578.863281 359.148438 579.097656 359.601562 579.382812 C 360.050781 579.667969 360.472656 579.996094 360.863281 580.363281 C 361.25 580.730469 361.601562 581.132812 361.910156 581.566406 C 362.300781 582.121094 362.621094 582.710938 362.867188 583.34375 Z M 362.867188 583.34375 " fill-opacity="1" fill-rule="nonzero"/></g></g></g></g><g clip-path="url(#6874a96c11)"><g clip-path="url(#508f310bec)"><g clip-path="url(#f4ebb95978)"><g clip-path="url(#e915e2b8ec)"><path fill="#231f20" d="M 289.359375 131.570312 L 289.292969 131.40625 C 289.167969 131.085938 289.0625 130.761719 288.976562 130.429688 C 288.890625 130.09375 288.824219 129.757812 288.78125 129.417969 C 288.738281 129.078125 288.71875 128.734375 288.71875 128.390625 C 288.71875 128.046875 288.738281 127.707031 288.78125 127.367188 C 288.828125 127.023438 288.890625 126.6875 288.976562 126.355469 C 289.0625 126.023438 289.171875 125.695312 289.296875 125.378906 C 289.425781 125.058594 289.570312 124.75 289.738281 124.449219 C 289.902344 124.148438 290.089844 123.859375 290.292969 123.582031 C 290.496094 123.304688 290.714844 123.042969 290.949219 122.792969 C 291.1875 122.542969 291.4375 122.308594 291.703125 122.089844 C 291.96875 121.875 292.246094 121.671875 292.539062 121.492188 C 292.828125 121.308594 293.132812 121.144531 293.441406 121 C 293.753906 120.855469 294.074219 120.734375 294.402344 120.628906 C 294.730469 120.523438 295.0625 120.441406 295.398438 120.378906 C 295.738281 120.316406 296.078125 120.277344 296.421875 120.257812 C 296.765625 120.242188 297.105469 120.242188 297.449219 120.269531 L 426.671875 129.558594 C 427.207031 129.597656 427.730469 129.6875 428.246094 129.828125 C 428.765625 129.96875 429.261719 130.160156 429.742188 130.398438 C 430.222656 130.640625 430.671875 130.921875 431.09375 131.25 C 431.519531 131.582031 431.90625 131.945312 432.257812 132.351562 C 432.605469 132.757812 432.914062 133.191406 433.179688 133.65625 C 433.445312 134.121094 433.660156 134.609375 433.832031 135.117188 C 434 135.625 434.117188 136.144531 434.183594 136.675781 C 434.25 137.207031 434.265625 137.742188 434.226562 138.277344 C 434.1875 138.808594 434.097656 139.335938 433.957031 139.851562 C 433.8125 140.367188 433.621094 140.867188 433.382812 141.34375 C 433.140625 141.824219 432.859375 142.273438 432.527344 142.695312 C 432.199219 143.121094 431.832031 143.507812 431.425781 143.855469 C 431.023438 144.207031 430.585938 144.515625 430.121094 144.777344 C 429.65625 145.042969 429.167969 145.257812 428.660156 145.425781 C 428.152344 145.597656 427.628906 145.714844 427.097656 145.777344 C 426.566406 145.84375 426.035156 145.859375 425.5 145.820312 L 309.417969 137.457031 C 324.847656 173.921875 347.347656 218.019531 369.84375 255.632812 C 370.121094 256.09375 370.347656 256.574219 370.527344 257.078125 C 370.710938 257.582031 370.839844 258.097656 370.917969 258.628906 C 370.996094 259.160156 371.023438 259.691406 370.996094 260.226562 C 370.972656 260.761719 370.894531 261.289062 370.761719 261.808594 C 370.632812 262.328125 370.453125 262.828125 370.226562 263.3125 C 369.996094 263.796875 369.722656 264.253906 369.402344 264.6875 C 369.082031 265.117188 368.726562 265.511719 368.328125 265.871094 C 367.929688 266.230469 367.503906 266.546875 367.042969 266.824219 C 366.582031 267.097656 366.101562 267.324219 365.597656 267.503906 C 365.09375 267.6875 364.574219 267.816406 364.046875 267.894531 C 363.515625 267.972656 362.984375 267.996094 362.449219 267.96875 C 361.914062 267.941406 361.386719 267.863281 360.867188 267.734375 C 360.347656 267.601562 359.84375 267.421875 359.359375 267.191406 C 358.878906 266.960938 358.421875 266.6875 357.992188 266.367188 C 357.5625 266.046875 357.167969 265.6875 356.808594 265.289062 C 356.449219 264.894531 356.132812 264.464844 355.859375 264.003906 C 330.417969 221.492188 304.957031 170.765625 289.359375 131.570312 Z M 289.359375 131.570312 " fill-opacity="1" fill-rule="nonzero"/></g></g></g></g><g clip-path="url(#449c77851a)"><g clip-path="url(#08551f7687)"><g clip-path="url(#a4153088e3)"><g clip-path="url(#2f2ff7f3f9)"><path fill="#231f20" d="M 309.96875 147.132812 C 309.640625 146.308594 309.453125 145.453125 309.402344 144.570312 C 309.351562 143.683594 309.445312 142.8125 309.679688 141.957031 C 309.914062 141.101562 310.277344 140.308594 310.773438 139.570312 C 311.265625 138.835938 311.863281 138.195312 312.566406 137.65625 C 313.269531 137.113281 314.039062 136.699219 314.878906 136.410156 C 315.714844 136.121094 316.578125 135.96875 317.464844 135.960938 C 318.351562 135.953125 319.214844 136.085938 320.058594 136.363281 C 320.902344 136.636719 321.679688 137.039062 322.394531 137.566406 C 337.867188 149.03125 353.992188 160.023438 370.332031 170.242188 C 370.773438 170.53125 371.183594 170.859375 371.5625 171.226562 C 371.941406 171.597656 372.28125 172 372.582031 172.433594 C 372.882812 172.867188 373.136719 173.328125 373.347656 173.8125 C 373.558594 174.296875 373.722656 174.796875 373.835938 175.3125 C 373.949219 175.828125 374.011719 176.351562 374.023438 176.878906 C 374.035156 177.40625 373.996094 177.933594 373.90625 178.453125 C 373.816406 178.972656 373.679688 179.480469 373.488281 179.976562 C 373.300781 180.46875 373.066406 180.9375 372.785156 181.386719 C 372.507812 181.835938 372.183594 182.253906 371.824219 182.636719 C 371.460938 183.023438 371.066406 183.371094 370.636719 183.679688 C 370.210938 183.988281 369.753906 184.253906 369.273438 184.472656 C 368.792969 184.695312 368.296875 184.867188 367.78125 184.988281 C 367.269531 185.113281 366.75 185.1875 366.21875 185.207031 C 365.691406 185.230469 365.167969 185.203125 364.644531 185.121094 C 364.121094 185.042969 363.613281 184.914062 363.113281 184.734375 C 362.617188 184.554688 362.144531 184.328125 361.6875 184.058594 C 344.988281 173.617188 328.503906 162.378906 312.6875 150.660156 C 311.445312 149.742188 310.539062 148.566406 309.96875 147.132812 Z M 409.371094 209.265625 C 409.058594 208.492188 408.871094 207.6875 408.804688 206.855469 C 408.738281 206.023438 408.800781 205.203125 408.988281 204.390625 C 409.175781 203.574219 409.480469 202.808594 409.902344 202.089844 C 410.324219 201.371094 410.847656 200.730469 411.464844 200.171875 C 412.085938 199.613281 412.773438 199.160156 413.53125 198.8125 C 414.289062 198.464844 415.085938 198.238281 415.914062 198.132812 C 416.738281 198.027344 417.566406 198.050781 418.386719 198.199219 C 419.207031 198.351562 419.988281 198.617188 420.726562 199.007812 C 437.867188 207.917969 455.535156 216.21875 473.222656 223.679688 C 473.71875 223.886719 474.1875 224.140625 474.628906 224.441406 C 475.074219 224.742188 475.484375 225.082031 475.863281 225.464844 C 476.238281 225.84375 476.574219 226.257812 476.871094 226.707031 C 477.164062 227.152344 477.414062 227.625 477.617188 228.121094 C 477.816406 228.617188 477.96875 229.128906 478.070312 229.65625 C 478.171875 230.183594 478.222656 230.714844 478.21875 231.25 C 478.214844 231.785156 478.160156 232.316406 478.050781 232.839844 C 477.941406 233.367188 477.785156 233.875 477.574219 234.367188 C 477.367188 234.863281 477.113281 235.332031 476.8125 235.773438 C 476.511719 236.21875 476.167969 236.628906 475.789062 237.003906 C 475.40625 237.378906 474.992188 237.714844 474.542969 238.007812 C 474.09375 238.304688 473.621094 238.550781 473.125 238.753906 C 472.628906 238.953125 472.117188 239.105469 471.589844 239.203125 C 471.066406 239.304688 470.535156 239.351562 469.996094 239.347656 C 469.460938 239.34375 468.929688 239.289062 468.40625 239.179688 C 467.882812 239.070312 467.371094 238.910156 466.878906 238.699219 C 448.785156 231.070312 430.722656 222.582031 413.199219 213.472656 C 412.328125 213.027344 411.5625 212.441406 410.902344 211.714844 C 410.246094 210.992188 409.734375 210.175781 409.371094 209.265625 Z M 517.394531 254.769531 C 517.105469 254.050781 516.925781 253.304688 516.851562 252.53125 C 516.777344 251.761719 516.808594 250.996094 516.953125 250.234375 C 517.097656 249.472656 517.347656 248.746094 517.699219 248.054688 C 518.050781 247.363281 518.492188 246.738281 519.023438 246.171875 C 519.554688 245.605469 520.152344 245.128906 520.820312 244.734375 C 521.488281 244.339844 522.199219 244.050781 522.949219 243.859375 C 523.703125 243.667969 524.464844 243.585938 525.238281 243.613281 C 526.015625 243.640625 526.769531 243.773438 527.503906 244.015625 C 545.882812 250.035156 564.660156 255.339844 583.292969 259.746094 C 583.816406 259.871094 584.316406 260.042969 584.804688 260.265625 C 585.292969 260.488281 585.753906 260.757812 586.1875 261.070312 C 586.621094 261.382812 587.019531 261.734375 587.382812 262.128906 C 587.75 262.519531 588.070312 262.945312 588.351562 263.398438 C 588.632812 263.855469 588.867188 264.332031 589.054688 264.835938 C 589.242188 265.335938 589.378906 265.851562 589.460938 266.378906 C 589.546875 266.90625 589.582031 267.4375 589.5625 267.972656 C 589.542969 268.507812 589.472656 269.035156 589.347656 269.558594 C 589.222656 270.078125 589.050781 270.582031 588.828125 271.070312 C 588.605469 271.554688 588.339844 272.015625 588.023438 272.449219 C 587.710938 272.882812 587.359375 273.285156 586.96875 273.648438 C 586.574219 274.011719 586.152344 274.335938 585.695312 274.617188 C 585.242188 274.898438 584.761719 275.132812 584.261719 275.316406 C 583.757812 275.503906 583.246094 275.640625 582.714844 275.726562 C 582.1875 275.8125 581.65625 275.84375 581.121094 275.824219 C 580.585938 275.804688 580.058594 275.734375 579.539062 275.613281 C 560.457031 271.09375 541.246094 265.675781 522.421875 259.503906 C 521.273438 259.128906 520.257812 258.527344 519.378906 257.699219 C 518.5 256.867188 517.835938 255.894531 517.394531 254.769531 Z M 631.449219 281.707031 C 631.320312 281.375 631.210938 281.039062 631.125 280.695312 C 631.039062 280.347656 630.976562 280 630.933594 279.648438 C 630.894531 279.292969 630.878906 278.941406 630.882812 278.585938 C 630.890625 278.230469 630.917969 277.875 630.972656 277.523438 C 631.023438 277.171875 631.097656 276.824219 631.195312 276.484375 C 631.292969 276.140625 631.414062 275.808594 631.554688 275.480469 C 631.695312 275.15625 631.859375 274.839844 632.039062 274.535156 C 632.222656 274.230469 632.425781 273.9375 632.644531 273.660156 C 632.867188 273.382812 633.105469 273.117188 633.359375 272.871094 C 633.617188 272.625 633.886719 272.394531 634.171875 272.183594 C 634.457031 271.96875 634.753906 271.777344 635.066406 271.605469 C 635.378906 271.433594 635.699219 271.28125 636.027344 271.148438 C 636.359375 271.019531 636.695312 270.910156 637.042969 270.824219 C 637.386719 270.738281 637.734375 270.671875 638.089844 270.632812 C 638.441406 270.589844 638.796875 270.574219 639.152344 270.578125 C 639.507812 270.585938 639.859375 270.613281 640.210938 270.664062 C 659.359375 273.464844 678.746094 275.410156 697.839844 276.453125 C 698.375 276.480469 698.898438 276.5625 699.417969 276.695312 C 699.9375 276.828125 700.4375 277.011719 700.917969 277.242188 C 701.402344 277.472656 701.855469 277.75 702.285156 278.070312 C 702.714844 278.390625 703.105469 278.75 703.460938 279.148438 C 703.820312 279.546875 704.136719 279.976562 704.40625 280.4375 C 704.679688 280.898438 704.90625 281.382812 705.082031 281.886719 C 705.257812 282.390625 705.386719 282.910156 705.460938 283.4375 C 705.539062 283.96875 705.558594 284.5 705.53125 285.035156 C 705.5 285.570312 705.421875 286.09375 705.289062 286.613281 C 705.15625 287.132812 704.972656 287.632812 704.742188 288.113281 C 704.507812 288.597656 704.234375 289.050781 703.910156 289.480469 C 703.589844 289.90625 703.230469 290.300781 702.832031 290.65625 C 702.433594 291.015625 702.003906 291.328125 701.542969 291.601562 C 701.082031 291.875 700.601562 292.097656 700.097656 292.277344 C 699.589844 292.453125 699.074219 292.582031 698.542969 292.65625 C 698.015625 292.730469 697.480469 292.753906 696.949219 292.726562 C 677.367188 291.65625 657.488281 289.660156 637.851562 286.773438 C 637.140625 286.671875 636.457031 286.476562 635.800781 286.191406 C 635.140625 285.910156 634.53125 285.546875 633.96875 285.101562 C 633.40625 284.65625 632.914062 284.144531 632.484375 283.570312 C 632.058594 282.996094 631.714844 282.375 631.449219 281.707031 Z M 748.457031 288.015625 C 748.113281 287.152344 747.921875 286.257812 747.890625 285.328125 C 747.871094 284.792969 747.898438 284.261719 747.984375 283.734375 C 748.066406 283.207031 748.199219 282.691406 748.382812 282.1875 C 748.570312 281.6875 748.800781 281.207031 749.078125 280.75 C 749.359375 280.292969 749.679688 279.867188 750.042969 279.476562 C 750.40625 279.082031 750.804688 278.726562 751.234375 278.414062 C 751.667969 278.097656 752.128906 277.828125 752.613281 277.605469 C 753.097656 277.378906 753.601562 277.203125 754.121094 277.078125 C 754.644531 276.953125 755.171875 276.882812 755.707031 276.859375 C 774.882812 276.089844 794.289062 274.390625 813.339844 271.816406 C 813.863281 271.761719 814.386719 271.753906 814.910156 271.796875 C 815.433594 271.84375 815.949219 271.9375 816.453125 272.078125 C 816.960938 272.222656 817.445312 272.414062 817.914062 272.652344 C 818.386719 272.890625 818.828125 273.171875 819.242188 273.492188 C 819.65625 273.816406 820.035156 274.175781 820.378906 274.574219 C 820.726562 274.972656 821.027344 275.398438 821.289062 275.855469 C 821.554688 276.308594 821.769531 276.785156 821.9375 277.285156 C 822.109375 277.78125 822.230469 278.289062 822.300781 278.8125 C 822.371094 279.332031 822.394531 279.855469 822.363281 280.378906 C 822.332031 280.90625 822.253906 281.421875 822.125 281.933594 C 821.992188 282.441406 821.816406 282.933594 821.589844 283.410156 C 821.367188 283.882812 821.097656 284.332031 820.785156 284.757812 C 820.472656 285.179688 820.121094 285.570312 819.734375 285.925781 C 819.347656 286.28125 818.929688 286.59375 818.480469 286.867188 C 818.03125 287.144531 817.5625 287.371094 817.070312 287.554688 C 816.578125 287.738281 816.070312 287.875 815.550781 287.957031 C 795.964844 290.609375 776.050781 292.351562 756.355469 293.144531 C 755.511719 293.179688 754.683594 293.082031 753.871094 292.859375 C 753.058594 292.636719 752.296875 292.292969 751.589844 291.835938 C 750.882812 291.375 750.261719 290.820312 749.726562 290.167969 C 749.191406 289.515625 748.769531 288.800781 748.457031 288.015625 Z M 864.578125 272.308594 C 864.425781 271.929688 864.304688 271.539062 864.210938 271.136719 C 864.089844 270.617188 864.019531 270.085938 864.003906 269.550781 C 863.984375 269.015625 864.019531 268.484375 864.105469 267.957031 C 864.195312 267.429688 864.332031 266.914062 864.519531 266.414062 C 864.707031 265.914062 864.945312 265.433594 865.226562 264.980469 C 865.507812 264.527344 865.832031 264.101562 866.199219 263.710938 C 866.566406 263.320312 866.964844 262.96875 867.402344 262.660156 C 867.835938 262.347656 868.296875 262.082031 868.785156 261.859375 C 869.273438 261.640625 869.777344 261.46875 870.300781 261.347656 C 889.070312 256.980469 907.800781 251.664062 925.980469 245.5625 C 926.488281 245.390625 927.007812 245.269531 927.542969 245.199219 C 928.074219 245.132812 928.605469 245.117188 929.140625 245.152344 C 929.675781 245.1875 930.203125 245.277344 930.722656 245.417969 C 931.238281 245.554688 931.738281 245.746094 932.21875 245.984375 C 932.699219 246.222656 933.152344 246.503906 933.578125 246.832031 C 934 247.160156 934.390625 247.527344 934.742188 247.929688 C 935.09375 248.335938 935.402344 248.769531 935.671875 249.234375 C 935.9375 249.699219 936.15625 250.1875 936.328125 250.695312 C 936.496094 251.203125 936.617188 251.726562 936.683594 252.257812 C 936.753906 252.789062 936.769531 253.324219 936.730469 253.859375 C 936.695312 254.394531 936.605469 254.917969 936.464844 255.4375 C 936.324219 255.953125 936.132812 256.453125 935.894531 256.933594 C 935.65625 257.414062 935.371094 257.863281 935.042969 258.289062 C 934.714844 258.714844 934.347656 259.101562 933.945312 259.453125 C 933.539062 259.804688 933.105469 260.113281 932.636719 260.378906 C 932.171875 260.644531 931.6875 260.863281 931.175781 261.035156 C 912.511719 267.304688 893.28125 272.761719 874.003906 277.246094 C 873.53125 277.355469 873.054688 277.421875 872.570312 277.449219 C 872.085938 277.472656 871.605469 277.453125 871.125 277.394531 C 870.644531 277.332031 870.171875 277.230469 869.710938 277.082031 C 869.246094 276.9375 868.800781 276.753906 868.375 276.527344 C 867.945312 276.304688 867.539062 276.042969 867.15625 275.746094 C 866.773438 275.449219 866.421875 275.121094 866.097656 274.761719 C 865.773438 274.398438 865.484375 274.015625 865.230469 273.601562 C 864.972656 273.191406 864.757812 272.757812 864.578125 272.308594 Z M 975.632812 234.953125 C 975.441406 234.46875 975.296875 233.972656 975.199219 233.460938 C 975.101562 232.945312 975.054688 232.429688 975.058594 231.910156 C 975.058594 231.386719 975.113281 230.871094 975.214844 230.359375 C 975.316406 229.851562 975.464844 229.351562 975.660156 228.871094 C 975.855469 228.386719 976.097656 227.929688 976.382812 227.492188 C 976.667969 227.054688 976.992188 226.652344 977.355469 226.277344 C 977.71875 225.902344 978.113281 225.566406 978.539062 225.265625 C 978.964844 224.96875 979.417969 224.714844 979.894531 224.503906 C 997.519531 216.605469 1014.863281 207.78125 1031.433594 198.269531 C 1031.894531 197.988281 1032.382812 197.753906 1032.894531 197.570312 C 1033.40625 197.386719 1033.929688 197.257812 1034.46875 197.179688 C 1035.003906 197.097656 1035.542969 197.074219 1036.085938 197.101562 C 1036.628906 197.132812 1037.164062 197.214844 1037.6875 197.351562 C 1038.214844 197.484375 1038.722656 197.671875 1039.210938 197.910156 C 1039.699219 198.148438 1040.15625 198.429688 1040.589844 198.757812 C 1041.023438 199.089844 1041.417969 199.457031 1041.773438 199.863281 C 1042.132812 200.273438 1042.449219 200.710938 1042.71875 201.183594 C 1042.988281 201.652344 1043.210938 202.148438 1043.382812 202.660156 C 1043.554688 203.175781 1043.671875 203.703125 1043.738281 204.242188 C 1043.804688 204.78125 1043.816406 205.320312 1043.777344 205.863281 C 1043.734375 206.40625 1043.640625 206.9375 1043.492188 207.457031 C 1043.34375 207.980469 1043.144531 208.484375 1042.898438 208.964844 C 1042.648438 209.449219 1042.355469 209.902344 1042.015625 210.328125 C 1041.679688 210.75 1041.300781 211.136719 1040.882812 211.488281 C 1040.46875 211.835938 1040.023438 212.140625 1039.546875 212.398438 C 1022.507812 222.179688 1004.679688 231.261719 986.554688 239.378906 C 986.066406 239.59375 985.5625 239.761719 985.039062 239.882812 C 984.515625 240 983.988281 240.066406 983.453125 240.082031 C 982.917969 240.09375 982.386719 240.058594 981.855469 239.964844 C 981.328125 239.875 980.816406 239.734375 980.316406 239.542969 C 979.816406 239.351562 979.339844 239.109375 978.886719 238.824219 C 978.433594 238.539062 978.011719 238.210938 977.625 237.84375 C 977.234375 237.472656 976.886719 237.070312 976.578125 236.632812 C 976.269531 236.195312 976.007812 235.730469 975.789062 235.242188 Z M 1077.148438 176.578125 C 1076.816406 175.734375 1076.628906 174.859375 1076.585938 173.949219 C 1076.542969 173.042969 1076.648438 172.15625 1076.902344 171.285156 C 1077.15625 170.414062 1077.546875 169.605469 1078.070312 168.863281 C 1078.59375 168.125 1079.222656 167.488281 1079.957031 166.957031 C 1095.597656 155.675781 1110.585938 143.589844 1124.925781 130.699219 C 1125.320312 130.328125 1125.75 129.996094 1126.210938 129.707031 C 1126.671875 129.417969 1127.15625 129.179688 1127.664062 128.988281 C 1128.175781 128.796875 1128.699219 128.660156 1129.234375 128.570312 C 1129.769531 128.484375 1130.3125 128.453125 1130.855469 128.476562 C 1131.398438 128.496094 1131.933594 128.570312 1132.460938 128.699219 C 1132.988281 128.828125 1133.5 129.007812 1133.992188 129.242188 C 1134.484375 129.472656 1134.949219 129.75 1135.386719 130.074219 C 1135.824219 130.398438 1136.222656 130.761719 1136.585938 131.164062 C 1136.949219 131.570312 1137.269531 132.003906 1137.546875 132.472656 C 1137.824219 132.941406 1138.050781 133.433594 1138.230469 133.945312 C 1138.40625 134.460938 1138.53125 134.984375 1138.605469 135.523438 C 1138.679688 136.0625 1138.699219 136.605469 1138.660156 137.148438 C 1138.625 137.6875 1138.539062 138.222656 1138.394531 138.746094 C 1138.253906 139.273438 1138.0625 139.777344 1137.816406 140.265625 C 1137.574219 140.75 1137.285156 141.207031 1136.949219 141.636719 C 1136.617188 142.0625 1136.242188 142.457031 1135.828125 142.808594 C 1121.054688 156.101562 1105.613281 168.558594 1089.496094 180.1875 C 1089.0625 180.5 1088.601562 180.769531 1088.117188 180.988281 C 1087.628906 181.210938 1087.125 181.382812 1086.605469 181.507812 C 1086.082031 181.628906 1085.554688 181.699219 1085.019531 181.71875 C 1084.488281 181.738281 1083.957031 181.707031 1083.425781 181.621094 C 1082.898438 181.535156 1082.382812 181.398438 1081.882812 181.210938 C 1081.382812 181.023438 1080.902344 180.789062 1080.449219 180.507812 C 1079.992188 180.230469 1079.570312 179.90625 1079.175781 179.542969 C 1078.785156 179.175781 1078.433594 178.777344 1078.121094 178.34375 C 1077.722656 177.792969 1077.402344 177.207031 1077.148438 176.578125 Z M 1077.148438 176.578125 " fill-opacity="1" fill-rule="nonzero"/></g></g></g></g></svg>