<svg xmlns="http://www.w3.org/2000/svg" xmlns:xlink="http://www.w3.org/1999/xlink" width="1920" zoomAndPan="magnify" viewBox="0 0 1440 809.999993" height="1080" preserveAspectRatio="xMidYMid meet" version="1.0"><defs><clipPath id="64336c60a2"><path d="M 406.5 81 L 1134 81 L 1134 436 L 406.5 436 Z M 406.5 81 " clip-rule="nonzero"/></clipPath><clipPath id="fa539f38d1"><path d="M 392.398438 424 L 1115.398438 424 L 1115.398438 777 L 392.398438 777 Z M 392.398438 424 " clip-rule="nonzero"/></clipPath></defs><rect x="-144" width="1728" fill="#ffffff" y="-80.999999" height="971.999992" fill-opacity="1"/><rect x="-144" width="1728" fill="#5ce1e6" y="-80.999999" height="971.999992" fill-opacity="1"/><g clip-path="url(#64336c60a2)"><path fill="#010101" d="M 533.808594 163.859375 L 540.273438 171.617188 C 535.101562 176.214844 529.785156 180.523438 524.898438 185.410156 L 517.429688 192.59375 L 510.242188 200.0625 L 502.914062 193.167969 L 510.242188 185.410156 L 518.003906 178.082031 C 523.03125 172.910156 528.492188 168.457031 533.808594 163.859375 Z M 640.136719 102.660156 C 636.832031 103.808594 633.527344 105.246094 630.222656 106.539062 C 623.613281 108.980469 617.148438 111.996094 610.683594 115.015625 L 614.992188 124.210938 C 621.316406 121.335938 627.492188 118.460938 633.960938 116.019531 C 637.121094 114.726562 640.28125 113.433594 643.585938 112.285156 L 653.359375 108.980469 L 650.195312 99.355469 Z M 673.472656 92.460938 L 675.917969 102.230469 C 689.28125 99.066406 702.789062 96.195312 716.582031 94.613281 L 715.289062 84.558594 C 701.207031 86.28125 687.269531 89.15625 673.472656 92.460938 Z M 480.210938 219.601562 L 476.90625 223.769531 L 473.890625 228.078125 L 467.710938 236.699219 C 465.699219 239.570312 463.832031 242.585938 461.964844 245.605469 L 470.441406 251.0625 C 472.308594 248.191406 474.175781 245.171875 476.046875 242.445312 L 482.082031 233.96875 L 485.097656 229.800781 L 488.257812 225.777344 L 494.582031 217.589844 L 486.820312 211.125 Z M 420.148438 338.269531 C 419.144531 341.714844 418.136719 345.019531 417.277344 348.46875 L 414.976562 358.957031 L 413.828125 364.128906 L 412.820312 369.300781 L 422.738281 371.167969 L 423.597656 366.136719 L 424.746094 361.109375 L 427.046875 351.054688 C 427.910156 347.75 428.914062 344.445312 429.777344 341.140625 C 430.78125 337.835938 431.5 334.53125 432.652344 331.226562 L 423.023438 328.210938 C 422.019531 331.371094 421.300781 334.820312 420.148438 338.269531 Z M 407.21875 414.554688 C 406.785156 421.59375 406.785156 428.777344 406.5 435.816406 L 416.558594 435.816406 C 416.84375 428.917969 416.703125 422.023438 417.277344 415.128906 C 417.851562 408.230469 418.136719 401.335938 419.144531 394.582031 L 409.085938 393.433594 C 408.078125 400.332031 407.792969 407.511719 407.21875 414.554688 Z M 431.5 305.226562 L 440.839844 308.960938 C 445.726562 296.03125 451.90625 283.675781 458.371094 271.464844 L 449.460938 266.578125 C 442.851562 279.222656 436.53125 292.007812 431.5 305.226562 Z M 753.941406 81.683594 C 749.199219 81.828125 744.3125 81.828125 739.570312 82.257812 L 740.144531 92.316406 C 744.601562 92.027344 749.199219 91.886719 753.796875 91.886719 C 758.539062 91.742188 763.28125 91.742188 768.023438 91.886719 C 772.621094 92.027344 777.074219 92.027344 781.671875 92.316406 L 782.246094 82.257812 C 777.503906 81.972656 772.621094 81.828125 767.878906 81.683594 C 763.136719 81.683594 758.539062 81.683594 753.941406 81.683594 Z M 570.738281 136.996094 C 567.71875 138.863281 564.703125 140.730469 561.828125 142.742188 L 553.207031 148.917969 L 559.097656 157.109375 L 567.574219 151.074219 C 570.449219 149.0625 573.324219 147.339844 576.195312 145.472656 C 581.945312 141.59375 587.980469 138.289062 593.871094 134.839844 L 588.984375 126.078125 C 582.804688 129.523438 576.628906 132.972656 570.738281 136.996094 Z M 1053.964844 236.839844 L 1047.785156 228.222656 L 1044.769531 223.910156 L 1041.464844 219.746094 L 1034.855469 211.414062 L 1027.09375 217.878906 L 1033.417969 226.066406 L 1036.578125 230.089844 L 1039.59375 234.253906 L 1045.628906 242.730469 C 1047.640625 245.605469 1049.367188 248.476562 1051.234375 251.351562 L 1059.710938 245.890625 C 1057.84375 242.730469 1055.976562 239.714844 1053.964844 236.839844 Z M 1090.175781 305.226562 C 1085.144531 292.007812 1078.824219 279.222656 1072.210938 266.722656 L 1063.304688 271.609375 C 1069.769531 283.820312 1075.804688 296.175781 1080.835938 309.105469 Z M 1003.671875 177.9375 C 998.644531 172.910156 993.039062 168.457031 987.722656 163.714844 L 981.257812 171.472656 C 986.429688 176.070312 991.746094 180.382812 996.632812 185.265625 L 1004.105469 192.449219 L 1011.289062 199.917969 L 1018.617188 193.023438 L 1011.289062 185.265625 Z M 804.949219 94.613281 C 818.601562 96.195312 832.109375 99.066406 845.613281 102.230469 L 848.058594 92.460938 C 834.261719 89.15625 820.324219 86.28125 806.242188 84.558594 Z M 881.535156 102.660156 L 871.480469 99.210938 L 868.316406 108.835938 L 878.089844 112.140625 C 881.394531 113.289062 884.554688 114.582031 887.714844 115.875 C 894.179688 118.320312 900.359375 121.191406 906.683594 124.066406 L 910.992188 114.871094 C 904.527344 111.996094 898.0625 108.980469 891.453125 106.394531 C 888.148438 105.246094 884.839844 103.953125 881.535156 102.660156 Z M 950.9375 136.996094 C 945.046875 132.972656 938.867188 129.667969 932.691406 126.078125 L 927.804688 134.839844 C 933.839844 138.289062 939.875 141.59375 945.480469 145.472656 C 948.351562 147.339844 951.371094 149.207031 954.101562 151.074219 L 962.578125 157.109375 L 968.46875 148.917969 L 959.847656 142.742188 C 956.972656 140.730469 953.957031 138.863281 950.9375 136.996094 Z M 1051.523438 342.433594 L 1083.851562 371.453125 L 1116.183594 400.472656 L 1125.089844 357.949219 L 1134 315.425781 Z M 1051.523438 342.433594 " fill-opacity="1" fill-rule="nonzero"/></g><g clip-path="url(#fa539f38d1)"><path fill="#010101" d="M 988.875 694.757812 L 982.449219 687.046875 C 987.589844 682.480469 992.875 678.199219 997.730469 673.34375 L 1005.15625 666.207031 L 1012.296875 658.785156 L 1019.578125 665.636719 L 1012.296875 673.34375 L 1004.585938 680.625 C 999.585938 685.765625 994.160156 690.1875 988.875 694.757812 Z M 883.203125 755.570312 C 886.488281 754.425781 889.773438 753 893.058594 751.714844 C 899.625 749.289062 906.050781 746.289062 912.476562 743.292969 L 908.195312 734.15625 C 901.910156 737.011719 895.769531 739.867188 889.34375 742.292969 C 886.203125 743.578125 883.0625 744.863281 879.777344 746.003906 L 870.066406 749.289062 L 873.207031 758.851562 Z M 850.074219 765.703125 L 847.648438 755.996094 C 834.367188 759.136719 820.941406 761.992188 807.234375 763.5625 L 808.519531 773.554688 C 822.511719 771.84375 836.367188 768.988281 850.074219 765.703125 Z M 1042.140625 639.371094 L 1045.425781 635.230469 L 1048.425781 630.945312 L 1054.566406 622.382812 C 1056.5625 619.527344 1058.421875 616.527344 1060.277344 613.53125 L 1051.851562 608.105469 C 1049.996094 610.960938 1048.140625 613.960938 1046.28125 616.671875 L 1040.285156 625.09375 L 1037.285156 629.234375 L 1034.144531 633.230469 L 1027.859375 641.367188 L 1035.574219 647.792969 Z M 1101.832031 521.457031 C 1102.832031 518.03125 1103.832031 514.746094 1104.6875 511.320312 L 1106.972656 500.898438 L 1108.113281 495.761719 L 1109.113281 490.621094 L 1099.261719 488.765625 L 1098.40625 493.761719 L 1097.261719 498.757812 L 1094.976562 508.75 C 1094.121094 512.035156 1093.121094 515.316406 1092.265625 518.601562 C 1091.265625 521.882812 1090.550781 525.167969 1089.410156 528.449219 L 1098.976562 531.449219 C 1099.976562 528.308594 1100.691406 524.882812 1101.832031 521.457031 Z M 1114.683594 445.65625 C 1115.113281 438.660156 1115.113281 431.523438 1115.398438 424.527344 L 1105.402344 424.527344 C 1105.117188 431.378906 1105.257812 438.230469 1104.6875 445.082031 C 1104.117188 451.9375 1103.832031 458.789062 1102.832031 465.496094 L 1112.828125 466.640625 C 1113.828125 459.785156 1114.113281 452.648438 1114.683594 445.65625 Z M 1090.550781 554.289062 L 1081.269531 550.578125 C 1076.414062 563.425781 1070.273438 575.703125 1063.847656 587.835938 L 1072.699219 592.6875 C 1079.269531 580.128906 1085.550781 567.421875 1090.550781 554.289062 Z M 770.105469 776.410156 C 774.816406 776.269531 779.671875 776.269531 784.386719 775.839844 L 783.816406 765.847656 C 779.386719 766.132812 774.816406 766.277344 770.25 766.277344 C 765.535156 766.417969 760.824219 766.417969 756.113281 766.277344 C 751.542969 766.132812 747.113281 766.132812 742.546875 765.847656 L 741.972656 775.839844 C 746.6875 776.125 751.542969 776.269531 756.253906 776.410156 C 760.964844 776.410156 765.535156 776.410156 770.105469 776.410156 Z M 952.175781 721.453125 C 955.175781 719.597656 958.175781 717.742188 961.03125 715.742188 L 969.597656 709.601562 L 963.742188 701.464844 L 955.316406 707.460938 C 952.460938 709.460938 949.605469 711.171875 946.75 713.03125 C 941.039062 716.882812 935.039062 720.167969 929.1875 723.59375 L 934.042969 732.300781 C 940.179688 728.875 946.320312 725.449219 952.175781 721.453125 Z M 471.9375 622.238281 L 478.078125 630.804688 L 481.078125 635.085938 L 484.363281 639.226562 L 490.929688 647.507812 L 498.640625 641.082031 L 492.359375 632.945312 L 489.214844 628.949219 L 486.21875 624.808594 L 480.21875 616.386719 C 478.222656 613.53125 476.507812 610.675781 474.652344 607.820312 L 466.226562 613.246094 C 468.082031 616.386719 469.9375 619.382812 471.9375 622.238281 Z M 435.953125 554.289062 C 440.949219 567.421875 447.234375 580.128906 453.800781 592.546875 L 462.65625 587.691406 C 456.230469 575.558594 450.230469 563.28125 445.234375 550.433594 Z M 521.917969 680.765625 C 526.917969 685.765625 532.484375 690.1875 537.769531 694.898438 L 544.195312 687.191406 C 539.054688 682.625 533.769531 678.339844 528.914062 673.488281 L 521.488281 666.347656 L 514.351562 658.925781 L 507.066406 665.777344 L 514.351562 673.488281 Z M 719.410156 763.5625 C 705.84375 761.992188 692.421875 759.136719 679 755.996094 L 676.570312 765.703125 C 690.28125 768.988281 704.132812 771.84375 718.125 773.554688 Z M 643.296875 755.570312 L 653.292969 758.996094 L 656.4375 749.429688 L 646.726562 746.148438 C 643.441406 745.007812 640.300781 743.722656 637.160156 742.4375 C 630.730469 740.007812 624.59375 737.15625 618.308594 734.300781 L 614.023438 743.4375 C 620.449219 746.289062 626.875 749.289062 633.445312 751.859375 C 636.730469 753 640.015625 754.285156 643.296875 755.570312 Z M 574.324219 721.453125 C 580.179688 725.449219 586.320312 728.730469 592.460938 732.300781 L 597.316406 723.59375 C 591.320312 720.167969 585.320312 716.882812 579.753906 713.03125 C 576.894531 711.171875 573.898438 709.316406 571.183594 707.460938 L 562.757812 701.464844 L 556.90625 709.601562 L 565.472656 715.742188 C 568.328125 717.742188 571.328125 719.597656 574.324219 721.453125 Z M 474.367188 517.316406 L 442.234375 488.480469 L 410.105469 459.644531 L 401.25 501.898438 L 392.398438 544.152344 Z M 474.367188 517.316406 " fill-opacity="1" fill-rule="nonzero"/></g></svg>