<svg xmlns="http://www.w3.org/2000/svg" xmlns:xlink="http://www.w3.org/1999/xlink" width="1920" zoomAndPan="magnify" viewBox="0 0 1440 809.999993" height="1080" preserveAspectRatio="xMidYMid meet" version="1.0"><defs><clipPath id="8bf33ae06d"><path d="M 432 469 L 459 469 L 459 487 L 432 487 Z M 432 469 " clip-rule="nonzero"/></clipPath><clipPath id="dbf76856a2"><path d="M 548.371094 -143.980469 L 1280.21875 286.371094 L 845.300781 1025.976562 L 113.457031 595.621094 Z M 548.371094 -143.980469 " clip-rule="nonzero"/></clipPath><clipPath id="33a4aa992a"><path d="M 548.371094 -143.980469 L 1280.21875 286.371094 L 845.300781 1025.976562 L 113.457031 595.621094 Z M 548.371094 -143.980469 " clip-rule="nonzero"/></clipPath><clipPath id="71289d5e73"><path d="M 548.371094 -143.980469 L 1280.21875 286.371094 L 845.300781 1025.976562 L 113.457031 595.621094 Z M 548.371094 -143.980469 " clip-rule="nonzero"/></clipPath><clipPath id="512ab6a15f"><path d="M 372 552 L 399 552 L 399 569 L 372 569 Z M 372 552 " clip-rule="nonzero"/></clipPath><clipPath id="1a9e6d114f"><path d="M 548.371094 -143.980469 L 1280.21875 286.371094 L 845.300781 1025.976562 L 113.457031 595.621094 Z M 548.371094 -143.980469 " clip-rule="nonzero"/></clipPath><clipPath id="a685158f70"><path d="M 548.371094 -143.980469 L 1280.21875 286.371094 L 845.300781 1025.976562 L 113.457031 595.621094 Z M 548.371094 -143.980469 " clip-rule="nonzero"/></clipPath><clipPath id="ffd758e091"><path d="M 548.371094 -143.980469 L 1280.21875 286.371094 L 845.300781 1025.976562 L 113.457031 595.621094 Z M 548.371094 -143.980469 " clip-rule="nonzero"/></clipPath><clipPath id="46cc4287b2"><path d="M 419 530 L 446 530 L 446 549 L 419 549 Z M 419 530 " clip-rule="nonzero"/></clipPath><clipPath id="2232a56d02"><path d="M 548.371094 -143.980469 L 1280.21875 286.371094 L 845.300781 1025.976562 L 113.457031 595.621094 Z M 548.371094 -143.980469 " clip-rule="nonzero"/></clipPath><clipPath id="8470810960"><path d="M 548.371094 -143.980469 L 1280.21875 286.371094 L 845.300781 1025.976562 L 113.457031 595.621094 Z M 548.371094 -143.980469 " clip-rule="nonzero"/></clipPath><clipPath id="8d98b5a528"><path d="M 548.371094 -143.980469 L 1280.21875 286.371094 L 845.300781 1025.976562 L 113.457031 595.621094 Z M 548.371094 -143.980469 " clip-rule="nonzero"/></clipPath><clipPath id="1e6f16b14f"><path d="M 322 570 L 350 570 L 350 584 L 322 584 Z M 322 570 " clip-rule="nonzero"/></clipPath><clipPath id="e18f79c3fe"><path d="M 548.371094 -143.980469 L 1280.21875 286.371094 L 845.300781 1025.976562 L 113.457031 595.621094 Z M 548.371094 -143.980469 " clip-rule="nonzero"/></clipPath><clipPath id="b5a00516bb"><path d="M 548.371094 -143.980469 L 1280.21875 286.371094 L 845.300781 1025.976562 L 113.457031 595.621094 Z M 548.371094 -143.980469 " clip-rule="nonzero"/></clipPath><clipPath id="ae464e98a4"><path d="M 548.371094 -143.980469 L 1280.21875 286.371094 L 845.300781 1025.976562 L 113.457031 595.621094 Z M 548.371094 -143.980469 " clip-rule="nonzero"/></clipPath><clipPath id="18aa327ec3"><path d="M 391 437 L 415 437 L 415 461 L 391 461 Z M 391 437 " clip-rule="nonzero"/></clipPath><clipPath id="5f29731d60"><path d="M 548.371094 -143.980469 L 1280.21875 286.371094 L 845.300781 1025.976562 L 113.457031 595.621094 Z M 548.371094 -143.980469 " clip-rule="nonzero"/></clipPath><clipPath id="ada678593b"><path d="M 548.371094 -143.980469 L 1280.21875 286.371094 L 845.300781 1025.976562 L 113.457031 595.621094 Z M 548.371094 -143.980469 " clip-rule="nonzero"/></clipPath><clipPath id="5a8fe809b1"><path d="M 548.371094 -143.980469 L 1280.21875 286.371094 L 845.300781 1025.976562 L 113.457031 595.621094 Z M 548.371094 -143.980469 " clip-rule="nonzero"/></clipPath><clipPath id="c74c2eb6bb"><path d="M 586 243 L 607 243 L 607 269 L 586 269 Z M 586 243 " clip-rule="nonzero"/></clipPath><clipPath id="87350918b7"><path d="M 548.371094 -143.980469 L 1280.21875 286.371094 L 845.300781 1025.976562 L 113.457031 595.621094 Z M 548.371094 -143.980469 " clip-rule="nonzero"/></clipPath><clipPath id="be1f55b85d"><path d="M 548.371094 -143.980469 L 1280.21875 286.371094 L 845.300781 1025.976562 L 113.457031 595.621094 Z M 548.371094 -143.980469 " clip-rule="nonzero"/></clipPath><clipPath id="e078ce040f"><path d="M 548.371094 -143.980469 L 1280.21875 286.371094 L 845.300781 1025.976562 L 113.457031 595.621094 Z M 548.371094 -143.980469 " clip-rule="nonzero"/></clipPath><clipPath id="b887d20857"><path d="M 576 389 L 596 389 L 596 415 L 576 415 Z M 576 389 " clip-rule="nonzero"/></clipPath><clipPath id="c73980913a"><path d="M 548.371094 -143.980469 L 1280.21875 286.371094 L 845.300781 1025.976562 L 113.457031 595.621094 Z M 548.371094 -143.980469 " clip-rule="nonzero"/></clipPath><clipPath id="4b2d8eb562"><path d="M 548.371094 -143.980469 L 1280.21875 286.371094 L 845.300781 1025.976562 L 113.457031 595.621094 Z M 548.371094 -143.980469 " clip-rule="nonzero"/></clipPath><clipPath id="25ffc25681"><path d="M 548.371094 -143.980469 L 1280.21875 286.371094 L 845.300781 1025.976562 L 113.457031 595.621094 Z M 548.371094 -143.980469 " clip-rule="nonzero"/></clipPath><clipPath id="d95b55ba49"><path d="M 499 194 L 527 194 L 527 206 L 499 206 Z M 499 194 " clip-rule="nonzero"/></clipPath><clipPath id="bf7720b553"><path d="M 548.371094 -143.980469 L 1280.21875 286.371094 L 845.300781 1025.976562 L 113.457031 595.621094 Z M 548.371094 -143.980469 " clip-rule="nonzero"/></clipPath><clipPath id="9e421ba43b"><path d="M 548.371094 -143.980469 L 1280.21875 286.371094 L 845.300781 1025.976562 L 113.457031 595.621094 Z M 548.371094 -143.980469 " clip-rule="nonzero"/></clipPath><clipPath id="acd42ea33f"><path d="M 548.371094 -143.980469 L 1280.21875 286.371094 L 845.300781 1025.976562 L 113.457031 595.621094 Z M 548.371094 -143.980469 " clip-rule="nonzero"/></clipPath><clipPath id="08e5f5b895"><path d="M 465 502 L 491 502 L 491 523 L 465 523 Z M 465 502 " clip-rule="nonzero"/></clipPath><clipPath id="3bb5c9c474"><path d="M 548.371094 -143.980469 L 1280.21875 286.371094 L 845.300781 1025.976562 L 113.457031 595.621094 Z M 548.371094 -143.980469 " clip-rule="nonzero"/></clipPath><clipPath id="fdec65a3ee"><path d="M 548.371094 -143.980469 L 1280.21875 286.371094 L 845.300781 1025.976562 L 113.457031 595.621094 Z M 548.371094 -143.980469 " clip-rule="nonzero"/></clipPath><clipPath id="3bbf3fd123"><path d="M 548.371094 -143.980469 L 1280.21875 286.371094 L 845.300781 1025.976562 L 113.457031 595.621094 Z M 548.371094 -143.980469 " clip-rule="nonzero"/></clipPath><clipPath id="0de9e75ac7"><path d="M 544 431 L 566 431 L 566 456 L 544 456 Z M 544 431 " clip-rule="nonzero"/></clipPath><clipPath id="12fe9b92a9"><path d="M 548.371094 -143.980469 L 1280.21875 286.371094 L 845.300781 1025.976562 L 113.457031 595.621094 Z M 548.371094 -143.980469 " clip-rule="nonzero"/></clipPath><clipPath id="ba5a5e3920"><path d="M 548.371094 -143.980469 L 1280.21875 286.371094 L 845.300781 1025.976562 L 113.457031 595.621094 Z M 548.371094 -143.980469 " clip-rule="nonzero"/></clipPath><clipPath id="0a66aa2a8f"><path d="M 548.371094 -143.980469 L 1280.21875 286.371094 L 845.300781 1025.976562 L 113.457031 595.621094 Z M 548.371094 -143.980469 " clip-rule="nonzero"/></clipPath><clipPath id="c47a19365b"><path d="M 506 469 L 531 469 L 531 492 L 506 492 Z M 506 469 " clip-rule="nonzero"/></clipPath><clipPath id="4d5d53cbf6"><path d="M 548.371094 -143.980469 L 1280.21875 286.371094 L 845.300781 1025.976562 L 113.457031 595.621094 Z M 548.371094 -143.980469 " clip-rule="nonzero"/></clipPath><clipPath id="0cc32d2062"><path d="M 548.371094 -143.980469 L 1280.21875 286.371094 L 845.300781 1025.976562 L 113.457031 595.621094 Z M 548.371094 -143.980469 " clip-rule="nonzero"/></clipPath><clipPath id="ebf291e037"><path d="M 548.371094 -143.980469 L 1280.21875 286.371094 L 845.300781 1025.976562 L 113.457031 595.621094 Z M 548.371094 -143.980469 " clip-rule="nonzero"/></clipPath><clipPath id="17c3a2678f"><path d="M 481 488 L 509 488 L 509 501 L 481 501 Z M 481 488 " clip-rule="nonzero"/></clipPath><clipPath id="8fce42d0fa"><path d="M 548.371094 -143.980469 L 1280.21875 286.371094 L 845.300781 1025.976562 L 113.457031 595.621094 Z M 548.371094 -143.980469 " clip-rule="nonzero"/></clipPath><clipPath id="ba298bc276"><path d="M 548.371094 -143.980469 L 1280.21875 286.371094 L 845.300781 1025.976562 L 113.457031 595.621094 Z M 548.371094 -143.980469 " clip-rule="nonzero"/></clipPath><clipPath id="56cc6926b4"><path d="M 548.371094 -143.980469 L 1280.21875 286.371094 L 845.300781 1025.976562 L 113.457031 595.621094 Z M 548.371094 -143.980469 " clip-rule="nonzero"/></clipPath><clipPath id="1d56844726"><path d="M 400 210 L 426 210 L 426 231 L 400 231 Z M 400 210 " clip-rule="nonzero"/></clipPath><clipPath id="66935a77e6"><path d="M 548.371094 -143.980469 L 1280.21875 286.371094 L 845.300781 1025.976562 L 113.457031 595.621094 Z M 548.371094 -143.980469 " clip-rule="nonzero"/></clipPath><clipPath id="d207577ab6"><path d="M 548.371094 -143.980469 L 1280.21875 286.371094 L 845.300781 1025.976562 L 113.457031 595.621094 Z M 548.371094 -143.980469 " clip-rule="nonzero"/></clipPath><clipPath id="8528d0134f"><path d="M 548.371094 -143.980469 L 1280.21875 286.371094 L 845.300781 1025.976562 L 113.457031 595.621094 Z M 548.371094 -143.980469 " clip-rule="nonzero"/></clipPath><clipPath id="c7e0412df2"><path d="M 447 194 L 474 194 L 474 207 L 447 207 Z M 447 194 " clip-rule="nonzero"/></clipPath><clipPath id="b1867a5454"><path d="M 548.371094 -143.980469 L 1280.21875 286.371094 L 845.300781 1025.976562 L 113.457031 595.621094 Z M 548.371094 -143.980469 " clip-rule="nonzero"/></clipPath><clipPath id="bdfeda7483"><path d="M 548.371094 -143.980469 L 1280.21875 286.371094 L 845.300781 1025.976562 L 113.457031 595.621094 Z M 548.371094 -143.980469 " clip-rule="nonzero"/></clipPath><clipPath id="0d4c7e0a0b"><path d="M 548.371094 -143.980469 L 1280.21875 286.371094 L 845.300781 1025.976562 L 113.457031 595.621094 Z M 548.371094 -143.980469 " clip-rule="nonzero"/></clipPath><clipPath id="0157229e20"><path d="M 368 245 L 388 245 L 388 271 L 368 271 Z M 368 245 " clip-rule="nonzero"/></clipPath><clipPath id="9719ebd8f0"><path d="M 548.371094 -143.980469 L 1280.21875 286.371094 L 845.300781 1025.976562 L 113.457031 595.621094 Z M 548.371094 -143.980469 " clip-rule="nonzero"/></clipPath><clipPath id="432569492c"><path d="M 548.371094 -143.980469 L 1280.21875 286.371094 L 845.300781 1025.976562 L 113.457031 595.621094 Z M 548.371094 -143.980469 " clip-rule="nonzero"/></clipPath><clipPath id="2f640a6ed0"><path d="M 548.371094 -143.980469 L 1280.21875 286.371094 L 845.300781 1025.976562 L 113.457031 595.621094 Z M 548.371094 -143.980469 " clip-rule="nonzero"/></clipPath><clipPath id="197cb895a8"><path d="M 271 582 L 299 582 L 299 594 L 271 594 Z M 271 582 " clip-rule="nonzero"/></clipPath><clipPath id="acf11a867a"><path d="M 548.371094 -143.980469 L 1280.21875 286.371094 L 845.300781 1025.976562 L 113.457031 595.621094 Z M 548.371094 -143.980469 " clip-rule="nonzero"/></clipPath><clipPath id="f924d9e3b3"><path d="M 548.371094 -143.980469 L 1280.21875 286.371094 L 845.300781 1025.976562 L 113.457031 595.621094 Z M 548.371094 -143.980469 " clip-rule="nonzero"/></clipPath><clipPath id="2049826bd6"><path d="M 548.371094 -143.980469 L 1280.21875 286.371094 L 845.300781 1025.976562 L 113.457031 595.621094 Z M 548.371094 -143.980469 " clip-rule="nonzero"/></clipPath><clipPath id="7263b26e36"><path d="M 116 590 L 143 590 L 143 599 L 116 599 Z M 116 590 " clip-rule="nonzero"/></clipPath><clipPath id="dcf16c3083"><path d="M 548.371094 -143.980469 L 1280.21875 286.371094 L 845.300781 1025.976562 L 113.457031 595.621094 Z M 548.371094 -143.980469 " clip-rule="nonzero"/></clipPath><clipPath id="1dbfe69e81"><path d="M 548.371094 -143.980469 L 1280.21875 286.371094 L 845.300781 1025.976562 L 113.457031 595.621094 Z M 548.371094 -143.980469 " clip-rule="nonzero"/></clipPath><clipPath id="85d0971876"><path d="M 548.371094 -143.980469 L 1280.21875 286.371094 L 845.300781 1025.976562 L 113.457031 595.621094 Z M 548.371094 -143.980469 " clip-rule="nonzero"/></clipPath><clipPath id="2355fe07d3"><path d="M 546 210 L 572 210 L 572 231 L 546 231 Z M 546 210 " clip-rule="nonzero"/></clipPath><clipPath id="afe52c8198"><path d="M 548.371094 -143.980469 L 1280.21875 286.371094 L 845.300781 1025.976562 L 113.457031 595.621094 Z M 548.371094 -143.980469 " clip-rule="nonzero"/></clipPath><clipPath id="4468f6ad6c"><path d="M 548.371094 -143.980469 L 1280.21875 286.371094 L 845.300781 1025.976562 L 113.457031 595.621094 Z M 548.371094 -143.980469 " clip-rule="nonzero"/></clipPath><clipPath id="71fd39bcb6"><path d="M 548.371094 -143.980469 L 1280.21875 286.371094 L 845.300781 1025.976562 L 113.457031 595.621094 Z M 548.371094 -143.980469 " clip-rule="nonzero"/></clipPath><clipPath id="d7a9b24c87"><path d="M 610 290 L 620 290 L 620 318 L 610 318 Z M 610 290 " clip-rule="nonzero"/></clipPath><clipPath id="7fc8cb96dc"><path d="M 548.371094 -143.980469 L 1280.21875 286.371094 L 845.300781 1025.976562 L 113.457031 595.621094 Z M 548.371094 -143.980469 " clip-rule="nonzero"/></clipPath><clipPath id="024ada1ba9"><path d="M 548.371094 -143.980469 L 1280.21875 286.371094 L 845.300781 1025.976562 L 113.457031 595.621094 Z M 548.371094 -143.980469 " clip-rule="nonzero"/></clipPath><clipPath id="b77c2dc61e"><path d="M 548.371094 -143.980469 L 1280.21875 286.371094 L 845.300781 1025.976562 L 113.457031 595.621094 Z M 548.371094 -143.980469 " clip-rule="nonzero"/></clipPath><clipPath id="98cff0e4c8"><path d="M 363 394 L 381 394 L 381 421 L 363 421 Z M 363 394 " clip-rule="nonzero"/></clipPath><clipPath id="ec6aec9634"><path d="M 548.371094 -143.980469 L 1280.21875 286.371094 L 845.300781 1025.976562 L 113.457031 595.621094 Z M 548.371094 -143.980469 " clip-rule="nonzero"/></clipPath><clipPath id="ef50b1c67c"><path d="M 548.371094 -143.980469 L 1280.21875 286.371094 L 845.300781 1025.976562 L 113.457031 595.621094 Z M 548.371094 -143.980469 " clip-rule="nonzero"/></clipPath><clipPath id="26718690d5"><path d="M 548.371094 -143.980469 L 1280.21875 286.371094 L 845.300781 1025.976562 L 113.457031 595.621094 Z M 548.371094 -143.980469 " clip-rule="nonzero"/></clipPath><clipPath id="6901b1c241"><path d="M 352 344 L 362 344 L 362 372 L 352 372 Z M 352 344 " clip-rule="nonzero"/></clipPath><clipPath id="ebc3bfc02a"><path d="M 548.371094 -143.980469 L 1280.21875 286.371094 L 845.300781 1025.976562 L 113.457031 595.621094 Z M 548.371094 -143.980469 " clip-rule="nonzero"/></clipPath><clipPath id="70b0ee7cc8"><path d="M 548.371094 -143.980469 L 1280.21875 286.371094 L 845.300781 1025.976562 L 113.457031 595.621094 Z M 548.371094 -143.980469 " clip-rule="nonzero"/></clipPath><clipPath id="bdcf39cad3"><path d="M 548.371094 -143.980469 L 1280.21875 286.371094 L 845.300781 1025.976562 L 113.457031 595.621094 Z M 548.371094 -143.980469 " clip-rule="nonzero"/></clipPath><clipPath id="95fe35ad4a"><path d="M 168 593 L 195 593 L 195 600 L 168 600 Z M 168 593 " clip-rule="nonzero"/></clipPath><clipPath id="296eb61933"><path d="M 548.371094 -143.980469 L 1280.21875 286.371094 L 845.300781 1025.976562 L 113.457031 595.621094 Z M 548.371094 -143.980469 " clip-rule="nonzero"/></clipPath><clipPath id="7ae588140b"><path d="M 548.371094 -143.980469 L 1280.21875 286.371094 L 845.300781 1025.976562 L 113.457031 595.621094 Z M 548.371094 -143.980469 " clip-rule="nonzero"/></clipPath><clipPath id="3384cef66d"><path d="M 548.371094 -143.980469 L 1280.21875 286.371094 L 845.300781 1025.976562 L 113.457031 595.621094 Z M 548.371094 -143.980469 " clip-rule="nonzero"/></clipPath><clipPath id="a644e555e6"><path d="M 220 589 L 247 589 L 247 599 L 220 599 Z M 220 589 " clip-rule="nonzero"/></clipPath><clipPath id="c507fe7211"><path d="M 548.371094 -143.980469 L 1280.21875 286.371094 L 845.300781 1025.976562 L 113.457031 595.621094 Z M 548.371094 -143.980469 " clip-rule="nonzero"/></clipPath><clipPath id="92364ad948"><path d="M 548.371094 -143.980469 L 1280.21875 286.371094 L 845.300781 1025.976562 L 113.457031 595.621094 Z M 548.371094 -143.980469 " clip-rule="nonzero"/></clipPath><clipPath id="998d26f4d7"><path d="M 548.371094 -143.980469 L 1280.21875 286.371094 L 845.300781 1025.976562 L 113.457031 595.621094 Z M 548.371094 -143.980469 " clip-rule="nonzero"/></clipPath><clipPath id="86fe09d7bb"><path d="M 353 292 L 366 292 L 366 320 L 353 320 Z M 353 292 " clip-rule="nonzero"/></clipPath><clipPath id="f897bb5614"><path d="M 548.371094 -143.980469 L 1280.21875 286.371094 L 845.300781 1025.976562 L 113.457031 595.621094 Z M 548.371094 -143.980469 " clip-rule="nonzero"/></clipPath><clipPath id="5e190e6351"><path d="M 548.371094 -143.980469 L 1280.21875 286.371094 L 845.300781 1025.976562 L 113.457031 595.621094 Z M 548.371094 -143.980469 " clip-rule="nonzero"/></clipPath><clipPath id="9da9b978aa"><path d="M 548.371094 -143.980469 L 1280.21875 286.371094 L 845.300781 1025.976562 L 113.457031 595.621094 Z M 548.371094 -143.980469 " clip-rule="nonzero"/></clipPath><clipPath id="98e91c5c8d"><path d="M 532 498 L 560 498 L 560 507 L 532 507 Z M 532 498 " clip-rule="nonzero"/></clipPath><clipPath id="4ccdb01c9d"><path d="M 548.371094 -143.980469 L 1280.21875 286.371094 L 845.300781 1025.976562 L 113.457031 595.621094 Z M 548.371094 -143.980469 " clip-rule="nonzero"/></clipPath><clipPath id="ee6b6a0d88"><path d="M 548.371094 -143.980469 L 1280.21875 286.371094 L 845.300781 1025.976562 L 113.457031 595.621094 Z M 548.371094 -143.980469 " clip-rule="nonzero"/></clipPath><clipPath id="60c633887a"><path d="M 548.371094 -143.980469 L 1280.21875 286.371094 L 845.300781 1025.976562 L 113.457031 595.621094 Z M 548.371094 -143.980469 " clip-rule="nonzero"/></clipPath><clipPath id="2615942f8e"><path d="M 634 477 L 661 477 L 661 494 L 634 494 Z M 634 477 " clip-rule="nonzero"/></clipPath><clipPath id="9b4acedf3d"><path d="M 548.371094 -143.980469 L 1280.21875 286.371094 L 845.300781 1025.976562 L 113.457031 595.621094 Z M 548.371094 -143.980469 " clip-rule="nonzero"/></clipPath><clipPath id="88a76e258c"><path d="M 548.371094 -143.980469 L 1280.21875 286.371094 L 845.300781 1025.976562 L 113.457031 595.621094 Z M 548.371094 -143.980469 " clip-rule="nonzero"/></clipPath><clipPath id="672385e914"><path d="M 548.371094 -143.980469 L 1280.21875 286.371094 L 845.300781 1025.976562 L 113.457031 595.621094 Z M 548.371094 -143.980469 " clip-rule="nonzero"/></clipPath><clipPath id="c2f7aea122"><path d="M 1061 272 L 1089 272 L 1089 284 L 1061 284 Z M 1061 272 " clip-rule="nonzero"/></clipPath><clipPath id="26fd1f2fff"><path d="M 548.371094 -143.980469 L 1280.21875 286.371094 L 845.300781 1025.976562 L 113.457031 595.621094 Z M 548.371094 -143.980469 " clip-rule="nonzero"/></clipPath><clipPath id="89834f1297"><path d="M 548.371094 -143.980469 L 1280.21875 286.371094 L 845.300781 1025.976562 L 113.457031 595.621094 Z M 548.371094 -143.980469 " clip-rule="nonzero"/></clipPath><clipPath id="e6b998d7cd"><path d="M 548.371094 -143.980469 L 1280.21875 286.371094 L 845.300781 1025.976562 L 113.457031 595.621094 Z M 548.371094 -143.980469 " clip-rule="nonzero"/></clipPath><clipPath id="c8094ecbdb"><path d="M 974 439 L 998 439 L 998 463 L 974 463 Z M 974 439 " clip-rule="nonzero"/></clipPath><clipPath id="75b8a5d808"><path d="M 548.371094 -143.980469 L 1280.21875 286.371094 L 845.300781 1025.976562 L 113.457031 595.621094 Z M 548.371094 -143.980469 " clip-rule="nonzero"/></clipPath><clipPath id="fe18ec8614"><path d="M 548.371094 -143.980469 L 1280.21875 286.371094 L 845.300781 1025.976562 L 113.457031 595.621094 Z M 548.371094 -143.980469 " clip-rule="nonzero"/></clipPath><clipPath id="8df5988f55"><path d="M 548.371094 -143.980469 L 1280.21875 286.371094 L 845.300781 1025.976562 L 113.457031 595.621094 Z M 548.371094 -143.980469 " clip-rule="nonzero"/></clipPath><clipPath id="cd097ef9fc"><path d="M 584 494 L 612 494 L 612 506 L 584 506 Z M 584 494 " clip-rule="nonzero"/></clipPath><clipPath id="dbd5a86e39"><path d="M 548.371094 -143.980469 L 1280.21875 286.371094 L 845.300781 1025.976562 L 113.457031 595.621094 Z M 548.371094 -143.980469 " clip-rule="nonzero"/></clipPath><clipPath id="fa04d4d93f"><path d="M 548.371094 -143.980469 L 1280.21875 286.371094 L 845.300781 1025.976562 L 113.457031 595.621094 Z M 548.371094 -143.980469 " clip-rule="nonzero"/></clipPath><clipPath id="1e62df1e85"><path d="M 548.371094 -143.980469 L 1280.21875 286.371094 L 845.300781 1025.976562 L 113.457031 595.621094 Z M 548.371094 -143.980469 " clip-rule="nonzero"/></clipPath><clipPath id="c54e234952"><path d="M 876 608 L 904 608 L 904 621 L 876 621 Z M 876 608 " clip-rule="nonzero"/></clipPath><clipPath id="86187bd916"><path d="M 548.371094 -143.980469 L 1280.21875 286.371094 L 845.300781 1025.976562 L 113.457031 595.621094 Z M 548.371094 -143.980469 " clip-rule="nonzero"/></clipPath><clipPath id="4b157cd36b"><path d="M 548.371094 -143.980469 L 1280.21875 286.371094 L 845.300781 1025.976562 L 113.457031 595.621094 Z M 548.371094 -143.980469 " clip-rule="nonzero"/></clipPath><clipPath id="a701510ad7"><path d="M 548.371094 -143.980469 L 1280.21875 286.371094 L 845.300781 1025.976562 L 113.457031 595.621094 Z M 548.371094 -143.980469 " clip-rule="nonzero"/></clipPath><clipPath id="fcc7307c4e"><path d="M 1011 283 L 1038 283 L 1038 298 L 1011 298 Z M 1011 283 " clip-rule="nonzero"/></clipPath><clipPath id="d21de35554"><path d="M 548.371094 -143.980469 L 1280.21875 286.371094 L 845.300781 1025.976562 L 113.457031 595.621094 Z M 548.371094 -143.980469 " clip-rule="nonzero"/></clipPath><clipPath id="960de43ba9"><path d="M 548.371094 -143.980469 L 1280.21875 286.371094 L 845.300781 1025.976562 L 113.457031 595.621094 Z M 548.371094 -143.980469 " clip-rule="nonzero"/></clipPath><clipPath id="016e7932b0"><path d="M 548.371094 -143.980469 L 1280.21875 286.371094 L 845.300781 1025.976562 L 113.457031 595.621094 Z M 548.371094 -143.980469 " clip-rule="nonzero"/></clipPath><clipPath id="8d4aa5f77b"><path d="M 929 415 L 957 415 L 957 431 L 929 431 Z M 929 415 " clip-rule="nonzero"/></clipPath><clipPath id="dbfe6e5c31"><path d="M 548.371094 -143.980469 L 1280.21875 286.371094 L 845.300781 1025.976562 L 113.457031 595.621094 Z M 548.371094 -143.980469 " clip-rule="nonzero"/></clipPath><clipPath id="bd221e7643"><path d="M 548.371094 -143.980469 L 1280.21875 286.371094 L 845.300781 1025.976562 L 113.457031 595.621094 Z M 548.371094 -143.980469 " clip-rule="nonzero"/></clipPath><clipPath id="fda03ef24a"><path d="M 548.371094 -143.980469 L 1280.21875 286.371094 L 845.300781 1025.976562 L 113.457031 595.621094 Z M 548.371094 -143.980469 " clip-rule="nonzero"/></clipPath><clipPath id="9730f93fc7"><path d="M 832 580 L 857 580 L 857 602 L 832 602 Z M 832 580 " clip-rule="nonzero"/></clipPath><clipPath id="96c8a2ee7f"><path d="M 548.371094 -143.980469 L 1280.21875 286.371094 L 845.300781 1025.976562 L 113.457031 595.621094 Z M 548.371094 -143.980469 " clip-rule="nonzero"/></clipPath><clipPath id="4e4df21994"><path d="M 548.371094 -143.980469 L 1280.21875 286.371094 L 845.300781 1025.976562 L 113.457031 595.621094 Z M 548.371094 -143.980469 " clip-rule="nonzero"/></clipPath><clipPath id="9893c7d325"><path d="M 548.371094 -143.980469 L 1280.21875 286.371094 L 845.300781 1025.976562 L 113.457031 595.621094 Z M 548.371094 -143.980469 " clip-rule="nonzero"/></clipPath><clipPath id="ad59bac70f"><path d="M 928 608 L 955 608 L 955 622 L 928 622 Z M 928 608 " clip-rule="nonzero"/></clipPath><clipPath id="844c08f5ff"><path d="M 548.371094 -143.980469 L 1280.21875 286.371094 L 845.300781 1025.976562 L 113.457031 595.621094 Z M 548.371094 -143.980469 " clip-rule="nonzero"/></clipPath><clipPath id="363f41f621"><path d="M 548.371094 -143.980469 L 1280.21875 286.371094 L 845.300781 1025.976562 L 113.457031 595.621094 Z M 548.371094 -143.980469 " clip-rule="nonzero"/></clipPath><clipPath id="1ab48c76b7"><path d="M 548.371094 -143.980469 L 1280.21875 286.371094 L 845.300781 1025.976562 L 113.457031 595.621094 Z M 548.371094 -143.980469 " clip-rule="nonzero"/></clipPath><clipPath id="cc3406e847"><path d="M 1165 268 L 1193 268 L 1193 279 L 1165 279 Z M 1165 268 " clip-rule="nonzero"/></clipPath><clipPath id="e6313587d8"><path d="M 548.371094 -143.980469 L 1280.21875 286.371094 L 845.300781 1025.976562 L 113.457031 595.621094 Z M 548.371094 -143.980469 " clip-rule="nonzero"/></clipPath><clipPath id="50c2408e54"><path d="M 548.371094 -143.980469 L 1280.21875 286.371094 L 845.300781 1025.976562 L 113.457031 595.621094 Z M 548.371094 -143.980469 " clip-rule="nonzero"/></clipPath><clipPath id="55e40f198e"><path d="M 548.371094 -143.980469 L 1280.21875 286.371094 L 845.300781 1025.976562 L 113.457031 595.621094 Z M 548.371094 -143.980469 " clip-rule="nonzero"/></clipPath><clipPath id="95856e14cb"><path d="M 1005 532 L 1020 532 L 1020 560 L 1005 560 Z M 1005 532 " clip-rule="nonzero"/></clipPath><clipPath id="0f97970fbd"><path d="M 548.371094 -143.980469 L 1280.21875 286.371094 L 845.300781 1025.976562 L 113.457031 595.621094 Z M 548.371094 -143.980469 " clip-rule="nonzero"/></clipPath><clipPath id="c68ac635da"><path d="M 548.371094 -143.980469 L 1280.21875 286.371094 L 845.300781 1025.976562 L 113.457031 595.621094 Z M 548.371094 -143.980469 " clip-rule="nonzero"/></clipPath><clipPath id="0178bdc8f9"><path d="M 548.371094 -143.980469 L 1280.21875 286.371094 L 845.300781 1025.976562 L 113.457031 595.621094 Z M 548.371094 -143.980469 " clip-rule="nonzero"/></clipPath><clipPath id="b1d7627e4d"><path d="M 973 577 L 997 577 L 997 601 L 973 601 Z M 973 577 " clip-rule="nonzero"/></clipPath><clipPath id="28f10b7de7"><path d="M 548.371094 -143.980469 L 1280.21875 286.371094 L 845.300781 1025.976562 L 113.457031 595.621094 Z M 548.371094 -143.980469 " clip-rule="nonzero"/></clipPath><clipPath id="b247c7189f"><path d="M 548.371094 -143.980469 L 1280.21875 286.371094 L 845.300781 1025.976562 L 113.457031 595.621094 Z M 548.371094 -143.980469 " clip-rule="nonzero"/></clipPath><clipPath id="f328f8921e"><path d="M 548.371094 -143.980469 L 1280.21875 286.371094 L 845.300781 1025.976562 L 113.457031 595.621094 Z M 548.371094 -143.980469 " clip-rule="nonzero"/></clipPath><clipPath id="1cf7a45ecf"><path d="M 1005 481 L 1020 481 L 1020 508 L 1005 508 Z M 1005 481 " clip-rule="nonzero"/></clipPath><clipPath id="ae31dae385"><path d="M 548.371094 -143.980469 L 1280.21875 286.371094 L 845.300781 1025.976562 L 113.457031 595.621094 Z M 548.371094 -143.980469 " clip-rule="nonzero"/></clipPath><clipPath id="5c4f34c06e"><path d="M 548.371094 -143.980469 L 1280.21875 286.371094 L 845.300781 1025.976562 L 113.457031 595.621094 Z M 548.371094 -143.980469 " clip-rule="nonzero"/></clipPath><clipPath id="f29453e024"><path d="M 548.371094 -143.980469 L 1280.21875 286.371094 L 845.300781 1025.976562 L 113.457031 595.621094 Z M 548.371094 -143.980469 " clip-rule="nonzero"/></clipPath><clipPath id="54f2430c8a"><path d="M 1113 267 L 1140 267 L 1140 276 L 1113 276 Z M 1113 267 " clip-rule="nonzero"/></clipPath><clipPath id="ec825f7e00"><path d="M 548.371094 -143.980469 L 1280.21875 286.371094 L 845.300781 1025.976562 L 113.457031 595.621094 Z M 548.371094 -143.980469 " clip-rule="nonzero"/></clipPath><clipPath id="7ba55ae704"><path d="M 548.371094 -143.980469 L 1280.21875 286.371094 L 845.300781 1025.976562 L 113.457031 595.621094 Z M 548.371094 -143.980469 " clip-rule="nonzero"/></clipPath><clipPath id="946a757b48"><path d="M 548.371094 -143.980469 L 1280.21875 286.371094 L 845.300781 1025.976562 L 113.457031 595.621094 Z M 548.371094 -143.980469 " clip-rule="nonzero"/></clipPath><clipPath id="c209a10c67"><path d="M 775 414 L 803 414 L 803 428 L 775 428 Z M 775 414 " clip-rule="nonzero"/></clipPath><clipPath id="07dd25e3e0"><path d="M 548.371094 -143.980469 L 1280.21875 286.371094 L 845.300781 1025.976562 L 113.457031 595.621094 Z M 548.371094 -143.980469 " clip-rule="nonzero"/></clipPath><clipPath id="ba6279f574"><path d="M 548.371094 -143.980469 L 1280.21875 286.371094 L 845.300781 1025.976562 L 113.457031 595.621094 Z M 548.371094 -143.980469 " clip-rule="nonzero"/></clipPath><clipPath id="3554c4ea1d"><path d="M 548.371094 -143.980469 L 1280.21875 286.371094 L 845.300781 1025.976562 L 113.457031 595.621094 Z M 548.371094 -143.980469 " clip-rule="nonzero"/></clipPath><clipPath id="6ecfca4569"><path d="M 727 431 L 755 431 L 755 449 L 727 449 Z M 727 431 " clip-rule="nonzero"/></clipPath><clipPath id="e4b4b9f70c"><path d="M 548.371094 -143.980469 L 1280.21875 286.371094 L 845.300781 1025.976562 L 113.457031 595.621094 Z M 548.371094 -143.980469 " clip-rule="nonzero"/></clipPath><clipPath id="5ff410ff72"><path d="M 548.371094 -143.980469 L 1280.21875 286.371094 L 845.300781 1025.976562 L 113.457031 595.621094 Z M 548.371094 -143.980469 " clip-rule="nonzero"/></clipPath><clipPath id="2334cbc5a3"><path d="M 548.371094 -143.980469 L 1280.21875 286.371094 L 845.300781 1025.976562 L 113.457031 595.621094 Z M 548.371094 -143.980469 " clip-rule="nonzero"/></clipPath><clipPath id="6e97ba2328"><path d="M 827 392 L 865 392 L 865 417 L 827 417 Z M 827 392 " clip-rule="nonzero"/></clipPath><clipPath id="d2bf38aba6"><path d="M 548.371094 -143.980469 L 1280.21875 286.371094 L 845.300781 1025.976562 L 113.457031 595.621094 Z M 548.371094 -143.980469 " clip-rule="nonzero"/></clipPath><clipPath id="f3df86acaa"><path d="M 548.371094 -143.980469 L 1280.21875 286.371094 L 845.300781 1025.976562 L 113.457031 595.621094 Z M 548.371094 -143.980469 " clip-rule="nonzero"/></clipPath><clipPath id="6948c3590a"><path d="M 548.371094 -143.980469 L 1280.21875 286.371094 L 845.300781 1025.976562 L 113.457031 595.621094 Z M 548.371094 -143.980469 " clip-rule="nonzero"/></clipPath><clipPath id="b9ebcdbed3"><path d="M 819 435 L 837 435 L 837 462 L 819 462 Z M 819 435 " clip-rule="nonzero"/></clipPath><clipPath id="abb17b9d08"><path d="M 548.371094 -143.980469 L 1280.21875 286.371094 L 845.300781 1025.976562 L 113.457031 595.621094 Z M 548.371094 -143.980469 " clip-rule="nonzero"/></clipPath><clipPath id="0c0cb1b417"><path d="M 548.371094 -143.980469 L 1280.21875 286.371094 L 845.300781 1025.976562 L 113.457031 595.621094 Z M 548.371094 -143.980469 " clip-rule="nonzero"/></clipPath><clipPath id="58004eff80"><path d="M 548.371094 -143.980469 L 1280.21875 286.371094 L 845.300781 1025.976562 L 113.457031 595.621094 Z M 548.371094 -143.980469 " clip-rule="nonzero"/></clipPath><clipPath id="09199f7c36"><path d="M 681 454 L 708 454 L 708 473 L 681 473 Z M 681 454 " clip-rule="nonzero"/></clipPath><clipPath id="27ba9d55c1"><path d="M 548.371094 -143.980469 L 1280.21875 286.371094 L 845.300781 1025.976562 L 113.457031 595.621094 Z M 548.371094 -143.980469 " clip-rule="nonzero"/></clipPath><clipPath id="3ba11918d5"><path d="M 548.371094 -143.980469 L 1280.21875 286.371094 L 845.300781 1025.976562 L 113.457031 595.621094 Z M 548.371094 -143.980469 " clip-rule="nonzero"/></clipPath><clipPath id="1fb7d68602"><path d="M 548.371094 -143.980469 L 1280.21875 286.371094 L 845.300781 1025.976562 L 113.457031 595.621094 Z M 548.371094 -143.980469 " clip-rule="nonzero"/></clipPath><clipPath id="57372cc7a1"><path d="M 601 341 L 616 341 L 616 369 L 601 369 Z M 601 341 " clip-rule="nonzero"/></clipPath><clipPath id="49b9a2b5a6"><path d="M 548.371094 -143.980469 L 1280.21875 286.371094 L 845.300781 1025.976562 L 113.457031 595.621094 Z M 548.371094 -143.980469 " clip-rule="nonzero"/></clipPath><clipPath id="b8d64ed306"><path d="M 548.371094 -143.980469 L 1280.21875 286.371094 L 845.300781 1025.976562 L 113.457031 595.621094 Z M 548.371094 -143.980469 " clip-rule="nonzero"/></clipPath><clipPath id="9a564f4cc9"><path d="M 548.371094 -143.980469 L 1280.21875 286.371094 L 845.300781 1025.976562 L 113.457031 595.621094 Z M 548.371094 -143.980469 " clip-rule="nonzero"/></clipPath><clipPath id="e229d2a14a"><path d="M 805 484 L 817 484 L 817 512 L 805 512 Z M 805 484 " clip-rule="nonzero"/></clipPath><clipPath id="91f7e268cb"><path d="M 548.371094 -143.980469 L 1280.21875 286.371094 L 845.300781 1025.976562 L 113.457031 595.621094 Z M 548.371094 -143.980469 " clip-rule="nonzero"/></clipPath><clipPath id="a4a2d1376d"><path d="M 548.371094 -143.980469 L 1280.21875 286.371094 L 845.300781 1025.976562 L 113.457031 595.621094 Z M 548.371094 -143.980469 " clip-rule="nonzero"/></clipPath><clipPath id="b00f78871a"><path d="M 548.371094 -143.980469 L 1280.21875 286.371094 L 845.300781 1025.976562 L 113.457031 595.621094 Z M 548.371094 -143.980469 " clip-rule="nonzero"/></clipPath><clipPath id="584f9ad862"><path d="M 962 300 L 990 300 L 990 318 L 962 318 Z M 962 300 " clip-rule="nonzero"/></clipPath><clipPath id="7c6a921b3c"><path d="M 548.371094 -143.980469 L 1280.21875 286.371094 L 845.300781 1025.976562 L 113.457031 595.621094 Z M 548.371094 -143.980469 " clip-rule="nonzero"/></clipPath><clipPath id="0b759bcbc3"><path d="M 548.371094 -143.980469 L 1280.21875 286.371094 L 845.300781 1025.976562 L 113.457031 595.621094 Z M 548.371094 -143.980469 " clip-rule="nonzero"/></clipPath><clipPath id="e8db1086f6"><path d="M 548.371094 -143.980469 L 1280.21875 286.371094 L 845.300781 1025.976562 L 113.457031 595.621094 Z M 548.371094 -143.980469 " clip-rule="nonzero"/></clipPath><clipPath id="2e093eaa04"><path d="M 807 536 L 823 536 L 823 563 L 807 563 Z M 807 536 " clip-rule="nonzero"/></clipPath><clipPath id="6bbe200feb"><path d="M 548.371094 -143.980469 L 1280.21875 286.371094 L 845.300781 1025.976562 L 113.457031 595.621094 Z M 548.371094 -143.980469 " clip-rule="nonzero"/></clipPath><clipPath id="d78fc97495"><path d="M 548.371094 -143.980469 L 1280.21875 286.371094 L 845.300781 1025.976562 L 113.457031 595.621094 Z M 548.371094 -143.980469 " clip-rule="nonzero"/></clipPath><clipPath id="94802dfcd6"><path d="M 548.371094 -143.980469 L 1280.21875 286.371094 L 845.300781 1025.976562 L 113.457031 595.621094 Z M 548.371094 -143.980469 " clip-rule="nonzero"/></clipPath><clipPath id="6a26d8982a"><path d="M 879 406 L 906 406 L 906 416 L 879 416 Z M 879 406 " clip-rule="nonzero"/></clipPath><clipPath id="462c257854"><path d="M 548.371094 -143.980469 L 1280.21875 286.371094 L 845.300781 1025.976562 L 113.457031 595.621094 Z M 548.371094 -143.980469 " clip-rule="nonzero"/></clipPath><clipPath id="7e5dd3081d"><path d="M 548.371094 -143.980469 L 1280.21875 286.371094 L 845.300781 1025.976562 L 113.457031 595.621094 Z M 548.371094 -143.980469 " clip-rule="nonzero"/></clipPath><clipPath id="d2cff99f62"><path d="M 548.371094 -143.980469 L 1280.21875 286.371094 L 845.300781 1025.976562 L 113.457031 595.621094 Z M 548.371094 -143.980469 " clip-rule="nonzero"/></clipPath><clipPath id="9c98aa8c1e"><path d="M 917 324 L 944 324 L 944 345 L 917 345 Z M 917 324 " clip-rule="nonzero"/></clipPath><clipPath id="b46d9a100e"><path d="M 548.371094 -143.980469 L 1280.21875 286.371094 L 845.300781 1025.976562 L 113.457031 595.621094 Z M 548.371094 -143.980469 " clip-rule="nonzero"/></clipPath><clipPath id="e5116d29ed"><path d="M 548.371094 -143.980469 L 1280.21875 286.371094 L 845.300781 1025.976562 L 113.457031 595.621094 Z M 548.371094 -143.980469 " clip-rule="nonzero"/></clipPath><clipPath id="aa2cb702fe"><path d="M 548.371094 -143.980469 L 1280.21875 286.371094 L 845.300781 1025.976562 L 113.457031 595.621094 Z M 548.371094 -143.980469 " clip-rule="nonzero"/></clipPath><clipPath id="0ccafdce1c"><path d="M 877 354 L 902 354 L 902 378 L 877 378 Z M 877 354 " clip-rule="nonzero"/></clipPath><clipPath id="561166444b"><path d="M 548.371094 -143.980469 L 1280.21875 286.371094 L 845.300781 1025.976562 L 113.457031 595.621094 Z M 548.371094 -143.980469 " clip-rule="nonzero"/></clipPath><clipPath id="3934683d42"><path d="M 548.371094 -143.980469 L 1280.21875 286.371094 L 845.300781 1025.976562 L 113.457031 595.621094 Z M 548.371094 -143.980469 " clip-rule="nonzero"/></clipPath><clipPath id="275562342e"><path d="M 548.371094 -143.980469 L 1280.21875 286.371094 L 845.300781 1025.976562 L 113.457031 595.621094 Z M 548.371094 -143.980469 " clip-rule="nonzero"/></clipPath><clipPath id="5a7c5fd285"><path d="M 1198 253 L 1269 253 L 1269 307 L 1198 307 Z M 1198 253 " clip-rule="nonzero"/></clipPath><clipPath id="e4e9b10373"><path d="M 548.371094 -143.980469 L 1280.21875 286.371094 L 845.300781 1025.976562 L 113.457031 595.621094 Z M 548.371094 -143.980469 " clip-rule="nonzero"/></clipPath><clipPath id="475c1cf785"><path d="M 548.371094 -143.980469 L 1280.21875 286.371094 L 845.300781 1025.976562 L 113.457031 595.621094 Z M 548.371094 -143.980469 " clip-rule="nonzero"/></clipPath><clipPath id="c241a8b5a1"><path d="M 548.371094 -143.980469 L 1280.21875 286.371094 L 845.300781 1025.976562 L 113.457031 595.621094 Z M 548.371094 -143.980469 " clip-rule="nonzero"/></clipPath></defs><rect x="-144" width="1728" fill="#ffffff" y="-80.999999" height="971.999992" fill-opacity="1"/><rect x="-144" width="1728" fill="#ffdb82" y="-80.999999" height="971.999992" fill-opacity="1"/><g clip-path="url(#8bf33ae06d)"><g clip-path="url(#dbf76856a2)"><g clip-path="url(#33a4aa992a)"><g clip-path="url(#71289d5e73)"><path fill="#231f20" d="M 458.371094 480.84375 C 450.449219 477.808594 442.734375 474.105469 435.394531 469.824219 L 432.125 475.449219 C 439.773438 479.910156 447.8125 483.769531 456.046875 486.914062 Z M 458.371094 480.84375 " fill-opacity="1" fill-rule="nonzero"/></g></g></g></g><g clip-path="url(#512ab6a15f)"><g clip-path="url(#1a9e6d114f)"><g clip-path="url(#a685158f70)"><g clip-path="url(#ffd758e091)"><path fill="#231f20" d="M 372.148438 562.03125 L 374.316406 568.171875 C 382.550781 565.277344 390.757812 562.105469 398.773438 558.820312 L 396.277344 552.785156 C 388.398438 556.039062 380.265625 559.144531 372.148438 562.03125 Z M 372.148438 562.03125 " fill-opacity="1" fill-rule="nonzero"/></g></g></g></g><g clip-path="url(#46cc4287b2)"><g clip-path="url(#2232a56d02)"><g clip-path="url(#8470810960)"><g clip-path="url(#8d98b5a528)"><path fill="#231f20" d="M 419.855469 542.234375 L 422.683594 548.085938 C 430.585938 544.28125 438.445312 540.222656 445.964844 536.042969 L 442.820312 530.34375 C 435.40625 534.472656 427.667969 538.453125 419.855469 542.234375 Z M 419.855469 542.234375 " fill-opacity="1" fill-rule="nonzero"/></g></g></g></g><g clip-path="url(#1e6f16b14f)"><g clip-path="url(#e18f79c3fe)"><g clip-path="url(#b5a00516bb)"><g clip-path="url(#ae464e98a4)"><path fill="#231f20" d="M 322.570312 576.726562 L 324.097656 583.054688 C 332.613281 580.96875 341.125 578.691406 349.375 576.222656 L 347.519531 570 C 339.375 572.417969 330.980469 574.6875 322.570312 576.726562 Z M 322.570312 576.726562 " fill-opacity="1" fill-rule="nonzero"/></g></g></g></g><g clip-path="url(#18aa327ec3)"><g clip-path="url(#5f29731d60)"><g clip-path="url(#ada678593b)"><g clip-path="url(#5a8fe809b1)"><path fill="#231f20" d="M 414.46875 455.253906 C 407.902344 449.847656 401.742188 443.886719 396.148438 437.539062 L 391.246094 441.824219 C 397.054688 448.449219 403.464844 454.632812 410.304688 460.277344 Z M 414.46875 455.253906 " fill-opacity="1" fill-rule="nonzero"/></g></g></g></g><g clip-path="url(#c74c2eb6bb)"><g clip-path="url(#87350918b7)"><g clip-path="url(#be1f55b85d)"><g clip-path="url(#e078ce040f)"><path fill="#231f20" d="M 586.515625 248.347656 C 592.402344 254.90625 597.378906 261.792969 601.308594 268.785156 L 606.996094 265.601562 C 602.832031 258.171875 597.589844 250.898438 591.347656 243.984375 Z M 586.515625 248.347656 " fill-opacity="1" fill-rule="nonzero"/></g></g></g></g><g clip-path="url(#b887d20857)"><g clip-path="url(#c73980913a)"><g clip-path="url(#4b2d8eb562)"><g clip-path="url(#25ffc25681)"><path fill="#231f20" d="M 589.738281 389.039062 C 589.058594 390.257812 588.332031 391.492188 587.605469 392.726562 C 584.160156 398.585938 580.273438 404.679688 576.078125 410.855469 L 581.476562 414.519531 C 585.765625 408.25 589.707031 402 593.234375 396 C 593.976562 394.738281 594.71875 393.476562 595.414062 392.226562 Z M 589.738281 389.039062 " fill-opacity="1" fill-rule="nonzero"/></g></g></g></g><g clip-path="url(#d95b55ba49)"><g clip-path="url(#bf7720b553)"><g clip-path="url(#9e421ba43b)"><g clip-path="url(#acd42ea33f)"><path fill="#231f20" d="M 499.832031 194.359375 L 499.277344 200.824219 C 507.9375 201.578125 516.273438 203.195312 524.089844 205.640625 L 526.042969 199.429688 C 517.785156 196.839844 508.972656 195.128906 499.832031 194.359375 Z M 499.832031 194.359375 " fill-opacity="1" fill-rule="nonzero"/></g></g></g></g><g clip-path="url(#08e5f5b895)"><g clip-path="url(#3bb5c9c474)"><g clip-path="url(#fdec65a3ee)"><g clip-path="url(#3bbf3fd123)"><path fill="#231f20" d="M 465 517.160156 L 468.496094 522.648438 C 475.859375 517.960938 483.171875 512.976562 490.167969 507.882812 L 486.351562 502.621094 C 479.460938 507.660156 472.289062 512.539062 465 517.160156 Z M 465 517.160156 " fill-opacity="1" fill-rule="nonzero"/></g></g></g></g><g clip-path="url(#0de9e75ac7)"><g clip-path="url(#12fe9b92a9)"><g clip-path="url(#ba5a5e3920)"><g clip-path="url(#0a66aa2a8f)"><path fill="#231f20" d="M 544.089844 451.25 L 548.898438 455.664062 C 554.804688 449.210938 560.542969 442.472656 565.933594 435.683594 L 560.839844 431.628906 C 555.515625 438.308594 549.886719 444.925781 544.089844 451.25 Z M 544.089844 451.25 " fill-opacity="1" fill-rule="nonzero"/></g></g></g></g><g clip-path="url(#c47a19365b)"><g clip-path="url(#4d5d53cbf6)"><g clip-path="url(#0cc32d2062)"><g clip-path="url(#ebf291e037)"><path fill="#231f20" d="M 506.726562 486.789062 L 510.878906 491.796875 C 517.605469 486.207031 524.1875 480.339844 530.488281 474.382812 L 526.003906 469.675781 C 519.832031 475.550781 513.339844 481.320312 506.726562 486.789062 Z M 506.726562 486.789062 " fill-opacity="1" fill-rule="nonzero"/></g></g></g></g><g clip-path="url(#17c3a2678f)"><g clip-path="url(#8fce42d0fa)"><g clip-path="url(#ba298bc276)"><g clip-path="url(#56cc6926b4)"><path fill="#231f20" d="M 482.894531 488.398438 L 481.226562 494.699219 C 489.941406 497.03125 498.515625 499.019531 506.765625 500.660156 L 508.027344 494.273438 C 499.953125 492.65625 491.480469 490.691406 482.894531 488.398438 Z M 482.894531 488.398438 " fill-opacity="1" fill-rule="nonzero"/></g></g></g></g><g clip-path="url(#1d56844726)"><g clip-path="url(#66935a77e6)"><g clip-path="url(#d207577ab6)"><g clip-path="url(#8528d0134f)"><path fill="#231f20" d="M 400.785156 225.8125 L 405.03125 230.726562 C 411.402344 225.226562 418.367188 220.378906 425.792969 216.292969 L 422.648438 210.59375 C 414.855469 214.917969 407.480469 220.011719 400.785156 225.8125 Z M 400.785156 225.8125 " fill-opacity="1" fill-rule="nonzero"/></g></g></g></g><g clip-path="url(#c7e0412df2)"><g clip-path="url(#b1867a5454)"><g clip-path="url(#bdfeda7483)"><g clip-path="url(#0d4c7e0a0b)"><path fill="#231f20" d="M 473.929688 201.164062 L 473.199219 194.695312 C 464.347656 195.679688 455.574219 197.503906 447.136719 200.164062 L 449.078125 206.363281 C 457.128906 203.851562 465.492188 202.089844 473.929688 201.164062 Z M 473.929688 201.164062 " fill-opacity="1" fill-rule="nonzero"/></g></g></g></g><g clip-path="url(#0157229e20)"><g clip-path="url(#9719ebd8f0)"><g clip-path="url(#432569492c)"><g clip-path="url(#2f640a6ed0)"><path fill="#231f20" d="M 374.453125 270.78125 C 375.960938 267.707031 377.597656 264.667969 379.292969 261.777344 C 381.882812 257.375 384.707031 253.152344 387.71875 249.1875 L 382.558594 245.246094 C 379.386719 249.417969 376.402344 253.851562 373.699219 258.449219 C 371.917969 261.480469 370.199219 264.65625 368.609375 267.875 Z M 374.453125 270.78125 " fill-opacity="1" fill-rule="nonzero"/></g></g></g></g><g clip-path="url(#197cb895a8)"><g clip-path="url(#acf11a867a)"><g clip-path="url(#f924d9e3b3)"><g clip-path="url(#2049826bd6)"><path fill="#231f20" d="M 271.785156 586.597656 L 272.75 593.050781 C 281.402344 591.761719 290.078125 590.296875 298.566406 588.648438 L 297.335938 582.261719 C 288.9375 583.890625 280.347656 585.332031 271.785156 586.597656 Z M 271.785156 586.597656 " fill-opacity="1" fill-rule="nonzero"/></g></g></g></g><g clip-path="url(#7263b26e36)"><g clip-path="url(#dcf16c3083)"><g clip-path="url(#1dbfe69e81)"><g clip-path="url(#85d0971876)"><path fill="#231f20" d="M 116.753906 590.335938 L 116.179688 596.832031 C 124.867188 597.601562 133.652344 598.203125 142.261719 598.660156 L 142.613281 592.148438 C 134.089844 591.742188 125.394531 591.117188 116.753906 590.335938 Z M 116.753906 590.335938 " fill-opacity="1" fill-rule="nonzero"/></g></g></g></g><g clip-path="url(#2355fe07d3)"><g clip-path="url(#afe52c8198)"><g clip-path="url(#4468f6ad6c)"><g clip-path="url(#71fd39bcb6)"><path fill="#231f20" d="M 571.972656 225.875 C 565.496094 220.707031 558.226562 215.601562 550.371094 210.71875 L 546.933594 216.242188 C 554.5625 220.996094 561.625 225.941406 567.921875 230.964844 Z M 571.972656 225.875 " fill-opacity="1" fill-rule="nonzero"/></g></g></g></g><g clip-path="url(#d7a9b24c87)"><g clip-path="url(#7fc8cb96dc)"><g clip-path="url(#024ada1ba9)"><g clip-path="url(#b77c2dc61e)"><path fill="#231f20" d="M 619.523438 317.191406 C 619.808594 308.039062 618.882812 299.082031 616.804688 290.539062 L 610.472656 292.058594 C 612.398438 300.023438 613.273438 308.425781 613 316.980469 Z M 619.523438 317.191406 " fill-opacity="1" fill-rule="nonzero"/></g></g></g></g><g clip-path="url(#98cff0e4c8)"><g clip-path="url(#ec6aec9634)"><g clip-path="url(#ef50b1c67c)"><g clip-path="url(#26718690d5)"><path fill="#231f20" d="M 380.988281 417.078125 C 376.488281 409.828125 372.628906 402.199219 369.4375 394.398438 L 363.390625 396.84375 C 366.703125 405.015625 370.746094 412.980469 375.414062 420.515625 Z M 380.988281 417.078125 " fill-opacity="1" fill-rule="nonzero"/></g></g></g></g><g clip-path="url(#6901b1c241)"><g clip-path="url(#ebc3bfc02a)"><g clip-path="url(#70b0ee7cc8)"><g clip-path="url(#bdcf39cad3)"><path fill="#231f20" d="M 361.953125 370.070312 C 360.179688 361.785156 359.117188 353.3125 358.816406 344.832031 L 352.292969 345.070312 C 352.644531 353.917969 353.734375 362.785156 355.601562 371.429688 Z M 361.953125 370.070312 " fill-opacity="1" fill-rule="nonzero"/></g></g></g></g><g clip-path="url(#95fe35ad4a)"><g clip-path="url(#296eb61933)"><g clip-path="url(#7ae588140b)"><g clip-path="url(#3384cef66d)"><path fill="#231f20" d="M 168.503906 593.074219 L 168.414062 599.585938 C 177.128906 599.730469 185.945312 599.703125 194.578125 599.535156 L 194.433594 593.035156 C 185.871094 593.210938 177.132812 593.238281 168.503906 593.074219 Z M 168.503906 593.074219 " fill-opacity="1" fill-rule="nonzero"/></g></g></g></g><g clip-path="url(#a644e555e6)"><g clip-path="url(#c507fe7211)"><g clip-path="url(#92364ad948)"><g clip-path="url(#998d26f4d7)"><path fill="#231f20" d="M 220.300781 591.945312 L 220.707031 598.449219 C 229.410156 597.90625 238.183594 597.179688 246.777344 596.308594 L 246.09375 589.828125 C 237.601562 590.722656 228.914062 591.425781 220.300781 591.945312 Z M 220.300781 591.945312 " fill-opacity="1" fill-rule="nonzero"/></g></g></g></g><g clip-path="url(#86fe09d7bb)"><g clip-path="url(#f897bb5614)"><g clip-path="url(#5e190e6351)"><g clip-path="url(#9da9b978aa)"><path fill="#231f20" d="M 365.304688 294.496094 L 359.054688 292.667969 C 357.664062 297.472656 356.402344 302.507812 355.371094 307.597656 C 354.644531 311.210938 354.015625 314.914062 353.546875 318.601562 L 359.996094 319.449219 C 360.484375 315.925781 361.058594 312.375 361.746094 308.894531 C 362.75 303.976562 363.941406 299.128906 365.304688 294.496094 Z M 365.304688 294.496094 " fill-opacity="1" fill-rule="nonzero"/></g></g></g></g><g clip-path="url(#98e91c5c8d)"><g clip-path="url(#4ccdb01c9d)"><g clip-path="url(#ee6b6a0d88)"><g clip-path="url(#60c633887a)"><path fill="#231f20" d="M 533.445312 498.3125 L 532.703125 504.78125 C 541.675781 505.832031 550.507812 506.421875 558.960938 506.5625 L 559.050781 500.050781 C 550.816406 499.925781 542.203125 499.351562 533.445312 498.3125 Z M 533.445312 498.3125 " fill-opacity="1" fill-rule="nonzero"/></g></g></g></g><g clip-path="url(#2615942f8e)"><g clip-path="url(#9b4acedf3d)"><g clip-path="url(#88a76e258c)"><g clip-path="url(#672385e914)"><path fill="#231f20" d="M 634.402344 487.378906 L 636.613281 493.507812 C 644.332031 490.726562 652.285156 487.476562 660.910156 483.53125 L 658.203125 477.601562 C 649.726562 481.484375 641.953125 484.6875 634.402344 487.378906 Z M 634.402344 487.378906 " fill-opacity="1" fill-rule="nonzero"/></g></g></g></g><g clip-path="url(#c2f7aea122)"><g clip-path="url(#26fd1f2fff)"><g clip-path="url(#89834f1297)"><g clip-path="url(#e6b998d7cd)"><path fill="#231f20" d="M 1087.460938 272.058594 C 1078.882812 273.351562 1070.210938 274.933594 1061.636719 276.796875 L 1063.03125 283.164062 C 1071.46875 281.332031 1080.023438 279.757812 1088.441406 278.484375 Z M 1087.460938 272.058594 " fill-opacity="1" fill-rule="nonzero"/></g></g></g></g><g clip-path="url(#c8094ecbdb)"><g clip-path="url(#75b8a5d808)"><g clip-path="url(#fe18ec8614)"><g clip-path="url(#8df5988f55)"><path fill="#231f20" d="M 997.808594 458.167969 C 992.414062 451.222656 986.046875 444.839844 978.945312 439.191406 L 974.894531 444.28125 C 981.625 449.597656 987.566406 455.617188 992.664062 462.164062 Z M 997.808594 458.167969 " fill-opacity="1" fill-rule="nonzero"/></g></g></g></g><g clip-path="url(#cd097ef9fc)"><g clip-path="url(#dbd5a86e39)"><g clip-path="url(#fa04d4d93f)"><g clip-path="url(#1e62df1e85)"><path fill="#231f20" d="M 584.628906 498.9375 L 585.3125 505.417969 C 594.15625 504.503906 602.675781 503.058594 611.347656 501.027344 L 609.863281 494.683594 C 601.441406 496.675781 593.195312 498.050781 584.628906 498.9375 Z M 584.628906 498.9375 " fill-opacity="1" fill-rule="nonzero"/></g></g></g></g><g clip-path="url(#c54e234952)"><g clip-path="url(#86187bd916)"><g clip-path="url(#4b157cd36b)"><g clip-path="url(#a701510ad7)"><path fill="#231f20" d="M 878.613281 608.078125 L 876.292969 614.144531 C 884.609375 617.339844 893.3125 619.625 902.109375 620.914062 L 903.054688 614.488281 C 894.71875 613.246094 886.507812 611.097656 878.613281 608.078125 Z M 878.613281 608.078125 " fill-opacity="1" fill-rule="nonzero"/></g></g></g></g><g clip-path="url(#fcc7307c4e)"><g clip-path="url(#d21de35554)"><g clip-path="url(#960de43ba9)"><g clip-path="url(#016e7932b0)"><path fill="#231f20" d="M 1011.164062 291.152344 L 1013.328125 297.296875 C 1021.429688 294.4375 1029.707031 291.792969 1037.945312 289.46875 L 1036.152344 283.207031 C 1027.78125 285.566406 1019.371094 288.242188 1011.164062 291.152344 Z M 1011.164062 291.152344 " fill-opacity="1" fill-rule="nonzero"/></g></g></g></g><g clip-path="url(#8d4aa5f77b)"><g clip-path="url(#dbfe6e5c31)"><g clip-path="url(#bd221e7643)"><g clip-path="url(#fda03ef24a)"><path fill="#231f20" d="M 953.503906 430.757812 L 956.410156 424.917969 C 948.761719 421.101562 940.460938 417.804688 931.714844 415.152344 L 929.832031 421.367188 C 938.234375 423.96875 946.207031 427.109375 953.503906 430.757812 Z M 953.503906 430.757812 " fill-opacity="1" fill-rule="nonzero"/></g></g></g></g><g clip-path="url(#9730f93fc7)"><g clip-path="url(#96c8a2ee7f)"><g clip-path="url(#4e4df21994)"><g clip-path="url(#9893c7d325)"><path fill="#231f20" d="M 832.195312 584.519531 C 838.160156 591.007812 845 596.839844 852.539062 601.875 L 856.171875 596.46875 C 849.070312 591.722656 842.597656 586.21875 837.015625 580.109375 Z M 832.195312 584.519531 " fill-opacity="1" fill-rule="nonzero"/></g></g></g></g><g clip-path="url(#ad59bac70f)"><g clip-path="url(#844c08f5ff)"><g clip-path="url(#363f41f621)"><g clip-path="url(#1ab48c76b7)"><path fill="#231f20" d="M 928.292969 615.367188 L 928.859375 621.851562 C 936.714844 621.148438 945.671875 618.566406 954.84375 614.335938 L 952.121094 608.433594 C 943.628906 612.347656 935.382812 614.742188 928.292969 615.367188 Z M 928.292969 615.367188 " fill-opacity="1" fill-rule="nonzero"/></g></g></g></g><g clip-path="url(#cc3406e847)"><g clip-path="url(#e6313587d8)"><g clip-path="url(#50c2408e54)"><g clip-path="url(#55e40f198e)"><path fill="#231f20" d="M 1166.097656 268.636719 L 1165.613281 275.109375 C 1174.382812 275.738281 1182.980469 276.792969 1191.140625 278.195312 L 1192.234375 271.78125 C 1183.878906 270.378906 1175.066406 269.308594 1166.097656 268.636719 Z M 1166.097656 268.636719 " fill-opacity="1" fill-rule="nonzero"/></g></g></g></g><g clip-path="url(#95856e14cb)"><g clip-path="url(#0f97970fbd)"><g clip-path="url(#c68ac635da)"><g clip-path="url(#0178bdc8f9)"><path fill="#231f20" d="M 1012.828125 532.8125 C 1011.636719 540.941406 1009.179688 548.96875 1005.507812 556.695312 L 1011.386719 559.476562 C 1015.320312 551.183594 1017.945312 542.539062 1019.257812 533.761719 Z M 1012.828125 532.8125 " fill-opacity="1" fill-rule="nonzero"/></g></g></g></g><g clip-path="url(#b1d7627e4d)"><g clip-path="url(#28f10b7de7)"><g clip-path="url(#b247c7189f)"><g clip-path="url(#f328f8921e)"><path fill="#231f20" d="M 973.640625 595.277344 L 977.625 600.449219 C 984.796875 594.933594 991.289062 588.710938 996.890625 582.007812 L 991.90625 577.832031 C 986.589844 584.175781 980.441406 590.070312 973.640625 595.277344 Z M 973.640625 595.277344 " fill-opacity="1" fill-rule="nonzero"/></g></g></g></g><g clip-path="url(#1cf7a45ecf)"><g clip-path="url(#ae31dae385)"><g clip-path="url(#5c4f34c06e)"><g clip-path="url(#f29453e024)"><path fill="#231f20" d="M 1012.535156 483.734375 C 1012.167969 482.878906 1011.832031 482.039062 1011.46875 481.183594 L 1005.511719 483.792969 C 1005.867188 484.605469 1006.191406 485.398438 1006.515625 486.195312 C 1009.484375 493.414062 1011.546875 500.699219 1012.648438 507.878906 L 1019.09375 506.875 C 1017.890625 499.222656 1015.675781 491.429688 1012.535156 483.734375 Z M 1012.535156 483.734375 " fill-opacity="1" fill-rule="nonzero"/></g></g></g></g><g clip-path="url(#54f2430c8a)"><g clip-path="url(#ec825f7e00)"><g clip-path="url(#7ba55ae704)"><g clip-path="url(#946a757b48)"><path fill="#231f20" d="M 1139.804688 267.816406 C 1131.21875 267.902344 1122.378906 268.289062 1113.5625 269.027344 L 1114.101562 275.496094 C 1122.785156 274.792969 1131.453125 274.378906 1139.875 274.3125 Z M 1139.804688 267.816406 " fill-opacity="1" fill-rule="nonzero"/></g></g></g></g><g clip-path="url(#c209a10c67)"><g clip-path="url(#07dd25e3e0)"><g clip-path="url(#ba6279f574)"><g clip-path="url(#3554c4ea1d)"><path fill="#231f20" d="M 775.957031 421.789062 L 778.0625 427.96875 C 786.082031 425.25 794.371094 422.84375 802.765625 420.835938 L 801.238281 414.503906 C 792.667969 416.558594 784.15625 419.023438 775.957031 421.789062 Z M 775.957031 421.789062 " fill-opacity="1" fill-rule="nonzero"/></g></g></g></g><g clip-path="url(#6ecfca4569)"><g clip-path="url(#e4b4b9f70c)"><g clip-path="url(#5ff410ff72)"><g clip-path="url(#2334cbc5a3)"><path fill="#231f20" d="M 727.820312 442.574219 L 730.691406 448.414062 C 738.996094 444.316406 746.664062 440.710938 754.097656 437.386719 L 751.4375 431.441406 C 743.914062 434.792969 736.183594 438.4375 727.820312 442.574219 Z M 727.820312 442.574219 " fill-opacity="1" fill-rule="nonzero"/></g></g></g></g><g clip-path="url(#6e97ba2328)"><g clip-path="url(#d2bf38aba6)"><g clip-path="url(#f3df86acaa)"><g clip-path="url(#6948c3590a)"><path fill="#231f20" d="M 849.484375 416.722656 C 850.242188 415.621094 851.003906 414.519531 851.761719 413.421875 C 852.394531 413.375 853.023438 413.332031 853.683594 413.304688 L 853.566406 410.933594 C 857.160156 405.914062 860.992188 401 864.980469 396.210938 L 859.996094 392.035156 C 855.898438 396.945312 851.980469 402.003906 848.277344 407.144531 C 841.253906 407.65625 834.183594 408.441406 827.136719 409.507812 L 828.101562 415.960938 C 833.847656 415.113281 839.644531 414.445312 845.382812 413.933594 Z M 849.484375 416.722656 " fill-opacity="1" fill-rule="nonzero"/></g></g></g></g><g clip-path="url(#b9ebcdbed3)"><g clip-path="url(#abb17b9d08)"><g clip-path="url(#0c0cb1b417)"><g clip-path="url(#58004eff80)"><path fill="#231f20" d="M 836.164062 438.664062 L 830.421875 435.585938 C 826.277344 443.339844 822.511719 451.351562 819.21875 459.453125 L 825.253906 461.90625 C 828.441406 454.046875 832.136719 446.21875 836.164062 438.664062 Z M 836.164062 438.664062 " fill-opacity="1" fill-rule="nonzero"/></g></g></g></g><g clip-path="url(#09199f7c36)"><g clip-path="url(#27ba9d55c1)"><g clip-path="url(#3ba11918d5)"><g clip-path="url(#1fb7d68602)"><path fill="#231f20" d="M 698.730469 457.429688 C 692.863281 460.472656 687.144531 463.449219 681.480469 466.34375 L 684.441406 472.160156 C 690.152344 469.253906 695.886719 466.25 701.75 463.207031 L 707.574219 460.179688 L 704.550781 454.402344 Z M 698.730469 457.429688 " fill-opacity="1" fill-rule="nonzero"/></g></g></g></g><g clip-path="url(#57372cc7a1)"><g clip-path="url(#49b9a2b5a6)"><g clip-path="url(#b8d64ed306)"><g clip-path="url(#9a564f4cc9)"><path fill="#231f20" d="M 607.167969 368.644531 C 610.796875 360.097656 613.6875 351.648438 615.722656 343.5625 L 609.410156 341.964844 C 607.457031 349.722656 604.691406 357.828125 601.171875 366.0625 Z M 607.167969 368.644531 " fill-opacity="1" fill-rule="nonzero"/></g></g></g></g><g clip-path="url(#e229d2a14a)"><g clip-path="url(#91f7e268cb)"><g clip-path="url(#a4a2d1376d)"><g clip-path="url(#b00f78871a)"><path fill="#231f20" d="M 816.941406 486.1875 L 810.65625 484.417969 C 810.140625 486.191406 809.65625 487.980469 809.183594 489.816406 C 807.398438 496.765625 806.25 503.789062 805.789062 510.613281 L 812.296875 511.042969 C 812.71875 504.609375 813.777344 497.988281 815.476562 491.441406 C 815.992188 489.667969 816.445312 487.933594 816.941406 486.1875 Z M 816.941406 486.1875 " fill-opacity="1" fill-rule="nonzero"/></g></g></g></g><g clip-path="url(#584f9ad862)"><g clip-path="url(#7c6a921b3c)"><g clip-path="url(#0b759bcbc3)"><g clip-path="url(#e8db1086f6)"><path fill="#231f20" d="M 962.917969 311.800781 L 965.878906 317.617188 C 973.480469 313.75 981.34375 310.070312 989.261719 306.691406 L 986.707031 300.695312 C 978.636719 304.140625 970.652344 307.898438 962.917969 311.800781 Z M 962.917969 311.800781 " fill-opacity="1" fill-rule="nonzero"/></g></g></g></g><g clip-path="url(#2e093eaa04)"><g clip-path="url(#6bbe200feb)"><g clip-path="url(#d78fc97495)"><g clip-path="url(#94802dfcd6)"><path fill="#231f20" d="M 814.058594 536.042969 L 807.699219 537.359375 C 809.527344 546.128906 812.566406 554.636719 816.753906 562.609375 L 822.53125 559.589844 C 818.601562 552.148438 815.738281 544.238281 814.058594 536.042969 Z M 814.058594 536.042969 " fill-opacity="1" fill-rule="nonzero"/></g></g></g></g><g clip-path="url(#6a26d8982a)"><g clip-path="url(#462c257854)"><g clip-path="url(#7e5dd3081d)"><g clip-path="url(#d2cff99f62)"><path fill="#231f20" d="M 905.894531 409.289062 C 897.464844 407.953125 888.625 407.058594 879.621094 406.632812 L 879.339844 413.148438 C 888.097656 413.542969 896.691406 414.40625 904.875 415.707031 Z M 905.894531 409.289062 " fill-opacity="1" fill-rule="nonzero"/></g></g></g></g><g clip-path="url(#9c98aa8c1e)"><g clip-path="url(#b46d9a100e)"><g clip-path="url(#e5116d29ed)"><g clip-path="url(#aa2cb702fe)"><path fill="#231f20" d="M 943.308594 330.121094 L 939.9375 324.550781 C 932.375 329.125 924.972656 333.941406 917.941406 338.902344 L 921.695312 344.203125 C 928.605469 339.324219 935.886719 334.585938 943.308594 330.121094 Z M 943.308594 330.121094 " fill-opacity="1" fill-rule="nonzero"/></g></g></g></g><g clip-path="url(#0ccafdce1c)"><g clip-path="url(#561166444b)"><g clip-path="url(#3934683d42)"><g clip-path="url(#275562342e)"><path fill="#231f20" d="M 877.707031 372.640625 L 882.3125 377.269531 C 888.300781 371.320312 894.695312 365.457031 901.34375 359.933594 L 897.171875 354.953125 C 890.386719 360.585938 883.824219 366.539062 877.707031 372.640625 Z M 877.707031 372.640625 " fill-opacity="1" fill-rule="nonzero"/></g></g></g></g><g clip-path="url(#5a7c5fd285)"><g clip-path="url(#e4e9b10373)"><g clip-path="url(#475c1cf785)"><g clip-path="url(#c241a8b5a1)"><path fill="#231f20" d="M 1268.296875 306.773438 L 1223.5 253.035156 L 1224.519531 279.746094 C 1222.378906 279.019531 1220.207031 278.34375 1217.992188 277.683594 L 1216.140625 283.914062 C 1217.914062 284.429688 1219.699219 284.988281 1221.441406 285.558594 L 1198.683594 299.726562 Z M 1268.296875 306.773438 " fill-opacity="1" fill-rule="nonzero"/></g></g></g></g></svg>