<svg xmlns="http://www.w3.org/2000/svg" xmlns:xlink="http://www.w3.org/1999/xlink" width="1920" zoomAndPan="magnify" viewBox="0 0 1440 809.999993" height="1080" preserveAspectRatio="xMidYMid meet" version="1.0"><defs><clipPath id="6517aca09a"><path d="M 283 102.015625 L 1194.4375 102.015625 L 1194.4375 708 L 283 708 Z M 283 102.015625 " clip-rule="nonzero"/></clipPath></defs><rect x="-144" width="1728" fill="#ffffff" y="-80.999999" height="971.999992" fill-opacity="1"/><rect x="-144" width="1728" fill="#ffdb82" y="-80.999999" height="971.999992" fill-opacity="1"/><g clip-path="url(#6517aca09a)"><path fill="#000000" d="M 1167.097656 161.019531 C 1161.472656 169.90625 1155.273438 179.65625 1148.535156 190.125 C 1144.910156 195.753906 1137.40625 197.382812 1131.777344 193.761719 C 1126.148438 190.136719 1124.523438 182.628906 1128.144531 177 C 1134.957031 166.414062 1141.207031 156.578125 1146.871094 147.625 L 1029.113281 199.644531 C 1022.992188 202.351562 1015.828125 199.574219 1013.121094 193.453125 C 1010.421875 187.332031 1013.195312 180.164062 1019.316406 177.457031 L 1190.101562 102.011719 L 1194.042969 288.722656 C 1194.179688 295.410156 1188.863281 300.960938 1182.171875 301.097656 C 1175.488281 301.242188 1169.9375 295.925781 1169.796875 289.234375 Z M 286.300781 572.496094 C 281.984375 567.386719 282.625 559.726562 287.734375 555.40625 C 292.84375 551.085938 300.5 551.726562 304.820312 556.835938 C 308.84375 561.601562 312.875 566.214844 316.917969 570.675781 C 321.410156 575.640625 321.027344 583.3125 316.066406 587.804688 C 311.105469 592.296875 303.429688 591.917969 298.941406 586.953125 C 294.71875 582.289062 290.503906 577.46875 286.300781 572.496094 Z M 334.992188 622.96875 C 330.007812 618.5 329.589844 610.828125 334.054688 605.84375 C 338.519531 600.859375 346.191406 600.4375 351.175781 604.90625 C 367.808594 619.816406 384.566406 632.414062 401.410156 642.867188 C 407.09375 646.390625 408.847656 653.875 405.320312 659.5625 C 401.792969 665.246094 394.3125 667.003906 388.628906 663.472656 C 370.648438 652.316406 352.75 638.882812 334.992188 622.96875 Z M 434.570312 687.085938 C 428.382812 684.539062 425.421875 677.449219 427.964844 671.261719 C 430.507812 665.070312 437.597656 662.105469 443.789062 664.652344 C 463.683594 672.828125 483.640625 678.230469 503.59375 681.136719 C 510.214844 682.097656 514.808594 688.257812 513.84375 694.878906 C 512.878906 701.503906 506.722656 706.097656 500.101562 705.136719 C 478.238281 701.949219 456.371094 696.046875 434.570312 687.085938 Z M 551.9375 707.734375 C 545.25 708.019531 539.589844 702.820312 539.308594 696.128906 C 539.023438 689.441406 544.21875 683.785156 550.902344 683.5 C 571.566406 682.621094 592.15625 679.308594 612.601562 673.921875 C 619.070312 672.214844 625.710938 676.082031 627.414062 682.554688 C 629.121094 689.023438 625.253906 695.667969 618.78125 697.371094 C 596.632812 703.214844 574.320312 706.777344 551.9375 707.734375 Z M 667.355469 680.921875 C 661.167969 683.476562 654.078125 680.515625 651.527344 674.332031 C 648.980469 668.144531 651.9375 661.046875 658.125 658.496094 C 677.261719 650.617188 696.214844 641.085938 714.925781 630.195312 C 720.707031 626.824219 728.136719 628.785156 731.5 634.570312 C 734.871094 640.355469 732.90625 647.785156 727.125 651.15625 C 707.4375 662.617188 687.492188 672.632812 667.355469 680.921875 Z M 769.8125 623.824219 C 764.320312 627.652344 756.757812 626.304688 752.933594 620.8125 C 749.105469 615.320312 750.460938 607.753906 755.945312 603.929688 C 773.203125 591.902344 790.203125 578.839844 806.882812 564.972656 C 812.027344 560.691406 819.675781 561.394531 823.953125 566.546875 C 828.234375 571.695312 827.527344 579.34375 822.382812 583.625 C 805.164062 597.9375 787.621094 611.417969 769.8125 623.824219 Z M 860.210938 550.40625 C 855.296875 554.949219 847.621094 554.644531 843.082031 549.730469 C 838.539062 544.8125 838.84375 537.132812 843.757812 532.589844 C 859.457031 518.085938 874.820312 502.976562 889.804688 487.460938 C 894.457031 482.648438 902.136719 482.519531 906.953125 487.167969 C 911.761719 491.816406 911.894531 499.5 907.246094 504.316406 C 891.9375 520.15625 876.242188 535.59375 860.210938 550.40625 Z M 941.414062 467.597656 C 936.941406 472.582031 929.269531 472.992188 924.289062 468.519531 C 919.3125 464.042969 918.902344 456.371094 923.375 451.394531 C 937.875 435.242188 951.957031 418.835938 965.570312 402.375 C 969.828125 397.214844 977.484375 396.492188 982.636719 400.757812 C 987.796875 405.023438 988.515625 412.671875 984.253906 417.835938 C 970.4375 434.546875 956.136719 451.199219 941.414062 467.597656 Z M 1015.605469 378.832031 C 1011.480469 384.101562 1003.855469 385.035156 998.582031 380.910156 C 993.316406 376.785156 992.386719 369.152344 996.511719 363.882812 C 1010.136719 346.460938 1023.1875 329.160156 1035.617188 312.222656 C 1039.574219 306.820312 1047.164062 305.652344 1052.566406 309.613281 C 1057.957031 313.570312 1059.125 321.167969 1055.167969 326.5625 C 1042.601562 343.703125 1029.390625 361.207031 1015.605469 378.832031 Z M 1084.285156 285.953125 C 1080.441406 291.429688 1072.875 292.757812 1067.394531 288.914062 C 1061.917969 285.066406 1060.589844 277.5 1064.433594 272.023438 C 1077.566406 253.304688 1089.792969 235.316406 1101.027344 218.445312 C 1104.738281 212.871094 1112.273438 211.363281 1117.839844 215.074219 C 1123.410156 218.78125 1124.917969 226.316406 1121.210938 231.890625 C 1109.875 248.914062 1097.53125 267.0625 1084.285156 285.953125 Z M 1084.285156 285.953125 " fill-opacity="1" fill-rule="evenodd"/></g></svg>