<svg xmlns="http://www.w3.org/2000/svg" xmlns:xlink="http://www.w3.org/1999/xlink" width="1920" zoomAndPan="magnify" viewBox="0 0 1440 809.999993" height="1080" preserveAspectRatio="xMidYMid meet" version="1.0"><defs><clipPath id="f93a65927f"><path d="M 136 631 L 154 631 L 154 669 L 136 669 Z M 136 631 " clip-rule="nonzero"/></clipPath><clipPath id="76052a2781"><path d="M 551.515625 -230.769531 L 1284.746094 120.429688 L 857.734375 1011.941406 L 124.503906 660.742188 Z M 551.515625 -230.769531 " clip-rule="nonzero"/></clipPath><clipPath id="a4224634fa"><path d="M 551.515625 -230.769531 L 1284.746094 120.429688 L 857.734375 1011.941406 L 124.503906 660.742188 Z M 551.515625 -230.769531 " clip-rule="nonzero"/></clipPath><clipPath id="1581200771"><path d="M 551.515625 -230.769531 L 1284.746094 120.429688 L 857.734375 1011.941406 L 124.503906 660.742188 Z M 551.515625 -230.769531 " clip-rule="nonzero"/></clipPath><clipPath id="5879eb13c5"><path d="M 252 505 L 288 505 L 288 528 L 252 528 Z M 252 505 " clip-rule="nonzero"/></clipPath><clipPath id="2d1e4b6929"><path d="M 551.515625 -230.769531 L 1284.746094 120.429688 L 857.734375 1011.941406 L 124.503906 660.742188 Z M 551.515625 -230.769531 " clip-rule="nonzero"/></clipPath><clipPath id="7eaa1fe490"><path d="M 551.515625 -230.769531 L 1284.746094 120.429688 L 857.734375 1011.941406 L 124.503906 660.742188 Z M 551.515625 -230.769531 " clip-rule="nonzero"/></clipPath><clipPath id="f203955c65"><path d="M 551.515625 -230.769531 L 1284.746094 120.429688 L 857.734375 1011.941406 L 124.503906 660.742188 Z M 551.515625 -230.769531 " clip-rule="nonzero"/></clipPath><clipPath id="198427a6d7"><path d="M 189 510 L 222 510 L 222 541 L 189 541 Z M 189 510 " clip-rule="nonzero"/></clipPath><clipPath id="2448cc2af1"><path d="M 551.515625 -230.769531 L 1284.746094 120.429688 L 857.734375 1011.941406 L 124.503906 660.742188 Z M 551.515625 -230.769531 " clip-rule="nonzero"/></clipPath><clipPath id="3e2c3e7476"><path d="M 551.515625 -230.769531 L 1284.746094 120.429688 L 857.734375 1011.941406 L 124.503906 660.742188 Z M 551.515625 -230.769531 " clip-rule="nonzero"/></clipPath><clipPath id="037bbb5579"><path d="M 551.515625 -230.769531 L 1284.746094 120.429688 L 857.734375 1011.941406 L 124.503906 660.742188 Z M 551.515625 -230.769531 " clip-rule="nonzero"/></clipPath><clipPath id="5f9de0bfaf"><path d="M 311 540 L 344 540 L 344 571 L 311 571 Z M 311 540 " clip-rule="nonzero"/></clipPath><clipPath id="9e2669b221"><path d="M 551.515625 -230.769531 L 1284.746094 120.429688 L 857.734375 1011.941406 L 124.503906 660.742188 Z M 551.515625 -230.769531 " clip-rule="nonzero"/></clipPath><clipPath id="a931e84990"><path d="M 551.515625 -230.769531 L 1284.746094 120.429688 L 857.734375 1011.941406 L 124.503906 660.742188 Z M 551.515625 -230.769531 " clip-rule="nonzero"/></clipPath><clipPath id="ea55870e77"><path d="M 551.515625 -230.769531 L 1284.746094 120.429688 L 857.734375 1011.941406 L 124.503906 660.742188 Z M 551.515625 -230.769531 " clip-rule="nonzero"/></clipPath><clipPath id="1bbc9ac746"><path d="M 417 632 L 453 632 L 453 657 L 417 657 Z M 417 632 " clip-rule="nonzero"/></clipPath><clipPath id="104d8b0560"><path d="M 551.515625 -230.769531 L 1284.746094 120.429688 L 857.734375 1011.941406 L 124.503906 660.742188 Z M 551.515625 -230.769531 " clip-rule="nonzero"/></clipPath><clipPath id="014cf80854"><path d="M 551.515625 -230.769531 L 1284.746094 120.429688 L 857.734375 1011.941406 L 124.503906 660.742188 Z M 551.515625 -230.769531 " clip-rule="nonzero"/></clipPath><clipPath id="b78b8d6ac5"><path d="M 551.515625 -230.769531 L 1284.746094 120.429688 L 857.734375 1011.941406 L 124.503906 660.742188 Z M 551.515625 -230.769531 " clip-rule="nonzero"/></clipPath><clipPath id="80d1fa4155"><path d="M 483 626 L 514 626 L 514 658 L 483 658 Z M 483 626 " clip-rule="nonzero"/></clipPath><clipPath id="447f1ffcd8"><path d="M 551.515625 -230.769531 L 1284.746094 120.429688 L 857.734375 1011.941406 L 124.503906 660.742188 Z M 551.515625 -230.769531 " clip-rule="nonzero"/></clipPath><clipPath id="b87c15cea0"><path d="M 551.515625 -230.769531 L 1284.746094 120.429688 L 857.734375 1011.941406 L 124.503906 660.742188 Z M 551.515625 -230.769531 " clip-rule="nonzero"/></clipPath><clipPath id="83b144378a"><path d="M 551.515625 -230.769531 L 1284.746094 120.429688 L 857.734375 1011.941406 L 124.503906 660.742188 Z M 551.515625 -230.769531 " clip-rule="nonzero"/></clipPath><clipPath id="9bbdf86f91"><path d="M 983 476 L 999 476 L 999 513 L 983 513 Z M 983 476 " clip-rule="nonzero"/></clipPath><clipPath id="9aca9ea22c"><path d="M 551.515625 -230.769531 L 1284.746094 120.429688 L 857.734375 1011.941406 L 124.503906 660.742188 Z M 551.515625 -230.769531 " clip-rule="nonzero"/></clipPath><clipPath id="511d43bc57"><path d="M 551.515625 -230.769531 L 1284.746094 120.429688 L 857.734375 1011.941406 L 124.503906 660.742188 Z M 551.515625 -230.769531 " clip-rule="nonzero"/></clipPath><clipPath id="fbaedf3bf0"><path d="M 551.515625 -230.769531 L 1284.746094 120.429688 L 857.734375 1011.941406 L 124.503906 660.742188 Z M 551.515625 -230.769531 " clip-rule="nonzero"/></clipPath><clipPath id="213a4be660"><path d="M 1066 146 L 1097 146 L 1097 179 L 1066 179 Z M 1066 146 " clip-rule="nonzero"/></clipPath><clipPath id="9ae3259b3b"><path d="M 551.515625 -230.769531 L 1284.746094 120.429688 L 857.734375 1011.941406 L 124.503906 660.742188 Z M 551.515625 -230.769531 " clip-rule="nonzero"/></clipPath><clipPath id="0627d81aba"><path d="M 551.515625 -230.769531 L 1284.746094 120.429688 L 857.734375 1011.941406 L 124.503906 660.742188 Z M 551.515625 -230.769531 " clip-rule="nonzero"/></clipPath><clipPath id="37462c9152"><path d="M 551.515625 -230.769531 L 1284.746094 120.429688 L 857.734375 1011.941406 L 124.503906 660.742188 Z M 551.515625 -230.769531 " clip-rule="nonzero"/></clipPath><clipPath id="37f9770b6d"><path d="M 1028 202 L 1054 202 L 1054 238 L 1028 238 Z M 1028 202 " clip-rule="nonzero"/></clipPath><clipPath id="753017d228"><path d="M 551.515625 -230.769531 L 1284.746094 120.429688 L 857.734375 1011.941406 L 124.503906 660.742188 Z M 551.515625 -230.769531 " clip-rule="nonzero"/></clipPath><clipPath id="4ada63b4a7"><path d="M 551.515625 -230.769531 L 1284.746094 120.429688 L 857.734375 1011.941406 L 124.503906 660.742188 Z M 551.515625 -230.769531 " clip-rule="nonzero"/></clipPath><clipPath id="cc8ff9c42c"><path d="M 551.515625 -230.769531 L 1284.746094 120.429688 L 857.734375 1011.941406 L 124.503906 660.742188 Z M 551.515625 -230.769531 " clip-rule="nonzero"/></clipPath><clipPath id="23545a25b7"><path d="M 522 564 L 545 564 L 545 600 L 522 600 Z M 522 564 " clip-rule="nonzero"/></clipPath><clipPath id="d26b0335dc"><path d="M 551.515625 -230.769531 L 1284.746094 120.429688 L 857.734375 1011.941406 L 124.503906 660.742188 Z M 551.515625 -230.769531 " clip-rule="nonzero"/></clipPath><clipPath id="2af398b2f3"><path d="M 551.515625 -230.769531 L 1284.746094 120.429688 L 857.734375 1011.941406 L 124.503906 660.742188 Z M 551.515625 -230.769531 " clip-rule="nonzero"/></clipPath><clipPath id="b306f5d2e5"><path d="M 551.515625 -230.769531 L 1284.746094 120.429688 L 857.734375 1011.941406 L 124.503906 660.742188 Z M 551.515625 -230.769531 " clip-rule="nonzero"/></clipPath><clipPath id="3a9522cd6f"><path d="M 575 433 L 599 433 L 599 470 L 575 470 Z M 575 433 " clip-rule="nonzero"/></clipPath><clipPath id="550e5c8f5b"><path d="M 551.515625 -230.769531 L 1284.746094 120.429688 L 857.734375 1011.941406 L 124.503906 660.742188 Z M 551.515625 -230.769531 " clip-rule="nonzero"/></clipPath><clipPath id="e1458b3369"><path d="M 551.515625 -230.769531 L 1284.746094 120.429688 L 857.734375 1011.941406 L 124.503906 660.742188 Z M 551.515625 -230.769531 " clip-rule="nonzero"/></clipPath><clipPath id="122b5e817e"><path d="M 551.515625 -230.769531 L 1284.746094 120.429688 L 857.734375 1011.941406 L 124.503906 660.742188 Z M 551.515625 -230.769531 " clip-rule="nonzero"/></clipPath><clipPath id="feb87e4752"><path d="M 549 498 L 570 498 L 570 535 L 549 535 Z M 549 498 " clip-rule="nonzero"/></clipPath><clipPath id="405c31141f"><path d="M 551.515625 -230.769531 L 1284.746094 120.429688 L 857.734375 1011.941406 L 124.503906 660.742188 Z M 551.515625 -230.769531 " clip-rule="nonzero"/></clipPath><clipPath id="3001288e5b"><path d="M 551.515625 -230.769531 L 1284.746094 120.429688 L 857.734375 1011.941406 L 124.503906 660.742188 Z M 551.515625 -230.769531 " clip-rule="nonzero"/></clipPath><clipPath id="6c156f8085"><path d="M 551.515625 -230.769531 L 1284.746094 120.429688 L 857.734375 1011.941406 L 124.503906 660.742188 Z M 551.515625 -230.769531 " clip-rule="nonzero"/></clipPath><clipPath id="01e0eee98b"><path d="M 156 565 L 179 565 L 179 602 L 156 602 Z M 156 565 " clip-rule="nonzero"/></clipPath><clipPath id="7f5f95a0be"><path d="M 551.515625 -230.769531 L 1284.746094 120.429688 L 857.734375 1011.941406 L 124.503906 660.742188 Z M 551.515625 -230.769531 " clip-rule="nonzero"/></clipPath><clipPath id="1639af0ddf"><path d="M 551.515625 -230.769531 L 1284.746094 120.429688 L 857.734375 1011.941406 L 124.503906 660.742188 Z M 551.515625 -230.769531 " clip-rule="nonzero"/></clipPath><clipPath id="7a5db03bf8"><path d="M 551.515625 -230.769531 L 1284.746094 120.429688 L 857.734375 1011.941406 L 124.503906 660.742188 Z M 551.515625 -230.769531 " clip-rule="nonzero"/></clipPath><clipPath id="f953e391f3"><path d="M 363 587 L 396 587 L 396 618 L 363 618 Z M 363 587 " clip-rule="nonzero"/></clipPath><clipPath id="5e4b31c53d"><path d="M 551.515625 -230.769531 L 1284.746094 120.429688 L 857.734375 1011.941406 L 124.503906 660.742188 Z M 551.515625 -230.769531 " clip-rule="nonzero"/></clipPath><clipPath id="2cb98da845"><path d="M 551.515625 -230.769531 L 1284.746094 120.429688 L 857.734375 1011.941406 L 124.503906 660.742188 Z M 551.515625 -230.769531 " clip-rule="nonzero"/></clipPath><clipPath id="7d7f5a73a0"><path d="M 551.515625 -230.769531 L 1284.746094 120.429688 L 857.734375 1011.941406 L 124.503906 660.742188 Z M 551.515625 -230.769531 " clip-rule="nonzero"/></clipPath><clipPath id="b6e1b7e7c6"><path d="M 609 377 L 641 377 L 641 409 L 609 409 Z M 609 377 " clip-rule="nonzero"/></clipPath><clipPath id="43f58bb128"><path d="M 551.515625 -230.769531 L 1284.746094 120.429688 L 857.734375 1011.941406 L 124.503906 660.742188 Z M 551.515625 -230.769531 " clip-rule="nonzero"/></clipPath><clipPath id="04ecbbb633"><path d="M 551.515625 -230.769531 L 1284.746094 120.429688 L 857.734375 1011.941406 L 124.503906 660.742188 Z M 551.515625 -230.769531 " clip-rule="nonzero"/></clipPath><clipPath id="d8e13e32d1"><path d="M 551.515625 -230.769531 L 1284.746094 120.429688 L 857.734375 1011.941406 L 124.503906 660.742188 Z M 551.515625 -230.769531 " clip-rule="nonzero"/></clipPath><clipPath id="90be4e6f8b"><path d="M 1120 114 L 1156 114 L 1156 134 L 1120 134 Z M 1120 114 " clip-rule="nonzero"/></clipPath><clipPath id="ea964f6b89"><path d="M 551.515625 -230.769531 L 1284.746094 120.429688 L 857.734375 1011.941406 L 124.503906 660.742188 Z M 551.515625 -230.769531 " clip-rule="nonzero"/></clipPath><clipPath id="db613ef025"><path d="M 551.515625 -230.769531 L 1284.746094 120.429688 L 857.734375 1011.941406 L 124.503906 660.742188 Z M 551.515625 -230.769531 " clip-rule="nonzero"/></clipPath><clipPath id="2ff62ac4a4"><path d="M 551.515625 -230.769531 L 1284.746094 120.429688 L 857.734375 1011.941406 L 124.503906 660.742188 Z M 551.515625 -230.769531 " clip-rule="nonzero"/></clipPath><clipPath id="d394536ac3"><path d="M 1000 336 L 1013 336 L 1013 373 L 1000 373 Z M 1000 336 " clip-rule="nonzero"/></clipPath><clipPath id="cbcddcc279"><path d="M 551.515625 -230.769531 L 1284.746094 120.429688 L 857.734375 1011.941406 L 124.503906 660.742188 Z M 551.515625 -230.769531 " clip-rule="nonzero"/></clipPath><clipPath id="c1e47bb2f2"><path d="M 551.515625 -230.769531 L 1284.746094 120.429688 L 857.734375 1011.941406 L 124.503906 660.742188 Z M 551.515625 -230.769531 " clip-rule="nonzero"/></clipPath><clipPath id="56a23a7d92"><path d="M 551.515625 -230.769531 L 1284.746094 120.429688 L 857.734375 1011.941406 L 124.503906 660.742188 Z M 551.515625 -230.769531 " clip-rule="nonzero"/></clipPath><clipPath id="faf803af29"><path d="M 957 543 L 982 543 L 982 579 L 957 579 Z M 957 543 " clip-rule="nonzero"/></clipPath><clipPath id="44d6ba5347"><path d="M 551.515625 -230.769531 L 1284.746094 120.429688 L 857.734375 1011.941406 L 124.503906 660.742188 Z M 551.515625 -230.769531 " clip-rule="nonzero"/></clipPath><clipPath id="a7f7668bbf"><path d="M 551.515625 -230.769531 L 1284.746094 120.429688 L 857.734375 1011.941406 L 124.503906 660.742188 Z M 551.515625 -230.769531 " clip-rule="nonzero"/></clipPath><clipPath id="e6f84fa330"><path d="M 551.515625 -230.769531 L 1284.746094 120.429688 L 857.734375 1011.941406 L 124.503906 660.742188 Z M 551.515625 -230.769531 " clip-rule="nonzero"/></clipPath><clipPath id="d5682ffdf9"><path d="M 1008 266 L 1024 266 L 1024 303 L 1008 303 Z M 1008 266 " clip-rule="nonzero"/></clipPath><clipPath id="fbd84e70d2"><path d="M 551.515625 -230.769531 L 1284.746094 120.429688 L 857.734375 1011.941406 L 124.503906 660.742188 Z M 551.515625 -230.769531 " clip-rule="nonzero"/></clipPath><clipPath id="83c24bdd0e"><path d="M 551.515625 -230.769531 L 1284.746094 120.429688 L 857.734375 1011.941406 L 124.503906 660.742188 Z M 551.515625 -230.769531 " clip-rule="nonzero"/></clipPath><clipPath id="f181106c12"><path d="M 551.515625 -230.769531 L 1284.746094 120.429688 L 857.734375 1011.941406 L 124.503906 660.742188 Z M 551.515625 -230.769531 " clip-rule="nonzero"/></clipPath><clipPath id="350d343fd0"><path d="M 904 597 L 940 597 L 940 618 L 904 618 Z M 904 597 " clip-rule="nonzero"/></clipPath><clipPath id="635396a17f"><path d="M 551.515625 -230.769531 L 1284.746094 120.429688 L 857.734375 1011.941406 L 124.503906 660.742188 Z M 551.515625 -230.769531 " clip-rule="nonzero"/></clipPath><clipPath id="8d6780d4a0"><path d="M 551.515625 -230.769531 L 1284.746094 120.429688 L 857.734375 1011.941406 L 124.503906 660.742188 Z M 551.515625 -230.769531 " clip-rule="nonzero"/></clipPath><clipPath id="c2b143f70c"><path d="M 551.515625 -230.769531 L 1284.746094 120.429688 L 857.734375 1011.941406 L 124.503906 660.742188 Z M 551.515625 -230.769531 " clip-rule="nonzero"/></clipPath><clipPath id="6886e90e46"><path d="M 994 406 L 1007 406 L 1007 443 L 994 443 Z M 994 406 " clip-rule="nonzero"/></clipPath><clipPath id="6900ade743"><path d="M 551.515625 -230.769531 L 1284.746094 120.429688 L 857.734375 1011.941406 L 124.503906 660.742188 Z M 551.515625 -230.769531 " clip-rule="nonzero"/></clipPath><clipPath id="18fc8db478"><path d="M 551.515625 -230.769531 L 1284.746094 120.429688 L 857.734375 1011.941406 L 124.503906 660.742188 Z M 551.515625 -230.769531 " clip-rule="nonzero"/></clipPath><clipPath id="52ca60d094"><path d="M 551.515625 -230.769531 L 1284.746094 120.429688 L 857.734375 1011.941406 L 124.503906 660.742188 Z M 551.515625 -230.769531 " clip-rule="nonzero"/></clipPath><clipPath id="88b66d2c06"><path d="M 670 365 L 706 365 L 706 385 L 670 385 Z M 670 365 " clip-rule="nonzero"/></clipPath><clipPath id="c94c6e28c8"><path d="M 551.515625 -230.769531 L 1284.746094 120.429688 L 857.734375 1011.941406 L 124.503906 660.742188 Z M 551.515625 -230.769531 " clip-rule="nonzero"/></clipPath><clipPath id="c1648f4867"><path d="M 551.515625 -230.769531 L 1284.746094 120.429688 L 857.734375 1011.941406 L 124.503906 660.742188 Z M 551.515625 -230.769531 " clip-rule="nonzero"/></clipPath><clipPath id="80040777a9"><path d="M 551.515625 -230.769531 L 1284.746094 120.429688 L 857.734375 1011.941406 L 124.503906 660.742188 Z M 551.515625 -230.769531 " clip-rule="nonzero"/></clipPath><clipPath id="a88d2ace88"><path d="M 840 577 L 874 577 L 874 606 L 840 606 Z M 840 577 " clip-rule="nonzero"/></clipPath><clipPath id="3061929558"><path d="M 551.515625 -230.769531 L 1284.746094 120.429688 L 857.734375 1011.941406 L 124.503906 660.742188 Z M 551.515625 -230.769531 " clip-rule="nonzero"/></clipPath><clipPath id="fc5021bec8"><path d="M 551.515625 -230.769531 L 1284.746094 120.429688 L 857.734375 1011.941406 L 124.503906 660.742188 Z M 551.515625 -230.769531 " clip-rule="nonzero"/></clipPath><clipPath id="52ed1ef1b2"><path d="M 551.515625 -230.769531 L 1284.746094 120.429688 L 857.734375 1011.941406 L 124.503906 660.742188 Z M 551.515625 -230.769531 " clip-rule="nonzero"/></clipPath><clipPath id="0a65a9ba40"><path d="M 725 401 L 754 401 L 754 436 L 725 436 Z M 725 401 " clip-rule="nonzero"/></clipPath><clipPath id="b4c0e4a3b4"><path d="M 551.515625 -230.769531 L 1284.746094 120.429688 L 857.734375 1011.941406 L 124.503906 660.742188 Z M 551.515625 -230.769531 " clip-rule="nonzero"/></clipPath><clipPath id="1c394c0bd1"><path d="M 551.515625 -230.769531 L 1284.746094 120.429688 L 857.734375 1011.941406 L 124.503906 660.742188 Z M 551.515625 -230.769531 " clip-rule="nonzero"/></clipPath><clipPath id="0539c3792d"><path d="M 551.515625 -230.769531 L 1284.746094 120.429688 L 857.734375 1011.941406 L 124.503906 660.742188 Z M 551.515625 -230.769531 " clip-rule="nonzero"/></clipPath><clipPath id="b9cd6ad259"><path d="M 761 462 L 785 462 L 785 499 L 761 499 Z M 761 462 " clip-rule="nonzero"/></clipPath><clipPath id="b251c91b85"><path d="M 551.515625 -230.769531 L 1284.746094 120.429688 L 857.734375 1011.941406 L 124.503906 660.742188 Z M 551.515625 -230.769531 " clip-rule="nonzero"/></clipPath><clipPath id="764af869c5"><path d="M 551.515625 -230.769531 L 1284.746094 120.429688 L 857.734375 1011.941406 L 124.503906 660.742188 Z M 551.515625 -230.769531 " clip-rule="nonzero"/></clipPath><clipPath id="4a056041ee"><path d="M 551.515625 -230.769531 L 1284.746094 120.429688 L 857.734375 1011.941406 L 124.503906 660.742188 Z M 551.515625 -230.769531 " clip-rule="nonzero"/></clipPath><clipPath id="9067fea469"><path d="M 794 524 L 823 524 L 823 558 L 794 558 Z M 794 524 " clip-rule="nonzero"/></clipPath><clipPath id="ec896308ec"><path d="M 551.515625 -230.769531 L 1284.746094 120.429688 L 857.734375 1011.941406 L 124.503906 660.742188 Z M 551.515625 -230.769531 " clip-rule="nonzero"/></clipPath><clipPath id="a914ed6651"><path d="M 551.515625 -230.769531 L 1284.746094 120.429688 L 857.734375 1011.941406 L 124.503906 660.742188 Z M 551.515625 -230.769531 " clip-rule="nonzero"/></clipPath><clipPath id="ad87619a35"><path d="M 551.515625 -230.769531 L 1284.746094 120.429688 L 857.734375 1011.941406 L 124.503906 660.742188 Z M 551.515625 -230.769531 " clip-rule="nonzero"/></clipPath><clipPath id="e3449d34c8"><path d="M 1180 80 L 1275 80 L 1275 149 L 1180 149 Z M 1180 80 " clip-rule="nonzero"/></clipPath><clipPath id="65c84302fd"><path d="M 551.515625 -230.769531 L 1284.746094 120.429688 L 857.734375 1011.941406 L 124.503906 660.742188 Z M 551.515625 -230.769531 " clip-rule="nonzero"/></clipPath><clipPath id="c6e299c219"><path d="M 551.515625 -230.769531 L 1284.746094 120.429688 L 857.734375 1011.941406 L 124.503906 660.742188 Z M 551.515625 -230.769531 " clip-rule="nonzero"/></clipPath><clipPath id="c95c1f1b89"><path d="M 551.515625 -230.769531 L 1284.746094 120.429688 L 857.734375 1011.941406 L 124.503906 660.742188 Z M 551.515625 -230.769531 " clip-rule="nonzero"/></clipPath></defs><rect x="-144" width="1728" fill="#ffffff" y="-80.999999" height="971.999992" fill-opacity="1"/><rect x="-144" width="1728" fill="#f03232" y="-80.999999" height="971.999992" fill-opacity="1"/><g clip-path="url(#f93a65927f)"><g clip-path="url(#76052a2781)"><g clip-path="url(#a4224634fa)"><g clip-path="url(#1581200771)"><path fill="#231f20" d="M 145.589844 631.988281 C 142.472656 642.664062 139.445312 654.167969 136.566406 666.179688 L 145.085938 668.214844 C 147.890625 656.363281 150.898438 644.996094 154 634.457031 Z M 145.589844 631.988281 " fill-opacity="1" fill-rule="nonzero"/></g></g></g></g><g clip-path="url(#5879eb13c5)"><g clip-path="url(#2d1e4b6929)"><g clip-path="url(#7eaa1fe490)"><g clip-path="url(#f203955c65)"><path fill="#231f20" d="M 274.730469 512.515625 C 267.601562 509.101562 260.746094 506.742188 254.359375 505.4375 L 252.621094 514.046875 C 258.316406 515.167969 264.480469 517.34375 270.933594 520.433594 C 275.074219 522.367188 279.019531 524.597656 283.304688 527.238281 L 287.914062 519.753906 C 283.40625 516.960938 279.003906 514.5625 274.808594 512.550781 C 274.769531 512.53125 274.730469 512.515625 274.730469 512.515625 Z M 274.730469 512.515625 " fill-opacity="1" fill-rule="nonzero"/></g></g></g></g><g clip-path="url(#198427a6d7)"><g clip-path="url(#2448cc2af1)"><g clip-path="url(#3e2c3e7476)"><g clip-path="url(#037bbb5579)"><path fill="#231f20" d="M 189.910156 535.1875 L 196.796875 540.628906 C 204.664062 530.617188 212.980469 523.207031 221.507812 518.621094 L 217.332031 510.875 C 207.773438 516.085938 198.5625 524.238281 189.910156 535.1875 Z M 189.910156 535.1875 " fill-opacity="1" fill-rule="nonzero"/></g></g></g></g><g clip-path="url(#5f9de0bfaf)"><g clip-path="url(#9e2669b221)"><g clip-path="url(#a931e84990)"><g clip-path="url(#ea55870e77)"><path fill="#231f20" d="M 311.226562 547.523438 C 318.8125 553.738281 327.167969 561.003906 337.578125 570.46875 L 343.480469 563.945312 C 332.964844 554.382812 324.511719 547.023438 316.785156 540.691406 Z M 311.226562 547.523438 " fill-opacity="1" fill-rule="nonzero"/></g></g></g></g><g clip-path="url(#1bbc9ac746)"><g clip-path="url(#104d8b0560)"><g clip-path="url(#014cf80854)"><g clip-path="url(#b78b8d6ac5)"><path fill="#231f20" d="M 422.65625 632.644531 L 417.652344 639.839844 C 425.460938 645.285156 432.566406 649.464844 439.414062 652.746094 C 442.902344 654.414062 446.324219 655.8125 449.582031 656.933594 L 452.445312 648.617188 C 443.558594 645.625 433.765625 640.351562 422.65625 632.644531 Z M 422.65625 632.644531 " fill-opacity="1" fill-rule="nonzero"/></g></g></g></g><g clip-path="url(#80d1fa4155)"><g clip-path="url(#447f1ffcd8)"><g clip-path="url(#b87c15cea0)"><g clip-path="url(#83b144378a)"><path fill="#231f20" d="M 483.507812 649.226562 L 487.0625 657.261719 C 496.226562 653.175781 504.941406 644.738281 513.6875 631.351562 L 506.359375 626.527344 C 498.566406 638.425781 491.113281 645.859375 483.507812 649.226562 Z M 483.507812 649.226562 " fill-opacity="1" fill-rule="nonzero"/></g></g></g></g><g clip-path="url(#9bbdf86f91)"><g clip-path="url(#9aca9ea22c)"><g clip-path="url(#511d43bc57)"><g clip-path="url(#fbaedf3bf0)"><path fill="#231f20" d="M 991.910156 512.316406 C 994.5 501.625 996.742188 490.234375 998.804688 477.492188 L 990.117188 476.109375 C 988.113281 488.632812 985.925781 499.808594 983.371094 510.222656 Z M 991.910156 512.316406 " fill-opacity="1" fill-rule="nonzero"/></g></g></g></g><g clip-path="url(#213a4be660)"><g clip-path="url(#9ae3259b3b)"><g clip-path="url(#0627d81aba)"><g clip-path="url(#37462c9152)"><path fill="#231f20" d="M 1096.34375 152.988281 L 1090.476562 146.429688 C 1082.195312 153.859375 1073.980469 162.679688 1066.15625 172.710938 L 1073.0625 178.113281 C 1080.578125 168.519531 1088.429688 160.058594 1096.34375 152.988281 Z M 1096.34375 152.988281 " fill-opacity="1" fill-rule="nonzero"/></g></g></g></g><g clip-path="url(#37f9770b6d)"><g clip-path="url(#753017d228)"><g clip-path="url(#4ada63b4a7)"><g clip-path="url(#cc8ff9c42c)"><path fill="#231f20" d="M 1053.472656 206.613281 L 1045.96875 202.042969 C 1040.179688 211.492188 1034.402344 221.921875 1028.777344 233.054688 L 1036.625 237.007812 C 1042.136719 226.113281 1047.816406 215.878906 1053.472656 206.613281 Z M 1053.472656 206.613281 " fill-opacity="1" fill-rule="nonzero"/></g></g></g></g><g clip-path="url(#23545a25b7)"><g clip-path="url(#d26b0335dc)"><g clip-path="url(#2af398b2f3)"><g clip-path="url(#b306f5d2e5)"><path fill="#231f20" d="M 536.292969 564.03125 C 531.132812 576.945312 526.808594 587.191406 522.65625 596.160156 L 530.636719 599.835938 C 534.859375 590.707031 539.242188 580.34375 544.441406 567.25 Z M 536.292969 564.03125 " fill-opacity="1" fill-rule="nonzero"/></g></g></g></g><g clip-path="url(#3a9522cd6f)"><g clip-path="url(#550e5c8f5b)"><g clip-path="url(#e1458b3369)"><g clip-path="url(#122b5e817e)"><path fill="#231f20" d="M 583.203125 469.445312 C 585.492188 464.261719 587.824219 459.191406 590.214844 454.203125 C 592.945312 448.5 595.683594 443.089844 598.347656 438.136719 L 590.597656 433.984375 C 587.855469 439.097656 585.0625 444.625 582.273438 450.449219 C 579.847656 455.519531 577.476562 460.664062 575.152344 465.929688 Z M 583.203125 469.445312 " fill-opacity="1" fill-rule="nonzero"/></g></g></g></g><g clip-path="url(#feb87e4752)"><g clip-path="url(#405c31141f)"><g clip-path="url(#3001288e5b)"><g clip-path="url(#6c156f8085)"><path fill="#231f20" d="M 569.785156 501.730469 L 561.601562 498.488281 C 557.285156 509.328125 553.132812 520.238281 549.03125 531.03125 L 553.011719 532.890625 L 557.214844 534.175781 C 561.394531 523.417969 565.53125 512.542969 569.785156 501.730469 Z M 569.785156 501.730469 " fill-opacity="1" fill-rule="nonzero"/></g></g></g></g><g clip-path="url(#01e0eee98b)"><g clip-path="url(#7f5f95a0be)"><g clip-path="url(#1639af0ddf)"><g clip-path="url(#7a5db03bf8)"><path fill="#231f20" d="M 176.128906 574.941406 C 177 573.117188 177.894531 571.355469 178.75 569.671875 L 170.925781 565.679688 C 170.03125 567.441406 169.097656 569.285156 168.207031 571.144531 C 164.242188 579.421875 160.390625 588.582031 156.746094 598.328125 L 164.96875 601.390625 C 168.5 591.882812 172.277344 582.980469 176.128906 574.941406 Z M 176.128906 574.941406 " fill-opacity="1" fill-rule="nonzero"/></g></g></g></g><g clip-path="url(#f953e391f3)"><g clip-path="url(#5e4b31c53d)"><g clip-path="url(#2cb98da845)"><g clip-path="url(#7d7f5a73a0)"><path fill="#231f20" d="M 363.417969 594.289062 C 371.277344 601.558594 380.554688 610.042969 389.703125 617.882812 L 395.425781 611.226562 C 386.394531 603.445312 377.179688 595.035156 369.378906 587.84375 Z M 363.417969 594.289062 " fill-opacity="1" fill-rule="nonzero"/></g></g></g></g><g clip-path="url(#b6e1b7e7c6)"><g clip-path="url(#43f58bb128)"><g clip-path="url(#04ecbbb633)"><g clip-path="url(#d8e13e32d1)"><path fill="#231f20" d="M 609.566406 403.632812 L 616.589844 408.894531 C 624.273438 398.648438 632.226562 390.578125 640.207031 385 L 635.175781 377.820312 C 626.324219 384 617.941406 392.449219 609.566406 403.632812 Z M 609.566406 403.632812 " fill-opacity="1" fill-rule="nonzero"/></g></g></g></g><g clip-path="url(#90be4e6f8b)"><g clip-path="url(#ea964f6b89)"><g clip-path="url(#db613ef025)"><g clip-path="url(#2ff62ac4a4)"><path fill="#231f20" d="M 1155.992188 122.886719 L 1154.492188 114.230469 C 1142.527344 116.339844 1130.925781 120.230469 1120.136719 125.773438 L 1124.140625 133.582031 C 1134.324219 128.382812 1144.773438 124.863281 1155.992188 122.886719 Z M 1155.992188 122.886719 " fill-opacity="1" fill-rule="nonzero"/></g></g></g></g><g clip-path="url(#d394536ac3)"><g clip-path="url(#cbcddcc279)"><g clip-path="url(#c1e47bb2f2)"><g clip-path="url(#56a23a7d92)"><path fill="#231f20" d="M 1003.957031 336.417969 C 1002.78125 348.222656 1001.785156 360.261719 1000.878906 371.511719 L 1009.648438 372.207031 C 1010.539062 360.996094 1011.554688 349.015625 1012.710938 337.25 Z M 1003.957031 336.417969 " fill-opacity="1" fill-rule="nonzero"/></g></g></g></g><g clip-path="url(#faf803af29)"><g clip-path="url(#44d6ba5347)"><g clip-path="url(#a7f7668bbf)"><g clip-path="url(#e6f84fa330)"><path fill="#231f20" d="M 973.167969 543.214844 C 971.527344 547.347656 969.808594 551.34375 968.003906 555.109375 C 964.800781 561.800781 961.269531 567.949219 957.515625 573.453125 L 964.765625 578.4375 C 968.792969 572.574219 972.550781 566.050781 975.964844 558.921875 C 977.863281 554.960938 979.675781 550.765625 981.371094 546.414062 Z M 973.167969 543.214844 " fill-opacity="1" fill-rule="nonzero"/></g></g></g></g><g clip-path="url(#d5682ffdf9)"><g clip-path="url(#fbd84e70d2)"><g clip-path="url(#83c24bdd0e)"><g clip-path="url(#f181106c12)"><path fill="#231f20" d="M 1015.359375 266.359375 C 1012.582031 276.324219 1010.261719 287.777344 1008.210938 301.304688 L 1016.875 302.632812 C 1018.855469 289.457031 1021.160156 278.339844 1023.824219 268.710938 Z M 1015.359375 266.359375 " fill-opacity="1" fill-rule="nonzero"/></g></g></g></g><g clip-path="url(#350d343fd0)"><g clip-path="url(#635396a17f)"><g clip-path="url(#8d6780d4a0)"><g clip-path="url(#c2b143f70c)"><path fill="#231f20" d="M 913.664062 607.570312 C 911.125 608.398438 908.105469 608.707031 904.644531 608.507812 L 904.085938 617.296875 C 908.667969 617.59375 912.824219 617.148438 916.457031 615.96875 C 924.621094 613.257812 932.296875 609.433594 939.246094 604.582031 L 934.230469 597.359375 C 927.960938 601.710938 921.007812 605.148438 913.664062 607.570312 Z M 913.664062 607.570312 " fill-opacity="1" fill-rule="nonzero"/></g></g></g></g><g clip-path="url(#6886e90e46)"><g clip-path="url(#6900ade743)"><g clip-path="url(#18fc8db478)"><g clip-path="url(#52ca60d094)"><path fill="#231f20" d="M 1003.414062 442.453125 C 1004.539062 432.179688 1005.605469 421.003906 1006.789062 407.355469 L 998.035156 406.621094 C 996.871094 420.230469 995.800781 431.308594 994.699219 441.539062 Z M 1003.414062 442.453125 " fill-opacity="1" fill-rule="nonzero"/></g></g></g></g><g clip-path="url(#88b66d2c06)"><g clip-path="url(#c94c6e28c8)"><g clip-path="url(#c1648f4867)"><g clip-path="url(#80040777a9)"><path fill="#231f20" d="M 670.464844 365.945312 L 670.4375 374.746094 C 680.296875 374.792969 690.628906 378.234375 700.953125 384.933594 L 705.738281 377.582031 C 693.980469 369.90625 681.992188 365.964844 670.464844 365.945312 Z M 670.464844 365.945312 " fill-opacity="1" fill-rule="nonzero"/></g></g></g></g><g clip-path="url(#a88d2ace88)"><g clip-path="url(#3061929558)"><g clip-path="url(#fc5021bec8)"><g clip-path="url(#52ed1ef1b2)"><path fill="#231f20" d="M 840.410156 583.632812 C 850.003906 592.269531 859.75 599.46875 869.3125 605.023438 L 873.71875 597.445312 C 864.65625 592.179688 855.425781 585.324219 846.269531 577.09375 Z M 840.410156 583.632812 " fill-opacity="1" fill-rule="nonzero"/></g></g></g></g><g clip-path="url(#0a65a9ba40)"><g clip-path="url(#b4c0e4a3b4)"><g clip-path="url(#1c394c0bd1)"><g clip-path="url(#0539c3792d)"><path fill="#231f20" d="M 725.8125 407.648438 C 732.546875 415.644531 739.167969 425.097656 745.59375 435.773438 L 753.117188 431.246094 C 746.488281 420.183594 739.527344 410.320312 732.53125 401.957031 Z M 725.8125 407.648438 " fill-opacity="1" fill-rule="nonzero"/></g></g></g></g><g clip-path="url(#b9cd6ad259)"><g clip-path="url(#b251c91b85)"><g clip-path="url(#764af869c5)"><g clip-path="url(#4a056041ee)"><path fill="#231f20" d="M 769.699219 462.703125 L 761.726562 466.433594 C 763.152344 469.453125 764.542969 472.554688 765.949219 475.710938 C 769.363281 483.433594 773.007812 491.070312 776.78125 498.332031 L 784.570312 494.269531 C 780.875 487.144531 777.332031 479.703125 773.984375 472.15625 C 772.554688 468.941406 771.144531 465.78125 769.699219 462.703125 Z M 769.699219 462.703125 " fill-opacity="1" fill-rule="nonzero"/></g></g></g></g><g clip-path="url(#9067fea469)"><g clip-path="url(#ec896308ec)"><g clip-path="url(#a914ed6651)"><g clip-path="url(#ad87619a35)"><path fill="#231f20" d="M 794.628906 529.082031 C 801.28125 539.28125 808.378906 548.960938 815.695312 557.773438 L 822.4375 552.140625 C 815.300781 543.558594 808.402344 534.171875 801.949219 524.261719 Z M 794.628906 529.082031 " fill-opacity="1" fill-rule="nonzero"/></g></g></g></g><g clip-path="url(#e3449d34c8)"><g clip-path="url(#65c84302fd)"><g clip-path="url(#c6e299c219)"><g clip-path="url(#c95c1f1b89)"><path fill="#231f20" d="M 1274.457031 139.652344 L 1201.113281 80.226562 L 1209.421875 115.222656 C 1202.921875 114.054688 1196.601562 113.222656 1190.566406 112.714844 L 1189.867188 121.488281 C 1195.355469 121.921875 1201.125 122.691406 1207.054688 123.730469 L 1180.449219 148.574219 Z M 1274.457031 139.652344 " fill-opacity="1" fill-rule="nonzero"/></g></g></g></g></svg>