<svg xmlns="http://www.w3.org/2000/svg" xmlns:xlink="http://www.w3.org/1999/xlink" width="1920" zoomAndPan="magnify" viewBox="0 0 1440 809.999993" height="1080" preserveAspectRatio="xMidYMid meet" version="1.0"><defs><clipPath id="cf2492fab1"><path d="M 490 182 L 504 182 L 504 671.695312 L 490 671.695312 Z M 490 182 " clip-rule="nonzero"/></clipPath><clipPath id="d1ca4d374a"><path d="M 465.394531 138.445312 L 528.394531 138.445312 L 528.394531 193 L 465.394531 193 Z M 465.394531 138.445312 " clip-rule="nonzero"/></clipPath><clipPath id="efb7180fd7"><path d="M 1031 195.742188 L 1045 195.742188 L 1045 686 L 1031 686 Z M 1031 195.742188 " clip-rule="nonzero"/></clipPath><clipPath id="df6f8279d2"><path d="M 1006.59375 674 L 1069.59375 674 L 1069.59375 728.992188 L 1006.59375 728.992188 Z M 1006.59375 674 " clip-rule="nonzero"/></clipPath></defs><rect x="-144" width="1728" fill="#ffffff" y="-80.999999" height="971.999992" fill-opacity="1"/><rect x="-144" width="1728" fill="#f0e75d" y="-80.999999" height="971.999992" fill-opacity="1"/><g clip-path="url(#cf2492fab1)"><path fill="#000000" d="M 496.730469 671.542969 C 493.265625 671.542969 490.457031 668.738281 490.457031 665.273438 L 490.457031 640.1875 C 490.457031 636.722656 493.265625 633.914062 496.730469 633.914062 C 500.195312 633.914062 503.003906 636.722656 503.003906 640.1875 L 503.003906 665.273438 C 503.003906 668.738281 500.195312 671.542969 496.730469 671.542969 Z M 496.730469 621.371094 C 493.265625 621.371094 490.457031 618.5625 490.457031 615.097656 L 490.457031 590.011719 C 490.457031 586.546875 493.265625 583.738281 496.730469 583.738281 C 500.195312 583.738281 503.003906 586.546875 503.003906 590.011719 L 503.003906 615.097656 C 503.003906 618.5625 500.195312 621.371094 496.730469 621.371094 Z M 496.730469 571.195312 C 493.265625 571.195312 490.457031 568.390625 490.457031 564.925781 L 490.457031 539.835938 C 490.457031 536.375 493.265625 533.566406 496.730469 533.566406 C 500.195312 533.566406 503.003906 536.375 503.003906 539.835938 L 503.003906 564.925781 C 503.003906 568.390625 500.195312 571.195312 496.730469 571.195312 Z M 496.730469 521.023438 C 493.265625 521.023438 490.457031 518.214844 490.457031 514.75 L 490.457031 489.664062 C 490.457031 486.199219 493.265625 483.390625 496.730469 483.390625 C 500.195312 483.390625 503.003906 486.199219 503.003906 489.664062 L 503.003906 514.75 C 503.003906 518.214844 500.195312 521.023438 496.730469 521.023438 Z M 496.730469 470.847656 C 493.265625 470.847656 490.457031 468.042969 490.457031 464.578125 L 490.457031 439.488281 C 490.457031 436.027344 493.265625 433.21875 496.730469 433.21875 C 500.195312 433.21875 503.003906 436.027344 503.003906 439.488281 L 503.003906 464.578125 C 503.003906 468.042969 500.195312 470.847656 496.730469 470.847656 Z M 496.730469 420.675781 C 493.265625 420.675781 490.457031 417.867188 490.457031 414.402344 L 490.457031 389.316406 C 490.457031 385.851562 493.265625 383.042969 496.730469 383.042969 C 500.195312 383.042969 503.003906 385.851562 503.003906 389.316406 L 503.003906 414.402344 C 503.003906 417.867188 500.195312 420.675781 496.730469 420.675781 Z M 496.730469 370.5 C 493.265625 370.5 490.457031 367.691406 490.457031 364.230469 L 490.457031 339.140625 C 490.457031 335.679688 493.265625 332.871094 496.730469 332.871094 C 500.195312 332.871094 503.003906 335.679688 503.003906 339.140625 L 503.003906 364.230469 C 503.003906 367.691406 500.195312 370.5 496.730469 370.5 Z M 496.730469 320.328125 C 493.265625 320.328125 490.457031 317.519531 490.457031 314.054688 L 490.457031 288.96875 C 490.457031 285.503906 493.265625 282.695312 496.730469 282.695312 C 500.195312 282.695312 503.003906 285.503906 503.003906 288.96875 L 503.003906 314.054688 C 503.003906 317.519531 500.195312 320.328125 496.730469 320.328125 Z M 496.730469 270.152344 C 493.265625 270.152344 490.457031 267.34375 490.457031 263.882812 L 490.457031 238.792969 C 490.457031 235.332031 493.265625 232.523438 496.730469 232.523438 C 500.195312 232.523438 503.003906 235.332031 503.003906 238.792969 L 503.003906 263.882812 C 503.003906 267.34375 500.195312 270.152344 496.730469 270.152344 Z M 496.730469 219.980469 C 493.265625 219.980469 490.457031 217.171875 490.457031 213.707031 L 490.457031 188.621094 C 490.457031 185.15625 493.265625 182.347656 496.730469 182.347656 C 500.195312 182.347656 503.003906 185.15625 503.003906 188.621094 L 503.003906 213.707031 C 503.003906 217.171875 500.195312 219.980469 496.730469 219.980469 Z M 496.730469 219.980469 " fill-opacity="1" fill-rule="nonzero"/></g><g clip-path="url(#d1ca4d374a)"><path fill="#000000" d="M 528.003906 192.605469 L 496.730469 138.445312 L 465.457031 192.605469 Z M 528.003906 192.605469 " fill-opacity="1" fill-rule="nonzero"/></g><g clip-path="url(#efb7180fd7)"><path fill="#000000" d="M 1038.257812 195.894531 C 1041.722656 195.894531 1044.527344 198.699219 1044.527344 202.164062 L 1044.527344 227.253906 C 1044.527344 230.714844 1041.722656 233.523438 1038.257812 233.523438 C 1034.792969 233.523438 1031.984375 230.714844 1031.984375 227.253906 L 1031.984375 202.164062 C 1031.984375 198.699219 1034.792969 195.894531 1038.257812 195.894531 Z M 1038.257812 246.066406 C 1041.722656 246.066406 1044.527344 248.875 1044.527344 252.339844 L 1044.527344 277.425781 C 1044.527344 280.890625 1041.722656 283.699219 1038.257812 283.699219 C 1034.792969 283.699219 1031.984375 280.890625 1031.984375 277.425781 L 1031.984375 252.339844 C 1031.984375 248.875 1034.792969 246.066406 1038.257812 246.066406 Z M 1038.257812 296.242188 C 1041.722656 296.242188 1044.527344 299.046875 1044.527344 302.511719 L 1044.527344 327.601562 C 1044.527344 331.0625 1041.722656 333.871094 1038.257812 333.871094 C 1034.792969 333.871094 1031.984375 331.0625 1031.984375 327.601562 L 1031.984375 302.511719 C 1031.984375 299.046875 1034.792969 296.242188 1038.257812 296.242188 Z M 1038.257812 346.414062 C 1041.722656 346.414062 1044.527344 349.222656 1044.527344 352.6875 L 1044.527344 377.773438 C 1044.527344 381.238281 1041.722656 384.046875 1038.257812 384.046875 C 1034.792969 384.046875 1031.984375 381.238281 1031.984375 377.773438 L 1031.984375 352.6875 C 1031.984375 349.222656 1034.792969 346.414062 1038.257812 346.414062 Z M 1038.257812 396.589844 C 1041.722656 396.589844 1044.527344 399.398438 1044.527344 402.859375 L 1044.527344 427.949219 C 1044.527344 431.410156 1041.722656 434.21875 1038.257812 434.21875 C 1034.792969 434.21875 1031.984375 431.410156 1031.984375 427.949219 L 1031.984375 402.859375 C 1031.984375 399.398438 1034.792969 396.589844 1038.257812 396.589844 Z M 1038.257812 446.761719 C 1041.722656 446.761719 1044.527344 449.570312 1044.527344 453.035156 L 1044.527344 478.121094 C 1044.527344 481.585938 1041.722656 484.394531 1038.257812 484.394531 C 1034.792969 484.394531 1031.984375 481.585938 1031.984375 478.121094 L 1031.984375 453.035156 C 1031.984375 449.570312 1034.792969 446.761719 1038.257812 446.761719 Z M 1038.257812 496.9375 C 1041.722656 496.9375 1044.527344 499.746094 1044.527344 503.207031 L 1044.527344 528.296875 C 1044.527344 531.757812 1041.722656 534.566406 1038.257812 534.566406 C 1034.792969 534.566406 1031.984375 531.757812 1031.984375 528.296875 L 1031.984375 503.207031 C 1031.984375 499.746094 1034.792969 496.9375 1038.257812 496.9375 Z M 1038.257812 547.109375 C 1041.722656 547.109375 1044.527344 549.917969 1044.527344 553.382812 L 1044.527344 578.46875 C 1044.527344 581.933594 1041.722656 584.742188 1038.257812 584.742188 C 1034.792969 584.742188 1031.984375 581.933594 1031.984375 578.46875 L 1031.984375 553.382812 C 1031.984375 549.917969 1034.792969 547.109375 1038.257812 547.109375 Z M 1038.257812 597.285156 C 1041.722656 597.285156 1044.527344 600.09375 1044.527344 603.554688 L 1044.527344 628.644531 C 1044.527344 632.105469 1041.722656 634.914062 1038.257812 634.914062 C 1034.792969 634.914062 1031.984375 632.105469 1031.984375 628.644531 L 1031.984375 603.554688 C 1031.984375 600.09375 1034.792969 597.285156 1038.257812 597.285156 Z M 1038.257812 647.457031 C 1041.722656 647.457031 1044.527344 650.265625 1044.527344 653.730469 L 1044.527344 678.816406 C 1044.527344 682.28125 1041.722656 685.089844 1038.257812 685.089844 C 1034.792969 685.089844 1031.984375 682.28125 1031.984375 678.816406 L 1031.984375 653.730469 C 1031.984375 650.265625 1034.792969 647.457031 1038.257812 647.457031 Z M 1038.257812 647.457031 " fill-opacity="1" fill-rule="nonzero"/></g><g clip-path="url(#df6f8279d2)"><path fill="#000000" d="M 1006.984375 674.832031 L 1038.257812 728.992188 L 1069.53125 674.832031 Z M 1006.984375 674.832031 " fill-opacity="1" fill-rule="nonzero"/></g></svg>