<svg xmlns="http://www.w3.org/2000/svg" xmlns:xlink="http://www.w3.org/1999/xlink" width="1920" zoomAndPan="magnify" viewBox="0 0 1440 809.999993" height="1080" preserveAspectRatio="xMidYMid meet" version="1.0"><defs><clipPath id="4a67b35409"><path d="M 172.804688 274.671875 L 1231.054688 274.671875 L 1231.054688 535.671875 L 172.804688 535.671875 Z M 172.804688 274.671875 " clip-rule="nonzero"/></clipPath></defs><rect x="-144" width="1728" fill="#ffffff" y="-80.999999" height="971.999992" fill-opacity="1"/><rect x="-144" width="1728" fill="#baa2d2" y="-80.999999" height="971.999992" fill-opacity="1"/><g clip-path="url(#4a67b35409)"><path fill="#000000" d="M 172.804688 515.167969 L 216.699219 515.167969 L 216.699219 535.457031 L 172.804688 535.457031 Z M 934.222656 339.027344 L 1026.398438 339.027344 L 1026.398438 318.734375 L 934.222656 318.734375 Z M 749.867188 339.027344 L 842.046875 339.027344 L 842.046875 318.734375 L 749.867188 318.734375 Z M 308.878906 535.464844 L 401.054688 535.464844 L 401.054688 515.175781 L 308.878906 515.175781 Z M 492.203125 514.734375 L 494.21875 534.925781 C 498.4375 534.496094 502.621094 533.824219 506.757812 532.902344 C 510.898438 531.984375 514.972656 530.824219 518.976562 529.425781 C 522.980469 528.027344 526.890625 526.398438 530.703125 524.539062 C 534.515625 522.679688 538.207031 520.601562 541.777344 518.308594 C 545.347656 516.011719 548.769531 513.515625 552.046875 510.820312 C 555.324219 508.121094 558.429688 505.242188 561.367188 502.179688 C 564.308594 499.117188 567.054688 495.890625 569.617188 492.503906 C 572.175781 489.117188 574.527344 485.59375 576.675781 481.929688 L 559.207031 471.652344 C 545.011719 495.839844 519.964844 511.945312 492.203125 514.726562 Z M 580.179688 383.957031 L 598.761719 392.039062 C 600.136719 388.875 601.691406 385.800781 603.429688 382.820312 C 605.164062 379.835938 607.066406 376.964844 609.140625 374.207031 C 611.210938 371.449219 613.4375 368.820312 615.816406 366.324219 C 618.195312 363.824219 620.714844 361.476562 623.367188 359.273438 C 626.023438 357.074219 628.796875 355.035156 631.6875 353.15625 C 634.582031 351.28125 637.574219 349.582031 640.667969 348.054688 C 643.757812 346.53125 646.929688 345.191406 650.179688 344.039062 C 653.425781 342.886719 656.730469 341.929688 660.09375 341.164062 L 655.65625 321.378906 C 651.519531 322.316406 647.453125 323.496094 643.457031 324.914062 C 639.457031 326.332031 635.558594 327.976562 631.753906 329.851562 C 627.949219 331.726562 624.265625 333.820312 620.707031 336.125 C 617.144531 338.433594 613.730469 340.941406 610.464844 343.648438 C 607.199219 346.359375 604.101562 349.25 601.171875 352.320312 C 598.246094 355.394531 595.507812 358.625 592.957031 362.019531 C 590.40625 365.414062 588.0625 368.945312 585.925781 372.613281 C 583.789062 376.28125 581.875 380.0625 580.179688 383.957031 Z M 1149.921875 318.734375 L 1118.679688 318.734375 L 1118.679688 339.027344 L 1149.921875 339.027344 L 1134.070312 382.921875 C 1158.847656 361.285156 1198.824219 340.851562 1231.039062 328.863281 C 1198.824219 316.90625 1158.847656 296.472656 1134.070312 274.835938 Z M 1149.921875 318.734375 " fill-opacity="1" fill-rule="nonzero"/></g></svg>