<svg xmlns="http://www.w3.org/2000/svg" xmlns:xlink="http://www.w3.org/1999/xlink" width="1920" zoomAndPan="magnify" viewBox="0 0 1440 809.999993" height="1080" preserveAspectRatio="xMidYMid meet" version="1.0"><defs><clipPath id="d04515bc51"><path d="M 1256 508 L 1355 508 L 1355 578.910156 L 1256 578.910156 Z M 1256 508 " clip-rule="nonzero"/></clipPath></defs><rect x="-144" width="1728" fill="#ffffff" y="-80.999999" height="971.999992" fill-opacity="1"/><rect x="-144" width="1728" fill="#5ce1e6" y="-80.999999" height="971.999992" fill-opacity="1"/><path fill="#231f20" d="M 491.855469 331.671875 C 495.191406 343.597656 500.21875 355.207031 506.664062 366.222656 L 514.523438 361.605469 C 508.445312 351.277344 503.785156 340.355469 500.632812 329.203125 Z M 491.855469 331.671875 " fill-opacity="1" fill-rule="nonzero"/><path fill="#231f20" d="M 532.621094 533.667969 C 528.1875 534.855469 523.800781 536.042969 519.460938 537.140625 L 521.746094 546.003906 C 526.132812 544.910156 530.519531 543.722656 534.996094 542.488281 C 542.355469 540.476562 549.804688 538.328125 557.160156 536.042969 L 554.464844 527.3125 C 547.199219 529.554688 539.886719 531.703125 532.621094 533.667969 Z M 532.621094 533.667969 " fill-opacity="1" fill-rule="nonzero"/><path fill="#231f20" d="M 494.78125 282.957031 C 494.78125 274.042969 495.558594 266 497.066406 259.007812 L 488.109375 257.089844 C 486.464844 264.675781 485.640625 273.402344 485.640625 282.957031 C 485.640625 286.703125 485.777344 290.679688 486.007812 294.699219 L 495.148438 294.152344 C 494.917969 290.265625 494.78125 286.519531 494.78125 282.957031 Z M 494.78125 282.957031 " fill-opacity="1" fill-rule="nonzero"/><path fill="#231f20" d="M 622.332031 454.195312 C 611.179688 447.980469 600.761719 441.71875 591.300781 435.546875 L 586.320312 443.179688 C 595.960938 449.488281 606.609375 455.886719 617.941406 462.191406 Z M 622.332031 454.195312 " fill-opacity="1" fill-rule="nonzero"/><path fill="#231f20" d="M 448.351562 551.902344 L 449.722656 560.949219 C 461.421875 559.121094 473.621094 556.929688 485.914062 554.367188 L 484.042969 545.410156 C 471.929688 547.925781 459.914062 550.117188 448.351562 551.902344 Z M 448.351562 551.902344 " fill-opacity="1" fill-rule="nonzero"/><path fill="#231f20" d="M 535.820312 390.03125 L 529.101562 396.199219 C 536.960938 404.746094 546.101562 413.292969 556.339844 421.519531 L 562.097656 414.390625 C 552.179688 406.4375 543.359375 398.257812 535.820312 390.03125 Z M 535.820312 390.03125 " fill-opacity="1" fill-rule="nonzero"/><path fill="#231f20" d="M 544.824219 222.722656 L 545.28125 213.582031 C 530.0625 212.851562 517.265625 216.140625 507.625 223.40625 L 513.152344 230.71875 C 521.011719 224.734375 531.890625 222.082031 544.824219 222.722656 Z M 544.824219 222.722656 " fill-opacity="1" fill-rule="nonzero"/><path fill="#231f20" d="M 722.734375 456.890625 C 733.0625 449.761719 742.976562 442.3125 752.253906 434.769531 L 746.496094 427.6875 C 737.402344 435.089844 727.667969 442.402344 717.523438 449.394531 Z M 722.734375 456.890625 " fill-opacity="1" fill-rule="nonzero"/><path fill="#231f20" d="M 810.933594 221.671875 L 814.957031 213.492188 C 804.582031 208.417969 791.648438 206.726562 776.613281 208.601562 L 777.710938 217.648438 C 790.964844 216.003906 802.160156 217.375 810.933594 221.671875 Z M 810.933594 221.671875 " fill-opacity="1" fill-rule="nonzero"/><path fill="#231f20" d="M 588.832031 515.613281 L 592.03125 524.207031 C 603.5 519.957031 614.972656 515.296875 626.167969 510.359375 L 622.511719 501.996094 C 611.453125 506.839844 600.121094 511.410156 588.832031 515.613281 Z M 588.832031 515.613281 " fill-opacity="1" fill-rule="nonzero"/><path fill="#231f20" d="M 376.191406 558.160156 L 376.328125 567.300781 C 388.207031 567.164062 400.640625 566.523438 413.160156 565.382812 L 412.339844 556.289062 C 400.046875 557.386719 387.84375 558.023438 376.191406 558.160156 Z M 376.191406 558.160156 " fill-opacity="1" fill-rule="nonzero"/><path fill="#231f20" d="M 302.703125 561.726562 C 314.769531 563.78125 327.109375 565.292969 339.402344 566.207031 L 340.085938 557.109375 C 328.066406 556.195312 316.003906 554.734375 304.257812 552.722656 Z M 302.703125 561.726562 " fill-opacity="1" fill-rule="nonzero"/><path fill="#231f20" d="M 166.382812 508.164062 L 162.953125 516.621094 L 169.855469 519.40625 C 178.902344 523.0625 187.90625 526.71875 196.910156 530.285156 L 200.246094 521.785156 C 191.289062 518.265625 182.332031 514.609375 173.28125 510.953125 Z M 166.382812 508.164062 " fill-opacity="1" fill-rule="nonzero"/><path fill="#231f20" d="M 231.320312 543.082031 C 243.707031 547.332031 255.265625 550.851562 266.601562 553.867188 L 268.933594 545.046875 C 257.828125 542.121094 246.492188 538.648438 234.292969 534.445312 Z M 231.320312 543.082031 " fill-opacity="1" fill-rule="nonzero"/><path fill="#231f20" d="M 616.527344 235.746094 C 604.460938 229.761719 592.945312 224.914062 582.25 221.304688 L 579.328125 229.941406 C 589.609375 233.417969 600.761719 238.125 612.460938 243.925781 Z M 616.527344 235.746094 " fill-opacity="1" fill-rule="nonzero"/><path fill="#231f20" d="M 931.628906 559.257812 C 943.785156 560.675781 956.078125 561.957031 968.140625 563.050781 L 968.964844 553.957031 C 956.992188 552.90625 944.789062 551.625 932.726562 550.210938 Z M 931.628906 559.257812 " fill-opacity="1" fill-rule="nonzero"/><path fill="#231f20" d="M 859.011719 548.519531 C 870.894531 550.621094 883.09375 552.632812 895.25 554.414062 L 896.574219 545.367188 C 884.511719 543.582031 872.402344 541.617188 860.609375 539.515625 Z M 859.011719 548.519531 " fill-opacity="1" fill-rule="nonzero"/><path fill="#231f20" d="M 1004.75 565.75 C 1016.90625 566.480469 1029.242188 567.027344 1041.445312 567.347656 L 1041.71875 558.207031 C 1029.65625 557.84375 1017.40625 557.339844 1005.34375 556.609375 Z M 1004.75 565.75 " fill-opacity="1" fill-rule="nonzero"/><path fill="#231f20" d="M 660.945312 272.671875 L 663.597656 270.707031 C 663.644531 270.660156 669.722656 266.183594 679.5 259.875 L 674.566406 252.199219 C 668.304688 256.21875 663.597656 259.511719 660.855469 261.429688 C 658.386719 259.785156 654.273438 257.042969 648.925781 253.753906 L 644.128906 261.523438 C 652.859375 266.914062 658.25 270.707031 658.296875 270.753906 Z M 660.945312 272.671875 " fill-opacity="1" fill-rule="nonzero"/><path fill="#231f20" d="M 1222.964844 547.058594 L 1224.472656 556.058594 C 1236.765625 554.003906 1248.921875 551.625 1260.621094 549.023438 L 1258.65625 540.109375 C 1247.140625 542.714844 1235.121094 545.046875 1222.964844 547.058594 Z M 1222.964844 547.058594 " fill-opacity="1" fill-rule="nonzero"/><path fill="#231f20" d="M 1078.097656 558.664062 L 1078.140625 567.804688 C 1090.480469 567.757812 1102.820312 567.484375 1114.839844 567.027344 L 1114.472656 557.886719 C 1102.546875 558.34375 1090.296875 558.617188 1078.097656 558.664062 Z M 1078.097656 558.664062 " fill-opacity="1" fill-rule="nonzero"/><path fill="#231f20" d="M 1150.804688 555.785156 L 1151.492188 564.878906 C 1163.875 563.921875 1176.167969 562.730469 1188.050781 561.269531 L 1186.953125 552.175781 C 1175.253906 553.636719 1163.054688 554.824219 1150.804688 555.785156 Z M 1150.804688 555.785156 " fill-opacity="1" fill-rule="nonzero"/><path fill="#231f20" d="M 831.726562 246.304688 C 835.199219 255.535156 837.074219 267.097656 837.394531 280.671875 L 846.535156 280.488281 C 846.214844 265.910156 844.113281 253.339844 840.273438 243.105469 Z M 831.726562 246.304688 " fill-opacity="1" fill-rule="nonzero"/><path fill="#231f20" d="M 818.199219 347.621094 L 826.105469 352.191406 C 832.777344 340.628906 837.898438 329.113281 841.324219 317.914062 L 832.597656 315.265625 C 829.351562 325.777344 824.507812 336.652344 818.199219 347.621094 Z M 818.199219 347.621094 " fill-opacity="1" fill-rule="nonzero"/><path fill="#231f20" d="M 720.8125 501.171875 L 717.25 509.582031 C 721.5 511.363281 725.75 513.148438 730.136719 514.929688 C 736.351562 517.488281 743.617188 520.140625 751.753906 522.789062 L 754.585938 514.105469 C 746.679688 511.503906 739.597656 508.941406 733.609375 506.476562 C 729.3125 504.691406 725.019531 502.910156 720.8125 501.171875 Z M 720.8125 501.171875 " fill-opacity="1" fill-rule="nonzero"/><path fill="#231f20" d="M 686.996094 468.910156 C 681.464844 472.199219 675.84375 475.398438 670.085938 478.550781 C 664.738281 476.039062 659.53125 473.523438 654.503906 471.011719 L 650.4375 479.191406 C 653.589844 480.746094 656.789062 482.300781 660.078125 483.898438 C 658.480469 484.722656 656.832031 485.589844 655.234375 486.414062 L 659.394531 494.546875 C 663.09375 492.671875 666.75 490.753906 670.359375 488.789062 C 674.703125 490.800781 679.136719 492.855469 683.660156 494.867188 L 687.40625 486.550781 C 685.03125 485.453125 682.65625 484.402344 680.277344 483.304688 C 684.117188 481.15625 687.910156 478.964844 691.65625 476.722656 Z M 686.996094 468.910156 " fill-opacity="1" fill-rule="nonzero"/><path fill="#231f20" d="M 740.238281 218.105469 C 729.632812 222.082031 718.253906 227.292969 706.417969 233.507812 L 710.667969 241.597656 C 722.140625 235.5625 733.152344 230.535156 743.433594 226.652344 Z M 740.238281 218.105469 " fill-opacity="1" fill-rule="nonzero"/><path fill="#231f20" d="M 797.773438 377.050781 C 790.597656 385.917969 782.417969 394.875 773.460938 403.648438 L 779.859375 410.183594 C 789.042969 401.179688 797.453125 391.996094 804.855469 382.808594 Z M 797.773438 377.050781 " fill-opacity="1" fill-rule="nonzero"/><path fill="#231f20" d="M 787.171875 533.027344 C 798.414062 535.953125 810.476562 538.785156 822.953125 541.4375 L 824.871094 532.476562 C 812.488281 529.828125 800.558594 527.039062 789.457031 524.160156 Z M 787.171875 533.027344 " fill-opacity="1" fill-rule="nonzero"/><g clip-path="url(#d04515bc51)"><path fill="#231f20" d="M 1354.765625 514.609375 L 1256.738281 508.441406 L 1289.046875 536.730469 L 1280.457031 578.863281 Z M 1354.765625 514.609375 " fill-opacity="1" fill-rule="nonzero"/></g></svg>