<svg xmlns="http://www.w3.org/2000/svg" xmlns:xlink="http://www.w3.org/1999/xlink" width="1920" zoomAndPan="magnify" viewBox="0 0 1440 809.999993" height="1080" preserveAspectRatio="xMidYMid meet" version="1.0"><defs><clipPath id="dcd76cb516"><path d="M 455 310 L 480 310 L 480 339 L 455 339 Z M 455 310 " clip-rule="nonzero"/></clipPath><clipPath id="74dcd7f52f"><path d="M 546.90625 -145.558594 L 1339.09375 310.828125 L 929.507812 1021.785156 L 137.320312 565.398438 Z M 546.90625 -145.558594 " clip-rule="nonzero"/></clipPath><clipPath id="d684330578"><path d="M 546.90625 -145.558594 L 1339.09375 310.828125 L 929.507812 1021.785156 L 137.320312 565.398438 Z M 546.90625 -145.558594 " clip-rule="nonzero"/></clipPath><clipPath id="28ca2a41ce"><path d="M 546.90625 -145.558594 L 1339.09375 310.828125 L 929.507812 1021.785156 L 137.320312 565.398438 Z M 546.90625 -145.558594 " clip-rule="nonzero"/></clipPath><clipPath id="1822e072ea"><path d="M 468 252 L 500 252 L 500 261 L 468 261 Z M 468 252 " clip-rule="nonzero"/></clipPath><clipPath id="2bb67c625d"><path d="M 546.90625 -145.558594 L 1339.09375 310.828125 L 929.507812 1021.785156 L 137.320312 565.398438 Z M 546.90625 -145.558594 " clip-rule="nonzero"/></clipPath><clipPath id="19ea235a25"><path d="M 546.90625 -145.558594 L 1339.09375 310.828125 L 929.507812 1021.785156 L 137.320312 565.398438 Z M 546.90625 -145.558594 " clip-rule="nonzero"/></clipPath><clipPath id="9a613505ee"><path d="M 546.90625 -145.558594 L 1339.09375 310.828125 L 929.507812 1021.785156 L 137.320312 565.398438 Z M 546.90625 -145.558594 " clip-rule="nonzero"/></clipPath><clipPath id="ae9a5df411"><path d="M 304 299 L 333 299 L 333 325 L 304 325 Z M 304 299 " clip-rule="nonzero"/></clipPath><clipPath id="321a735441"><path d="M 546.90625 -145.558594 L 1339.09375 310.828125 L 929.507812 1021.785156 L 137.320312 565.398438 Z M 546.90625 -145.558594 " clip-rule="nonzero"/></clipPath><clipPath id="11544c1252"><path d="M 546.90625 -145.558594 L 1339.09375 310.828125 L 929.507812 1021.785156 L 137.320312 565.398438 Z M 546.90625 -145.558594 " clip-rule="nonzero"/></clipPath><clipPath id="8f4968536f"><path d="M 546.90625 -145.558594 L 1339.09375 310.828125 L 929.507812 1021.785156 L 137.320312 565.398438 Z M 546.90625 -145.558594 " clip-rule="nonzero"/></clipPath><clipPath id="2d646cd9e9"><path d="M 408 254 L 440 254 L 440 268 L 408 268 Z M 408 254 " clip-rule="nonzero"/></clipPath><clipPath id="1b8c00ddf3"><path d="M 546.90625 -145.558594 L 1339.09375 310.828125 L 929.507812 1021.785156 L 137.320312 565.398438 Z M 546.90625 -145.558594 " clip-rule="nonzero"/></clipPath><clipPath id="24a83dede9"><path d="M 546.90625 -145.558594 L 1339.09375 310.828125 L 929.507812 1021.785156 L 137.320312 565.398438 Z M 546.90625 -145.558594 " clip-rule="nonzero"/></clipPath><clipPath id="200324811b"><path d="M 546.90625 -145.558594 L 1339.09375 310.828125 L 929.507812 1021.785156 L 137.320312 565.398438 Z M 546.90625 -145.558594 " clip-rule="nonzero"/></clipPath><clipPath id="63956387c4"><path d="M 352 268 L 383 268 L 383 289 L 352 289 Z M 352 268 " clip-rule="nonzero"/></clipPath><clipPath id="beb2ad275a"><path d="M 546.90625 -145.558594 L 1339.09375 310.828125 L 929.507812 1021.785156 L 137.320312 565.398438 Z M 546.90625 -145.558594 " clip-rule="nonzero"/></clipPath><clipPath id="2f2702f15b"><path d="M 546.90625 -145.558594 L 1339.09375 310.828125 L 929.507812 1021.785156 L 137.320312 565.398438 Z M 546.90625 -145.558594 " clip-rule="nonzero"/></clipPath><clipPath id="e794243659"><path d="M 546.90625 -145.558594 L 1339.09375 310.828125 L 929.507812 1021.785156 L 137.320312 565.398438 Z M 546.90625 -145.558594 " clip-rule="nonzero"/></clipPath><clipPath id="e5b4bdeb69"><path d="M 433 362 L 450 362 L 450 394 L 433 394 Z M 433 362 " clip-rule="nonzero"/></clipPath><clipPath id="951f809470"><path d="M 546.90625 -145.558594 L 1339.09375 310.828125 L 929.507812 1021.785156 L 137.320312 565.398438 Z M 546.90625 -145.558594 " clip-rule="nonzero"/></clipPath><clipPath id="6d6ac4f97a"><path d="M 546.90625 -145.558594 L 1339.09375 310.828125 L 929.507812 1021.785156 L 137.320312 565.398438 Z M 546.90625 -145.558594 " clip-rule="nonzero"/></clipPath><clipPath id="d45de5c73a"><path d="M 546.90625 -145.558594 L 1339.09375 310.828125 L 929.507812 1021.785156 L 137.320312 565.398438 Z M 546.90625 -145.558594 " clip-rule="nonzero"/></clipPath><clipPath id="e7db908d5c"><path d="M 429 421 L 439 421 L 439 453 L 429 453 Z M 429 421 " clip-rule="nonzero"/></clipPath><clipPath id="a6a6f9da46"><path d="M 546.90625 -145.558594 L 1339.09375 310.828125 L 929.507812 1021.785156 L 137.320312 565.398438 Z M 546.90625 -145.558594 " clip-rule="nonzero"/></clipPath><clipPath id="5ef061d717"><path d="M 546.90625 -145.558594 L 1339.09375 310.828125 L 929.507812 1021.785156 L 137.320312 565.398438 Z M 546.90625 -145.558594 " clip-rule="nonzero"/></clipPath><clipPath id="fc90ac5ef5"><path d="M 546.90625 -145.558594 L 1339.09375 310.828125 L 929.507812 1021.785156 L 137.320312 565.398438 Z M 546.90625 -145.558594 " clip-rule="nonzero"/></clipPath><clipPath id="10af1e630f"><path d="M 528 249 L 579 249 L 579 270 L 528 270 Z M 528 249 " clip-rule="nonzero"/></clipPath><clipPath id="67d52a15ed"><path d="M 546.90625 -145.558594 L 1339.09375 310.828125 L 929.507812 1021.785156 L 137.320312 565.398438 Z M 546.90625 -145.558594 " clip-rule="nonzero"/></clipPath><clipPath id="fded030e93"><path d="M 546.90625 -145.558594 L 1339.09375 310.828125 L 929.507812 1021.785156 L 137.320312 565.398438 Z M 546.90625 -145.558594 " clip-rule="nonzero"/></clipPath><clipPath id="0e60890874"><path d="M 546.90625 -145.558594 L 1339.09375 310.828125 L 929.507812 1021.785156 L 137.320312 565.398438 Z M 546.90625 -145.558594 " clip-rule="nonzero"/></clipPath><clipPath id="cf5b429666"><path d="M 495 271 L 525 271 L 525 296 L 495 296 Z M 495 271 " clip-rule="nonzero"/></clipPath><clipPath id="7c34ccad7e"><path d="M 546.90625 -145.558594 L 1339.09375 310.828125 L 929.507812 1021.785156 L 137.320312 565.398438 Z M 546.90625 -145.558594 " clip-rule="nonzero"/></clipPath><clipPath id="28ff2ca2fc"><path d="M 546.90625 -145.558594 L 1339.09375 310.828125 L 929.507812 1021.785156 L 137.320312 565.398438 Z M 546.90625 -145.558594 " clip-rule="nonzero"/></clipPath><clipPath id="0b7ec482e4"><path d="M 546.90625 -145.558594 L 1339.09375 310.828125 L 929.507812 1021.785156 L 137.320312 565.398438 Z M 546.90625 -145.558594 " clip-rule="nonzero"/></clipPath><clipPath id="40568b570a"><path d="M 262 340 L 288 340 L 288 368 L 262 368 Z M 262 340 " clip-rule="nonzero"/></clipPath><clipPath id="00a16f4585"><path d="M 546.90625 -145.558594 L 1339.09375 310.828125 L 929.507812 1021.785156 L 137.320312 565.398438 Z M 546.90625 -145.558594 " clip-rule="nonzero"/></clipPath><clipPath id="92722ee2f4"><path d="M 546.90625 -145.558594 L 1339.09375 310.828125 L 929.507812 1021.785156 L 137.320312 565.398438 Z M 546.90625 -145.558594 " clip-rule="nonzero"/></clipPath><clipPath id="d33082227e"><path d="M 546.90625 -145.558594 L 1339.09375 310.828125 L 929.507812 1021.785156 L 137.320312 565.398438 Z M 546.90625 -145.558594 " clip-rule="nonzero"/></clipPath><clipPath id="caf4a46102"><path d="M 664 263 L 696 263 L 696 282 L 664 282 Z M 664 263 " clip-rule="nonzero"/></clipPath><clipPath id="b6cb123f91"><path d="M 546.90625 -145.558594 L 1339.09375 310.828125 L 929.507812 1021.785156 L 137.320312 565.398438 Z M 546.90625 -145.558594 " clip-rule="nonzero"/></clipPath><clipPath id="0f1c1beb8f"><path d="M 546.90625 -145.558594 L 1339.09375 310.828125 L 929.507812 1021.785156 L 137.320312 565.398438 Z M 546.90625 -145.558594 " clip-rule="nonzero"/></clipPath><clipPath id="e07b9de274"><path d="M 546.90625 -145.558594 L 1339.09375 310.828125 L 929.507812 1021.785156 L 137.320312 565.398438 Z M 546.90625 -145.558594 " clip-rule="nonzero"/></clipPath><clipPath id="b6e36edebe"><path d="M 607 248 L 639 248 L 639 262 L 607 262 Z M 607 248 " clip-rule="nonzero"/></clipPath><clipPath id="2500e47a6b"><path d="M 546.90625 -145.558594 L 1339.09375 310.828125 L 929.507812 1021.785156 L 137.320312 565.398438 Z M 546.90625 -145.558594 " clip-rule="nonzero"/></clipPath><clipPath id="ca3600cdbb"><path d="M 546.90625 -145.558594 L 1339.09375 310.828125 L 929.507812 1021.785156 L 137.320312 565.398438 Z M 546.90625 -145.558594 " clip-rule="nonzero"/></clipPath><clipPath id="9e663823c6"><path d="M 546.90625 -145.558594 L 1339.09375 310.828125 L 929.507812 1021.785156 L 137.320312 565.398438 Z M 546.90625 -145.558594 " clip-rule="nonzero"/></clipPath><clipPath id="12f5ec8fd2"><path d="M 717 289 L 747 289 L 747 313 L 717 313 Z M 717 289 " clip-rule="nonzero"/></clipPath><clipPath id="ae04c05fd9"><path d="M 546.90625 -145.558594 L 1339.09375 310.828125 L 929.507812 1021.785156 L 137.320312 565.398438 Z M 546.90625 -145.558594 " clip-rule="nonzero"/></clipPath><clipPath id="72a233422f"><path d="M 546.90625 -145.558594 L 1339.09375 310.828125 L 929.507812 1021.785156 L 137.320312 565.398438 Z M 546.90625 -145.558594 " clip-rule="nonzero"/></clipPath><clipPath id="0ef767d08a"><path d="M 546.90625 -145.558594 L 1339.09375 310.828125 L 929.507812 1021.785156 L 137.320312 565.398438 Z M 546.90625 -145.558594 " clip-rule="nonzero"/></clipPath><clipPath id="e1e84d17af"><path d="M 163 550 L 178 550 L 178 582 L 163 582 Z M 163 550 " clip-rule="nonzero"/></clipPath><clipPath id="42cc5dc931"><path d="M 546.90625 -145.558594 L 1339.09375 310.828125 L 929.507812 1021.785156 L 137.320312 565.398438 Z M 546.90625 -145.558594 " clip-rule="nonzero"/></clipPath><clipPath id="c9007b21d2"><path d="M 546.90625 -145.558594 L 1339.09375 310.828125 L 929.507812 1021.785156 L 137.320312 565.398438 Z M 546.90625 -145.558594 " clip-rule="nonzero"/></clipPath><clipPath id="12e2fa84fc"><path d="M 546.90625 -145.558594 L 1339.09375 310.828125 L 929.507812 1021.785156 L 137.320312 565.398438 Z M 546.90625 -145.558594 " clip-rule="nonzero"/></clipPath><clipPath id="3cfe6c4e04"><path d="M 585 270 L 617 270 L 617 289 L 585 289 Z M 585 270 " clip-rule="nonzero"/></clipPath><clipPath id="7367ed1660"><path d="M 546.90625 -145.558594 L 1339.09375 310.828125 L 929.507812 1021.785156 L 137.320312 565.398438 Z M 546.90625 -145.558594 " clip-rule="nonzero"/></clipPath><clipPath id="c8b14ca19f"><path d="M 546.90625 -145.558594 L 1339.09375 310.828125 L 929.507812 1021.785156 L 137.320312 565.398438 Z M 546.90625 -145.558594 " clip-rule="nonzero"/></clipPath><clipPath id="691c1548d1"><path d="M 546.90625 -145.558594 L 1339.09375 310.828125 L 929.507812 1021.785156 L 137.320312 565.398438 Z M 546.90625 -145.558594 " clip-rule="nonzero"/></clipPath><clipPath id="80db79bf6d"><path d="M 198 437 L 219 437 L 219 468 L 198 468 Z M 198 437 " clip-rule="nonzero"/></clipPath><clipPath id="565c861fd3"><path d="M 546.90625 -145.558594 L 1339.09375 310.828125 L 929.507812 1021.785156 L 137.320312 565.398438 Z M 546.90625 -145.558594 " clip-rule="nonzero"/></clipPath><clipPath id="1547008f4c"><path d="M 546.90625 -145.558594 L 1339.09375 310.828125 L 929.507812 1021.785156 L 137.320312 565.398438 Z M 546.90625 -145.558594 " clip-rule="nonzero"/></clipPath><clipPath id="6d0c1d1087"><path d="M 546.90625 -145.558594 L 1339.09375 310.828125 L 929.507812 1021.785156 L 137.320312 565.398438 Z M 546.90625 -145.558594 " clip-rule="nonzero"/></clipPath><clipPath id="fe28280fe4"><path d="M 177 492 L 195 492 L 195 524 L 177 524 Z M 177 492 " clip-rule="nonzero"/></clipPath><clipPath id="3055e9dc8e"><path d="M 546.90625 -145.558594 L 1339.09375 310.828125 L 929.507812 1021.785156 L 137.320312 565.398438 Z M 546.90625 -145.558594 " clip-rule="nonzero"/></clipPath><clipPath id="582c25e0f1"><path d="M 546.90625 -145.558594 L 1339.09375 310.828125 L 929.507812 1021.785156 L 137.320312 565.398438 Z M 546.90625 -145.558594 " clip-rule="nonzero"/></clipPath><clipPath id="739e60fe12"><path d="M 546.90625 -145.558594 L 1339.09375 310.828125 L 929.507812 1021.785156 L 137.320312 565.398438 Z M 546.90625 -145.558594 " clip-rule="nonzero"/></clipPath><clipPath id="8dbb640d1a"><path d="M 226 385 L 250 385 L 250 415 L 226 415 Z M 226 385 " clip-rule="nonzero"/></clipPath><clipPath id="910ba644dc"><path d="M 546.90625 -145.558594 L 1339.09375 310.828125 L 929.507812 1021.785156 L 137.320312 565.398438 Z M 546.90625 -145.558594 " clip-rule="nonzero"/></clipPath><clipPath id="ee9244f41b"><path d="M 546.90625 -145.558594 L 1339.09375 310.828125 L 929.507812 1021.785156 L 137.320312 565.398438 Z M 546.90625 -145.558594 " clip-rule="nonzero"/></clipPath><clipPath id="613fa73403"><path d="M 546.90625 -145.558594 L 1339.09375 310.828125 L 929.507812 1021.785156 L 137.320312 565.398438 Z M 546.90625 -145.558594 " clip-rule="nonzero"/></clipPath><clipPath id="79269bc5c4"><path d="M 436 480 L 454 480 L 454 512 L 436 512 Z M 436 480 " clip-rule="nonzero"/></clipPath><clipPath id="6c6063e77c"><path d="M 546.90625 -145.558594 L 1339.09375 310.828125 L 929.507812 1021.785156 L 137.320312 565.398438 Z M 546.90625 -145.558594 " clip-rule="nonzero"/></clipPath><clipPath id="b41a59dc05"><path d="M 546.90625 -145.558594 L 1339.09375 310.828125 L 929.507812 1021.785156 L 137.320312 565.398438 Z M 546.90625 -145.558594 " clip-rule="nonzero"/></clipPath><clipPath id="8282e8ab6b"><path d="M 546.90625 -145.558594 L 1339.09375 310.828125 L 929.507812 1021.785156 L 137.320312 565.398438 Z M 546.90625 -145.558594 " clip-rule="nonzero"/></clipPath><clipPath id="3ec3b7a681"><path d="M 1070 481 L 1102 481 L 1102 496 L 1070 496 Z M 1070 481 " clip-rule="nonzero"/></clipPath><clipPath id="cb47d459be"><path d="M 546.90625 -145.558594 L 1339.09375 310.828125 L 929.507812 1021.785156 L 137.320312 565.398438 Z M 546.90625 -145.558594 " clip-rule="nonzero"/></clipPath><clipPath id="f59b43c571"><path d="M 546.90625 -145.558594 L 1339.09375 310.828125 L 929.507812 1021.785156 L 137.320312 565.398438 Z M 546.90625 -145.558594 " clip-rule="nonzero"/></clipPath><clipPath id="ad7c775b59"><path d="M 546.90625 -145.558594 L 1339.09375 310.828125 L 929.507812 1021.785156 L 137.320312 565.398438 Z M 546.90625 -145.558594 " clip-rule="nonzero"/></clipPath><clipPath id="cd4ef9fedf"><path d="M 851 408 L 880 408 L 880 434 L 851 434 Z M 851 408 " clip-rule="nonzero"/></clipPath><clipPath id="6c9c80b4ac"><path d="M 546.90625 -145.558594 L 1339.09375 310.828125 L 929.507812 1021.785156 L 137.320312 565.398438 Z M 546.90625 -145.558594 " clip-rule="nonzero"/></clipPath><clipPath id="fe4f0d3975"><path d="M 546.90625 -145.558594 L 1339.09375 310.828125 L 929.507812 1021.785156 L 137.320312 565.398438 Z M 546.90625 -145.558594 " clip-rule="nonzero"/></clipPath><clipPath id="16a26689d9"><path d="M 546.90625 -145.558594 L 1339.09375 310.828125 L 929.507812 1021.785156 L 137.320312 565.398438 Z M 546.90625 -145.558594 " clip-rule="nonzero"/></clipPath><clipPath id="bad050e5b6"><path d="M 899 444 L 930 444 L 930 467 L 899 467 Z M 899 444 " clip-rule="nonzero"/></clipPath><clipPath id="bffb0013f6"><path d="M 546.90625 -145.558594 L 1339.09375 310.828125 L 929.507812 1021.785156 L 137.320312 565.398438 Z M 546.90625 -145.558594 " clip-rule="nonzero"/></clipPath><clipPath id="fa4e273534"><path d="M 546.90625 -145.558594 L 1339.09375 310.828125 L 929.507812 1021.785156 L 137.320312 565.398438 Z M 546.90625 -145.558594 " clip-rule="nonzero"/></clipPath><clipPath id="57d65376e4"><path d="M 546.90625 -145.558594 L 1339.09375 310.828125 L 929.507812 1021.785156 L 137.320312 565.398438 Z M 546.90625 -145.558594 " clip-rule="nonzero"/></clipPath><clipPath id="75e71ed53a"><path d="M 952 472 L 984 472 L 984 490 L 952 490 Z M 952 472 " clip-rule="nonzero"/></clipPath><clipPath id="595113568d"><path d="M 546.90625 -145.558594 L 1339.09375 310.828125 L 929.507812 1021.785156 L 137.320312 565.398438 Z M 546.90625 -145.558594 " clip-rule="nonzero"/></clipPath><clipPath id="de74ddf465"><path d="M 546.90625 -145.558594 L 1339.09375 310.828125 L 929.507812 1021.785156 L 137.320312 565.398438 Z M 546.90625 -145.558594 " clip-rule="nonzero"/></clipPath><clipPath id="06e4c38b21"><path d="M 546.90625 -145.558594 L 1339.09375 310.828125 L 929.507812 1021.785156 L 137.320312 565.398438 Z M 546.90625 -145.558594 " clip-rule="nonzero"/></clipPath><clipPath id="57cc87f515"><path d="M 807 367 L 835 367 L 835 395 L 807 395 Z M 807 367 " clip-rule="nonzero"/></clipPath><clipPath id="e04f5e4ce5"><path d="M 546.90625 -145.558594 L 1339.09375 310.828125 L 929.507812 1021.785156 L 137.320312 565.398438 Z M 546.90625 -145.558594 " clip-rule="nonzero"/></clipPath><clipPath id="58b42c8c83"><path d="M 546.90625 -145.558594 L 1339.09375 310.828125 L 929.507812 1021.785156 L 137.320312 565.398438 Z M 546.90625 -145.558594 " clip-rule="nonzero"/></clipPath><clipPath id="cd3f09b159"><path d="M 546.90625 -145.558594 L 1339.09375 310.828125 L 929.507812 1021.785156 L 137.320312 565.398438 Z M 546.90625 -145.558594 " clip-rule="nonzero"/></clipPath><clipPath id="bfb92d5bf2"><path d="M 1011 488 L 1042 488 L 1042 498 L 1011 498 Z M 1011 488 " clip-rule="nonzero"/></clipPath><clipPath id="acf11bbfa1"><path d="M 546.90625 -145.558594 L 1339.09375 310.828125 L 929.507812 1021.785156 L 137.320312 565.398438 Z M 546.90625 -145.558594 " clip-rule="nonzero"/></clipPath><clipPath id="07375d4db6"><path d="M 546.90625 -145.558594 L 1339.09375 310.828125 L 929.507812 1021.785156 L 137.320312 565.398438 Z M 546.90625 -145.558594 " clip-rule="nonzero"/></clipPath><clipPath id="154bb219c3"><path d="M 546.90625 -145.558594 L 1339.09375 310.828125 L 929.507812 1021.785156 L 137.320312 565.398438 Z M 546.90625 -145.558594 " clip-rule="nonzero"/></clipPath><clipPath id="299421c1f5"><path d="M 764 326 L 792 326 L 792 352 L 764 352 Z M 764 326 " clip-rule="nonzero"/></clipPath><clipPath id="18fc937378"><path d="M 546.90625 -145.558594 L 1339.09375 310.828125 L 929.507812 1021.785156 L 137.320312 565.398438 Z M 546.90625 -145.558594 " clip-rule="nonzero"/></clipPath><clipPath id="49264b0659"><path d="M 546.90625 -145.558594 L 1339.09375 310.828125 L 929.507812 1021.785156 L 137.320312 565.398438 Z M 546.90625 -145.558594 " clip-rule="nonzero"/></clipPath><clipPath id="edf55d5579"><path d="M 546.90625 -145.558594 L 1339.09375 310.828125 L 929.507812 1021.785156 L 137.320312 565.398438 Z M 546.90625 -145.558594 " clip-rule="nonzero"/></clipPath><clipPath id="84c073b062"><path d="M 462 533 L 489 533 L 489 560 L 462 560 Z M 462 533 " clip-rule="nonzero"/></clipPath><clipPath id="2a16873deb"><path d="M 546.90625 -145.558594 L 1339.09375 310.828125 L 929.507812 1021.785156 L 137.320312 565.398438 Z M 546.90625 -145.558594 " clip-rule="nonzero"/></clipPath><clipPath id="1188ff7f5c"><path d="M 546.90625 -145.558594 L 1339.09375 310.828125 L 929.507812 1021.785156 L 137.320312 565.398438 Z M 546.90625 -145.558594 " clip-rule="nonzero"/></clipPath><clipPath id="0a9e03f28c"><path d="M 546.90625 -145.558594 L 1339.09375 310.828125 L 929.507812 1021.785156 L 137.320312 565.398438 Z M 546.90625 -145.558594 " clip-rule="nonzero"/></clipPath><clipPath id="be969a2797"><path d="M 1225 385 L 1253 385 L 1253 412 L 1225 412 Z M 1225 385 " clip-rule="nonzero"/></clipPath><clipPath id="fcda7403a5"><path d="M 546.90625 -145.558594 L 1339.09375 310.828125 L 929.507812 1021.785156 L 137.320312 565.398438 Z M 546.90625 -145.558594 " clip-rule="nonzero"/></clipPath><clipPath id="51f8019bee"><path d="M 546.90625 -145.558594 L 1339.09375 310.828125 L 929.507812 1021.785156 L 137.320312 565.398438 Z M 546.90625 -145.558594 " clip-rule="nonzero"/></clipPath><clipPath id="62db3a4938"><path d="M 546.90625 -145.558594 L 1339.09375 310.828125 L 929.507812 1021.785156 L 137.320312 565.398438 Z M 546.90625 -145.558594 " clip-rule="nonzero"/></clipPath><clipPath id="c213167049"><path d="M 1127 458 L 1158 458 L 1158 479 L 1127 479 Z M 1127 458 " clip-rule="nonzero"/></clipPath><clipPath id="64da003fac"><path d="M 546.90625 -145.558594 L 1339.09375 310.828125 L 929.507812 1021.785156 L 137.320312 565.398438 Z M 546.90625 -145.558594 " clip-rule="nonzero"/></clipPath><clipPath id="1d3feeb8fe"><path d="M 546.90625 -145.558594 L 1339.09375 310.828125 L 929.507812 1021.785156 L 137.320312 565.398438 Z M 546.90625 -145.558594 " clip-rule="nonzero"/></clipPath><clipPath id="fbffec54f7"><path d="M 546.90625 -145.558594 L 1339.09375 310.828125 L 929.507812 1021.785156 L 137.320312 565.398438 Z M 546.90625 -145.558594 " clip-rule="nonzero"/></clipPath><clipPath id="96dc750c9d"><path d="M 1179 425 L 1208 425 L 1208 450 L 1179 450 Z M 1179 425 " clip-rule="nonzero"/></clipPath><clipPath id="8a39c5b556"><path d="M 546.90625 -145.558594 L 1339.09375 310.828125 L 929.507812 1021.785156 L 137.320312 565.398438 Z M 546.90625 -145.558594 " clip-rule="nonzero"/></clipPath><clipPath id="216dd16cd8"><path d="M 546.90625 -145.558594 L 1339.09375 310.828125 L 929.507812 1021.785156 L 137.320312 565.398438 Z M 546.90625 -145.558594 " clip-rule="nonzero"/></clipPath><clipPath id="c0f18b56a3"><path d="M 546.90625 -145.558594 L 1339.09375 310.828125 L 929.507812 1021.785156 L 137.320312 565.398438 Z M 546.90625 -145.558594 " clip-rule="nonzero"/></clipPath><clipPath id="af806bd7a4"><path d="M 682 336 L 706 336 L 706 366 L 682 366 Z M 682 336 " clip-rule="nonzero"/></clipPath><clipPath id="39888d4df1"><path d="M 546.90625 -145.558594 L 1339.09375 310.828125 L 929.507812 1021.785156 L 137.320312 565.398438 Z M 546.90625 -145.558594 " clip-rule="nonzero"/></clipPath><clipPath id="b9fd32dd82"><path d="M 546.90625 -145.558594 L 1339.09375 310.828125 L 929.507812 1021.785156 L 137.320312 565.398438 Z M 546.90625 -145.558594 " clip-rule="nonzero"/></clipPath><clipPath id="76096d46e3"><path d="M 546.90625 -145.558594 L 1339.09375 310.828125 L 929.507812 1021.785156 L 137.320312 565.398438 Z M 546.90625 -145.558594 " clip-rule="nonzero"/></clipPath><clipPath id="8607e9ab6e"><path d="M 509 569 L 541 569 L 541 585 L 509 585 Z M 509 569 " clip-rule="nonzero"/></clipPath><clipPath id="3cb73122d2"><path d="M 546.90625 -145.558594 L 1339.09375 310.828125 L 929.507812 1021.785156 L 137.320312 565.398438 Z M 546.90625 -145.558594 " clip-rule="nonzero"/></clipPath><clipPath id="05f1142638"><path d="M 546.90625 -145.558594 L 1339.09375 310.828125 L 929.507812 1021.785156 L 137.320312 565.398438 Z M 546.90625 -145.558594 " clip-rule="nonzero"/></clipPath><clipPath id="8e741e452f"><path d="M 546.90625 -145.558594 L 1339.09375 310.828125 L 929.507812 1021.785156 L 137.320312 565.398438 Z M 546.90625 -145.558594 " clip-rule="nonzero"/></clipPath><clipPath id="95bbf93cfb"><path d="M 569 573 L 601 573 L 601 586 L 569 586 Z M 569 573 " clip-rule="nonzero"/></clipPath><clipPath id="b32b2d600f"><path d="M 546.90625 -145.558594 L 1339.09375 310.828125 L 929.507812 1021.785156 L 137.320312 565.398438 Z M 546.90625 -145.558594 " clip-rule="nonzero"/></clipPath><clipPath id="d077d5e4d0"><path d="M 546.90625 -145.558594 L 1339.09375 310.828125 L 929.507812 1021.785156 L 137.320312 565.398438 Z M 546.90625 -145.558594 " clip-rule="nonzero"/></clipPath><clipPath id="3daef3b785"><path d="M 546.90625 -145.558594 L 1339.09375 310.828125 L 929.507812 1021.785156 L 137.320312 565.398438 Z M 546.90625 -145.558594 " clip-rule="nonzero"/></clipPath><clipPath id="b505d4e8a5"><path d="M 638 296 L 668 296 L 668 320 L 638 320 Z M 638 296 " clip-rule="nonzero"/></clipPath><clipPath id="b703968153"><path d="M 546.90625 -145.558594 L 1339.09375 310.828125 L 929.507812 1021.785156 L 137.320312 565.398438 Z M 546.90625 -145.558594 " clip-rule="nonzero"/></clipPath><clipPath id="825ea866f8"><path d="M 546.90625 -145.558594 L 1339.09375 310.828125 L 929.507812 1021.785156 L 137.320312 565.398438 Z M 546.90625 -145.558594 " clip-rule="nonzero"/></clipPath><clipPath id="ac75cf13fb"><path d="M 546.90625 -145.558594 L 1339.09375 310.828125 L 929.507812 1021.785156 L 137.320312 565.398438 Z M 546.90625 -145.558594 " clip-rule="nonzero"/></clipPath><clipPath id="30426706b9"><path d="M 625 547 L 655 547 L 655 570 L 625 570 Z M 625 547 " clip-rule="nonzero"/></clipPath><clipPath id="7720473e30"><path d="M 546.90625 -145.558594 L 1339.09375 310.828125 L 929.507812 1021.785156 L 137.320312 565.398438 Z M 546.90625 -145.558594 " clip-rule="nonzero"/></clipPath><clipPath id="0e909d30fb"><path d="M 546.90625 -145.558594 L 1339.09375 310.828125 L 929.507812 1021.785156 L 137.320312 565.398438 Z M 546.90625 -145.558594 " clip-rule="nonzero"/></clipPath><clipPath id="7336388760"><path d="M 546.90625 -145.558594 L 1339.09375 310.828125 L 929.507812 1021.785156 L 137.320312 565.398438 Z M 546.90625 -145.558594 " clip-rule="nonzero"/></clipPath><clipPath id="b3de40a3a7"><path d="M 702 450 L 718 450 L 718 482 L 702 482 Z M 702 450 " clip-rule="nonzero"/></clipPath><clipPath id="4228524f2d"><path d="M 546.90625 -145.558594 L 1339.09375 310.828125 L 929.507812 1021.785156 L 137.320312 565.398438 Z M 546.90625 -145.558594 " clip-rule="nonzero"/></clipPath><clipPath id="5bf0a80df9"><path d="M 546.90625 -145.558594 L 1339.09375 310.828125 L 929.507812 1021.785156 L 137.320312 565.398438 Z M 546.90625 -145.558594 " clip-rule="nonzero"/></clipPath><clipPath id="9aee8ad79d"><path d="M 546.90625 -145.558594 L 1339.09375 310.828125 L 929.507812 1021.785156 L 137.320312 565.398438 Z M 546.90625 -145.558594 " clip-rule="nonzero"/></clipPath><clipPath id="b080d1463e"><path d="M 671 504 L 696 504 L 696 533 L 671 533 Z M 671 504 " clip-rule="nonzero"/></clipPath><clipPath id="0e26c3700a"><path d="M 546.90625 -145.558594 L 1339.09375 310.828125 L 929.507812 1021.785156 L 137.320312 565.398438 Z M 546.90625 -145.558594 " clip-rule="nonzero"/></clipPath><clipPath id="7f989a92df"><path d="M 546.90625 -145.558594 L 1339.09375 310.828125 L 929.507812 1021.785156 L 137.320312 565.398438 Z M 546.90625 -145.558594 " clip-rule="nonzero"/></clipPath><clipPath id="8ad23484f3"><path d="M 546.90625 -145.558594 L 1339.09375 310.828125 L 929.507812 1021.785156 L 137.320312 565.398438 Z M 546.90625 -145.558594 " clip-rule="nonzero"/></clipPath><clipPath id="1e0fba86f7"><path d="M 708 390 L 720 390 L 720 422 L 708 422 Z M 708 390 " clip-rule="nonzero"/></clipPath><clipPath id="116cb122cc"><path d="M 546.90625 -145.558594 L 1339.09375 310.828125 L 929.507812 1021.785156 L 137.320312 565.398438 Z M 546.90625 -145.558594 " clip-rule="nonzero"/></clipPath><clipPath id="1ab80a3bb4"><path d="M 546.90625 -145.558594 L 1339.09375 310.828125 L 929.507812 1021.785156 L 137.320312 565.398438 Z M 546.90625 -145.558594 " clip-rule="nonzero"/></clipPath><clipPath id="4f83fb3eb8"><path d="M 546.90625 -145.558594 L 1339.09375 310.828125 L 929.507812 1021.785156 L 137.320312 565.398438 Z M 546.90625 -145.558594 " clip-rule="nonzero"/></clipPath><clipPath id="0c23b1a2f9"><path d="M 1251 301 L 1322 301 L 1322 380 L 1251 380 Z M 1251 301 " clip-rule="nonzero"/></clipPath><clipPath id="58a6b04546"><path d="M 546.90625 -145.558594 L 1339.09375 310.828125 L 929.507812 1021.785156 L 137.320312 565.398438 Z M 546.90625 -145.558594 " clip-rule="nonzero"/></clipPath><clipPath id="d0693ede0d"><path d="M 546.90625 -145.558594 L 1339.09375 310.828125 L 929.507812 1021.785156 L 137.320312 565.398438 Z M 546.90625 -145.558594 " clip-rule="nonzero"/></clipPath><clipPath id="879d16f425"><path d="M 546.90625 -145.558594 L 1339.09375 310.828125 L 929.507812 1021.785156 L 137.320312 565.398438 Z M 546.90625 -145.558594 " clip-rule="nonzero"/></clipPath></defs><rect x="-144" width="1728" fill="#ffffff" y="-80.999999" height="971.999992" fill-opacity="1"/><rect x="-144" width="1728" fill="#ffd4b1" y="-80.999999" height="971.999992" fill-opacity="1"/><g clip-path="url(#dcd76cb516)"><g clip-path="url(#74dcd7f52f)"><g clip-path="url(#d684330578)"><g clip-path="url(#28ca2a41ce)"><path fill="#231f20" d="M 479.425781 315.371094 L 473.820312 310.414062 C 466.921875 318.1875 460.75 326.421875 455.523438 334.898438 L 461.898438 338.828125 C 466.917969 330.710938 472.800781 322.828125 479.425781 315.371094 Z M 479.425781 315.371094 " fill-opacity="1" fill-rule="nonzero"/></g></g></g></g><g clip-path="url(#1822e072ea)"><g clip-path="url(#2bb67c625d)"><g clip-path="url(#19ea235a25)"><g clip-path="url(#9a613505ee)"><path fill="#231f20" d="M 499.046875 252.828125 C 488.925781 252.179688 478.742188 252.011719 468.785156 252.277344 L 468.964844 259.765625 C 478.703125 259.503906 488.667969 259.671875 498.570312 260.324219 Z M 499.046875 252.828125 " fill-opacity="1" fill-rule="nonzero"/></g></g></g></g><g clip-path="url(#ae9a5df411)"><g clip-path="url(#321a735441)"><g clip-path="url(#11544c1252)"><g clip-path="url(#8f4968536f)"><path fill="#231f20" d="M 304.515625 319.335938 L 309.519531 324.894531 C 316.582031 318.554688 324.011719 312.253906 332.167969 305.597656 L 327.429688 299.800781 C 319.15625 306.519531 311.667969 312.917969 304.515625 319.335938 Z M 304.515625 319.335938 " fill-opacity="1" fill-rule="nonzero"/></g></g></g></g><g clip-path="url(#2d646cd9e9)"><g clip-path="url(#1b8c00ddf3)"><g clip-path="url(#24a83dede9)"><g clip-path="url(#200324811b)"><path fill="#231f20" d="M 408.722656 259.828125 L 410.4375 267.121094 C 419.738281 264.921875 429.515625 263.167969 439.515625 261.929688 L 438.613281 254.5 C 428.292969 255.769531 418.28125 257.558594 408.722656 259.828125 Z M 408.722656 259.828125 " fill-opacity="1" fill-rule="nonzero"/></g></g></g></g><g clip-path="url(#63956387c4)"><g clip-path="url(#beb2ad275a)"><g clip-path="url(#2f2702f15b)"><g clip-path="url(#e794243659)"><path fill="#231f20" d="M 352.058594 281.941406 L 355.871094 288.371094 C 363.878906 283.613281 372.765625 279.359375 382.285156 275.734375 L 379.613281 268.75 C 369.714844 272.507812 360.449219 276.972656 352.058594 281.941406 Z M 352.058594 281.941406 " fill-opacity="1" fill-rule="nonzero"/></g></g></g></g><g clip-path="url(#e5b4bdeb69)"><g clip-path="url(#951f809470)"><g clip-path="url(#6d6ac4f97a)"><g clip-path="url(#d45de5c73a)"><path fill="#231f20" d="M 442.097656 362.40625 C 438.574219 371.820312 435.777344 381.695312 433.738281 391.75 L 441.078125 393.257812 C 443.023438 383.582031 445.730469 374.085938 449.113281 365.066406 Z M 442.097656 362.40625 " fill-opacity="1" fill-rule="nonzero"/></g></g></g></g><g clip-path="url(#e7db908d5c)"><g clip-path="url(#a6a6f9da46)"><g clip-path="url(#5ef061d717)"><g clip-path="url(#fc90ac5ef5)"><path fill="#231f20" d="M 429.976562 421.972656 C 429.476562 432.136719 429.742188 442.398438 430.773438 452.449219 L 438.214844 451.683594 C 437.226562 442 436.988281 432.144531 437.449219 422.347656 Z M 429.976562 421.972656 " fill-opacity="1" fill-rule="nonzero"/></g></g></g></g><g clip-path="url(#10af1e630f)"><g clip-path="url(#67d52a15ed)"><g clip-path="url(#fded030e93)"><g clip-path="url(#0e60890874)"><path fill="#231f20" d="M 578.953125 257.316406 L 577.628906 249.945312 C 567.9375 251.699219 558.011719 254.535156 548.195312 258.378906 L 548.632812 259.496094 C 542.1875 258.160156 535.703125 256.972656 529.171875 256.015625 L 528.0625 263.410156 C 537.886719 264.878906 547.632812 266.78125 557.132812 269.101562 L 558.695312 262.570312 C 565.484375 260.308594 572.292969 258.53125 578.953125 257.316406 Z M 578.953125 257.316406 " fill-opacity="1" fill-rule="nonzero"/></g></g></g></g><g clip-path="url(#cf5b429666)"><g clip-path="url(#7c34ccad7e)"><g clip-path="url(#28ff2ca2fc)"><g clip-path="url(#0b7ec482e4)"><path fill="#231f20" d="M 520.78125 271.78125 C 512.078125 276.917969 503.664062 282.824219 495.804688 289.265625 L 500.542969 295.0625 C 508.105469 288.835938 516.199219 283.179688 524.574219 278.242188 Z M 520.78125 271.78125 " fill-opacity="1" fill-rule="nonzero"/></g></g></g></g><g clip-path="url(#40568b570a)"><g clip-path="url(#00a16f4585)"><g clip-path="url(#92722ee2f4)"><g clip-path="url(#d33082227e)"><path fill="#231f20" d="M 287.976562 345.347656 L 282.667969 340.089844 C 275.5 347.359375 268.605469 354.832031 262.195312 362.28125 L 267.894531 367.164062 C 274.144531 359.835938 280.914062 352.507812 287.976562 345.347656 Z M 287.976562 345.347656 " fill-opacity="1" fill-rule="nonzero"/></g></g></g></g><g clip-path="url(#caf4a46102)"><g clip-path="url(#b6cb123f91)"><g clip-path="url(#0f1c1beb8f)"><g clip-path="url(#e07b9de274)"><path fill="#231f20" d="M 691.738281 281.953125 L 695.019531 275.207031 C 686.136719 270.910156 676.75 266.882812 667.1875 263.316406 L 664.578125 270.320312 C 673.890625 273.875 683.046875 277.769531 691.738281 281.953125 Z M 691.738281 281.953125 " fill-opacity="1" fill-rule="nonzero"/></g></g></g></g><g clip-path="url(#b6e36edebe)"><g clip-path="url(#2500e47a6b)"><g clip-path="url(#ca3600cdbb)"><g clip-path="url(#9e663823c6)"><path fill="#231f20" d="M 625.191406 258.171875 C 628.992188 259.148438 632.707031 260.121094 636.382812 261.160156 L 638.417969 253.957031 C 634.707031 252.898438 630.929688 251.886719 627.046875 250.902344 C 621.082031 249.410156 614.789062 248.417969 608.355469 248.039062 L 607.898438 255.503906 C 613.828125 255.855469 619.660156 256.753906 625.191406 258.171875 Z M 625.191406 258.171875 " fill-opacity="1" fill-rule="nonzero"/></g></g></g></g><g clip-path="url(#12f5ec8fd2)"><g clip-path="url(#ae04c05fd9)"><g clip-path="url(#72a233422f)"><g clip-path="url(#0ef767d08a)"><path fill="#231f20" d="M 746.546875 306.835938 C 738.265625 300.597656 730.097656 294.984375 721.570312 289.769531 L 717.640625 296.140625 C 725.972656 301.242188 733.964844 306.710938 742.019531 312.820312 Z M 746.546875 306.835938 " fill-opacity="1" fill-rule="nonzero"/></g></g></g></g><g clip-path="url(#e1e84d17af)"><g clip-path="url(#42cc5dc931)"><g clip-path="url(#c9007b21d2)"><g clip-path="url(#12e2fa84fc)"><path fill="#231f20" d="M 169.96875 550.179688 C 167.632812 559.632812 165.421875 569.542969 163.40625 579.566406 L 170.761719 581.039062 C 172.753906 571.132812 174.945312 561.335938 177.222656 551.984375 Z M 169.96875 550.179688 " fill-opacity="1" fill-rule="nonzero"/></g></g></g></g><g clip-path="url(#3cfe6c4e04)"><g clip-path="url(#7367ed1660)"><g clip-path="url(#c8b14ca19f)"><g clip-path="url(#691c1548d1)"><path fill="#231f20" d="M 612.875 288.472656 L 616.039062 281.703125 C 607.132812 277.523438 597.6875 273.679688 587.929688 270.300781 L 585.5 277.367188 C 594.992188 280.675781 604.195312 284.421875 612.875 288.472656 Z M 612.875 288.472656 " fill-opacity="1" fill-rule="nonzero"/></g></g></g></g><g clip-path="url(#80db79bf6d)"><g clip-path="url(#565c861fd3)"><g clip-path="url(#1547008f4c)"><g clip-path="url(#6d0c1d1087)"><path fill="#231f20" d="M 218.148438 440.6875 L 211.515625 437.210938 C 206.941406 445.976562 202.578125 455.121094 198.503906 464.4375 L 205.371094 467.441406 C 209.347656 458.289062 213.667969 449.289062 218.148438 440.6875 Z M 218.148438 440.6875 " fill-opacity="1" fill-rule="nonzero"/></g></g></g></g><g clip-path="url(#fe28280fe4)"><g clip-path="url(#3055e9dc8e)"><g clip-path="url(#582c25e0f1)"><g clip-path="url(#739e60fe12)"><path fill="#231f20" d="M 187.359375 492.480469 C 184.03125 501.707031 180.8125 511.339844 177.90625 521.109375 L 185.089844 523.261719 C 187.953125 513.640625 191.097656 504.136719 194.433594 495.042969 Z M 187.359375 492.480469 " fill-opacity="1" fill-rule="nonzero"/></g></g></g></g><g clip-path="url(#8dbb640d1a)"><g clip-path="url(#910ba644dc)"><g clip-path="url(#ee9244f41b)"><g clip-path="url(#613fa73403)"><path fill="#231f20" d="M 249.421875 390.378906 L 243.378906 385.949219 C 237.46875 394.03125 231.757812 402.445312 226.460938 410.96875 L 232.816406 414.929688 C 238.039062 406.539062 243.625 398.269531 249.421875 390.378906 Z M 249.421875 390.378906 " fill-opacity="1" fill-rule="nonzero"/></g></g></g></g><g clip-path="url(#79269bc5c4)"><g clip-path="url(#6c6063e77c)"><g clip-path="url(#b41a59dc05)"><g clip-path="url(#8282e8ab6b)"><path fill="#231f20" d="M 436.210938 482.445312 C 438.886719 492.492188 442.390625 502.15625 446.601562 511.191406 L 453.394531 508.019531 C 449.378906 499.402344 446.035156 490.132812 443.449219 480.523438 Z M 436.210938 482.445312 " fill-opacity="1" fill-rule="nonzero"/></g></g></g></g><g clip-path="url(#3ec3b7a681)"><g clip-path="url(#cb47d459be)"><g clip-path="url(#f59b43c571)"><g clip-path="url(#ad7c775b59)"><path fill="#231f20" d="M 1070.980469 487.742188 L 1072.070312 495.148438 C 1081.914062 493.652344 1091.902344 491.460938 1101.746094 488.621094 L 1099.671875 481.425781 C 1090.167969 484.199219 1080.519531 486.328125 1070.980469 487.742188 Z M 1070.980469 487.742188 " fill-opacity="1" fill-rule="nonzero"/></g></g></g></g><g clip-path="url(#cd4ef9fedf)"><g clip-path="url(#6c9c80b4ac)"><g clip-path="url(#fe4f0d3975)"><g clip-path="url(#16a26689d9)"><path fill="#231f20" d="M 856.539062 408.511719 L 851.660156 414.207031 C 853.71875 415.957031 855.8125 417.722656 857.957031 419.476562 C 864.253906 424.660156 869.699219 429.003906 875.117188 433.164062 L 879.660156 427.230469 C 874.335938 423.125 868.941406 418.851562 862.707031 413.703125 C 860.644531 411.957031 858.566406 410.238281 856.539062 408.511719 Z M 856.539062 408.511719 " fill-opacity="1" fill-rule="nonzero"/></g></g></g></g><g clip-path="url(#bad050e5b6)"><g clip-path="url(#bffb0013f6)"><g clip-path="url(#fa4e273534)"><g clip-path="url(#57d65376e4)"><path fill="#231f20" d="M 903.808594 444.464844 L 899.648438 450.707031 C 905.957031 454.902344 912.332031 458.832031 918.589844 462.4375 C 920.890625 463.765625 923.210938 465.058594 925.550781 466.320312 L 929.125 459.742188 C 920.5625 455.113281 912.246094 450.0625 903.808594 444.464844 Z M 903.808594 444.464844 " fill-opacity="1" fill-rule="nonzero"/></g></g></g></g><g clip-path="url(#75e71ed53a)"><g clip-path="url(#595113568d)"><g clip-path="url(#de74ddf465)"><g clip-path="url(#06e4c38b21)"><path fill="#231f20" d="M 955.800781 472.519531 L 952.941406 479.425781 C 962.46875 483.355469 972.113281 486.710938 981.644531 489.351562 L 983.648438 482.128906 C 974.390625 479.601562 965.027344 476.367188 955.800781 472.519531 Z M 955.800781 472.519531 " fill-opacity="1" fill-rule="nonzero"/></g></g></g></g><g clip-path="url(#57cc87f515)"><g clip-path="url(#e04f5e4ce5)"><g clip-path="url(#58b42c8c83)"><g clip-path="url(#cd3f09b159)"><path fill="#231f20" d="M 807.890625 373.011719 C 815.742188 380.816406 822.363281 387.394531 829.347656 394.011719 L 834.496094 388.597656 C 827.578125 382.019531 820.96875 375.492188 813.179688 367.722656 Z M 807.890625 373.011719 " fill-opacity="1" fill-rule="nonzero"/></g></g></g></g><g clip-path="url(#bfb92d5bf2)"><g clip-path="url(#acf11bbfa1)"><g clip-path="url(#07375d4db6)"><g clip-path="url(#154bb219c3)"><path fill="#231f20" d="M 1012.449219 488.136719 L 1011.425781 495.539062 C 1021.5 496.9375 1031.707031 497.59375 1041.769531 497.515625 L 1041.726562 490.019531 C 1031.996094 490.113281 1022.144531 489.449219 1012.449219 488.136719 Z M 1012.449219 488.136719 " fill-opacity="1" fill-rule="nonzero"/></g></g></g></g><g clip-path="url(#299421c1f5)"><g clip-path="url(#18fc937378)"><g clip-path="url(#49264b0659)"><g clip-path="url(#edf55d5579)"><path fill="#231f20" d="M 764.949219 331.644531 C 771.640625 337.574219 778.519531 344 786.6875 351.941406 L 791.898438 346.566406 C 783.65625 338.535156 776.695312 332.023438 769.90625 326.039062 Z M 764.949219 331.644531 " fill-opacity="1" fill-rule="nonzero"/></g></g></g></g><g clip-path="url(#84c073b062)"><g clip-path="url(#2a16873deb)"><g clip-path="url(#1188ff7f5c)"><g clip-path="url(#0a9e03f28c)"><path fill="#231f20" d="M 462.246094 537.5625 C 468.570312 546 475.6875 553.511719 483.445312 559.839844 L 488.195312 554.066406 C 480.917969 548.105469 474.195312 541.035156 468.242188 533.074219 Z M 462.246094 537.5625 " fill-opacity="1" fill-rule="nonzero"/></g></g></g></g><g clip-path="url(#be969a2797)"><g clip-path="url(#fcda7403a5)"><g clip-path="url(#51f8019bee)"><g clip-path="url(#62db3a4938)"><path fill="#231f20" d="M 1225.460938 406.191406 L 1230.484375 411.71875 C 1237.710938 405.171875 1245 398.144531 1252.1875 390.839844 L 1246.832031 385.59375 C 1239.78125 392.804688 1232.550781 399.738281 1225.460938 406.191406 Z M 1225.460938 406.191406 " fill-opacity="1" fill-rule="nonzero"/></g></g></g></g><g clip-path="url(#c213167049)"><g clip-path="url(#64da003fac)"><g clip-path="url(#1d3feeb8fe)"><g clip-path="url(#fbffec54f7)"><path fill="#231f20" d="M 1127.398438 471.527344 L 1130.34375 478.410156 C 1139.375 474.582031 1148.523438 470.09375 1157.539062 465.09375 L 1153.917969 458.5625 C 1145.113281 463.421875 1136.203125 467.792969 1127.398438 471.527344 Z M 1127.398438 471.527344 " fill-opacity="1" fill-rule="nonzero"/></g></g></g></g><g clip-path="url(#96dc750c9d)"><g clip-path="url(#8a39c5b556)"><g clip-path="url(#216dd16cd8)"><g clip-path="url(#c0f18b56a3)"><path fill="#231f20" d="M 1179.058594 443.03125 L 1183.269531 449.214844 C 1191.359375 443.722656 1199.542969 437.6875 1207.550781 431.285156 L 1202.882812 425.445312 C 1195 431.703125 1186.972656 437.613281 1179.058594 443.03125 Z M 1179.058594 443.03125 " fill-opacity="1" fill-rule="nonzero"/></g></g></g></g><g clip-path="url(#af806bd7a4)"><g clip-path="url(#39888d4df1)"><g clip-path="url(#b9fd32dd82)"><g clip-path="url(#76096d46e3)"><path fill="#231f20" d="M 705.304688 361.933594 C 700.765625 353.015625 695.125 344.367188 688.582031 336.234375 L 682.753906 340.953125 C 688.988281 348.648438 694.320312 356.859375 698.632812 365.347656 Z M 705.304688 361.933594 " fill-opacity="1" fill-rule="nonzero"/></g></g></g></g><g clip-path="url(#8607e9ab6e)"><g clip-path="url(#3cb73122d2)"><g clip-path="url(#05f1142638)"><g clip-path="url(#8e741e452f)"><path fill="#231f20" d="M 512.734375 569.199219 L 509.699219 576.042969 C 519.027344 580.167969 528.984375 583.050781 539.320312 584.601562 L 540.425781 577.207031 C 530.722656 575.761719 521.390625 573.0625 512.734375 569.199219 Z M 512.734375 569.199219 " fill-opacity="1" fill-rule="nonzero"/></g></g></g></g><g clip-path="url(#95bbf93cfb)"><g clip-path="url(#b32b2d600f)"><g clip-path="url(#d077d5e4d0)"><g clip-path="url(#3daef3b785)"><path fill="#231f20" d="M 569.449219 578.335938 L 569.945312 585.792969 C 580.042969 585.128906 590.207031 583.382812 600.125 580.632812 L 598.136719 573.441406 C 588.726562 576.054688 579.058594 577.695312 569.449219 578.335938 Z M 569.449219 578.335938 " fill-opacity="1" fill-rule="nonzero"/></g></g></g></g><g clip-path="url(#b505d4e8a5)"><g clip-path="url(#b703968153)"><g clip-path="url(#825ea866f8)"><g clip-path="url(#ac75cf13fb)"><path fill="#231f20" d="M 667.257812 314.320312 C 659.808594 307.910156 651.566406 301.824219 642.726562 296.257812 L 638.730469 302.59375 C 647.246094 307.972656 655.234375 313.828125 662.347656 320 Z M 667.257812 314.320312 " fill-opacity="1" fill-rule="nonzero"/></g></g></g></g><g clip-path="url(#30426706b9)"><g clip-path="url(#7720473e30)"><g clip-path="url(#0e909d30fb)"><g clip-path="url(#7336388760)"><path fill="#231f20" d="M 625.429688 562.949219 L 628.773438 569.671875 C 637.859375 565.144531 646.59375 559.726562 654.738281 553.535156 L 650.230469 547.566406 C 642.4375 553.445312 634.082031 558.652344 625.429688 562.949219 Z M 625.429688 562.949219 " fill-opacity="1" fill-rule="nonzero"/></g></g></g></g><g clip-path="url(#b3de40a3a7)"><g clip-path="url(#4228524f2d)"><g clip-path="url(#5bf0a80df9)"><g clip-path="url(#9aee8ad79d)"><path fill="#231f20" d="M 709.394531 481.15625 C 713.074219 471.617188 715.808594 461.703125 717.574219 451.664062 L 710.207031 450.355469 C 708.535156 459.929688 705.898438 469.382812 702.394531 478.460938 Z M 709.394531 481.15625 " fill-opacity="1" fill-rule="nonzero"/></g></g></g></g><g clip-path="url(#b080d1463e)"><g clip-path="url(#0e26c3700a)"><g clip-path="url(#7f989a92df)"><g clip-path="url(#8ad23484f3)"><path fill="#231f20" d="M 671.8125 527.871094 L 677.332031 532.910156 C 684.234375 525.351562 690.4375 517.136719 695.789062 508.515625 L 689.433594 504.554688 C 684.320312 512.835938 678.390625 520.648438 671.8125 527.871094 Z M 671.8125 527.871094 " fill-opacity="1" fill-rule="nonzero"/></g></g></g></g><g clip-path="url(#1e0fba86f7)"><g clip-path="url(#116cb122cc)"><g clip-path="url(#1ab80a3bb4)"><g clip-path="url(#4f83fb3eb8)"><path fill="#231f20" d="M 719.964844 421.125 C 719.742188 410.71875 718.417969 400.496094 715.996094 390.679688 L 708.746094 392.464844 C 711.019531 401.71875 712.289062 411.433594 712.496094 421.269531 Z M 719.964844 421.125 " fill-opacity="1" fill-rule="nonzero"/></g></g></g></g><g clip-path="url(#0c23b1a2f9)"><g clip-path="url(#58a6b04546)"><g clip-path="url(#d0693ede0d)"><g clip-path="url(#879d16f425)"><path fill="#231f20" d="M 1299.964844 379.277344 L 1321.773438 301.839844 L 1251.996094 341.839844 L 1282.613281 346.046875 C 1277.492188 352.167969 1272.339844 358.183594 1267.222656 363.914062 L 1272.8125 368.90625 C 1278.019531 363.09375 1283.277344 356.96875 1288.472656 350.71875 Z M 1299.964844 379.277344 " fill-opacity="1" fill-rule="nonzero"/></g></g></g></g></svg>