<svg xmlns="http://www.w3.org/2000/svg" xmlns:xlink="http://www.w3.org/1999/xlink" width="1920" zoomAndPan="magnify" viewBox="0 0 1440 809.999993" height="1080" preserveAspectRatio="xMidYMid meet" version="1.0"><rect x="-144" width="1728" fill="#ffffff" y="-80.999999" height="971.999992" fill-opacity="1"/><rect x="-144" width="1728" fill="#c6aae8" y="-80.999999" height="971.999992" fill-opacity="1"/><path fill="#000000" d="M 980.03125 165.535156 C 979.441406 164.476562 979.097656 163.25 979.085938 161.941406 C 979.070312 160.632812 979.390625 159.402344 979.964844 158.328125 L 910.433594 111.898438 C 907.097656 109.671875 906.164062 105.085938 908.339844 101.660156 C 910.515625 98.238281 914.992188 97.269531 918.324219 99.496094 L 1011.292969 161.574219 L 919.492188 225.769531 C 916.199219 228.074219 911.703125 227.207031 909.464844 223.835938 C 907.226562 220.460938 908.078125 215.855469 911.371094 213.550781 C 911.371094 213.550781 963.167969 177.332031 980.03125 165.535156 Z M 403.285156 175.949219 C 399.304688 175.992188 396.039062 172.714844 396 168.632812 C 395.964844 164.550781 399.167969 161.199219 403.148438 161.152344 L 446.449219 160.65625 C 450.429688 160.609375 453.695312 163.886719 453.730469 167.96875 C 453.769531 172.054688 450.566406 175.40625 446.585938 175.453125 Z M 476.171875 175.113281 C 472.1875 175.15625 468.925781 171.878906 468.886719 167.796875 C 468.847656 163.714844 472.050781 160.363281 476.035156 160.316406 L 519.332031 159.820312 C 523.316406 159.773438 526.578125 163.050781 526.617188 167.132812 C 526.65625 171.21875 523.453125 174.570312 519.46875 174.613281 Z M 549.054688 174.273438 C 545.074219 174.320312 541.808594 171.042969 541.769531 166.960938 C 541.734375 162.878906 544.9375 159.523438 548.917969 159.480469 L 592.21875 158.984375 C 596.199219 158.9375 599.460938 162.214844 599.5 166.296875 C 599.539062 170.382812 596.339844 173.734375 592.355469 173.777344 Z M 621.941406 173.4375 C 617.957031 173.484375 614.691406 170.207031 614.65625 166.125 C 614.617188 162.039062 617.820312 158.6875 621.804688 158.644531 L 665.101562 158.148438 C 669.085938 158.101562 672.347656 161.378906 672.386719 165.460938 C 672.425781 169.542969 669.222656 172.898438 665.242188 172.941406 Z M 694.828125 172.601562 C 690.84375 172.648438 687.578125 169.371094 687.542969 165.289062 C 687.503906 161.203125 690.707031 157.851562 694.691406 157.808594 L 737.988281 157.308594 C 741.972656 157.265625 745.234375 160.542969 745.273438 164.625 C 745.308594 168.707031 742.105469 172.058594 738.125 172.105469 Z M 767.714844 171.765625 C 763.730469 171.8125 760.464844 168.535156 760.425781 164.453125 C 760.390625 160.367188 763.59375 157.015625 767.578125 156.972656 L 810.875 156.472656 C 814.859375 156.429688 818.121094 159.707031 818.160156 163.789062 C 818.195312 167.871094 814.992188 171.222656 811.011719 171.269531 Z M 840.601562 170.929688 C 836.617188 170.976562 833.351562 167.699219 833.3125 163.613281 C 833.273438 159.53125 836.476562 156.179688 840.460938 156.132812 L 883.761719 155.636719 C 887.742188 155.59375 891.007812 158.871094 891.042969 162.953125 C 891.082031 167.035156 887.878906 170.386719 883.898438 170.433594 Z M 913.484375 170.09375 C 909.5 170.140625 906.234375 166.863281 906.199219 162.777344 C 906.160156 158.695312 909.363281 155.34375 913.347656 155.296875 L 956.644531 154.800781 C 960.628906 154.753906 963.890625 158.035156 963.929688 162.117188 C 963.96875 166.199219 960.765625 169.550781 956.785156 169.597656 Z M 913.484375 170.09375 " fill-opacity="1" fill-rule="evenodd"/><path fill="#000000" d="M 370.882812 564.804688 C 371.472656 565.867188 371.816406 567.09375 371.828125 568.398438 C 371.84375 569.707031 371.523438 570.941406 370.949219 572.015625 L 440.480469 618.445312 C 443.816406 620.671875 444.75 625.257812 442.574219 628.679688 C 440.398438 632.105469 435.921875 633.074219 432.589844 630.847656 L 339.621094 568.769531 L 431.421875 504.570312 C 434.714844 502.269531 439.210938 503.136719 441.449219 506.507812 C 443.6875 509.878906 442.835938 514.488281 439.542969 516.789062 C 439.542969 516.789062 387.746094 553.011719 370.882812 564.804688 Z M 947.628906 554.394531 C 951.609375 554.347656 954.875 557.625 954.910156 561.710938 C 954.949219 565.792969 951.746094 569.144531 947.765625 569.191406 L 904.464844 569.6875 C 900.484375 569.734375 897.21875 566.457031 897.179688 562.371094 C 897.144531 558.289062 900.347656 554.9375 904.328125 554.890625 Z M 874.742188 555.230469 C 878.726562 555.183594 881.988281 558.464844 882.027344 562.546875 C 882.066406 566.628906 878.863281 569.980469 874.878906 570.027344 L 831.582031 570.523438 C 827.597656 570.570312 824.335938 567.292969 824.296875 563.207031 C 824.257812 559.125 827.460938 555.773438 831.445312 555.726562 Z M 801.859375 556.066406 C 805.839844 556.023438 809.105469 559.300781 809.140625 563.382812 C 809.179688 567.464844 805.976562 570.816406 801.996094 570.863281 L 758.695312 571.359375 C 754.714844 571.40625 751.449219 568.128906 751.410156 564.042969 C 751.371094 559.960938 754.574219 556.609375 758.558594 556.5625 Z M 728.972656 556.902344 C 732.957031 556.859375 736.222656 560.136719 736.257812 564.21875 C 736.296875 568.300781 733.09375 571.652344 729.109375 571.699219 L 685.8125 572.195312 C 681.828125 572.242188 678.566406 568.964844 678.527344 564.882812 C 678.488281 560.796875 681.691406 557.445312 685.671875 557.402344 Z M 656.085938 557.738281 C 660.070312 557.695312 663.335938 560.972656 663.371094 565.054688 C 663.410156 569.136719 660.207031 572.488281 656.222656 572.535156 L 612.925781 573.03125 C 608.941406 573.078125 605.679688 569.800781 605.640625 565.71875 C 605.605469 561.632812 608.804688 558.28125 612.789062 558.238281 Z M 583.199219 558.574219 C 587.183594 558.53125 590.449219 561.808594 590.488281 565.890625 C 590.523438 569.972656 587.320312 573.328125 583.335938 573.371094 L 540.039062 573.867188 C 536.054688 573.914062 532.792969 570.636719 532.753906 566.554688 C 532.71875 562.472656 535.921875 559.117188 539.902344 559.074219 Z M 510.3125 559.414062 C 514.296875 559.367188 517.5625 562.644531 517.601562 566.726562 C 517.640625 570.8125 514.4375 574.164062 510.453125 574.207031 L 467.152344 574.707031 C 463.171875 574.75 459.90625 571.472656 459.871094 567.390625 C 459.832031 563.308594 463.035156 559.953125 467.015625 559.910156 Z M 437.429688 560.25 C 441.414062 560.203125 444.679688 563.480469 444.714844 567.5625 C 444.753906 571.648438 441.550781 575 437.566406 575.042969 L 394.269531 575.542969 C 390.285156 575.585938 387.023438 572.308594 386.984375 568.226562 C 386.945312 564.144531 390.148438 560.792969 394.128906 560.746094 Z M 437.429688 560.25 " fill-opacity="1" fill-rule="evenodd"/></svg>