<svg xmlns="http://www.w3.org/2000/svg" xmlns:xlink="http://www.w3.org/1999/xlink" width="1920" zoomAndPan="magnify" viewBox="0 0 1440 809.999993" height="1080" preserveAspectRatio="xMidYMid meet" version="1.0"><defs><clipPath id="fa82ce9cf2"><path d="M 405.5625 128.367188 L 1034 128.367188 L 1034 632.367188 L 405.5625 632.367188 Z M 405.5625 128.367188 " clip-rule="nonzero"/></clipPath><clipPath id="1c9c29899c"><path d="M 435.304688 152.957031 L 1063.804688 152.957031 L 1063.804688 656.957031 L 435.304688 656.957031 Z M 435.304688 152.957031 " clip-rule="nonzero"/></clipPath></defs><rect x="-144" width="1728" fill="#ffffff" y="-80.999999" height="971.999992" fill-opacity="1"/><rect x="-144" width="1728" fill="#ffd4b1" y="-80.999999" height="971.999992" fill-opacity="1"/><g clip-path="url(#fa82ce9cf2)"><path fill="#000000" d="M 1033.855469 141.796875 L 1004.722656 141.796875 L 1004.722656 128.359375 L 1033.855469 128.359375 Z M 886.046875 141.796875 L 945.390625 141.796875 L 945.390625 128.359375 L 886.046875 128.359375 Z M 708.046875 128.359375 L 648.710938 128.359375 L 648.710938 141.796875 L 708.046875 141.796875 Z M 530.046875 141.796875 L 589.382812 141.796875 L 589.382812 128.359375 L 530.046875 128.359375 Z M 767.382812 141.796875 L 826.71875 141.796875 L 826.71875 128.359375 L 767.386719 128.359375 Z M 448.300781 141.796875 L 470.703125 141.796875 L 470.703125 128.359375 L 434.84375 128.359375 L 434.84375 164.1875 L 448.292969 164.1875 Z M 434.855469 501.597656 L 448.300781 501.597656 L 448.300781 445.363281 L 434.855469 445.363281 Z M 448.300781 220.421875 L 434.855469 220.421875 L 434.855469 276.65625 L 448.300781 276.65625 Z M 448.300781 332.894531 L 434.855469 332.894531 L 434.855469 389.128906 L 448.300781 389.128906 Z M 477.382812 568.042969 L 448.300781 578.554688 L 448.300781 557.828125 L 434.855469 557.828125 L 434.855469 578.554688 L 405.769531 568.042969 C 420.109375 584.476562 433.648438 610.988281 441.582031 632.359375 C 449.511719 610.988281 463.046875 584.476562 477.386719 568.042969 Z M 477.382812 568.042969 " fill-opacity="1" fill-rule="nonzero"/></g><g clip-path="url(#1c9c29899c)"><path fill="#000000" d="M 435.511719 643.53125 L 464.648438 643.53125 L 464.648438 656.96875 L 435.511719 656.96875 Z M 583.324219 643.53125 L 523.980469 643.53125 L 523.980469 656.96875 L 583.324219 656.96875 Z M 761.324219 656.96875 L 820.65625 656.96875 L 820.65625 643.53125 L 761.324219 643.53125 Z M 939.324219 643.53125 L 879.988281 643.53125 L 879.988281 656.96875 L 939.320312 656.96875 Z M 701.988281 643.53125 L 642.648438 643.53125 L 642.648438 656.96875 L 701.984375 656.96875 Z M 1021.070312 643.53125 L 998.667969 643.53125 L 998.667969 656.96875 L 1034.523438 656.96875 L 1034.523438 621.136719 L 1021.078125 621.136719 Z M 1034.515625 283.726562 L 1021.070312 283.726562 L 1021.070312 339.960938 L 1034.515625 339.960938 Z M 1021.070312 564.902344 L 1034.515625 564.902344 L 1034.515625 508.667969 L 1021.070312 508.667969 Z M 1021.070312 452.433594 L 1034.515625 452.433594 L 1034.515625 396.195312 L 1021.070312 396.195312 Z M 991.988281 217.285156 L 1021.070312 206.769531 L 1021.070312 227.496094 L 1034.515625 227.496094 L 1034.515625 206.769531 L 1063.597656 217.28125 C 1049.261719 200.847656 1035.71875 174.335938 1027.789062 152.96875 C 1019.859375 174.335938 1006.320312 200.847656 991.984375 217.28125 Z M 991.988281 217.285156 " fill-opacity="1" fill-rule="nonzero"/></g></svg>