<svg xmlns="http://www.w3.org/2000/svg" xmlns:xlink="http://www.w3.org/1999/xlink" width="1920" zoomAndPan="magnify" viewBox="0 0 1440 809.999993" height="1080" preserveAspectRatio="xMidYMid meet" version="1.0"><defs><clipPath id="d38aa2b395"><path d="M 237.085938 143.621094 L 1203.085938 143.621094 L 1203.085938 666.371094 L 237.085938 666.371094 Z M 237.085938 143.621094 " clip-rule="nonzero"/></clipPath></defs><rect x="-144" width="1728" fill="#ffffff" y="-80.999999" height="971.999992" fill-opacity="1"/><rect x="-144" width="1728" fill="#f0e75d" y="-80.999999" height="971.999992" fill-opacity="1"/><g clip-path="url(#d38aa2b395)"><path fill="#000000" d="M 267.691406 621.621094 L 281.816406 635.746094 L 251.226562 666.347656 L 237.085938 652.222656 Z M 845.5625 363.28125 L 760.980469 363.28125 L 760.980469 383.242188 L 845.558594 383.242188 Z M 676.40625 363.28125 L 591.828125 363.28125 L 591.828125 383.242188 L 676.40625 383.242188 Z M 506.921875 382.441406 L 447.109375 442.234375 L 461.234375 456.359375 L 521.039062 396.566406 Z M 401.429688 516.15625 L 387.304688 502.03125 L 327.496094 561.828125 L 341.625 575.949219 Z M 1011.09375 349.714844 L 996.964844 335.589844 L 969.273438 363.277344 L 930.136719 363.277344 L 930.136719 383.238281 L 977.5625 383.238281 Z M 1037.203125 295.363281 L 1051.328125 309.488281 L 1091.5625 269.261719 L 1077.4375 255.136719 Z M 1139.457031 193.140625 L 1117.671875 214.921875 L 1131.796875 229.046875 L 1153.582031 207.265625 L 1173.089844 248.855469 C 1175.300781 216.519531 1188.957031 174.429688 1203.085938 143.636719 C 1172.292969 157.769531 1130.195312 171.417969 1097.851562 173.628906 Z M 1139.457031 193.140625 " fill-opacity="1" fill-rule="nonzero"/></g></svg>