<svg xmlns="http://www.w3.org/2000/svg" xmlns:xlink="http://www.w3.org/1999/xlink" width="1920" zoomAndPan="magnify" viewBox="0 0 1440 809.999993" height="1080" preserveAspectRatio="xMidYMid meet" version="1.0"><defs><clipPath id="72b2b65f0e"><path d="M 742 718 L 777 718 L 777 749.515625 L 742 749.515625 Z M 742 718 " clip-rule="nonzero"/></clipPath><clipPath id="bca0a48478"><path d="M 798 734 L 1150.875 734 L 1150.875 749.515625 L 798 749.515625 Z M 798 734 " clip-rule="nonzero"/></clipPath></defs><rect x="-144" width="1728" fill="#ffffff" y="-80.999999" height="971.999992" fill-opacity="1"/><rect x="-144" width="1728" fill="#90c453" y="-80.999999" height="971.999992" fill-opacity="1"/><path fill="#000000" d="M 352.691406 170.152344 L 333.972656 170.152344 C 329.839844 170.152344 326.484375 166.796875 326.484375 162.664062 C 326.484375 158.535156 329.839844 155.179688 333.972656 155.179688 L 352.691406 155.179688 C 356.824219 155.179688 360.175781 158.535156 360.175781 162.664062 C 360.175781 166.796875 356.824219 170.152344 352.691406 170.152344 Z M 352.691406 170.152344 " fill-opacity="1" fill-rule="nonzero"/><path fill="#000000" d="M 557.34375 170.152344 L 523.234375 170.152344 C 519.101562 170.152344 515.746094 166.796875 515.746094 162.664062 C 515.746094 158.535156 519.101562 155.179688 523.234375 155.179688 L 557.34375 155.179688 C 561.476562 155.179688 564.828125 158.535156 564.828125 162.664062 C 564.828125 166.796875 561.476562 170.152344 557.34375 170.152344 Z M 489.121094 170.152344 L 455.011719 170.152344 C 450.878906 170.152344 447.527344 166.796875 447.527344 162.664062 C 447.527344 158.535156 450.878906 155.179688 455.011719 155.179688 L 489.121094 155.179688 C 493.253906 155.179688 496.609375 158.535156 496.609375 162.664062 C 496.609375 166.796875 493.253906 170.152344 489.121094 170.152344 Z M 420.910156 170.152344 L 386.800781 170.152344 C 382.667969 170.152344 379.3125 166.796875 379.3125 162.664062 C 379.3125 158.535156 382.667969 155.179688 386.800781 155.179688 L 420.910156 155.179688 C 425.042969 155.179688 428.398438 158.535156 428.398438 162.664062 C 428.398438 166.796875 425.042969 170.152344 420.910156 170.152344 Z M 420.910156 170.152344 " fill-opacity="1" fill-rule="nonzero"/><path fill="#000000" d="M 601.34375 186.660156 C 600.152344 186.660156 598.945312 186.375 597.824219 185.777344 C 594.179688 183.832031 592.800781 179.292969 594.746094 175.648438 L 597.683594 170.152344 L 591.445312 170.152344 C 587.3125 170.152344 583.957031 166.796875 583.957031 162.664062 C 583.957031 158.535156 587.3125 155.179688 591.445312 155.179688 L 610.164062 155.179688 C 612.789062 155.179688 615.230469 156.558594 616.585938 158.816406 C 617.941406 161.070312 618.007812 163.871094 616.773438 166.191406 L 607.960938 182.699219 C 606.605469 185.222656 604.023438 186.660156 601.34375 186.660156 Z M 601.34375 186.660156 " fill-opacity="1" fill-rule="nonzero"/><path fill="#000000" d="M 488.480469 398.074219 C 487.289062 398.074219 486.082031 397.789062 484.960938 397.191406 C 481.3125 395.246094 479.9375 390.707031 481.882812 387.0625 L 500.691406 351.828125 C 502.636719 348.183594 507.171875 346.804688 510.820312 348.75 C 514.464844 350.699219 515.84375 355.234375 513.894531 358.882812 L 495.089844 394.113281 C 493.742188 396.636719 491.160156 398.074219 488.480469 398.074219 Z M 526.101562 327.601562 C 524.910156 327.601562 523.703125 327.316406 522.582031 326.71875 C 518.933594 324.769531 517.558594 320.234375 519.503906 316.585938 L 538.3125 281.355469 C 540.257812 277.707031 544.792969 276.332031 548.441406 278.277344 C 552.085938 280.222656 553.464844 284.761719 551.519531 288.40625 L 532.710938 323.640625 C 531.363281 326.164062 528.78125 327.601562 526.101562 327.601562 Z M 563.722656 257.136719 C 562.53125 257.136719 561.324219 256.851562 560.203125 256.25 C 556.554688 254.304688 555.179688 249.769531 557.125 246.121094 L 575.933594 210.886719 C 577.878906 207.242188 582.417969 205.863281 586.0625 207.8125 C 589.707031 209.757812 591.085938 214.296875 589.140625 217.941406 L 570.332031 253.175781 C 568.984375 255.699219 566.402344 257.136719 563.722656 257.136719 Z M 563.722656 257.136719 " fill-opacity="1" fill-rule="nonzero"/><path fill="#000000" d="M 479.578125 449.816406 L 460.859375 449.816406 C 458.230469 449.816406 455.792969 448.4375 454.4375 446.175781 C 453.082031 443.925781 453.011719 441.125 454.25 438.804688 L 463.0625 422.292969 C 465.007812 418.648438 469.542969 417.269531 473.191406 419.21875 C 476.835938 421.164062 478.214844 425.699219 476.269531 429.347656 L 473.332031 434.84375 L 479.570312 434.84375 C 483.703125 434.84375 487.054688 438.195312 487.054688 442.328125 C 487.054688 446.460938 483.71875 449.816406 479.578125 449.816406 Z M 479.578125 449.816406 " fill-opacity="1" fill-rule="nonzero"/><path fill="#000000" d="M 844.109375 449.816406 L 807.65625 449.816406 C 803.523438 449.816406 800.171875 446.460938 800.171875 442.328125 C 800.171875 438.195312 803.523438 434.84375 807.65625 434.84375 L 844.109375 434.84375 C 848.242188 434.84375 851.597656 438.195312 851.597656 442.328125 C 851.597656 446.460938 848.25 449.816406 844.109375 449.816406 Z M 771.203125 449.816406 L 734.75 449.816406 C 730.617188 449.816406 727.265625 446.460938 727.265625 442.328125 C 727.265625 438.195312 730.617188 434.84375 734.75 434.84375 L 771.203125 434.84375 C 775.335938 434.84375 778.691406 438.195312 778.691406 442.328125 C 778.691406 446.460938 775.34375 449.816406 771.203125 449.816406 Z M 698.296875 449.816406 L 661.84375 449.816406 C 657.710938 449.816406 654.355469 446.460938 654.355469 442.328125 C 654.355469 438.195312 657.710938 434.84375 661.84375 434.84375 L 698.296875 434.84375 C 702.429688 434.84375 705.785156 438.195312 705.785156 442.328125 C 705.785156 446.460938 702.4375 449.816406 698.296875 449.816406 Z M 625.390625 449.816406 L 588.9375 449.816406 C 584.804688 449.816406 581.449219 446.460938 581.449219 442.328125 C 581.449219 438.195312 584.804688 434.84375 588.9375 434.84375 L 625.390625 434.84375 C 629.523438 434.84375 632.878906 438.195312 632.878906 442.328125 C 632.878906 446.460938 629.53125 449.816406 625.390625 449.816406 Z M 552.484375 449.816406 L 516.03125 449.816406 C 511.898438 449.816406 508.542969 446.460938 508.542969 442.328125 C 508.542969 438.195312 511.898438 434.84375 516.03125 434.84375 L 552.484375 434.84375 C 556.617188 434.84375 559.96875 438.195312 559.96875 442.328125 C 559.96875 446.460938 556.625 449.816406 552.484375 449.816406 Z M 552.484375 449.816406 " fill-opacity="1" fill-rule="nonzero"/><path fill="#000000" d="M 890.941406 466.578125 C 889.816406 466.578125 888.679688 466.324219 887.609375 465.792969 C 883.910156 463.953125 882.398438 459.460938 884.242188 455.753906 L 887.191406 449.824219 L 880.5625 449.824219 C 876.429688 449.824219 873.078125 446.46875 873.078125 442.335938 C 873.078125 438.203125 876.429688 434.851562 880.5625 434.851562 L 899.28125 434.851562 C 901.871094 434.851562 904.28125 436.191406 905.644531 438.398438 C 907.007812 440.601562 907.136719 443.355469 905.980469 445.675781 L 897.640625 462.429688 C 896.339844 465.050781 893.6875 466.570312 890.941406 466.578125 Z M 890.941406 466.578125 " fill-opacity="1" fill-rule="nonzero"/><path fill="#000000" d="M 773.054688 703.410156 C 771.929688 703.410156 770.792969 703.15625 769.722656 702.625 C 766.023438 700.78125 764.511719 696.289062 766.351562 692.585938 L 781.085938 662.980469 C 782.929688 659.277344 787.421875 657.769531 791.125 659.613281 C 794.824219 661.453125 796.335938 665.945312 794.496094 669.652344 L 779.761719 699.253906 C 778.453125 701.882812 775.800781 703.410156 773.054688 703.410156 Z M 802.523438 644.195312 C 801.398438 644.195312 800.261719 643.941406 799.191406 643.410156 C 795.492188 641.570312 793.980469 637.078125 795.820312 633.371094 L 810.554688 603.769531 C 812.398438 600.070312 816.890625 598.558594 820.59375 600.398438 C 824.292969 602.242188 825.804688 606.734375 823.964844 610.4375 L 809.230469 640.042969 C 807.917969 642.675781 805.277344 644.195312 802.523438 644.195312 Z M 831.996094 584.992188 C 830.875 584.992188 829.734375 584.738281 828.664062 584.203125 C 824.96875 582.363281 823.453125 577.871094 825.296875 574.164062 L 840.03125 544.5625 C 841.871094 540.863281 846.363281 539.351562 850.070312 541.191406 C 853.769531 543.035156 855.28125 547.527344 853.441406 551.234375 L 838.707031 580.835938 C 837.394531 583.472656 834.746094 584.992188 831.996094 584.992188 Z M 861.464844 525.785156 C 860.34375 525.785156 859.203125 525.53125 858.132812 525 C 854.433594 523.15625 852.921875 518.664062 854.765625 514.960938 L 869.5 485.355469 C 871.339844 481.648438 875.832031 480.144531 879.539062 481.988281 C 883.238281 483.828125 884.75 488.320312 882.90625 492.027344 L 868.171875 521.628906 C 866.863281 524.265625 864.21875 525.785156 861.464844 525.785156 Z M 861.464844 525.785156 " fill-opacity="1" fill-rule="nonzero"/><g clip-path="url(#72b2b65f0e)"><path fill="#000000" d="M 768.695312 749.769531 L 749.980469 749.769531 C 747.386719 749.769531 744.976562 748.429688 743.613281 746.226562 C 742.253906 744.027344 742.125 741.269531 743.277344 738.949219 L 751.617188 722.195312 C 753.460938 718.496094 757.953125 716.984375 761.660156 718.824219 C 765.355469 720.667969 766.871094 725.160156 765.027344 728.867188 L 762.078125 734.796875 L 768.703125 734.796875 C 772.835938 734.796875 776.191406 738.148438 776.191406 742.28125 C 776.191406 746.414062 772.835938 749.769531 768.695312 749.769531 Z M 768.695312 749.769531 " fill-opacity="1" fill-rule="nonzero"/></g><g clip-path="url(#bca0a48478)"><path fill="#000000" d="M 1143.21875 749.769531 L 1105.769531 749.769531 C 1101.636719 749.769531 1098.28125 746.414062 1098.28125 742.28125 C 1098.28125 738.148438 1101.636719 734.796875 1105.769531 734.796875 L 1143.21875 734.796875 C 1147.351562 734.796875 1150.703125 738.148438 1150.703125 742.28125 C 1150.703125 746.414062 1147.351562 749.769531 1143.21875 749.769531 Z M 1068.3125 749.769531 L 1030.863281 749.769531 C 1026.730469 749.769531 1023.375 746.414062 1023.375 742.28125 C 1023.375 738.148438 1026.730469 734.796875 1030.863281 734.796875 L 1068.3125 734.796875 C 1072.445312 734.796875 1075.796875 738.148438 1075.796875 742.28125 C 1075.796875 746.414062 1072.453125 749.769531 1068.3125 749.769531 Z M 993.414062 749.769531 L 955.964844 749.769531 C 951.832031 749.769531 948.476562 746.414062 948.476562 742.28125 C 948.476562 738.148438 951.832031 734.796875 955.964844 734.796875 L 993.414062 734.796875 C 997.546875 734.796875 1000.898438 738.148438 1000.898438 742.28125 C 1000.898438 746.414062 997.546875 749.769531 993.414062 749.769531 Z M 918.507812 749.769531 L 881.058594 749.769531 C 876.925781 749.769531 873.570312 746.414062 873.570312 742.28125 C 873.570312 738.148438 876.925781 734.796875 881.058594 734.796875 L 918.507812 734.796875 C 922.640625 734.796875 925.996094 738.148438 925.996094 742.28125 C 925.996094 746.414062 922.640625 749.769531 918.507812 749.769531 Z M 843.601562 749.769531 L 806.152344 749.769531 C 802.019531 749.769531 798.664062 746.414062 798.664062 742.28125 C 798.664062 738.148438 802.019531 734.796875 806.152344 734.796875 L 843.601562 734.796875 C 847.734375 734.796875 851.089844 738.148438 851.089844 742.28125 C 851.089844 746.414062 847.734375 749.769531 843.601562 749.769531 Z M 843.601562 749.769531 " fill-opacity="1" fill-rule="nonzero"/></g><path fill="#000000" d="M 348.117188 200.496094 L 294.660156 169.628906 C 289.296875 166.535156 289.296875 158.796875 294.660156 155.703125 L 348.117188 124.835938 C 353.476562 121.742188 360.175781 125.605469 360.175781 131.796875 L 360.175781 193.535156 C 360.175781 199.726562 353.476562 203.589844 348.117188 200.496094 Z M 348.117188 200.496094 " fill-opacity="1" fill-rule="nonzero"/></svg>