<svg xmlns="http://www.w3.org/2000/svg" xmlns:xlink="http://www.w3.org/1999/xlink" width="1920" zoomAndPan="magnify" viewBox="0 0 1440 809.999993" height="1080" preserveAspectRatio="xMidYMid meet" version="1.0"><defs><clipPath id="51d4a6ea69"><path d="M 382.824219 49.707031 L 1057.191406 49.707031 L 1057.191406 759.957031 L 382.824219 759.957031 Z M 382.824219 49.707031 " clip-rule="nonzero"/></clipPath></defs><g clip-path="url(#51d4a6ea69)"><path fill="#ffed00" d="M 772.480469 662.226562 C 772.125 678.769531 773.628906 696.207031 775.703125 712.605469 C 775.847656 713.8125 777.507812 713.855469 777.609375 712.605469 C 778.988281 696.320312 777.75 677.914062 773.148438 662.140625 C 773.03125 661.773438 772.480469 661.84375 772.480469 662.226562 Z M 482.507812 388.328125 C 457.511719 399.640625 434.351562 416.152344 418.371094 438.722656 C 417.277344 440.269531 419.65625 442.003906 420.945312 440.710938 C 440.082031 421.523438 459.761719 403.378906 482.988281 389.164062 C 483.527344 388.824219 483.058594 388.085938 482.507812 388.328125 Z M 896.105469 201.03125 C 906.253906 195.347656 916.214844 189.375 927.214844 185.394531 C 937.617188 181.632812 948.445312 179.78125 959.191406 177.335938 C 961.082031 176.902344 960.511719 174.242188 958.75 174.109375 C 936.496094 172.429688 910.273438 183.769531 895.691406 200.507812 C 895.4375 200.792969 895.75 201.230469 896.105469 201.03125 Z M 590.515625 285.664062 C 552.457031 276.085938 511.085938 272.148438 472.390625 280.289062 C 471.054688 280.574219 471.324219 282.835938 472.71875 282.707031 C 512.378906 279.039062 551.035156 278.300781 590.1875 286.855469 C 590.953125 287.011719 591.28125 285.863281 590.515625 285.664062 Z M 628.644531 326.007812 C 587.332031 317.539062 545.308594 317.070312 503.558594 322.613281 C 462.074219 328.113281 420.601562 339.199219 383.636719 359.179688 C 381.964844 360.074219 383.109375 363 384.953125 362.304688 C 423.554688 347.824219 462.703125 335.359375 503.597656 329.265625 C 544.796875 323.109375 587.058594 323.265625 628.457031 327.359375 C 629.226562 327.429688 629.398438 326.164062 628.644531 326.007812 Z M 620.328125 334.863281 C 586.121094 333.46875 551.417969 333.898438 518.058594 342.496094 C 490.472656 349.613281 461.96875 362.945312 444.007812 385.855469 C 442.675781 387.558594 444.738281 389.761719 446.429688 388.269531 C 468.4375 368.785156 493.464844 355.3125 521.960938 347.796875 C 554.019531 339.324219 587.445312 338.273438 620.328125 335.546875 C 620.757812 335.515625 620.769531 334.878906 620.328125 334.863281 Z M 582.667969 590.742188 C 570.261719 620.144531 561.167969 651.609375 560.1875 683.644531 C 560.128906 685.25 562.660156 685.632812 563 684.027344 C 569.835938 652.976562 575.5625 621.824219 584.515625 591.238281 C 584.871094 590.015625 583.125 589.632812 582.667969 590.742188 Z M 911.554688 267.984375 C 926.203125 261.332031 940.644531 254.085938 955.695312 248.355469 C 970.644531 242.660156 986.023438 239.546875 1001.824219 237.429688 C 1003.472656 237.203125 1003.515625 235.011719 1001.824219 234.828125 C 969.550781 231.316406 936.921875 249.90625 910.714844 266.5625 C 909.820312 267.128906 910.601562 268.410156 911.554688 267.984375 Z M 581.460938 233.550781 C 568.726562 228.914062 555.113281 226.328125 541.953125 223.230469 C 528.636719 220.089844 515.355469 217.007812 501.890625 214.605469 C 499.644531 214.207031 498.773438 217.261719 500.941406 218.042969 C 514.265625 222.789062 527.910156 226.34375 541.769531 229.214844 C 554.699219 231.898438 568.03125 234.714844 581.277344 234.882812 C 582.085938 234.898438 582.15625 233.804688 581.460938 233.550781 Z M 679.507812 213.28125 C 668.578125 199.328125 658.972656 184.222656 650.699219 168.558594 C 642.699219 153.402344 636.261719 137.46875 628.132812 122.386719 C 627.433594 121.105469 625.289062 121.976562 625.757812 123.386719 C 636.601562 156.019531 653.273438 190.414062 678.527344 214.25 C 679.195312 214.875 680.03125 213.964844 679.507812 213.28125 Z M 665.039062 207.46875 C 649.589844 188.78125 633.601562 170.535156 616.933594 152.941406 C 600.320312 135.421875 583.804688 117.421875 565.515625 101.636719 C 564.308594 100.597656 562.730469 102.179688 563.769531 103.378906 C 579.683594 121.605469 597.25 138.429688 613.933594 155.941406 C 630.617188 173.460938 647.472656 190.824219 664.371094 208.136719 C 664.796875 208.59375 665.421875 207.941406 665.039062 207.46875 Z M 648.410156 232.640625 C 640.28125 224.28125 625.785156 220.671875 615.128906 216.210938 C 602.195312 210.78125 589.179688 205.652344 576.0625 200.707031 C 550.011719 190.90625 523.542969 180.589844 496.3125 174.613281 C 495.457031 174.425781 494.785156 175.707031 495.679688 176.113281 C 520.421875 187.34375 546.484375 195.789062 571.824219 205.550781 C 584.898438 210.597656 597.917969 215.757812 610.949219 220.886719 C 617.03125 223.273438 623.074219 225.71875 629.140625 228.164062 C 635.082031 230.550781 641.449219 233.71875 647.929688 233.804688 C 648.523438 233.820312 648.824219 233.050781 648.410156 232.640625 Z M 639.375 277.648438 C 610.863281 260.296875 580.011719 250.886719 547.097656 245.628906 C 514.589844 240.441406 480.285156 237.753906 447.367188 239.886719 C 445.433594 240.015625 444.691406 243.210938 446.878906 243.523438 C 478.960938 248.128906 511.617188 248.441406 543.757812 252.992188 C 576.046875 257.550781 608.945312 265.367188 638.960938 278.359375 C 639.429688 278.570312 639.828125 277.929688 639.375 277.648438 Z M 705.042969 250.546875 C 696.261719 221.738281 683.429688 193.757812 672.1875 165.84375 C 661.203125 138.5625 652.234375 109.734375 638.605469 83.632812 C 637.882812 82.222656 635.761719 83.210938 636.117188 84.6875 C 643.222656 113.914062 656.613281 142.160156 667.953125 169.945312 C 679.023438 197.066406 689.964844 225.320312 704.675781 250.703125 C 704.789062 250.902344 705.117188 250.773438 705.042969 250.546875 Z M 729.191406 252.308594 C 727.742188 226.984375 727.8125 201.273438 730.625 176.042969 C 733.511719 149.976562 739.691406 124.636719 746.230469 99.304688 C 746.753906 97.277344 743.957031 96.65625 743.203125 98.464844 C 723.207031 145.863281 719.328125 202.128906 728.921875 252.347656 C 728.949219 252.503906 729.203125 252.464844 729.191406 252.308594 Z M 741.640625 305.84375 C 721.601562 270.128906 708.015625 231.246094 701.945312 190.757812 C 695.835938 149.84375 696.746094 108.957031 697.542969 67.742188 C 697.582031 64.890625 692.921875 64.101562 692.425781 67.050781 C 685.5625 107.914062 686.8125 150.859375 694.472656 191.554688 C 702.175781 232.441406 716.441406 272.445312 741.410156 305.972656 C 741.511719 306.113281 741.738281 306 741.640625 305.84375 Z M 713.898438 287.867188 C 694.925781 260.195312 672.542969 235.59375 647.304688 213.523438 C 634.996094 202.765625 622.132812 192.71875 608.71875 183.394531 C 595.175781 173.980469 581.007812 164.59375 565.417969 158.914062 C 563.695312 158.28125 562.046875 160.941406 563.570312 162.113281 C 576.03125 171.777344 589.832031 179.683594 602.847656 188.566406 C 616.820312 198.105469 630.378906 208.335938 643.378906 219.179688 C 668.535156 240.144531 691.8125 263.632812 713.359375 288.277344 C 713.613281 288.5625 714.113281 288.179688 713.898438 287.867188 Z M 554.601562 396.597656 C 518.753906 417.757812 485.871094 446.695312 463.800781 482.292969 C 462.886719 483.742188 465.058594 484.878906 466.042969 483.601562 C 491.488281 450.261719 519.855469 420.503906 554.871094 397.066406 C 555.167969 396.882812 554.914062 396.414062 554.601562 396.597656 Z M 854.949219 546.203125 C 869.726562 583.765625 881.167969 622.40625 895.222656 660.195312 C 895.707031 661.488281 897.683594 661.003906 897.339844 659.613281 C 887.664062 620.613281 871.691406 582.65625 856.070312 545.734375 C 855.800781 545.09375 854.691406 545.5625 854.949219 546.203125 Z M 874.574219 357.1875 C 935.527344 366.769531 995.785156 380.226562 1055.914062 394.027344 C 1057.191406 394.308594 1057.734375 392.40625 1056.46875 392.050781 C 997.050781 374.769531 935.996094 364.238281 874.589844 357.046875 C 874.503906 357.03125 874.488281 357.160156 874.574219 357.1875 Z M 817.203125 301.863281 C 855.914062 237.527344 929.03125 204.171875 1002.492188 204.1875 C 1004.667969 204.1875 1004.523438 201.160156 1002.492188 200.90625 C 927.625 191.609375 852.929688 237.515625 817.089844 301.792969 C 817.046875 301.863281 817.160156 301.933594 817.203125 301.863281 Z M 605.71875 428.984375 C 545.347656 473.210938 494.558594 531.011719 461.925781 598.585938 C 461.472656 599.539062 462.828125 600.347656 463.34375 599.425781 C 499.316406 533.910156 546.683594 475.144531 605.785156 429.085938 C 605.855469 429.042969 605.769531 428.945312 605.714844 428.984375 Z M 644.175781 386.59375 C 607.753906 401.601562 572.507812 418.96875 541.457031 443.539062 C 525.695312 456.003906 510.8125 469.6875 497.242188 484.511719 C 483.984375 498.992188 470.234375 514.894531 461.429688 532.574219 C 460.0625 535.304688 463.726562 538.714844 465.933594 536.042969 C 478.265625 521.203125 488.921875 505.132812 501.691406 490.59375 C 514.453125 476.070312 528.167969 462.410156 542.90625 449.890625 C 573.175781 424.210938 606.914062 400.960938 644.21875 386.722656 C 644.304688 386.691406 644.261719 386.550781 644.175781 386.59375 Z M 646.648438 458.972656 C 630.972656 495.011719 618.597656 532.261719 608.09375 570.121094 C 597.664062 607.710938 586.875 646.566406 583.578125 685.5625 C 583.394531 687.734375 586.789062 688.121094 587.34375 686.074219 C 597.363281 648.257812 603.589844 609.5 613.578125 571.628906 C 623.570312 533.8125 635.292969 496.449219 647.019531 459.128906 C 647.089844 458.914062 646.734375 458.746094 646.648438 458.972656 Z M 678.113281 470.3125 C 651.195312 532.320312 629.679688 597.320312 614.628906 663.234375 C 614.203125 665.125 616.933594 665.863281 617.542969 664.03125 C 638.605469 599.78125 658.871094 535.175781 678.496094 470.46875 C 678.554688 470.242188 678.214844 470.085938 678.113281 470.3125 Z M 889.113281 455.503906 C 927.867188 489.230469 962.203125 527.316406 992.316406 568.925781 C 993.226562 570.191406 995.289062 569.070312 994.449219 567.691406 C 967.320312 523.648438 931.433594 485.277344 889.765625 454.636719 C 889.269531 454.28125 888.644531 455.09375 889.113281 455.503906 Z M 889.042969 412.144531 C 950.179688 424.921875 996.125 469.289062 1041.519531 509.082031 C 1042.640625 510.0625 1044.230469 508.515625 1043.167969 507.449219 C 1000.0625 464.332031 951.359375 421.980469 889.339844 411.09375 C 888.65625 410.964844 888.34375 412.003906 889.042969 412.144531 Z M 589.675781 471.335938 C 545.578125 517.9375 508.703125 577.9375 496.734375 641.691406 C 496.445312 643.238281 498.601562 643.863281 499.109375 642.34375 C 509.488281 611.578125 520.359375 581.292969 535.855469 552.640625 C 551.304688 524.117188 569.933594 497.414062 591.609375 473.269531 C 592.773438 471.960938 590.882812 470.042969 589.675781 471.335938 Z M 818.921875 517.808594 C 831.058594 545.792969 841.957031 574.1875 852.503906 602.792969 C 862.734375 630.578125 870.722656 659.269531 881.707031 686.769531 C 882.53125 688.84375 885.632812 688.105469 885.132812 685.816406 C 878.679688 656.101562 866.914062 627.238281 855.714844 599.042969 C 844.746094 571.414062 832.238281 544.339844 819.148438 517.679688 C 819.078125 517.511719 818.851562 517.652344 818.921875 517.808594 Z M 552.425781 378.378906 C 530.753906 381.675781 509.8125 395.789062 492.9375 409.105469 C 475.023438 423.246094 458.3125 440.296875 447.78125 460.71875 C 446.644531 462.9375 449.6875 465.695312 451.433594 463.535156 C 465.257812 446.4375 479.121094 429.613281 496.292969 415.710938 C 505.023438 408.648438 514.417969 402.3125 524.109375 396.640625 C 533.722656 391.011719 543.984375 386.679688 553.4375 380.753906 C 554.742188 379.929688 553.832031 378.152344 552.425781 378.378906 Z M 745.960938 216.070312 C 749.753906 184.945312 760.34375 154.941406 775.5625 127.605469 C 790.371094 101.007812 809.699219 77.671875 826.285156 52.273438 C 827.347656 50.644531 824.933594 48.804688 823.597656 50.203125 C 801.824219 72.96875 784.386719 100.765625 770.417969 128.894531 C 756.789062 156.367188 746.941406 185.289062 745.148438 216.066406 C 745.121094 216.609375 745.902344 216.578125 745.960938 216.066406 Z M 745.832031 291.433594 C 746.839844 255.164062 757.074219 218.570312 773.757812 186.40625 C 781.914062 170.65625 791.835938 155.882812 803.261719 142.316406 C 814.886719 128.5 828.300781 116.378906 841.09375 103.679688 C 843.308594 101.480469 840.496094 97.851562 837.78125 99.382812 C 805.902344 117.441406 782.46875 151.304688 767.105469 183.828125 C 751.105469 217.730469 744.097656 254.027344 745.691406 291.433594 C 745.691406 291.53125 745.816406 291.53125 745.832031 291.433594 Z M 895.28125 330.230469 C 904.945312 333.300781 916.214844 333.144531 926.261719 334.410156 C 938.214844 335.902344 950.082031 337.804688 961.945312 339.835938 C 984.175781 343.632812 1006.359375 348.136719 1028.359375 353.066406 C 1030.148438 353.480469 1030.902344 350.835938 1029.125 350.3125 C 1006.570312 343.402344 983.777344 338.160156 960.441406 334.75 C 950.023438 333.242188 939.550781 332.050781 929.0625 331.054688 C 918.273438 330.03125 906.011719 327.785156 895.28125 329.703125 C 894.996094 329.761719 895.054688 330.160156 895.28125 330.230469 Z M 863.234375 367.152344 C 933.394531 380.894531 1009.980469 398.429688 1051.964844 462.3125 C 1053.027344 463.933594 1055.417969 462.527344 1054.550781 460.792969 C 1019.957031 390.429688 933.140625 376.175781 863.488281 366.226562 C 862.890625 366.144531 862.621094 367.039062 863.234375 367.152344 Z M 624.109375 463.121094 C 612.199219 472.429688 602.691406 487.226562 594.578125 499.816406 C 585.980469 513.160156 578.988281 527.230469 572.847656 541.839844 C 566.652344 556.621094 561.679688 571.828125 557.144531 587.1875 C 552.425781 603.175781 547.59375 619.292969 544.953125 635.765625 C 544.710938 637.328125 546.757812 637.910156 547.324219 636.417969 C 552.996094 621.554688 556.777344 606.0625 561.550781 590.882812 C 566.3125 575.734375 571.613281 560.726562 577.425781 545.933594 C 583.179688 531.222656 589.859375 516.714844 597.476562 502.871094 C 601.230469 496.050781 605.335938 489.429688 609.769531 483.03125 C 614.433594 476.296875 620.128906 470.34375 624.648438 463.546875 C 624.878906 463.195312 624.394531 462.910156 624.109375 463.121094 Z M 739.917969 510.234375 C 740.402344 547.824219 740.984375 585.398438 740.089844 622.988281 C 739.179688 660.550781 736.464844 698.039062 735.257812 735.585938 C 735.230469 736.582031 736.652344 736.523438 736.765625 735.585938 C 741.527344 698.296875 742.71875 660.550781 743.429688 622.988281 C 744.15625 585.414062 744.097656 547.753906 741.839844 510.234375 C 741.765625 509.011719 739.90625 508.996094 739.917969 510.234375 Z M 796.511719 517.980469 C 800.019531 538.246094 806.726562 558.226562 811.859375 578.136719 C 817.019531 598.175781 821.75 618.328125 826.425781 638.480469 C 835.75 678.726562 844.53125 719.171875 852.089844 759.789062 C 852.25 760.667969 853.511719 760.273438 853.398438 759.417969 C 847.6875 717.835938 840.496094 676.652344 830.972656 635.765625 C 826.296875 615.613281 820.953125 595.617188 815.382812 575.691406 C 809.984375 556.421875 805.050781 536.15625 796.894531 517.824219 C 796.78125 517.59375 796.46875 517.78125 796.511719 517.980469 Z M 856.921875 477.574219 C 876.648438 497.898438 894.824219 520.878906 909.875 544.882812 C 925.238281 569.367188 935.796875 595.488281 946.824219 622.066406 C 947.394531 623.402344 949.441406 622.945312 949.070312 621.4375 C 942.421875 593.65625 928.40625 566.910156 913.214844 542.921875 C 897.539062 518.164062 879.066406 496.675781 857.109375 477.375 C 856.980469 477.261719 856.796875 477.449219 856.921875 477.574219 Z M 799.421875 241.308594 C 812.8125 220.828125 825.148438 199.8125 838.136719 179.089844 C 849.804688 160.46875 864.953125 143.660156 885.503906 134.792969 C 887.207031 134.054688 885.945312 131.5625 884.296875 131.917969 C 862.722656 136.597656 847.984375 152.808594 836.289062 170.628906 C 821.75 192.761719 810.28125 217.105469 798.613281 240.824219 C 798.328125 241.367188 799.097656 241.820312 799.421875 241.308594 Z M 878.511719 485.234375 C 895.324219 499.191406 910.800781 515.164062 923.917969 532.660156 C 936.863281 549.914062 945.804688 568.871094 956.574219 587.386719 C 957.300781 588.652344 959.390625 587.816406 958.949219 586.394531 C 952.765625 566.113281 939.5625 547.097656 926.546875 530.640625 C 912.734375 513.175781 896.773438 497.984375 878.753906 484.910156 C 878.566406 484.78125 878.328125 485.09375 878.511719 485.234375 Z M 896.347656 444.136719 C 906.421875 446.722656 915.972656 448.78125 925.453125 453.289062 C 934.234375 457.464844 942.605469 462.296875 950.378906 468.152344 C 967.574219 481.101562 981.417969 497.714844 996.894531 512.550781 C 998.242188 513.84375 1000.703125 512.136719 999.578125 510.476562 C 987.101562 492.140625 971.738281 475.585938 953.476562 462.851562 C 937.488281 451.726562 916.441406 441.605469 896.390625 443.867188 C 896.246094 443.878906 896.191406 444.09375 896.347656 444.136719 Z M 839.445312 248.742188 C 860.890625 213.027344 883.386719 177.605469 923.320312 160.875 C 925.054688 160.152344 924.441406 157.40625 922.523438 157.972656 C 880.800781 170.324219 857.707031 212.644531 839.203125 248.597656 C 839.117188 248.753906 839.34375 248.898438 839.445312 248.742188 Z M 693.632812 520.507812 C 681.566406 549.953125 670.070312 583.835938 660.363281 616.222656 C 655.589844 632.183594 651.238281 648.214844 647.445312 664.429688 C 643.679688 680.460938 639.65625 696.320312 639.175781 712.820312 C 639.117188 714.667969 641.703125 714.867188 642.257812 713.230469 C 647.699219 697.457031 650.144531 681 653.726562 664.726562 C 657.292969 648.46875 661.03125 632.226562 665.066406 616.082031 C 673.125 583.835938 681.652344 551.5625 693.773438 520.535156 C 693.804688 520.453125 693.660156 520.410156 693.632812 520.507812 Z M 770.6875 532.105469 C 774.339844 555.46875 778.304688 578.691406 782.683594 601.925781 C 787.03125 624.921875 790.5 648.597656 797.25 671.039062 C 797.675781 672.445312 800.105469 672.257812 799.933594 670.667969 C 797.5625 647.671875 791.792969 624.820312 787.003906 602.226562 C 782.027344 578.71875 776.671875 555.371094 770.957031 532.035156 C 770.902344 531.863281 770.660156 531.933594 770.6875 532.105469 Z M 723.378906 474.859375 C 714.75 507.675781 707.832031 540.84375 702.515625 574.371094 C 700.054688 589.917969 697.867188 605.523438 696.132812 621.167969 C 694.230469 638.292969 691.644531 656.117188 692.867188 673.339844 C 692.992188 675.144531 695.863281 675.8125 696.234375 673.792969 C 699.019531 658.359375 699.117188 642.414062 700.527344 626.796875 C 702.046875 609.929688 703.738281 593.058594 705.925781 576.246094 C 710.332031 542.238281 716.371094 508.429688 723.648438 474.933594 C 723.691406 474.761719 723.421875 474.691406 723.378906 474.859375 Z M 824.195312 478.117188 C 843.863281 500.726562 860.304688 526.25 875.882812 551.789062 C 891.101562 576.757812 903.933594 603.148438 919.496094 627.878906 C 920.71875 629.839844 924.1875 628.617188 923.378906 626.242188 C 913.753906 598.21875 897.171875 571.910156 880.34375 547.679688 C 863.277344 523.109375 843.664062 500.769531 824.308594 478.015625 C 824.25 477.945312 824.136719 478.042969 824.195312 478.117188 Z M 896.730469 314.925781 C 905.585938 312.367188 915.148438 309.738281 924.398438 309.394531 C 933.394531 309.082031 942.5625 310.191406 951.488281 311.230469 C 960.582031 312.28125 969.464844 313.460938 978.390625 315.492188 C 986.605469 317.367188 994.664062 319.871094 1003.105469 320.480469 C 1004.992188 320.625 1006.316406 317.753906 1004.738281 316.515625 C 991.007812 305.699219 969.820312 303.085938 952.78125 303.300781 C 944.113281 303.414062 935.015625 304.960938 926.617188 306.996094 C 916.542969 309.425781 906.523438 311.371094 896.6875 314.796875 C 896.601562 314.824219 896.644531 314.953125 896.730469 314.925781 Z M 857.691406 320.75 C 857.40625 320.921875 857.164062 320.550781 857.351562 320.324219 C 866.273438 309.722656 879.265625 302.007812 891.371094 295.566406 C 903.4375 289.144531 916.085938 282.464844 929.089844 278.144531 C 942.789062 273.582031 957.230469 271.394531 971.609375 270.710938 C 984.984375 270.074219 998.867188 270.042969 1011.089844 276.042969 C 1012.726562 276.835938 1012.46875 279.90625 1010.550781 280.164062 C 997.632812 281.9375 984.628906 280.191406 971.609375 280.773438 C 958.039062 281.371094 944.625 283.558594 931.363281 286.402344 C 917.210938 289.429688 904.007812 292.910156 891.089844 299.6875 C 879.347656 305.855469 869.03125 314.027344 857.691406 320.75 " fill-opacity="1" fill-rule="nonzero"/></g><path fill="#fff500" d="M 723.378906 474.859375 C 714.75 507.675781 707.832031 540.84375 702.515625 574.371094 C 700.527344 586.90625 698.75 599.480469 697.199219 612.089844 C 698.75 612.359375 700.285156 612.613281 701.832031 612.855469 C 703.027344 600.632812 704.335938 588.425781 705.925781 576.246094 C 710.332031 542.238281 716.371094 508.429688 723.648438 474.933594 C 723.691406 474.761719 723.421875 474.691406 723.378906 474.859375 Z M 739.921875 510.234375 C 740.375 545.363281 740.902344 580.480469 740.234375 615.597656 C 741.339844 615.597656 742.449219 615.585938 743.542969 615.554688 C 744.125 580.453125 743.941406 545.28125 741.839844 510.234375 C 741.765625 509.011719 739.90625 508.996094 739.921875 510.234375 Z M 693.632812 520.507812 C 683.089844 546.246094 672.96875 575.378906 664.117188 603.929688 C 665.351562 604.34375 666.589844 604.726562 667.824219 605.109375 C 675.101562 576.53125 683.03125 548.035156 693.773438 520.535156 C 693.804688 520.453125 693.660156 520.410156 693.632812 520.507812 Z M 745.960938 216.070312 C 749.457031 187.375 758.75 159.640625 772.09375 134.066406 C 770.789062 133.882812 769.480469 133.707031 768.160156 133.542969 C 755.710938 159.632812 746.839844 187.015625 745.148438 216.070312 C 745.121094 216.609375 745.902344 216.582031 745.960938 216.070312 Z M 624.648438 463.546875 C 624.878906 463.195312 624.394531 462.910156 624.109375 463.121094 C 612.199219 472.429688 602.691406 487.226562 594.578125 499.816406 C 585.980469 513.160156 578.988281 527.230469 572.847656 541.839844 C 572.039062 543.789062 571.242188 545.734375 570.476562 547.695312 C 571.996094 549.160156 573.53125 550.609375 575.078125 552.03125 C 575.863281 549.996094 576.613281 547.964844 577.425781 545.933594 C 583.179688 531.222656 589.859375 516.714844 597.476562 502.871094 C 601.230469 496.050781 605.335938 489.429688 609.769531 483.03125 C 614.433594 476.296875 620.128906 470.34375 624.648438 463.546875 Z M 589.675781 471.335938 C 574.753906 487.113281 560.65625 504.421875 548.078125 522.882812 C 549.085938 524.175781 550.109375 525.441406 551.160156 526.71875 C 563.171875 507.847656 576.65625 489.941406 591.609375 473.269531 C 592.773438 471.960938 590.882812 470.042969 589.675781 471.335938 Z M 605.792969 429.085938 C 605.863281 429.042969 605.777344 428.945312 605.71875 428.984375 C 578.378906 449.011719 553.007812 471.820312 530.398438 497.074219 C 530.9375 497.96875 531.464844 498.863281 532.019531 499.761719 C 554.175781 473.921875 578.746094 450.160156 605.792969 429.085938 Z M 678.113281 470.3125 C 660.988281 509.75 646.066406 550.410156 633.589844 591.738281 C 635.679688 592.746094 637.78125 593.710938 639.898438 594.652344 C 653.042969 553.335938 665.921875 511.925781 678.496094 470.46875 C 678.554688 470.242188 678.214844 470.085938 678.113281 470.3125 Z M 803.261719 142.3125 C 803.671875 141.816406 804.113281 141.339844 804.527344 140.84375 C 801.257812 139.917969 797.945312 139.070312 794.605469 138.273438 C 783.59375 152.527344 774.425781 168.324219 767.105469 183.824219 C 751.105469 217.726562 744.097656 254.023438 745.691406 291.425781 C 745.691406 291.527344 745.816406 291.527344 745.832031 291.425781 C 746.839844 255.160156 757.074219 218.5625 773.757812 186.402344 C 781.914062 170.648438 791.835938 155.882812 803.261719 142.3125 Z M 646.648438 458.972656 C 630.972656 495.011719 618.597656 532.261719 608.09375 570.121094 C 607.523438 572.183594 606.941406 574.269531 606.375 576.347656 C 608.078125 577.453125 609.800781 578.546875 611.53125 579.628906 C 612.199219 576.957031 612.882812 574.285156 613.578125 571.628906 C 623.570312 533.8125 635.292969 496.449219 647.019531 459.128906 C 647.089844 458.914062 646.734375 458.746094 646.648438 458.972656 Z M 863.234375 367.152344 C 902.171875 374.785156 943.074219 383.59375 978.957031 400.820312 C 979.214844 398.53125 979.441406 396.242188 979.625 393.941406 C 943.117188 378.136719 900.835938 371.558594 863.488281 366.226562 C 862.894531 366.144531 862.621094 367.039062 863.234375 367.152344 Z M 896.390625 443.867188 C 896.246094 443.878906 896.191406 444.09375 896.347656 444.136719 C 906.421875 446.722656 915.972656 448.78125 925.453125 453.289062 C 934.234375 457.480469 942.605469 462.296875 950.378906 468.152344 C 953.148438 470.242188 955.820312 472.429688 958.4375 474.675781 C 959.375 472.660156 960.269531 470.625 961.152344 468.578125 C 958.648438 466.605469 956.09375 464.6875 953.476562 462.851562 C 937.488281 451.726562 916.441406 441.605469 896.390625 443.867188 Z M 878.753906 484.910156 C 878.566406 484.78125 878.328125 485.09375 878.511719 485.234375 C 894.726562 498.695312 909.675781 514.042969 922.496094 530.828125 C 923.207031 529.988281 923.917969 529.148438 924.628906 528.296875 C 911.253906 511.8125 895.949219 497.386719 878.753906 484.910156 Z M 770.957031 532.035156 C 770.902344 531.863281 770.660156 531.933594 770.6875 532.105469 C 774.339844 555.46875 778.304688 578.691406 782.683594 601.925781 C 783.265625 605.023438 783.847656 608.136719 784.402344 611.265625 C 785.867188 610.980469 787.316406 610.695312 788.765625 610.382812 C 788.167969 607.667969 787.585938 604.941406 787.003906 602.226562 C 782.027344 578.71875 776.671875 555.371094 770.957031 532.035156 Z M 889.042969 412.144531 C 918.558594 418.3125 944.539062 431.855469 968.613281 448.683594 C 969.023438 447.40625 969.449219 446.125 969.835938 444.832031 C 945.476562 428.644531 918.929688 416.28125 889.339844 411.09375 C 888.65625 410.964844 888.34375 412.003906 889.042969 412.144531 Z M 644.21875 386.722656 C 644.304688 386.691406 644.261719 386.550781 644.175781 386.59375 C 607.753906 401.601562 572.507812 418.96875 541.457031 443.539062 C 532.316406 450.773438 523.492188 458.417969 515.039062 466.433594 C 515.972656 468.695312 516.929688 470.925781 517.929688 473.15625 C 525.90625 465.042969 534.222656 457.265625 542.90625 449.890625 C 573.175781 424.210938 606.914062 400.960938 644.21875 386.722656 Z M 889.765625 454.652344 C 889.269531 454.28125 888.644531 455.09375 889.113281 455.503906 C 907.402344 471.421875 924.699219 488.320312 941.042969 506.097656 C 941.921875 504.75 942.789062 503.382812 943.644531 502.019531 C 927.128906 484.710938 909.082031 468.851562 889.765625 454.652344 Z M 818.921875 517.808594 C 829.195312 541.5 838.589844 565.503906 847.628906 589.675781 C 848.824219 589.078125 850.003906 588.453125 851.167969 587.84375 C 841.347656 564.09375 830.460938 540.730469 819.148438 517.679688 C 819.078125 517.511719 818.851562 517.652344 818.921875 517.808594 Z M 796.894531 517.824219 C 796.78125 517.59375 796.46875 517.78125 796.511719 517.980469 C 800.019531 538.246094 806.730469 558.226562 811.859375 578.121094 C 813.933594 586.167969 815.921875 594.222656 817.871094 602.296875 C 819.320312 601.800781 820.769531 601.289062 822.203125 600.761719 C 819.988281 592.390625 817.714844 584.035156 815.382812 575.691406 C 809.984375 556.421875 805.050781 536.15625 796.894531 517.824219 Z M 854.949219 546.203125 C 859.183594 556.976562 863.132812 567.847656 866.957031 578.746094 C 867.722656 578.265625 868.492188 577.796875 869.246094 577.3125 C 864.925781 566.695312 860.492188 556.179688 856.070312 545.734375 C 855.800781 545.09375 854.691406 545.5625 854.949219 546.203125 Z M 824.308594 478.015625 C 824.25 477.945312 824.136719 478.042969 824.195312 478.117188 C 843.863281 500.726562 860.304688 526.25 875.882812 551.789062 C 878.867188 556.675781 881.722656 561.621094 884.566406 566.582031 C 886.457031 565.148438 888.332031 563.683594 890.179688 562.191406 C 886.9375 557.289062 883.65625 552.441406 880.34375 547.679688 C 863.277344 523.109375 843.664062 500.769531 824.308594 478.015625 Z M 857.109375 477.375 C 856.980469 477.261719 856.796875 477.449219 856.921875 477.574219 C 876.578125 497.828125 894.699219 520.734375 909.734375 544.652344 C 910.65625 543.714844 911.582031 542.765625 912.492188 541.8125 C 896.972656 517.523438 878.738281 496.378906 857.109375 477.375 Z M 980.480469 373.53125 C 945.460938 366.484375 910.089844 361.210938 874.589844 357.046875 C 874.503906 357.03125 874.488281 357.160156 874.574219 357.1875 C 910.0625 362.761719 945.320312 369.667969 980.4375 377.171875 C 980.449219 376.003906 980.480469 374.855469 980.480469 373.675781 Z M 827.664062 211.238281 C 819.503906 220.816406 812.882812 231.488281 806.402344 242.230469 C 798.671875 255.035156 789.546875 267.828125 783.265625 281.386719 C 783.164062 281.582031 783.421875 281.824219 783.578125 281.640625 C 799.421875 262.570312 810.082031 239.53125 826.242188 220.574219 C 839.628906 204.855469 856.652344 192.589844 876.875 188.847656 C 861.273438 206.546875 849.519531 228.5625 839.203125 248.597656 C 839.117188 248.753906 839.34375 248.898438 839.445312 248.742188 C 852.503906 226.984375 865.976562 205.351562 883.527344 187.972656 C 884.421875 187.894531 885.320312 187.792969 886.242188 187.753906 C 887.792969 187.675781 888.332031 185.300781 886.78125 184.851562 C 887.238281 184.417969 887.691406 183.976562 888.175781 183.546875 C 886.980469 182.613281 885.773438 181.691406 884.578125 180.78125 C 883.441406 181.871094 882.335938 182.984375 881.226562 184.125 C 860.179688 182.675781 841.121094 195.433594 827.664062 211.238281 Z M 799.421875 241.308594 C 812.8125 220.828125 825.148438 199.8125 838.136719 179.089844 C 842.3125 172.40625 846.960938 165.964844 852.132812 160.03125 C 850.214844 158.996094 848.253906 157.992188 846.292969 157.015625 C 842.699219 161.320312 839.386719 165.917969 836.289062 170.628906 C 821.75 192.761719 810.28125 217.105469 798.613281 240.824219 C 798.328125 241.363281 799.097656 241.820312 799.421875 241.308594 Z M 741.414062 305.972656 C 741.511719 306.113281 741.738281 306 741.640625 305.84375 C 721.601562 270.128906 708.015625 231.246094 701.945312 190.757812 C 699.191406 172.261719 697.867188 153.769531 697.3125 135.253906 C 694.257812 135.777344 691.246094 136.355469 688.234375 136.988281 C 688.984375 155.367188 691.101562 173.675781 694.472656 191.554688 C 702.175781 232.441406 716.441406 272.445312 741.414062 305.972656 Z M 729.191406 252.308594 C 727.742188 226.984375 727.8125 201.273438 730.625 176.042969 C 732.273438 161.078125 735.046875 146.363281 738.3125 131.742188 C 736.238281 131.746094 734.148438 131.769531 732.089844 131.824219 C 722.15625 171.011719 721.5 213.480469 728.921875 252.351562 C 728.949219 252.507812 729.203125 252.464844 729.191406 252.308594 Z M 817.089844 301.792969 C 817.046875 301.863281 817.160156 301.933594 817.203125 301.863281 C 841.6875 261.160156 879.960938 232.882812 923.378906 217.574219 C 921.898438 215.828125 920.390625 214.109375 918.859375 212.402344 C 876.195312 229.398438 839.214844 262.085938 817.089844 301.792969 Z M 704.675781 250.703125 C 704.789062 250.902344 705.117188 250.773438 705.042969 250.546875 C 696.261719 221.738281 683.429688 193.757812 672.1875 165.84375 C 669.246094 158.503906 666.433594 151.054688 663.632812 143.578125 C 661.65625 144.21875 659.695312 144.886719 657.75 145.582031 C 661.1875 153.746094 664.65625 161.867188 667.953125 169.945312 C 679.023438 197.066406 689.964844 225.320312 704.675781 250.703125 Z M 929.0625 331.054688 C 918.273438 330.03125 906.011719 327.785156 895.28125 329.703125 C 894.996094 329.761719 895.054688 330.160156 895.28125 330.230469 C 904.945312 333.300781 916.214844 333.144531 926.261719 334.410156 C 938.214844 335.902344 950.082031 337.804688 961.945312 339.835938 C 967.476562 340.789062 973.003906 341.769531 978.53125 342.792969 C 978.320312 341.074219 978.0625 339.355469 977.808594 337.648438 C 972.050781 336.570312 966.265625 335.617188 960.441406 334.75 C 950.023438 333.242188 939.550781 332.050781 929.0625 331.054688 Z M 926.617188 306.996094 C 916.542969 309.425781 906.523438 311.371094 896.6875 314.796875 C 896.601562 314.824219 896.644531 314.953125 896.730469 314.925781 C 905.585938 312.367188 915.148438 309.738281 924.398438 309.394531 C 933.394531 309.082031 942.5625 310.191406 951.488281 311.230469 C 958.804688 312.066406 965.984375 313.035156 973.160156 314.425781 C 972.292969 310.972656 971.339844 307.5625 970.332031 304.179688 C 964.304688 303.46875 958.324219 303.226562 952.78125 303.300781 C 944.113281 303.414062 935.015625 304.960938 926.617188 306.996094 Z M 911.554688 267.984375 C 923.519531 262.554688 935.355469 256.742188 947.480469 251.65625 C 946.613281 250.164062 945.71875 248.671875 944.808594 247.191406 C 932.714844 252.933594 921.203125 259.898438 910.714844 266.5625 C 909.820312 267.128906 910.601562 268.410156 911.554688 267.984375 Z M 554.601562 396.597656 C 536.722656 407.15625 519.589844 419.636719 504.164062 433.917969 C 504.53125 435.351562 504.921875 436.773438 505.3125 438.195312 C 520.402344 423.046875 536.738281 409.203125 554.871094 397.066406 C 555.167969 396.882812 554.914062 396.414062 554.601562 396.597656 Z M 835.351562 301.792969 C 835.308594 301.863281 835.394531 301.964844 835.449219 301.890625 C 850.839844 283.261719 868.464844 268.054688 888.984375 255.292969 C 908.726562 243.015625 929.6875 234.058594 950.519531 223.925781 C 952.226562 223.089844 950.960938 220.730469 949.3125 221.042969 C 903.425781 229.683594 863.277344 266.148438 835.351562 301.792969 Z M 891.371094 295.566406 C 879.265625 302.007812 866.273438 309.722656 857.351562 320.324219 C 857.164062 320.550781 857.40625 320.921875 857.691406 320.75 C 869.03125 314.027344 879.347656 305.855469 891.089844 299.6875 C 904.007812 292.910156 917.210938 289.429688 931.363281 286.402344 C 941.566406 284.214844 951.871094 282.421875 962.257812 281.425781 C 960.925781 278.203125 959.515625 275.003906 958.054688 271.847656 C 948.21875 273.027344 938.46875 275.019531 929.089844 278.144531 C 916.085938 282.464844 903.4375 289.144531 891.371094 295.566406 Z M 503.554688 322.613281 C 503.027344 322.683594 502.5 322.769531 501.964844 322.839844 C 501.476562 325.128906 501.011719 327.417969 500.589844 329.734375 C 501.59375 329.578125 502.585938 329.40625 503.589844 329.265625 C 544.789062 323.109375 587.054688 323.265625 628.453125 327.359375 C 629.222656 327.429688 629.390625 326.164062 628.640625 326.007812 C 587.324219 317.539062 545.300781 317.070312 503.554688 322.613281 Z M 590.183594 286.855469 C 590.949219 287.011719 591.277344 285.863281 590.507812 285.664062 C 566.875 279.707031 541.949219 275.941406 517.1875 275.886719 C 516.558594 277.320312 515.933594 278.742188 515.328125 280.191406 C 540.34375 279.738281 565.15625 281.386719 590.183594 286.855469 Z M 501.703125 303.441406 C 528.375 297.058594 555.40625 297.332031 582.296875 302.503906 C 606.921875 307.234375 637.109375 310.84375 656.734375 327.730469 C 656.878906 327.84375 657.0625 327.65625 656.933594 327.53125 C 648.265625 318.847656 637.378906 313.316406 626.023438 308.96875 C 612.011719 303.582031 597.445312 298.949219 582.765625 295.851562 C 555.507812 290.140625 526.230469 288.007812 500.390625 300.316406 C 498.585938 301.183594 499.882812 303.882812 501.703125 303.441406 Z M 553.429688 380.753906 C 554.738281 379.929688 553.828125 378.152344 552.421875 378.378906 C 533.109375 381.320312 514.371094 392.847656 498.578125 404.753906 C 498.933594 407.527344 499.34375 410.269531 499.796875 413 C 507.523438 407.03125 515.683594 401.570312 524.105469 396.640625 C 533.71875 391.011719 543.980469 386.679688 553.429688 380.753906 Z M 620.324219 335.546875 C 620.75 335.515625 620.765625 334.878906 620.324219 334.863281 C 586.117188 333.46875 551.414062 333.898438 518.054688 342.496094 C 511.320312 344.226562 504.53125 346.347656 497.851562 348.875 C 497.609375 351.292969 497.40625 353.734375 497.230469 356.195312 C 505.167969 352.855469 513.40625 350.054688 521.957031 347.796875 C 554.015625 339.324219 587.441406 338.273438 620.324219 335.546875 Z M 610.945312 220.886719 C 617.027344 223.273438 623.066406 225.71875 629.136719 228.164062 C 635.078125 230.550781 641.445312 233.71875 647.925781 233.804688 C 648.519531 233.820312 648.820312 233.050781 648.40625 232.640625 C 640.277344 224.28125 625.78125 220.671875 615.125 216.210938 C 602.191406 210.78125 589.171875 205.652344 576.054688 200.707031 C 574.449219 200.109375 572.84375 199.511719 571.253906 198.902344 C 569.648438 200.421875 568.082031 201.972656 566.535156 203.546875 C 568.296875 204.214844 570.058594 204.871094 571.820312 205.550781 C 584.894531 210.597656 597.914062 215.757812 610.945312 220.886719 Z M 638.957031 278.359375 C 639.425781 278.570312 639.824219 277.929688 639.367188 277.648438 C 610.859375 260.296875 580.007812 250.886719 547.09375 245.628906 C 542.902344 244.960938 538.664062 244.335938 534.417969 243.753906 C 532.839844 246.226562 531.316406 248.726562 529.824219 251.257812 C 534.472656 251.769531 539.121094 252.324219 543.753906 252.992188 C 576.042969 257.550781 608.941406 265.367188 638.957031 278.359375 Z M 665.035156 207.46875 C 651.789062 191.445312 638.117188 175.773438 623.992188 160.53125 C 622.742188 161.195312 621.519531 161.886719 620.296875 162.566406 C 634.90625 177.839844 649.601562 193.015625 664.367188 208.136719 C 664.792969 208.59375 665.417969 207.941406 665.035156 207.46875 Z M 643.375 219.179688 C 668.53125 240.144531 691.808594 263.632812 713.355469 288.277344 C 713.609375 288.5625 714.105469 288.179688 713.894531 287.867188 C 694.921875 260.195312 672.539062 235.59375 647.296875 213.523438 C 634.992188 202.765625 622.128906 192.71875 608.714844 183.394531 C 605.332031 181.042969 601.90625 178.695312 598.441406 176.40625 C 596.195312 178 594.003906 179.644531 591.816406 181.308594 C 595.527344 183.691406 599.222656 186.089844 602.84375 188.566406 C 616.816406 198.105469 630.371094 208.335938 643.375 219.179688 Z M 678.523438 214.25 C 679.191406 214.875 680.027344 213.964844 679.503906 213.28125 C 668.574219 199.328125 658.964844 184.222656 650.695312 168.558594 C 647.753906 162.996094 645.023438 157.328125 642.351562 151.632812 C 640.746094 152.332031 639.140625 153.042969 637.550781 153.773438 C 647.726562 176.261719 661.085938 197.777344 678.523438 214.25 Z M 581.273438 234.882812 C 568.824219 234.726562 556.300781 232.226562 544.09375 229.699219 C 545.375 227.992188 546.652344 226.285156 547.960938 224.609375 C 559.230469 227.152344 570.65625 229.613281 581.457031 233.550781 C 582.152344 233.804688 582.082031 234.898438 581.273438 234.882812 " fill-opacity="1" fill-rule="nonzero"/><path fill="#fbf08e" d="M 590.1875 286.855469 C 590.953125 287.011719 591.28125 285.863281 590.515625 285.664062 C 579.285156 282.835938 567.761719 280.519531 556.109375 278.839844 C 555.652344 279.707031 555.210938 280.589844 554.757812 281.484375 C 566.554688 282.550781 578.347656 284.269531 590.1875 286.855469 Z M 628.644531 326.007812 C 599.410156 320.011719 569.820312 318.050781 540.234375 319.359375 C 539.679688 321.40625 539.140625 323.449219 538.640625 325.527344 C 568.558594 323.523438 598.742188 324.417969 628.457031 327.359375 C 629.226562 327.429688 629.398438 326.164062 628.644531 326.007812 Z M 620.328125 334.863281 C 592.191406 333.726562 563.726562 333.8125 535.941406 338.65625 C 535.601562 340.691406 535.289062 342.722656 534.988281 344.753906 C 563.027344 339.011719 591.878906 337.917969 620.328125 335.546875 C 620.757812 335.515625 620.769531 334.878906 620.328125 334.863281 Z M 678.527344 214.25 C 679.195312 214.875 680.03125 213.964844 679.507812 213.28125 C 672.1875 203.960938 665.492188 194.097656 659.367188 183.90625 C 657.917969 184.515625 656.46875 185.144531 655.035156 185.785156 C 661.898438 196.214844 669.671875 205.894531 678.527344 214.25 Z M 610.949219 220.886719 C 617.03125 223.273438 623.074219 225.71875 629.140625 228.164062 C 635.082031 230.550781 641.449219 233.71875 647.929688 233.804688 C 648.523438 233.820312 648.824219 233.050781 648.410156 232.640625 C 640.28125 224.28125 625.785156 220.671875 615.128906 216.210938 C 613.195312 215.402344 611.25 214.605469 609.316406 213.808594 C 607.539062 215.246094 605.792969 216.679688 604.070312 218.171875 C 606.375 219.082031 608.660156 219.976562 610.949219 220.886719 Z M 639.375 277.648438 C 618.652344 265.042969 596.679688 256.628906 573.601562 250.957031 C 572.054688 253.03125 570.5625 255.136719 569.097656 257.253906 C 593.015625 261.984375 616.761719 268.765625 638.960938 278.359375 C 639.429688 278.570312 639.828125 277.929688 639.375 277.648438 Z M 704.675781 250.703125 C 704.789062 250.902344 705.117188 250.773438 705.042969 250.546875 C 697.484375 225.746094 686.925781 201.558594 676.960938 177.488281 C 675.199219 178.039062 673.453125 178.617188 671.71875 179.214844 C 681.554688 203.449219 691.628906 228.191406 704.675781 250.703125 Z M 731.605469 168.230469 C 729.574219 168.296875 727.554688 168.398438 725.539062 168.523438 C 722.511719 196.667969 723.777344 225.378906 728.921875 252.351562 C 728.949219 252.507812 729.203125 252.464844 729.191406 252.308594 C 727.742188 226.984375 727.8125 201.273438 730.625 176.042969 C 730.910156 173.425781 731.25 170.828125 731.605469 168.230469 Z M 701.945312 190.757812 C 701.007812 184.433594 700.253906 178.117188 699.617188 171.800781 C 696.902344 172.316406 694.214844 172.882812 691.542969 173.503906 C 692.382812 179.558594 693.347656 185.582031 694.472656 191.554688 C 702.175781 232.441406 716.441406 272.445312 741.414062 305.972656 C 741.511719 306.113281 741.738281 306 741.640625 305.84375 C 721.601562 270.128906 708.015625 231.246094 701.945312 190.757812 Z M 643.378906 219.179688 C 668.535156 240.144531 691.8125 263.632812 713.359375 288.277344 C 713.613281 288.5625 714.113281 288.179688 713.898438 287.867188 C 694.925781 260.195312 672.542969 235.59375 647.304688 213.523438 C 641.632812 208.566406 635.820312 203.777344 629.921875 199.128906 C 627.71875 200.492188 625.558594 201.886719 623.414062 203.335938 C 630.207031 208.464844 636.859375 213.738281 643.378906 219.179688 Z M 943.996094 366.824219 C 920.960938 362.960938 897.796875 359.761719 874.589844 357.046875 C 874.503906 357.03125 874.488281 357.160156 874.574219 357.1875 C 897.824219 360.839844 920.988281 365.0625 944.070312 369.652344 C 944.054688 368.699219 944.027344 367.761719 943.996094 366.824219 Z M 885.277344 229.710938 C 857.050781 247.832031 833.160156 272.957031 817.089844 301.792969 C 817.046875 301.863281 817.160156 301.933594 817.203125 301.863281 C 834.910156 272.429688 859.824219 249.507812 888.6875 233.265625 C 887.5625 232.070312 886.425781 230.878906 885.277344 229.710938 Z M 556.816406 469.84375 C 557.144531 470.5 557.484375 471.136719 557.828125 471.761719 C 572.878906 456.597656 588.835938 442.300781 605.792969 429.085938 C 605.863281 429.042969 605.777344 428.929688 605.71875 428.984375 C 588.582031 441.535156 572.210938 455.191406 556.816406 469.84375 Z M 544.355469 441.308594 C 545.023438 443.199219 545.703125 445.089844 546.414062 446.949219 C 575.777344 422.433594 608.347656 400.421875 644.21875 386.722656 C 644.304688 386.691406 644.261719 386.550781 644.175781 386.59375 C 608.875 401.132812 574.710938 417.914062 544.355469 441.308594 Z M 646.648438 458.972656 C 635.222656 485.265625 625.558594 512.195312 617.074219 539.539062 C 618.554688 540.617188 620.046875 541.683594 621.550781 542.722656 C 629.566406 514.722656 638.292969 486.914062 647.019531 459.128906 C 647.089844 458.914062 646.734375 458.746094 646.648438 458.972656 Z M 678.113281 470.3125 C 665.847656 498.550781 654.722656 527.414062 644.816406 556.691406 C 646.835938 557.742188 648.894531 558.738281 650.96875 559.703125 C 660.277344 530.003906 669.457031 500.242188 678.496094 470.46875 C 678.554688 470.242188 678.214844 470.085938 678.113281 470.3125 Z M 889.765625 454.636719 C 889.269531 454.28125 888.644531 455.09375 889.113281 455.503906 C 897.964844 463.207031 906.566406 471.136719 914.949219 479.28125 C 915.546875 478.285156 916.144531 477.292969 916.726562 476.28125 C 908.042969 468.707031 899.0625 461.472656 889.765625 454.636719 Z M 889.339844 411.09375 C 888.65625 410.964844 888.34375 412.003906 889.042969 412.144531 C 905.925781 415.671875 921.644531 421.625 936.523438 429.214844 C 936.792969 428.277344 937.035156 427.351562 937.277344 426.414062 C 922.183594 419.378906 906.265625 414.0625 889.339844 411.09375 Z M 589.675781 471.335938 C 583.222656 478.15625 576.925781 485.265625 570.84375 492.625 C 571.554688 493.621094 572.292969 494.613281 573.035156 495.625 C 578.960938 487.964844 585.128906 480.488281 591.609375 473.269531 C 592.773438 471.960938 590.882812 470.042969 589.675781 471.335938 Z M 819.148438 517.679688 C 819.078125 517.511719 818.851562 517.652344 818.921875 517.808594 C 824.335938 530.300781 829.496094 542.878906 834.511719 555.511719 C 835.207031 555.140625 835.890625 554.785156 836.585938 554.417969 C 830.945312 542.082031 825.117188 529.832031 819.148438 517.679688 Z M 552.425781 378.378906 C 545.933594 379.359375 539.496094 381.335938 533.210938 383.964844 C 533.339844 386.464844 533.523438 388.953125 533.738281 391.425781 C 540.375 388 547.082031 384.730469 553.4375 380.753906 C 554.742188 379.929688 553.832031 378.152344 552.425781 378.378906 Z M 754.144531 168.6875 C 749.3125 184.003906 746.085938 199.769531 745.148438 216.070312 C 745.121094 216.609375 745.902344 216.582031 745.960938 216.070312 C 747.921875 199.984375 751.714844 184.210938 757.003906 168.9375 C 756.050781 168.851562 755.097656 168.757812 754.144531 168.6875 Z M 773.53125 171.078125 C 771.257812 175.328125 769.109375 179.589844 767.105469 183.832031 C 751.105469 217.734375 744.097656 254.027344 745.691406 291.433594 C 745.691406 291.535156 745.816406 291.535156 745.832031 291.433594 C 746.839844 255.164062 757.074219 218.570312 773.757812 186.40625 C 776.1875 181.714844 778.789062 177.125 781.515625 172.617188 C 778.875 172.050781 776.214844 171.539062 773.53125 171.078125 Z M 939.933594 332.167969 C 936.308594 331.785156 932.683594 331.398438 929.0625 331.058594 C 918.273438 330.035156 906.011719 327.789062 895.28125 329.707031 C 894.996094 329.765625 895.054688 330.164062 895.28125 330.234375 C 904.945312 333.304688 916.214844 333.148438 926.261719 334.414062 C 931.109375 335.023438 935.925781 335.707031 940.742188 336.429688 C 940.488281 335.007812 940.21875 333.589844 939.933594 332.167969 Z M 943.957031 381.566406 C 917.109375 374.148438 889.140625 369.898438 863.488281 366.230469 C 862.890625 366.148438 862.621094 367.042969 863.234375 367.15625 C 889.878906 372.371094 917.4375 378.15625 943.699219 386.796875 C 943.800781 385.046875 943.882812 383.316406 943.957031 381.566406 Z M 624.109375 463.125 C 612.199219 472.433594 602.691406 487.230469 594.578125 499.820312 C 591.890625 504 589.375 508.25 586.976562 512.554688 C 588.125 513.820312 589.304688 515.070312 590.484375 516.304688 C 592.730469 511.773438 595.0625 507.28125 597.476562 502.875 C 601.230469 496.054688 605.335938 489.433594 609.769531 483.035156 C 614.433594 476.300781 620.128906 470.347656 624.648438 463.554688 C 624.878906 463.199219 624.394531 462.914062 624.109375 463.125 Z M 741.839844 510.238281 C 741.765625 509.015625 739.90625 509 739.917969 510.238281 C 740.21875 533.230469 740.546875 556.242188 740.558594 579.234375 C 741.640625 579.222656 742.734375 579.222656 743.828125 579.191406 C 743.769531 556.199219 743.21875 533.191406 741.839844 510.238281 Z M 796.894531 517.828125 C 796.78125 517.597656 796.46875 517.785156 796.511719 517.984375 C 799.367188 534.453125 804.328125 550.726562 808.832031 566.929688 C 810.082031 566.472656 811.332031 566.003906 812.570312 565.519531 C 808.164062 549.390625 803.617188 532.960938 796.894531 517.828125 Z M 890.71875 511.914062 C 880.515625 499.59375 869.359375 488.152344 857.109375 477.378906 C 856.980469 477.265625 856.796875 477.453125 856.921875 477.578125 C 868.050781 489.046875 878.667969 501.382812 888.53125 514.261719 C 889.269531 513.476562 889.992188 512.695312 890.71875 511.914062 Z M 825.929688 187.5625 C 816.023438 204.867188 807.367188 223.015625 798.613281 240.824219 C 798.328125 241.363281 799.097656 241.820312 799.421875 241.308594 C 810.4375 224.464844 820.742188 207.257812 831.273438 190.15625 C 829.496094 189.269531 827.71875 188.402344 825.929688 187.5625 Z M 843.125 196.667969 C 837.425781 200.890625 832.222656 205.890625 827.660156 211.234375 C 819.503906 220.8125 812.882812 231.488281 806.402344 242.230469 C 798.671875 255.035156 789.546875 267.824219 783.265625 281.382812 C 783.164062 281.582031 783.421875 281.824219 783.578125 281.640625 C 799.421875 262.566406 810.082031 239.53125 826.242188 220.570312 C 832.921875 212.726562 840.507812 205.734375 848.949219 200.25 C 847.03125 199.011719 845.085938 197.832031 843.125 196.667969 Z M 878.753906 484.90625 C 878.566406 484.78125 878.328125 485.09375 878.511719 485.234375 C 885.316406 490.890625 891.898438 496.886719 898.195312 503.167969 C 898.605469 502.671875 899.003906 502.175781 899.402344 501.675781 C 892.851562 495.75 885.972656 490.152344 878.753906 484.90625 Z M 896.390625 443.863281 C 896.246094 443.878906 896.191406 444.089844 896.347656 444.132812 C 906.421875 446.722656 915.972656 448.78125 925.453125 453.285156 C 926.191406 453.640625 926.929688 454.011719 927.667969 454.367188 C 928.351562 452.789062 929.003906 451.199219 929.644531 449.589844 C 918.941406 445.171875 907.515625 442.597656 896.390625 443.863281 Z M 830.746094 415.300781 C 843.933594 425.148438 857.050781 434.527344 867.851562 447.132812 C 878.652344 459.738281 885.757812 474.019531 892.949219 488.816406 C 893.476562 489.882812 895.125 489.128906 894.824219 488.035156 C 890.5625 472.003906 880.839844 457.324219 870.054688 444.929688 C 859.382812 432.636719 846.179688 421.039062 830.789062 415.171875 C 830.71875 415.144531 830.6875 415.257812 830.746094 415.300781 Z M 626.027344 308.96875 C 612.015625 303.582031 597.449219 298.949219 582.769531 295.851562 C 572.066406 293.605469 561.082031 291.929688 550.097656 291.445312 C 549.042969 293.832031 548.035156 296.25 547.070312 298.679688 C 558.820312 298.921875 570.574219 300.242188 582.300781 302.5 C 606.929688 307.234375 637.113281 310.84375 656.738281 327.726562 C 656.882812 327.839844 657.066406 327.65625 656.9375 327.527344 C 648.269531 318.84375 637.382812 313.316406 626.027344 308.96875 Z M 861.628906 209.003906 C 853.128906 221.894531 845.867188 235.664062 839.203125 248.597656 C 839.117188 248.753906 839.34375 248.894531 839.445312 248.738281 C 847.21875 235.777344 855.160156 222.847656 864.015625 210.835938 C 863.21875 210.226562 862.421875 209.601562 861.628906 209.003906 Z M 901.320312 248.128906 C 900 246.410156 898.648438 244.703125 897.285156 243.039062 C 873.183594 258.816406 852.078125 280.445312 835.351562 301.792969 C 835.308594 301.863281 835.394531 301.960938 835.449219 301.890625 C 850.839844 283.257812 868.464844 268.054688 888.984375 255.292969 C 893.050781 252.777344 897.171875 250.417969 901.320312 248.128906 Z M 693.632812 520.507812 C 687.335938 535.871094 681.210938 552.425781 675.398438 569.367188 C 676.023438 569.566406 676.648438 569.777344 677.289062 569.976562 C 682.105469 553.277344 687.449219 536.738281 693.773438 520.535156 C 693.804688 520.449219 693.660156 520.40625 693.632812 520.507812 Z M 770.957031 532.03125 C 770.902344 531.863281 770.660156 531.933594 770.6875 532.105469 C 772.960938 546.597656 775.363281 561.054688 777.894531 575.476562 C 778.929688 575.277344 779.96875 575.078125 781.003906 574.851562 C 777.792969 560.554688 774.453125 546.285156 770.957031 532.03125 Z M 723.378906 474.859375 C 714.75 507.675781 707.832031 540.84375 702.515625 574.367188 C 702.429688 574.921875 702.34375 575.492188 702.257812 576.058594 C 703.453125 576.273438 704.660156 576.472656 705.867188 576.65625 C 705.882812 576.527344 705.910156 576.386719 705.925781 576.246094 C 710.332031 542.238281 716.371094 508.425781 723.648438 474.929688 C 723.691406 474.761719 723.421875 474.6875 723.378906 474.859375 Z M 824.308594 478.015625 C 824.25 477.945312 824.136719 478.042969 824.195312 478.113281 C 839.613281 495.851562 853.042969 515.363281 865.636719 535.273438 C 866.828125 534.335938 868.023438 533.367188 869.203125 532.402344 C 854.992188 513.65625 839.570312 495.964844 824.308594 478.015625 Z M 932.585938 305.671875 C 930.566406 306.070312 928.578125 306.507812 926.617188 306.992188 C 916.542969 309.421875 906.523438 311.371094 896.6875 314.792969 C 896.601562 314.824219 896.644531 314.949219 896.730469 314.921875 C 905.585938 312.363281 915.148438 309.734375 924.398438 309.394531 C 927.554688 309.296875 930.722656 309.351562 933.90625 309.535156 C 933.46875 308.230469 933.039062 306.949219 932.585938 305.671875 Z M 891.089844 299.6875 C 879.347656 305.855469 869.03125 314.027344 857.691406 320.75 C 857.40625 320.921875 857.164062 320.550781 857.351562 320.324219 C 866.273438 309.722656 879.265625 302.003906 891.371094 295.566406 C 901.222656 290.324219 911.46875 284.9375 921.96875 280.773438 C 923.136719 283.058594 924.257812 285.390625 925.339844 287.734375 C 913.429688 290.492188 902.160156 293.875 891.089844 299.6875 " fill-opacity="1" fill-rule="nonzero"/><path fill="#fff73a" d="M 579.796875 417.644531 C 580.097656 418.695312 580.394531 419.761719 580.707031 420.816406 C 600.605469 407.144531 621.765625 395.304688 644.21875 386.722656 C 644.304688 386.691406 644.261719 386.550781 644.175781 386.59375 C 622.0625 395.703125 600.375 405.707031 579.796875 417.644531 Z M 741.640625 305.84375 C 725.167969 276.480469 713.074219 245.003906 705.910156 212.230469 C 703.707031 212.671875 701.519531 213.167969 699.347656 213.695312 C 707.714844 246.75 720.976562 278.542969 741.414062 305.972656 C 741.511719 306.113281 741.738281 306 741.640625 305.84375 Z M 628.644531 326.007812 C 613.464844 322.898438 598.1875 320.878906 582.867188 319.828125 C 582.328125 321.390625 581.816406 322.953125 581.320312 324.53125 C 597.078125 324.828125 612.839844 325.808594 628.457031 327.359375 C 629.226562 327.429688 629.398438 326.164062 628.644531 326.007812 Z M 620.328125 334.863281 C 606.445312 334.292969 592.476562 334.039062 578.5625 334.507812 C 578.207031 335.957031 577.867188 337.421875 577.554688 338.886719 C 591.808594 337.589844 606.117188 336.726562 620.328125 335.546875 C 620.757812 335.515625 620.769531 334.878906 620.328125 334.863281 Z M 639.375 277.648438 C 631.402344 272.800781 623.242188 268.59375 614.914062 264.886719 C 613.933594 266.007812 612.96875 267.128906 612.015625 268.269531 C 621.183594 271.222656 630.191406 274.5625 638.960938 278.359375 C 639.429688 278.570312 639.828125 277.929688 639.375 277.648438 Z M 705.042969 250.546875 C 701.449219 238.734375 697.171875 227.066406 692.59375 215.5 C 690.933594 215.984375 689.285156 216.496094 687.636719 217.019531 C 692.835938 228.5625 698.40625 239.886719 704.675781 250.703125 C 704.789062 250.902344 705.117188 250.773438 705.042969 250.546875 Z M 729.191406 252.308594 C 728.378906 238.039062 728.066406 223.65625 728.4375 209.304688 C 726.988281 209.402344 725.550781 209.503906 724.117188 209.628906 C 724.65625 224.125 726.261719 238.464844 728.921875 252.351562 C 728.949219 252.507812 729.203125 252.464844 729.191406 252.308594 Z M 713.359375 288.277344 C 713.613281 288.5625 714.113281 288.179688 713.898438 287.867188 C 698.847656 265.921875 681.609375 245.914062 662.539062 227.550781 C 660.578125 228.574219 658.628906 229.625 656.710938 230.734375 C 676.804688 248.640625 695.679688 268.054688 713.359375 288.277344 Z M 623.542969 249.4375 C 633.105469 246.28125 642.5 251.414062 650.742188 255.933594 C 658.714844 260.296875 666.191406 265.554688 673.679688 270.667969 C 689.183594 281.285156 705.472656 292.03125 718.546875 305.628906 C 718.589844 305.6875 718.703125 305.601562 718.644531 305.542969 C 705.117188 287.695312 688.460938 274.464844 670.523438 261.304688 C 660.832031 254.199219 632.152344 230.722656 621.382812 246.625 C 620.457031 248.003906 621.992188 249.949219 623.542969 249.4375 Z M 817.203125 301.863281 C 827.519531 284.710938 840.296875 269.789062 854.847656 257.097656 C 854.238281 256.484375 853.625 255.875 853 255.277344 C 838.789062 269.050781 826.566406 284.765625 817.089844 301.792969 C 817.046875 301.863281 817.160156 301.933594 817.203125 301.863281 Z M 646.648438 458.972656 C 640.992188 471.949219 635.804688 485.09375 630.945312 498.367188 C 631.953125 499.21875 632.964844 500.085938 633.988281 500.925781 C 638.277344 486.96875 642.640625 473.042969 647.019531 459.128906 C 647.089844 458.914062 646.734375 458.746094 646.648438 458.972656 Z M 678.113281 470.3125 C 671.320312 485.960938 664.867188 501.792969 658.785156 517.792969 C 660.277344 518.617188 661.757812 519.414062 663.277344 520.195312 C 668.394531 503.625 673.464844 487.054688 678.496094 470.46875 C 678.554688 470.242188 678.214844 470.085938 678.113281 470.3125 Z M 756.691406 210 C 748.121094 236.164062 744.511719 263.492188 745.691406 291.433594 C 745.691406 291.53125 745.816406 291.53125 745.832031 291.433594 C 746.585938 264.046875 752.625 236.476562 762.699219 210.753906 C 760.710938 210.46875 758.707031 210.214844 756.691406 210 Z M 863.488281 366.226562 C 862.890625 366.144531 862.621094 367.039062 863.234375 367.152344 C 876.421875 369.738281 889.835938 372.453125 903.195312 375.59375 C 903.210938 374.953125 903.226562 374.3125 903.226562 373.675781 C 903.226562 373.277344 903.226562 372.878906 903.210938 372.480469 C 889.679688 370.035156 876.292969 368.0625 863.488281 366.226562 Z M 739.917969 510.234375 C 740.046875 519.597656 740.175781 528.980469 740.273438 538.34375 C 741.242188 538.328125 742.179688 538.328125 743.132812 538.300781 C 742.832031 528.9375 742.40625 519.585938 741.839844 510.234375 C 741.765625 509.011719 739.90625 508.996094 739.917969 510.234375 Z M 815.3125 227.964844 C 812.226562 232.640625 809.300781 237.429688 806.402344 242.230469 C 798.671875 255.035156 789.546875 267.828125 783.265625 281.386719 C 783.164062 281.582031 783.421875 281.824219 783.578125 281.640625 C 796.894531 265.609375 806.570312 246.765625 818.90625 229.910156 C 817.726562 229.242188 816.519531 228.601562 815.3125 227.964844 Z M 805.066406 435.679688 C 804.824219 435.507812 804.496094 435.921875 804.738281 436.121094 C 827.519531 455.023438 842.1875 479.707031 853.085938 506.894531 C 853.527344 508.015625 855.203125 507.617188 854.933594 506.382812 C 848.3125 477.503906 828.699219 452.875 805.066406 435.679688 Z M 830.789062 415.171875 C 830.71875 415.144531 830.6875 415.257812 830.746094 415.300781 C 843.933594 425.148438 857.050781 434.527344 867.851562 447.132812 C 871.675781 451.609375 875.042969 456.285156 878.097656 461.132812 C 878.796875 460.023438 879.476562 458.914062 880.144531 457.808594 C 876.992188 453.289062 873.578125 448.980469 870.054688 444.933594 C 859.382812 432.640625 846.179688 421.042969 830.789062 415.171875 Z M 656.9375 327.53125 C 648.269531 318.847656 637.382812 313.320312 626.027344 308.96875 C 615.027344 304.734375 603.6875 300.984375 592.203125 298.070312 C 591.222656 299.960938 590.285156 301.878906 589.375 303.8125 C 612.511719 308.03125 638.960938 312.421875 656.738281 327.730469 C 656.882812 327.84375 657.066406 327.65625 656.9375 327.53125 Z M 618.765625 354.574219 C 599.027344 356.949219 582.3125 370.988281 571.582031 387.078125 C 569.949219 389.535156 573.390625 391.511719 575.351562 389.976562 C 590.03125 378.535156 601.484375 363.984375 620.914062 360.613281 C 640.027344 357.316406 662.9375 359.664062 680.644531 367.636719 C 680.730469 367.675781 680.785156 367.5625 680.714844 367.519531 C 663.277344 356.195312 639.300781 352.117188 618.765625 354.574219 Z M 835.449219 301.890625 C 845.070312 290.238281 855.558594 279.933594 867.085938 270.742188 C 866.515625 270.015625 865.933594 269.304688 865.351562 268.59375 C 854.265625 279.140625 844.191406 290.507812 835.351562 301.792969 C 835.308594 301.863281 835.394531 301.964844 835.449219 301.890625 Z M 723.378906 474.859375 C 718.078125 495.042969 713.414062 515.351562 709.378906 535.800781 C 710.203125 535.941406 711.042969 536.070312 711.867188 536.199219 C 715.277344 515.691406 719.226562 495.242188 723.648438 474.933594 C 723.691406 474.761719 723.421875 474.691406 723.378906 474.859375 Z M 857.351562 320.324219 C 857.164062 320.550781 857.40625 320.921875 857.691406 320.75 C 867.652344 314.851562 876.835938 307.832031 886.867188 302.035156 C 886.355469 300.96875 885.828125 299.929688 885.304688 298.894531 C 875.070312 304.648438 864.796875 311.484375 857.351562 320.324219 Z M 806.230469 335.816406 C 806.132812 335.929688 806.273438 336.128906 806.402344 336.027344 C 819.261719 326.5625 832.179688 317.042969 845.851562 308.769531 C 852.730469 304.621094 859.652344 301.253906 867.339844 298.808594 C 874.972656 296.378906 882.492188 296.945312 890.148438 295.3125 C 892.039062 294.914062 892.070312 292.386719 890.648438 291.445312 C 877.515625 282.691406 859.238281 295.410156 848.28125 302.332031 C 833.0625 311.953125 818.738281 322.824219 806.230469 335.816406 Z M 797.007812 217.988281 C 798.101562 217.347656 797.648438 215.558594 796.355469 215.570312 C 792.914062 215.628906 789.433594 216.507812 786.09375 217.988281 C 788.140625 214.109375 790.554688 210.441406 793.484375 207.15625 C 797.390625 202.796875 802.523438 199.996094 806.53125 195.804688 C 807.238281 195.0625 806.785156 193.472656 805.605469 193.585938 C 793.667969 194.765625 785.226562 209.003906 780.933594 218.855469 C 780.550781 219.734375 780.179688 220.628906 779.824219 221.527344 C 774.511719 225.234375 770.019531 230.265625 767.40625 235.425781 C 760.824219 248.457031 758.140625 263.179688 758.480469 277.675781 C 758.480469 277.859375 758.75 277.859375 758.75 277.675781 C 759.589844 264.699219 762.191406 251.527344 767.476562 239.589844 C 769.992188 233.945312 773.148438 229.898438 777.9375 226.769531 C 773.515625 240.144531 771.824219 254.226562 768.671875 267.957031 C 768.65625 268.027344 768.785156 268.070312 768.8125 267.984375 C 772.804688 254.085938 776.996094 239.859375 782.269531 226.386719 C 782.582031 225.5625 782.925781 224.738281 783.265625 223.925781 C 787.839844 221.921875 792.703125 220.503906 797.007812 217.988281 Z M 771.867188 465.199219 C 769.097656 449.550781 763.441406 434.289062 756.617188 419.960938 C 756.492188 419.71875 756.164062 419.933594 756.261719 420.175781 C 762.984375 436.035156 766.59375 452.550781 767.746094 469.757812 C 768.257812 477.375 768.171875 485.023438 768.429688 492.652344 C 768.65625 499.21875 767.988281 506.753906 771.285156 512.621094 C 772.222656 514.296875 774.921875 513.941406 775.40625 512.082031 C 777.253906 504.832031 775.066406 496.050781 774.566406 488.605469 C 774.054688 480.773438 773.230469 472.929688 771.867188 465.199219 Z M 916.542969 344.269531 C 906.566406 335.972656 889.183594 336.328125 876.90625 337.464844 C 862.722656 338.757812 849.136719 342.933594 837.042969 350.523438 C 836.96875 350.566406 837.011719 350.667969 837.085938 350.636719 C 849.972656 346.359375 863.261719 343.53125 876.90625 343.375 C 883.699219 343.304688 890.476562 343.972656 897.199219 344.953125 C 903.339844 345.863281 908.953125 347.964844 915.191406 347.539062 C 916.683594 347.441406 917.917969 345.421875 916.542969 344.269531 Z M 902.671875 388.710938 C 903.59375 389.945312 902.058594 391.410156 900.824219 391.125 C 895.835938 389.976562 891.871094 386.820312 887.40625 384.460938 C 881.253906 381.191406 874.800781 378.777344 867.824219 378.152344 C 854.976562 376.972656 841.929688 378.863281 829.011719 378.007812 C 828.714844 377.980469 828.613281 377.539062 828.925781 377.46875 C 842.980469 374.542969 858.828125 371.558594 873.183594 373.53125 C 883.328125 374.925781 896.390625 380.398438 902.671875 388.710938 " fill-opacity="1" fill-rule="nonzero"/><path fill="#fbff4e" d="M 741.640625 305.84375 C 732.558594 289.640625 724.796875 272.773438 718.476562 255.421875 C 716.785156 255.703125 715.121094 256.003906 713.457031 256.359375 C 720.804688 273.894531 729.972656 290.621094 741.414062 305.972656 C 741.511719 306.113281 741.738281 306 741.640625 305.84375 Z M 713.898438 287.867188 C 707.789062 278.953125 701.292969 270.398438 694.484375 262.101562 C 693.234375 262.597656 692 263.09375 690.777344 263.621094 C 698.492188 271.679688 706.039062 279.90625 713.359375 288.277344 C 713.613281 288.5625 714.113281 288.179688 713.898438 287.867188 Z M 718.644531 305.542969 C 707.644531 291.035156 694.585938 279.578125 680.429688 268.722656 C 678.683594 269.6875 676.960938 270.710938 675.273438 271.765625 C 690.292969 282.023438 705.925781 292.5 718.546875 305.628906 C 718.589844 305.6875 718.703125 305.601562 718.644531 305.542969 Z M 745.832031 291.433594 C 746.171875 279.027344 747.621094 266.578125 750.023438 254.269531 C 749.03125 254.183594 748.035156 254.113281 747.054688 254.054688 C 745.617188 266.347656 745.148438 278.828125 745.691406 291.433594 C 745.691406 291.53125 745.816406 291.53125 745.832031 291.433594 Z M 680.644531 367.636719 C 680.730469 367.675781 680.785156 367.5625 680.714844 367.519531 C 663.660156 356.449219 640.355469 352.316406 620.128906 354.445312 C 619.773438 356.605469 619.476562 358.78125 619.25 360.96875 C 619.804688 360.855469 620.34375 360.714844 620.914062 360.613281 C 640.027344 357.316406 662.9375 359.664062 680.644531 367.636719 Z M 758.75 277.675781 C 759.21875 270.429688 760.269531 263.136719 761.992188 256.015625 C 761.464844 255.917969 760.925781 255.832031 760.398438 255.734375 C 758.921875 262.9375 758.308594 270.34375 758.480469 277.675781 C 758.480469 277.859375 758.75 277.859375 758.75 277.675781 Z M 642.867188 313.773438 C 650.289062 313.6875 657.308594 310.71875 664.824219 311.015625 C 674.007812 311.371094 681.78125 315.792969 688.402344 321.886719 C 693.917969 326.960938 698.847656 332.773438 703.195312 339 C 703.167969 339.082031 703.140625 339.183594 703.097656 339.269531 C 693.929688 337.464844 683.359375 338.585938 677.273438 345.167969 C 676.28125 346.246094 676.863281 348.664062 678.625 348.433594 C 686.597656 347.410156 693.546875 345.152344 701.121094 345.480469 C 700.625 347.410156 700.269531 349.214844 700.070312 350.765625 C 699.871094 352.300781 702.371094 352.953125 703 351.5625 C 703.679688 350.011719 704.460938 348.066406 705.328125 345.949219 C 706.238281 346.105469 707.148438 346.316406 708.101562 346.574219 C 710.375 350.367188 712.476562 354.234375 714.367188 358.15625 C 714.496094 358.425781 714.980469 358.226562 714.863281 357.941406 C 713.5 354.332031 711.964844 350.765625 710.273438 347.253906 C 721.429688 351.050781 729.191406 359.078125 732.757812 370.464844 C 732.886719 370.875 733.511719 370.703125 733.410156 370.277344 C 730.683594 358.78125 722.878906 347.410156 712.066406 342.183594 C 710.714844 341.542969 709.238281 340.960938 707.6875 340.460938 C 709.363281 336.851562 711.339844 333.242188 713.726562 330.542969 C 714.792969 331.949219 715.917969 333.328125 717.109375 334.679688 C 717.167969 334.722656 717.253906 334.648438 717.222656 334.578125 C 716.316406 332.875 715.546875 331.140625 714.835938 329.378906 C 716.855469 327.429688 719.128906 326.152344 721.730469 325.996094 C 735.429688 325.15625 741.085938 347.46875 742.09375 357.972656 C 742.109375 358.140625 742.363281 358.140625 742.363281 357.972656 C 742.164062 346.574219 737.320312 325.042969 723.804688 321.972656 C 719.640625 321.035156 716.03125 322.171875 712.945312 324.515625 C 711.46875 320.609375 709.960938 316.730469 707.714844 313.078125 C 704.234375 307.449219 699.714844 302.53125 694.558594 298.394531 C 685.773438 291.363281 668.960938 282.535156 657.507812 287.339844 C 656.070312 287.949219 655.84375 289.984375 657.507812 290.507812 C 663.449219 292.371094 669.828125 291.800781 675.855469 293.804688 C 682.945312 296.152344 689.382812 300.128906 694.839844 305.21875 C 701.476562 311.386719 705.8125 319.128906 710.785156 326.421875 C 708.15625 329.105469 705.996094 332.644531 704.320312 336.339844 C 699.503906 328.539062 693.761719 321.304688 686.996094 315.164062 C 675.230469 304.480469 655.757812 301.679688 642.03125 310.71875 C 640.722656 311.585938 641.164062 313.789062 642.871094 313.773438 Z M 700 357.84375 C 691.613281 354.121094 680.359375 349.03125 672.515625 356.292969 C 671.148438 357.542969 672.613281 359.40625 674.175781 359.136719 C 683.015625 357.660156 691.925781 361.167969 700.199219 364.011719 C 709.933594 367.335938 720.09375 371.8125 725.636719 380.964844 C 725.679688 381.035156 725.808594 380.980469 725.75 380.894531 C 720.023438 369.796875 711.355469 362.886719 700 357.84375 Z M 706.480469 392.546875 C 706.679688 392.460938 706.566406 392.179688 706.378906 392.164062 C 698.207031 391.679688 689.042969 394.496094 681.253906 396.824219 C 673.210938 399.226562 664.925781 401.957031 657.394531 405.707031 C 645.46875 411.648438 629.355469 423.074219 628.160156 437.5 C 627.976562 439.871094 630.890625 440.425781 632.367188 439.234375 C 637.695312 434.996094 641.179688 429.058594 645.738281 424.082031 C 650.96875 418.355469 657.109375 413.679688 663.53125 409.417969 C 670.480469 404.785156 677.886719 401.601562 685.800781 398.957031 C 692.550781 396.726562 700.070312 395.601562 706.480469 392.546875 Z M 709.550781 400.277344 C 699.019531 401.402344 689.539062 405.835938 681.210938 412.316406 C 673.238281 418.539062 664 427.421875 663.5625 438.167969 C 663.476562 439.859375 665.679688 440.652344 666.828125 439.515625 C 673.621094 432.792969 677.316406 423.644531 684.265625 416.878906 C 691.542969 409.773438 700.425781 404.8125 709.691406 400.789062 C 709.933594 400.675781 709.820312 400.25 709.550781 400.277344 Z M 724.5 400.890625 C 713.714844 403.546875 707.929688 417.832031 703.355469 426.667969 C 698.023438 436.957031 691.316406 451.867188 696.289062 463.335938 C 696.914062 464.757812 699.21875 464.300781 699.542969 462.910156 C 700.78125 457.609375 700.46875 452.152344 701.589844 446.820312 C 702.742188 441.378906 704.648438 436.035156 706.566406 430.832031 C 710.730469 419.605469 714.695312 408.4375 724.613281 401.144531 C 724.726562 401.058594 724.671875 400.863281 724.5 400.890625 Z M 738.300781 395.6875 C 738.3125 395.601562 738.1875 395.5625 738.15625 395.660156 C 735.386719 405.351562 732.03125 415.128906 730.695312 425.164062 C 729.957031 430.71875 728.847656 438.691406 734.050781 442.230469 C 734.804688 442.742188 735.96875 442.246094 736.167969 441.378906 C 736.765625 438.734375 736.195312 436.875 735.882812 434.160156 C 735.441406 430.363281 735.828125 426.585938 735.953125 422.777344 C 736.238281 413.679688 736.636719 404.671875 738.300781 395.6875 Z M 756.617188 419.960938 C 756.492188 419.71875 756.164062 419.933594 756.261719 420.175781 C 762.984375 436.035156 766.59375 452.550781 767.746094 469.757812 C 768.199219 476.46875 768.1875 483.1875 768.355469 489.910156 C 770.445312 489.371094 772.507812 488.789062 774.539062 488.148438 C 774.011719 480.476562 773.21875 472.785156 771.867188 465.195312 C 769.097656 449.550781 763.441406 434.285156 756.617188 419.960938 Z M 745.390625 339.824219 C 750.066406 314.9375 759.589844 285.789062 782.527344 272.175781 C 783.378906 271.679688 783.050781 270.214844 782.015625 270.269531 C 769.652344 270.796875 761.71875 287.667969 756.875 297.089844 C 749.996094 310.433594 745.660156 324.746094 744.867188 339.75 C 744.835938 340.050781 745.347656 340.121094 745.390625 339.824219 Z M 760.894531 344.15625 C 760.824219 344.3125 761.050781 344.441406 761.136719 344.285156 C 766.453125 334.792969 771.269531 323.136719 779.199219 315.476562 C 783.007812 311.8125 787.953125 308.742188 792.589844 306.226562 C 796.949219 303.851562 801.839844 302.671875 805.632812 299.40625 C 807.054688 298.183594 805.777344 296.164062 804.226562 296.023438 C 794.761719 295.15625 784.941406 304.292969 779.839844 311.457031 C 772.421875 321.886719 766.695312 332.757812 760.894531 344.15625 Z M 873.933594 326.136719 C 855.785156 320.894531 836.074219 326.277344 820.34375 335.703125 C 817.132812 337.621094 813.917969 339.566406 810.722656 341.515625 C 811.207031 340.660156 811.21875 339.523438 810.421875 338.785156 C 809.230469 337.632812 807.894531 336.710938 806.488281 335.972656 C 817.855469 327.601562 829.28125 319.1875 841.234375 311.640625 C 840.566406 310.53125 839.855469 309.453125 839.144531 308.371094 C 827.335938 316.472656 816.195312 325.453125 806.230469 335.816406 L 806.230469 335.84375 C 794.789062 330.089844 777.539062 336.539062 768.457031 343.433594 C 758.210938 351.21875 751.273438 363.300781 745.816406 375.210938 C 744.453125 375.921875 743.386719 377.085938 742.945312 378.804688 C 742.863281 379.144531 743.375 379.289062 743.472656 378.949219 C 743.855469 377.710938 744.523438 376.84375 745.320312 376.289062 C 744.15625 378.875 743.0625 381.433594 742.007812 383.949219 C 741.964844 384.035156 742.121094 384.0625 742.152344 383.976562 C 743.160156 381.335938 744.253906 378.734375 745.449219 376.203125 C 747.964844 374.628906 751.800781 375.992188 753.152344 379.003906 C 754.21875 381.363281 754.871094 383.835938 755.238281 386.394531 C 755.894531 390.925781 755 395.730469 756.917969 399.964844 C 757.472656 401.21875 759.246094 400.960938 759.871094 399.964844 C 762.359375 396.058594 761.4375 391.15625 760.65625 386.804688 C 759.972656 382.984375 758.878906 378.507812 755.523438 376.121094 C 752.953125 374.3125 748.832031 373.730469 745.960938 375.136719 C 751.375 364.039062 758.777344 354.375 769.707031 347.796875 C 775.605469 344.242188 782.46875 341.613281 789.363281 340.859375 C 796.113281 340.121094 802.222656 342.421875 808.832031 342.636719 C 808.859375 342.636719 808.875 342.621094 808.902344 342.621094 C 804.070312 345.59375 799.296875 348.621094 794.59375 351.816406 C 792.773438 353.054688 790.898438 354.289062 789.019531 355.554688 C 787.785156 356.335938 786.535156 357.160156 785.296875 358.027344 C 785.226562 358.070312 785.183594 358.128906 785.140625 358.183594 C 779.96875 361.75 774.9375 365.589844 770.816406 370.121094 C 770.660156 370.308594 770.859375 370.5625 771.070312 370.449219 C 779.441406 366.226562 786.902344 359.917969 794.789062 354.832031 C 796.085938 353.992188 797.390625 353.152344 798.699219 352.316406 C 800.089844 351.929688 801.511719 351.660156 802.960938 351.589844 C 809.472656 351.277344 814.984375 355.058594 819.71875 359.050781 C 826.171875 364.492188 831.753906 371.402344 839.671875 374.667969 C 841.191406 375.292969 842.371094 373.292969 841.675781 372.054688 C 836.332031 362.476562 822.460938 355.269531 812.5 351.449219 C 808.804688 350.027344 805.335938 349.742188 802.011719 350.210938 C 807.496094 346.757812 813.066406 343.402344 818.765625 340.363281 C 827.320312 335.816406 837.027344 333.214844 846.632812 332.207031 C 855.828125 331.238281 864.898438 332.191406 873.933594 329.960938 C 875.867188 329.492188 875.769531 326.675781 873.933594 326.136719 Z M 858.402344 377.753906 C 858.457031 376.402344 858.5 375.054688 858.5 373.675781 C 858.5 373.460938 858.488281 373.25 858.488281 373.035156 C 848.480469 373.546875 838.304688 375.523438 828.925781 377.46875 C 828.613281 377.539062 828.714844 377.980469 829.011719 378.007812 C 838.789062 378.648438 848.625 377.738281 858.402344 377.753906 Z M 848.496094 393.558594 C 842.1875 390.074219 835.820312 386.054688 829.070312 383.523438 C 815.398438 378.421875 801.667969 381.902344 787.828125 384.519531 C 787.484375 384.589844 787.640625 385.113281 787.984375 385.042969 C 795.316406 383.835938 802.90625 382.160156 810.351562 381.832031 C 818.808594 381.460938 824.039062 384.71875 830.617188 389.207031 C 840.082031 395.675781 850.558594 405.566406 862.027344 407.683594 C 863.347656 407.925781 865.082031 406.433594 864.042969 405.066406 C 859.90625 399.695312 854.378906 396.796875 848.496094 393.558594 Z M 803.117188 405.621094 C 795.0625 399.085938 786.347656 397.394531 776.214844 397.039062 C 775.902344 397.023438 775.875 397.480469 776.144531 397.578125 C 786.503906 401.375 796.382812 404.683594 804.128906 412.925781 C 810.964844 420.1875 816.09375 428.558594 824.050781 434.671875 C 825.21875 435.566406 826.484375 433.875 825.929688 432.792969 C 820.769531 422.832031 811.84375 412.699219 803.117188 405.621094 Z M 780.125 423.683594 C 783.082031 435.453125 786.265625 449.679688 784.8125 461.800781 C 784.617188 463.433594 782.140625 464.101562 781.714844 462.226562 C 776.871094 440.453125 782.328125 416.195312 763.796875 399.640625 C 763.554688 399.441406 763.867188 399.027344 764.121094 399.214844 C 772.890625 405.339844 777.550781 413.453125 780.125 423.683594 " fill-opacity="1" fill-rule="nonzero"/></svg>