<svg xmlns="http://www.w3.org/2000/svg" xmlns:xlink="http://www.w3.org/1999/xlink" width="1920" zoomAndPan="magnify" viewBox="0 0 1440 809.999993" height="1080" preserveAspectRatio="xMidYMid meet" version="1.0"><defs><clipPath id="de08451b64"><path d="M 321.625 55 L 1118.398438 55 L 1118.398438 767 L 321.625 767 Z M 321.625 55 " clip-rule="nonzero"/></clipPath><clipPath id="d910351d2c"><path d="M 350.378906 25.953125 L 1077 25.953125 L 1077 783.988281 L 350.378906 783.988281 Z M 350.378906 25.953125 " clip-rule="nonzero"/></clipPath></defs><g clip-path="url(#de08451b64)"><path fill="#fbf08e" d="M 481.484375 118.601562 L 481.484375 118.609375 C 481.515625 118.558594 481.550781 118.515625 481.582031 118.472656 C 481.550781 118.515625 481.515625 118.558594 481.484375 118.601562 Z M 476.546875 118.476562 C 476.703125 119.429688 477.183594 120.273438 478.121094 120.859375 C 479.660156 121.832031 481.421875 120.359375 481.421875 118.871094 C 482.539062 118.707031 483.5625 117.996094 483.832031 116.800781 C 484.183594 115.328125 483.402344 113.546875 481.804688 113.207031 C 479.597656 112.730469 477.824219 113.8125 476.546875 115.527344 C 475.992188 116.269531 475.984375 117.730469 476.546875 118.472656 Z M 502.617188 75.8125 C 503.386719 77.265625 501.835938 78.871094 500.367188 78.0625 C 496.996094 76.21875 491.917969 74.894531 488.863281 77.785156 C 487.90625 78.6875 486.132812 77.445312 486.980469 76.335938 C 490.8125 71.292969 499.199219 69.292969 502.617188 75.8125 Z M 623.773438 61.898438 C 620.4375 63.570312 617.226562 64.949219 613.457031 65.105469 C 611.109375 65.203125 609.511719 61.816406 611.425781 60.25 C 614.351562 57.878906 617.578125 56.699219 621.1875 55.738281 C 624.796875 54.773438 627.242188 60.15625 623.773438 61.898438 Z M 693.625 148.503906 C 693.496094 147.828125 693.65625 147.167969 693.753906 146.507812 C 693.945312 145.070312 696.4375 145.070312 696.644531 146.507812 C 696.722656 147.160156 696.882812 147.835938 696.753906 148.503906 C 696.660156 149.050781 696.484375 149.59375 696.339844 150.136719 C 696.054688 151.277344 694.328125 151.277344 694.039062 150.136719 C 693.898438 149.59375 693.722656 149.050781 693.625 148.503906 Z M 792.53125 161.5 C 792.644531 160.527344 792.753906 159.554688 792.867188 158.578125 C 792.992188 157.46875 793.378906 156.527344 794.398438 155.925781 C 795.246094 155.433594 796.21875 155.398438 797.113281 155.777344 C 799.046875 156.589844 799.703125 159.253906 798.105469 160.75 C 797.355469 161.460938 796.605469 162.167969 795.851562 162.878906 C 795.277344 163.425781 794.464844 163.578125 793.730469 163.285156 C 793.089844 163.019531 792.449219 162.246094 792.53125 161.5 Z M 874.136719 202.917969 C 874.488281 204.421875 873.433594 205.90625 871.871094 205.90625 C 870.289062 205.90625 869.25 204.402344 869.585938 202.917969 C 869.679688 202.566406 869.761719 202.199219 869.839844 201.832031 C 870.304688 199.835938 873.417969 199.835938 873.882812 201.832031 C 873.976562 202.199219 874.058594 202.566406 874.136719 202.917969 Z M 968.730469 91.917969 C 970.808594 89.832031 974.050781 90.953125 974.960938 93.558594 C 975.007812 93.714844 975.070312 93.882812 975.089844 94.050781 C 975.679688 96.660156 973.476562 98.867188 970.855469 98.273438 C 970.695312 98.25 970.535156 98.199219 970.375 98.136719 C 967.773438 97.238281 966.652344 93.988281 968.730469 91.917969 Z M 1030.371094 167.988281 C 1030.960938 168.566406 1031.3125 169.4375 1031.3125 170.261719 C 1031.3125 171.132812 1030.945312 171.90625 1030.371094 172.539062 C 1029.523438 173.453125 1028.375 173.523438 1027.242188 173.367188 C 1025.976562 173.191406 1025.242188 172.769531 1024.460938 171.707031 C 1023.902344 170.96875 1023.902344 169.546875 1024.460938 168.816406 C 1025.242188 167.75 1025.976562 167.332031 1027.242188 167.15625 C 1028.421875 166.996094 1029.476562 167.089844 1030.371094 167.988281 Z M 1118.398438 170.261719 C 1118.464844 171.71875 1117.121094 172.953125 1115.699219 172.953125 C 1114.757812 172.953125 1113.71875 173.066406 1112.808594 172.828125 C 1111.976562 172.617188 1111.226562 172.09375 1110.492188 171.679688 C 1109.421875 171.082031 1109.421875 169.4375 1110.492188 168.835938 C 1111.226562 168.425781 1111.976562 167.902344 1112.808594 167.6875 C 1113.71875 167.457031 1114.757812 167.5625 1115.699219 167.5625 C 1117.21875 167.5625 1118.335938 168.800781 1118.398438 170.261719 Z M 1061.949219 304.761719 C 1061.246094 306.441406 1059.472656 307.253906 1057.71875 306.855469 C 1056.421875 306.535156 1055.464844 305.914062 1054.859375 304.90625 C 1054.074219 304.253906 1053.261719 303.660156 1052.703125 302.78125 C 1052.03125 301.695312 1052.71875 300.402344 1053.820312 300.035156 C 1054.730469 299.714844 1055.703125 299.765625 1056.664062 299.78125 C 1057.109375 299.605469 1057.574219 299.492188 1058.050781 299.492188 C 1058.964844 299.492188 1059.699219 299.890625 1060.480469 300.273438 C 1062.09375 301.058594 1062.605469 303.230469 1061.949219 304.761719 Z M 1085.03125 393.253906 C 1079.917969 393.253906 1079.9375 385.316406 1085.03125 385.316406 C 1090.160156 385.316406 1090.144531 393.253906 1085.03125 393.253906 Z M 1012.878906 427.53125 C 1012.863281 427.917969 1012.832031 428.300781 1012.816406 428.699219 C 1012.65625 431.589844 1008.472656 431.589844 1008.328125 428.699219 C 1008.3125 428.300781 1008.28125 427.917969 1008.265625 427.53125 C 1008.105469 424.5625 1013.039062 424.5625 1012.878906 427.53125 Z M 791.078125 669.847656 C 790.773438 669.988281 790.46875 670.132812 790.199219 670.324219 C 788.617188 671.507812 786.414062 669.910156 786.414062 668.152344 C 786.414062 666.394531 788.617188 664.8125 790.199219 665.980469 C 790.46875 666.1875 790.773438 666.316406 791.078125 666.476562 C 792.355469 667.113281 792.355469 669.191406 791.078125 669.847656 Z M 724.007812 665.933594 C 723.8125 666.699219 723.589844 667.433594 723.03125 668.039062 C 722.328125 668.792969 721.433594 669.0625 720.429688 669.144531 C 718.957031 669.238281 717.472656 667.753906 717.570312 666.285156 C 717.648438 665.277344 717.953125 664.398438 718.671875 663.679688 C 719.261719 663.089844 719.996094 662.898438 720.78125 662.707031 C 722.742188 662.226562 724.484375 663.96875 724.007812 665.933594 Z M 667.429688 640.105469 C 667.589844 640.628906 667.667969 641.140625 667.589844 641.78125 C 667.460938 642.660156 667.09375 643.394531 666.488281 644.050781 C 665 645.679688 662.429688 645.4375 660.894531 644.050781 C 659.332031 642.59375 659.441406 639.910156 660.894531 638.457031 C 661.582031 637.773438 662.71875 637.246094 663.691406 637.292969 C 664.121094 637.308594 664.507812 637.402344 664.890625 637.53125 C 666.183594 637.660156 667.300781 638.808594 667.429688 640.105469 Z M 663.386719 716.488281 C 664.425781 718.164062 663.738281 720.945312 661.855469 721.773438 C 660.800781 722.382812 659.492188 722.382812 658.453125 721.773438 C 656.582031 720.945312 655.878906 718.164062 656.917969 716.488281 C 657 716.34375 657.09375 716.199219 657.175781 716.054688 C 658.546875 713.835938 661.757812 713.835938 663.132812 716.054688 C 663.210938 716.199219 663.308594 716.34375 663.386719 716.488281 Z M 602.050781 715.960938 C 601.15625 716.28125 600.277344 716.582031 599.382812 716.902344 C 598.074219 717.367188 596.730469 716.167969 596.730469 714.875 C 596.730469 713.597656 598.074219 712.398438 599.382812 712.863281 C 600.277344 713.164062 601.15625 713.484375 602.050781 713.789062 C 603.105469 714.171875 603.105469 715.59375 602.050781 715.960938 Z M 625.226562 560.734375 C 625.835938 562.523438 625.050781 564.757812 623.613281 565.925781 C 622.6875 566.675781 621.683594 566.660156 620.753906 565.925781 C 619.316406 564.757812 618.550781 562.523438 619.160156 560.734375 C 620.164062 557.746094 624.207031 557.746094 625.226562 560.734375 Z M 479.253906 473.757812 C 479.265625 474.316406 479 474.894531 478.457031 475.230469 C 476.871094 476.21875 474.980469 475.195312 474.164062 473.710938 C 473.527344 472.5625 473.339844 470.964844 474.082031 469.8125 C 474.820312 468.664062 476.242188 467.832031 477.632812 467.976562 C 479.394531 468.152344 480.695312 469.285156 480.777344 471.125 C 480.828125 472.273438 480.171875 473.214844 479.253906 473.757812 Z M 365.628906 498.039062 C 365.328125 498.183594 365.027344 498.34375 364.726562 498.5 C 363.832031 498.964844 362.683594 498.390625 362.683594 497.320312 C 362.683594 496.25 363.832031 495.675781 364.726562 496.152344 C 365.027344 496.296875 365.328125 496.457031 365.628906 496.617188 C 366.164062 496.886719 366.164062 497.75 365.628906 498.039062 Z M 523.894531 544.726562 C 523.6875 545.621094 522.777344 546.355469 521.929688 546.675781 C 521.257812 546.917969 520.730469 546.566406 520.15625 546.246094 C 518.238281 545.160156 518.671875 542.171875 520.761719 541.597656 C 522.679688 541.054688 524.308594 542.875 523.894531 544.726562 Z M 432.40625 593.558594 C 432.414062 593.574219 432.414062 593.589844 432.421875 593.621094 L 432.421875 593.652344 C 432.414062 593.621094 432.414062 593.589844 432.40625 593.558594 Z M 430.125 597.664062 L 429.78125 597.664062 C 429.914062 597.648438 430.050781 597.632812 430.179688 597.613281 L 430.21875 597.613281 C 430.1875 597.632812 430.15625 597.648438 430.125 597.664062 Z M 432.472656 593.621094 C 432.363281 593.429688 432.289062 593.09375 432.378906 593.429688 C 432.128906 592.519531 431.566406 591.722656 430.785156 590.96875 C 428.910156 589.164062 425.761719 589.515625 424.433594 591.785156 C 423.210938 593.878906 424.234375 597.28125 426.847656 597.726562 C 427.640625 597.855469 428.421875 598.046875 429.226562 597.933594 C 429.664062 597.886719 430.105469 597.757812 430.519531 597.582031 C 430.625 597.566406 430.738281 597.550781 430.84375 597.535156 C 432.488281 597.359375 433.707031 595.761719 432.785156 594.164062 C 432.683594 593.972656 432.578125 593.796875 432.472656 593.621094 Z M 361.214844 560.683594 C 361.472656 561.53125 361.234375 562.332031 361.023438 563.128906 C 360.4375 565.414062 358.382812 567.058594 356.113281 567.363281 C 353.777344 567.679688 351.445312 566.59375 350.226562 564.550781 C 350.203125 564.503906 350.171875 564.453125 350.140625 564.40625 C 349.125 562.683594 349.125 560.445312 350.140625 558.738281 C 350.171875 558.6875 350.203125 558.640625 350.226562 558.59375 C 351.445312 556.53125 353.785156 555.460938 356.113281 555.765625 C 358.378906 556.070312 360.4375 557.730469 361.023438 560 C 361.078125 560.222656 361.140625 560.460938 361.214844 560.683594 Z M 427.359375 636.03125 C 427.449219 638.058594 425.578125 639.785156 423.617188 639.785156 C 421.515625 639.785156 419.960938 638.058594 419.875 636.03125 C 419.78125 634.019531 421.65625 632.292969 423.617188 632.292969 C 425.714844 632.292969 427.269531 634.003906 427.359375 636.03125 Z M 483.976562 586.929688 C 483.609375 587.808594 483.242188 588.671875 482.890625 589.546875 C 482.539062 590.394531 481.5 590.394531 481.152344 589.546875 C 480.789062 588.671875 480.433594 587.808594 480.070312 586.929688 C 479.5625 585.683594 480.820312 584.375 482.011719 584.375 C 483.210938 584.375 484.488281 585.683594 483.976562 586.929688 Z M 508.925781 415.1875 C 508.800781 415.234375 508.65625 415.296875 508.511719 415.363281 C 507.953125 415.539062 507.378906 415.585938 506.785156 415.664062 C 505.171875 415.871094 503.65625 414.101562 503.71875 412.582031 C 503.734375 411.832031 503.894531 411.175781 504.070312 410.503906 C 504.054688 409.867188 504.136719 409.277344 504.40625 408.605469 C 504.773438 407.757812 505.460938 406.734375 506.355469 406.335938 C 507.347656 405.90625 508.273438 405.632812 509.199219 405.585938 C 509.277344 405.539062 509.375 405.488281 509.453125 405.441406 C 510.652344 404.753906 512.089844 404.996094 513.082031 405.90625 C 514.085938 406.832031 514.101562 408.269531 513.589844 409.417969 C 513.671875 410.1875 513.574219 410.96875 513.335938 411.703125 C 512.714844 413.554688 510.988281 415.203125 508.925781 415.1875 Z M 486.4375 331.503906 C 486.4375 331.46875 486.46875 331.4375 486.46875 331.421875 C 486.46875 331.4375 486.453125 331.46875 486.4375 331.503906 Z M 486.246094 331.742188 C 486.164062 331.835938 486.117188 331.886719 486.246094 331.742188 Z M 486.355469 325.480469 C 484.808594 324.28125 482.875 324.554688 481.4375 325.769531 C 479.679688 327.238281 479.519531 329.808594 480.535156 331.726562 C 481.726562 333.996094 485.046875 333.800781 486.292969 331.726562 C 486.324219 331.695312 486.375 331.613281 486.40625 331.550781 C 486.757812 331.167969 487.011719 330.734375 487.316406 330.320312 C 488.417969 328.820312 487.714844 326.535156 486.355469 325.480469 Z M 533.125 290.324219 C 538.335938 290.324219 538.316406 298.40625 533.125 298.40625 C 527.902344 298.40625 527.917969 290.324219 533.125 290.324219 Z M 465.402344 250.039062 C 465.988281 250.886719 464.824219 252.050781 463.96875 251.476562 C 463.421875 251.09375 462.871094 250.710938 462.320312 250.34375 C 460.40625 249.015625 462.957031 246.492188 464.269531 248.394531 C 464.648438 248.9375 465.023438 249.496094 465.402344 250.039062 Z M 387.925781 263.394531 L 387.945312 263.34375 C 388.039062 263.105469 388.140625 262.882812 388.238281 262.65625 C 388.808594 261.394531 390.503906 260.964844 391.726562 261.238281 C 392.90625 261.507812 393.84375 261.921875 394.808594 262.65625 C 395.828125 263.441406 396.636719 264.832031 396.121094 266.140625 C 395.621094 267.371094 394.148438 267.882812 392.933594 267.847656 C 392.332031 267.832031 391.726562 267.832031 391.144531 267.671875 C 390.53125 267.480469 389.9375 267.164062 389.347656 266.890625 C 388.171875 266.332031 387.535156 264.589844 387.925781 263.394531 Z M 408.574219 178.0625 C 407.164062 175.5 408.921875 172.207031 411.9375 172.207031 C 414.949219 172.207031 416.703125 175.5 415.300781 178.0625 C 415.125 178.382812 414.902344 178.6875 414.644531 178.96875 C 414.484375 179.3125 414.296875 179.644531 414.027344 179.949219 C 413.726562 180.285156 413.339844 180.527344 412.953125 180.765625 C 412.347656 181.132812 411.523438 181.132812 410.914062 180.765625 C 410.527344 180.527344 410.160156 180.273438 409.839844 179.949219 C 409.558594 179.652344 409.359375 179.308594 409.203125 178.9375 C 408.953125 178.664062 408.742188 178.371094 408.574219 178.0625 Z M 528.734375 189.964844 C 525.9375 189.964844 525.9375 185.609375 528.734375 185.609375 C 531.546875 185.609375 531.53125 189.964844 528.734375 189.964844 Z M 435.671875 127.898438 C 435.882812 128.742188 435.746094 129.441406 435.628906 130.277344 C 435.484375 131.285156 434.285156 132.484375 433.269531 132.628906 C 432.441406 132.746094 431.742188 132.882812 430.890625 132.671875 C 430.574219 132.59375 430.285156 132.480469 429.980469 132.355469 C 429.332031 132.097656 428.691406 131.84375 428.042969 131.585938 C 426.261719 130.875 424.867188 129.808594 424.328125 127.875 C 423.824219 126.039062 424.359375 124.035156 425.695312 122.703125 C 427.035156 121.359375 429.039062 120.828125 430.867188 121.335938 C 432.808594 121.867188 433.875 123.269531 434.582031 125.046875 C 434.84375 125.691406 435.097656 126.339844 435.355469 126.980469 C 435.472656 127.289062 435.589844 127.582031 435.671875 127.898438 Z M 519.085938 128.25 C 517.839844 127.960938 517.105469 126.894531 516.675781 125.777344 C 516.324219 124.875 516.722656 124.125 517.074219 123.300781 C 517.601562 122.085938 519.230469 121.527344 520.429688 121.691406 C 521.738281 121.867188 522.871094 122.808594 523.222656 124.105469 C 523.925781 126.644531 521.53125 128.804688 519.085938 128.25 Z M 616.683594 199.164062 C 617.847656 200.96875 617.320312 203.398438 615.949219 204.898438 C 614.574219 206.382812 611.890625 206.734375 610.195312 205.632812 C 610.039062 205.539062 609.878906 205.425781 609.71875 205.332031 C 607.113281 203.621094 606.476562 199.964844 608.742188 197.695312 C 611.027344 195.410156 614.667969 196.082031 616.363281 198.6875 C 616.476562 198.84375 616.585938 199.003906 616.683594 199.164062 Z M 635.5625 136.679688 C 635.660156 137.789062 635.402344 138.652344 634.8125 139.398438 C 634.84375 139.367188 634.875 139.335938 634.90625 139.304688 C 634.667969 139.746094 634.476562 140.234375 634.285156 140.695312 C 633.679688 142.121094 631.136719 142.121094 630.53125 140.695312 C 630.339844 140.234375 630.148438 139.746094 629.90625 139.304688 C 629.941406 139.335938 629.972656 139.367188 630.003906 139.398438 C 629.429688 138.652344 629.15625 137.789062 629.269531 136.679688 C 629.445312 134.917969 630.5625 133.613281 632.414062 133.535156 C 634.222656 133.453125 635.386719 135.050781 635.5625 136.679688 Z M 583.792969 102.355469 C 582.898438 101.625 582.835938 100.054688 583.378906 99.125 C 583.859375 98.304688 584.753906 97.84375 585.695312 97.800781 C 586.75 97.75 587.722656 98.503906 588.121094 99.441406 C 588.503906 100.34375 588.394531 101.695312 587.578125 102.355469 C 587.355469 102.527344 587.195312 102.746094 587.003906 102.960938 C 586.398438 103.683594 584.976562 103.691406 584.367188 102.960938 C 584.175781 102.746094 584.015625 102.527344 583.792969 102.355469 Z M 661.34375 100.175781 C 661.230469 97.667969 663.5625 95.535156 665.992188 95.535156 C 668.59375 95.535156 670.527344 97.664062 670.640625 100.175781 C 670.75 102.683594 668.417969 104.820312 665.992188 104.820312 C 663.386719 104.820312 661.457031 102.691406 661.34375 100.175781 Z M 695.238281 177.273438 C 696.019531 176.394531 697.507812 176.105469 698.671875 176.105469 C 699.648438 176.105469 700.71875 176.492188 701.675781 176.710938 C 703.960938 177.242188 703.960938 180.804688 701.675781 181.335938 C 700.71875 181.554688 699.648438 181.933594 698.671875 181.933594 C 697.507812 181.933594 696.019531 181.652344 695.238281 180.773438 C 694.3125 179.71875 694.3125 178.320312 695.238281 177.273438 Z M 757.980469 131.664062 C 760.679688 131.664062 760.679688 135.855469 757.980469 135.855469 C 755.28125 135.855469 755.28125 131.664062 757.980469 131.664062 Z M 857.269531 82.269531 C 855.640625 83.007812 854.125 83.785156 852.367188 84.128906 C 850.671875 84.460938 848.964844 84.789062 847.253906 85.113281 C 845.625 85.433594 844.859375 83.460938 846.167969 82.519531 C 847.574219 81.5 848.996094 80.492188 850.417969 79.476562 C 851.855469 78.4375 853.484375 77.871094 855.128906 77.203125 C 858.050781 76.023438 860.082031 80.972656 857.269531 82.269531 Z M 802.449219 154.199219 C 802.355469 152.425781 803.761719 150.816406 805.390625 150.335938 C 805.757812 150.226562 806.109375 150.117188 806.476562 150.011719 C 809.175781 149.207031 811.96875 151.433594 811.96875 154.199219 C 811.96875 156.96875 809.191406 159.195312 806.476562 158.386719 C 806.109375 158.28125 805.757812 158.171875 805.390625 158.066406 C 803.632812 157.550781 802.53125 155.996094 802.449219 154.199219 Z M 851.933594 157.132812 C 852.972656 158.585938 851.582031 160.574219 849.96875 160.574219 C 848.339844 160.574219 846.953125 158.585938 847.988281 157.132812 C 848.179688 156.855469 848.324219 156.550781 848.484375 156.25 C 849.042969 155.128906 850.878906 155.128906 851.457031 156.25 C 851.597656 156.550781 851.742188 156.855469 851.933594 157.132812 Z M 886.4375 179.613281 C 886.660156 179.25 886.867188 178.886719 887.09375 178.53125 C 887.460938 177.902344 888.386719 177.902344 888.769531 178.53125 C 888.992188 178.886719 889.199219 179.25 889.40625 179.613281 C 890.078125 180.734375 889.214844 182.203125 887.921875 182.203125 C 886.628906 182.203125 885.765625 180.734375 886.4375 179.613281 Z M 999.464844 101.144531 C 999.382812 101.183594 999.304688 101.210938 999.222656 101.25 C 998.105469 102.921875 995.34375 102.324219 995.34375 100.175781 C 995.34375 98.039062 998.105469 97.4375 999.222656 99.105469 C 999.304688 99.132812 999.382812 99.171875 999.464844 99.203125 C 1000.199219 99.539062 1000.199219 100.8125 999.464844 101.144531 Z M 951.433594 211.863281 C 951.75 211.464844 952.582031 211.449219 952.902344 211.863281 C 953.492188 212.582031 953.683594 213.125 953.589844 214.066406 C 953.414062 215.890625 950.9375 215.890625 950.746094 214.066406 C 950.648438 213.125 950.855469 212.582031 951.433594 211.863281 Z M 1076.773438 272.960938 C 1075.273438 274.476562 1072.746094 273.726562 1072.140625 271.746094 C 1071.964844 271.171875 1071.789062 270.597656 1071.628906 270.023438 C 1071.230469 268.726562 1072.539062 267.417969 1073.835938 267.816406 L 1075.558594 268.34375 C 1077.539062 268.9375 1078.273438 271.460938 1076.773438 272.960938 Z M 1009.109375 309.683594 C 1006.316406 309.683594 1006.316406 305.339844 1009.109375 305.339844 C 1011.921875 305.339844 1011.90625 309.683594 1009.109375 309.683594 Z M 960.21875 490.101562 C 959.65625 489.03125 959.867188 487.398438 961.0625 486.824219 C 961.8125 486.472656 962.40625 486.3125 963.125 486.3125 C 963.761719 486.089844 964.449219 486.042969 965.058594 486.265625 C 965.886719 486.554688 966.621094 486.921875 967.308594 487.464844 C 967.898438 487.910156 968.300781 488.550781 968.730469 489.140625 C 969.671875 490.453125 968.652344 492.257812 967.292969 492.671875 C 965.953125 493.070312 964.625 493.230469 963.269531 492.785156 C 962.582031 492.558594 961.863281 492.082031 961.382812 491.441406 C 960.917969 491.089844 960.519531 490.691406 960.21875 490.101562 Z M 1041.136719 535.976562 C 1041.617188 537.8125 1040.226562 539.664062 1038.308594 539.664062 C 1036.410156 539.664062 1035.019531 537.8125 1035.5 535.976562 C 1035.800781 534.839844 1036.152344 533.914062 1036.761719 532.925781 C 1037.480469 531.757812 1039.15625 531.757812 1039.875 532.925781 C 1040.480469 533.914062 1040.847656 534.839844 1041.136719 535.976562 Z M 971.160156 544.058594 C 971.222656 545.511719 969.753906 547.140625 968.234375 546.964844 C 967.835938 546.933594 967.453125 546.882812 967.070312 546.835938 C 965.503906 546.675781 964.355469 545.703125 964.273438 544.058594 C 964.195312 542.429688 965.617188 541.40625 967.070312 541.261719 C 967.453125 541.214844 967.835938 541.167969 968.234375 541.132812 C 969.847656 540.941406 971.078125 542.605469 971.160156 544.058594 Z M 1026.632812 609.417969 C 1021.425781 609.417969 1021.425781 601.320312 1026.632812 601.320312 C 1031.839844 601.320312 1031.839844 609.417969 1026.632812 609.417969 Z M 925.027344 582.007812 C 925.109375 583.910156 923.351562 585.523438 921.515625 585.523438 C 919.535156 585.523438 918.078125 583.910156 918 582.007812 C 917.902344 580.109375 919.660156 578.480469 921.515625 578.480469 C 923.480469 578.480469 924.949219 580.109375 925.027344 582.007812 Z M 893.753906 660.453125 C 893.527344 660.339844 893.289062 660.230469 893.050781 660.117188 C 891.933594 659.558594 891.613281 658.746094 891.738281 657.929688 C 891.613281 657.132812 891.933594 656.316406 893.050781 655.757812 C 893.289062 655.644531 893.527344 655.535156 893.753906 655.40625 C 899.246094 652.707031 899.246094 663.167969 893.753906 660.453125 Z M 780.773438 735.273438 C 780.742188 735.832031 780.742188 736.390625 780.535156 736.902344 C 780.136719 737.957031 779.496094 738.785156 778.347656 739.105469 C 777.261719 739.410156 776.078125 739.089844 775.296875 738.289062 C 773.585938 736.597656 774.417969 733.707031 776.667969 733.035156 C 777.246094 732.875 777.804688 732.859375 778.378906 732.875 C 779.625 732.921875 780.839844 733.945312 780.773438 735.273438 Z M 845.402344 671.808594 C 845.066406 672.050781 844.714844 672.289062 844.363281 672.527344 C 843.375 673.214844 842.175781 673.074219 841.183594 672.578125 C 839.828125 672.097656 838.726562 671.171875 838.660156 669.605469 C 838.582031 668.089844 839.875 667.128906 841.167969 666.652344 C 842.175781 666.15625 843.359375 665.996094 844.363281 666.699219 C 844.714844 666.9375 845.066406 667.179688 845.402344 667.417969 C 847.046875 668.550781 847.046875 670.691406 845.402344 671.808594 Z M 891.738281 763.066406 C 891.738281 764.039062 891.324219 765.0625 890.621094 765.765625 C 889.902344 766.484375 888.929688 766.835938 887.921875 766.882812 C 886.515625 766.945312 885.398438 766.085938 884.632812 764.996094 C 883.914062 763.960938 883.324219 762.921875 883.464844 761.59375 C 883.65625 759.839844 884.710938 758.800781 886.46875 758.609375 C 887.792969 758.464844 888.816406 759.039062 889.855469 759.757812 C 890.988281 760.558594 891.738281 761.628906 891.738281 763.066406 Z M 324.742188 426.496094 C 323.992188 426.878906 323.394531 427.308594 322.527344 427.007812 C 321.320312 426.589844 321.320312 424.976562 322.527344 424.546875 C 323.394531 424.242188 323.992188 424.691406 324.742188 425.074219 C 325.277344 425.34375 325.277344 426.222656 324.742188 426.496094 Z M 349.96875 387.824219 C 350.0625 389.835938 348.183594 391.5625 346.222656 391.5625 C 344.128906 391.5625 342.574219 389.851562 342.480469 387.824219 C 342.394531 385.796875 344.265625 384.070312 346.222656 384.070312 C 348.328125 384.070312 349.878906 385.796875 349.96875 387.824219 Z M 367.625 448.714844 C 367.386719 449.75 366.183594 450.726562 365.097656 450.628906 C 363.839844 450.519531 362.410156 450.582031 361.375 449.785156 C 360.675781 449.242188 360.152344 448.363281 359.605469 447.660156 C 358.902344 446.765625 359.054688 445.375 360.300781 445.023438 C 361.125 444.800781 361.964844 444.511719 362.816406 444.382812 C 364.199219 444.210938 365.304688 445.054688 366.421875 445.757812 C 367.4375 446.382812 367.886719 447.546875 367.625 448.714844 Z M 417.085938 543.355469 C 416.378906 542.585938 415.675781 541.835938 414.96875 541.070312 C 414.464844 540.527344 414.320312 539.792969 414.597656 539.121094 C 414.832031 538.53125 415.558594 537.921875 416.238281 538.003906 C 417.210938 538.132812 418.175781 538.242188 419.152344 538.371094 C 420.207031 538.5 421.105469 538.832031 421.671875 539.808594 C 422.148438 540.621094 422.175781 541.566406 421.816406 542.410156 C 421.046875 544.234375 418.5 544.871094 417.085938 543.355469 Z M 534.574219 679.351562 C 529.558594 679.351562 529.558594 671.554688 534.574219 671.554688 C 539.589844 671.554688 539.589844 679.351562 534.574219 679.351562 Z M 460.027344 687.511719 C 459.941406 688.101562 459.738281 688.679688 459.578125 689.253906 C 459.066406 691.042969 456.769531 691.664062 455.445312 690.339844 C 454.125 689.011719 454.753906 686.730469 456.539062 686.21875 C 457.105469 686.042969 457.6875 685.851562 458.273438 685.753906 C 459.421875 685.59375 460.1875 686.363281 460.027344 687.511719 Z M 521.652344 648.503906 C 520.984375 648.617188 520.390625 648.777344 519.71875 648.648438 C 518.792969 648.472656 518.792969 646.957031 519.71875 646.78125 C 520.390625 646.652344 520.984375 646.796875 521.652344 646.925781 C 522.4375 647.050781 522.4375 648.363281 521.652344 648.503906 Z M 515.773438 695.164062 C 515.949219 696.21875 515.296875 697.304688 514.128906 697.304688 C 512.964844 697.304688 512.324219 696.21875 512.5 695.164062 C 512.566406 694.78125 512.628906 694.414062 512.691406 694.046875 C 512.933594 692.605469 515.34375 692.605469 515.582031 694.046875 C 515.648438 694.414062 515.710938 694.78125 515.773438 695.164062 Z M 761.777344 435.183594 C 755.4375 432.933594 749.460938 430.265625 743.839844 426.910156 C 743.9375 426.765625 744.03125 426.621094 744.144531 426.480469 C 744.429688 426.304688 744.703125 426.128906 744.988281 425.953125 C 750.917969 427.164062 756.96875 428.460938 763.121094 429.59375 C 767.273438 431.621094 771.472656 433.492188 775.738281 435.121094 C 776.027344 435.503906 776.28125 435.917969 776.570312 436.300781 C 777.304688 437.277344 778.070312 438.28125 778.851562 439.289062 C 773.132812 438.105469 767.367188 437.179688 761.777344 435.183594 Z M 757.785156 442.789062 L 757.542969 442.644531 C 752.769531 439.625 748.359375 436.046875 744.335938 432.101562 C 750.070312 436.367188 756.378906 440.230469 762.960938 443.042969 C 761.234375 442.964844 759.507812 442.882812 757.785156 442.789062 Z M 746.570312 441.84375 C 746.554688 441.8125 746.539062 441.78125 746.507812 441.75 C 746.554688 441.78125 746.585938 441.8125 746.621094 441.859375 C 746.601562 441.84375 746.585938 441.84375 746.570312 441.84375 Z M 743.3125 420.457031 C 743.21875 420.410156 743.136719 420.34375 743.042969 420.296875 C 743.28125 420.25 743.503906 420.21875 743.742188 420.167969 Z M 739.480469 413.476562 C 739.511719 413.078125 739.542969 412.679688 739.589844 412.261719 C 741.15625 410.824219 742.722656 409.371094 744.304688 407.933594 C 747.882812 407.261719 751.460938 406.59375 755.039062 405.890625 C 752.738281 408.796875 750.53125 411.765625 748.410156 414.800781 C 746.21875 414.738281 744.015625 414.609375 741.8125 414.449219 C 741.027344 414.132812 740.261719 413.796875 739.480469 413.476562 Z M 739.863281 422.742188 C 739.847656 422.535156 739.816406 422.339844 739.796875 422.148438 C 739.734375 421.605469 739.496094 421.222656 739.160156 420.9375 C 739.273438 420.921875 739.367188 420.902344 739.480469 420.886719 C 740.023438 421.222656 740.597656 421.542969 741.171875 421.863281 C 740.742188 422.148438 740.292969 422.453125 739.863281 422.742188 Z M 739.320312 449.480469 C 738.902344 447.929688 738.503906 446.367188 738.105469 444.800781 C 738.394531 445.3125 738.679688 445.820312 738.984375 446.332031 C 739.175781 447.5625 739.382812 448.777344 739.605469 450.007812 Z M 738.730469 416.65625 C 738.730469 416.75 738.710938 416.832031 738.710938 416.925781 C 738.585938 416.816406 738.472656 416.703125 738.34375 416.589844 C 738.472656 416.605469 738.601562 416.640625 738.726562 416.65625 Z M 738.648438 413.140625 C 738.777344 413.011719 738.902344 412.902344 739.03125 412.789062 L 738.984375 413.269531 C 738.871094 413.238281 738.761719 413.1875 738.648438 413.140625 Z M 739.71875 416.816406 C 739.527344 416.847656 739.335938 416.878906 739.144531 416.910156 C 739.160156 416.847656 739.160156 416.78125 739.175781 416.71875 C 739.351562 416.75 739.527344 416.78125 739.71875 416.816406 Z M 736.460938 412.230469 C 736.414062 411.992188 736.332031 411.734375 736.269531 411.480469 C 736.941406 410.664062 737.625 409.867188 738.296875 409.066406 C 738.664062 408.988281 739.015625 408.925781 739.382812 408.859375 C 739.320312 409.417969 739.273438 409.996094 739.222656 410.554688 C 738.585938 411.222656 737.945312 411.894531 737.289062 412.582031 C 737.019531 412.46875 736.746094 412.359375 736.460938 412.230469 Z M 735.835938 421.398438 C 735.996094 421.382812 736.15625 421.367188 736.316406 421.335938 C 736.269531 421.445312 736.269531 421.589844 736.238281 421.71875 C 736.109375 421.621094 735.980469 421.511719 735.835938 421.398438 Z M 736.746094 433.410156 C 736.429688 432.851562 736.09375 432.308594 735.789062 431.75 C 736.1875 431.476562 736.589844 431.222656 736.988281 430.96875 C 737.050781 431.527344 737.117188 432.101562 737.179688 432.675781 C 737.035156 432.914062 736.890625 433.171875 736.746094 433.410156 Z M 735.039062 406.449219 C 735.214844 405.632812 735.390625 404.820312 735.582031 404.035156 C 737.164062 403 738.746094 401.976562 740.324219 400.953125 C 740.261719 401.433594 740.199219 401.929688 740.132812 402.40625 C 739.097656 403.667969 738.089844 404.980469 737.066406 406.257812 C 736.414062 406.480469 735.773438 406.6875 735.132812 406.894531 C 735.101562 406.75 735.070312 406.59375 735.039062 406.449219 Z M 734.03125 426.71875 C 733.871094 425.886719 733.695312 425.042969 733.554688 424.195312 C 733.9375 424.882812 734.335938 425.550781 734.734375 426.222656 C 734.496094 426.398438 734.273438 426.558594 734.03125 426.71875 Z M 732.660156 417.820312 C 732.53125 417.519531 732.417969 417.214844 732.308594 416.878906 C 732.722656 416.816406 733.074219 416.542969 733.136719 416.0625 C 733.136719 416.046875 733.152344 416.03125 733.152344 416.03125 C 733.3125 416.175781 733.472656 416.335938 733.632812 416.496094 C 733.808594 416.878906 734 417.261719 734.175781 417.644531 C 733.679688 417.726562 733.1875 417.773438 732.691406 417.835938 C 732.675781 417.835938 732.675781 417.820312 732.660156 417.820312 Z M 743.792969 381.722656 C 742.546875 387.214844 741.523438 392.757812 740.691406 398.351562 C 739.207031 399.5 737.707031 400.667969 736.222656 401.800781 C 738.167969 394.789062 740.710938 388.09375 743.792969 381.722656 Z M 741.125 408.539062 C 740.691406 408.988281 740.246094 409.453125 739.816406 409.914062 C 739.863281 409.53125 739.910156 409.148438 739.957031 408.75 C 740.339844 408.683594 740.742188 408.605469 741.125 408.539062 Z M 742.578125 399.5 C 742.035156 400.140625 741.492188 400.777344 740.949219 401.433594 C 740.996094 401.113281 741.027344 400.777344 741.09375 400.457031 Z M 753.375 392.488281 C 755.738281 390.921875 758.105469 389.355469 760.453125 387.777344 C 755.613281 392.886719 750.835938 398.078125 746.042969 403.253906 C 744.734375 403.699219 743.425781 404.132812 742.113281 404.578125 C 745.742188 400.425781 749.511719 396.417969 753.375 392.488281 Z M 754.542969 425.167969 C 753.039062 425.074219 751.539062 424.960938 750.039062 424.816406 C 750.179688 424.515625 750.132812 424.113281 749.75 423.9375 C 749.476562 423.828125 749.222656 423.699219 748.953125 423.570312 C 749.382812 423.316406 749.828125 423.058594 750.277344 422.804688 C 751.683594 423.605469 753.105469 424.402344 754.542969 425.167969 Z M 757 418.988281 C 760.46875 419.289062 763.949219 419.484375 767.433594 419.578125 C 767.449219 419.867188 767.496094 420.136719 767.625 420.441406 C 768.246094 421.925781 768.917969 423.394531 769.621094 424.832031 C 765.003906 423.09375 760.355469 421.398438 755.707031 419.707031 Z M 727.929688 438.28125 C 728.027344 438.140625 728.136719 438.011719 728.234375 437.867188 C 728.28125 438.042969 728.347656 438.234375 728.410156 438.410156 C 728.25 438.378906 728.089844 438.332031 727.929688 438.28125 Z M 724.257812 433.539062 C 724.449219 432.390625 724.65625 431.253906 724.863281 430.105469 C 724.976562 429.992188 725.085938 429.863281 725.199219 429.738281 C 725.519531 429.992188 725.839844 430.230469 726.171875 430.472656 C 726.285156 430.953125 726.398438 431.445312 726.542969 431.941406 C 725.773438 432.484375 725.007812 433.011719 724.257812 433.539062 Z M 724.734375 407.855469 C 724.945312 407.695312 725.101562 407.519531 725.230469 407.328125 C 725.34375 407.3125 725.472656 407.292969 725.597656 407.277344 C 725.664062 407.964844 725.710938 408.652344 725.773438 409.339844 C 725.566406 409.59375 725.390625 409.851562 725.199219 410.105469 C 725.054688 410.136719 724.894531 410.1875 724.734375 410.25 C 724.59375 410.136719 724.449219 410.027344 724.289062 409.914062 C 724.191406 409.417969 724.097656 408.90625 724.035156 408.382812 C 724.257812 408.207031 724.496094 408.03125 724.734375 407.855469 Z M 723.410156 439.578125 C 723.425781 439.527344 723.425781 439.480469 723.425781 439.433594 L 723.523438 439.433594 C 723.472656 439.480469 723.441406 439.542969 723.410156 439.578125 Z M 720.183594 419.738281 C 719.914062 419.449219 719.65625 419.148438 719.402344 418.859375 C 719.480469 418.539062 719.578125 418.203125 719.65625 417.886719 C 720.039062 417.949219 720.421875 418.011719 720.808594 418.0625 C 720.582031 418.621094 720.375 419.179688 720.183594 419.738281 Z M 717.53125 429.640625 C 717.5 429.671875 717.46875 429.722656 717.421875 429.769531 C 717.035156 429.898438 716.652344 430.058594 716.269531 430.183594 C 716.84375 428.15625 717.421875 426.128906 717.996094 424.082031 C 718.21875 424.257812 718.441406 424.449219 718.667969 424.640625 C 718.234375 426.285156 717.867188 427.964844 717.53125 429.640625 Z M 715.617188 443.664062 C 715.3125 446.605469 715.039062 449.542969 714.800781 452.484375 C 711.957031 457.019531 709.273438 461.652344 706.8125 466.378906 C 708.027344 462.003906 709.195312 457.59375 710.328125 453.1875 C 711.925781 449.574219 713.699219 446.078125 715.726562 442.691406 C 715.695312 443.011719 715.664062 443.347656 715.617188 443.664062 Z M 704.53125 435.121094 C 703.1875 435.773438 701.847656 436.445312 700.503906 437.148438 C 701.304688 435.789062 702.117188 434.449219 702.980469 433.125 C 703.90625 432.5 704.882812 431.925781 705.871094 431.367188 C 705.410156 432.613281 704.945312 433.859375 704.53125 435.121094 Z M 707.070312 399.226562 C 706.144531 399.628906 705.21875 400.042969 704.289062 400.457031 C 704.195312 400.316406 704.097656 400.1875 703.988281 400.042969 C 703.492188 399.386719 703.011719 398.703125 702.535156 398.015625 C 704.050781 398.382812 705.550781 398.78125 707.070312 399.226562 Z M 699.578125 393.621094 C 697.277344 390.027344 695.058594 386.339844 692.679688 382.792969 C 694.433594 383.75 696.222656 384.660156 698.046875 385.507812 C 700.058594 388.988281 702.359375 392.28125 704.898438 395.394531 C 703.15625 394.773438 701.382812 394.179688 699.578125 393.621094 Z M 671.671875 393.144531 C 678.429688 393.894531 685.074219 394.644531 691.65625 395.761719 C 693.1875 397.839844 694.769531 399.882812 696.367188 401.863281 C 687.855469 399.660156 679.722656 396.609375 671.671875 393.144531 Z M 714.960938 409.898438 C 714.898438 409.945312 714.816406 409.996094 714.738281 410.042969 C 714.144531 409.820312 713.539062 409.59375 712.949219 409.371094 C 713.410156 409.292969 713.875 409.195312 714.355469 409.117188 C 714.546875 409.371094 714.753906 409.644531 714.960938 409.898438 Z M 714.433594 391.273438 C 714.5625 392.871094 714.738281 394.46875 714.929688 396.082031 C 714.320312 396.304688 713.699219 396.527344 713.089844 396.769531 C 712.019531 394.5625 711 392.3125 710.007812 390.027344 C 711.476562 390.476562 712.949219 390.890625 714.433594 391.273438 Z M 715.535156 400.554688 C 715.566406 400.839844 715.597656 401.113281 715.648438 401.402344 C 715.503906 401.175781 715.359375 400.953125 715.214844 400.714844 C 715.328125 400.667969 715.421875 400.617188 715.535156 400.554688 Z M 811.007812 428.507812 C 799.953125 426.71875 788.742188 426.320312 777.480469 426.03125 C 776.25 423.953125 775.148438 421.796875 774.125 419.609375 C 785.546875 419.402344 796.839844 417.820312 807.285156 413.988281 C 808.53125 413.523438 808.46875 411.414062 806.949219 411.511719 C 793.308594 412.34375 780.113281 413.875 766.824219 414.546875 C 767.527344 414.324219 768.230469 414.132812 768.917969 413.890625 C 778.421875 410.761719 789.460938 407.121094 798.164062 401.417969 C 799.105469 401.144531 800.050781 400.839844 801.007812 400.570312 C 801.964844 400.296875 802.351562 399.324219 802.238281 398.460938 C 802.414062 398.316406 802.605469 398.191406 802.78125 398.046875 C 803.945312 397.070312 802.71875 395.011719 801.296875 395.492188 C 799.394531 396.128906 797.527344 396.863281 795.671875 397.632812 C 780.785156 399.882812 766.855469 406.191406 753.679688 413.972656 C 753.566406 414.003906 753.441406 414.019531 753.328125 414.050781 C 755.949219 410.824219 758.648438 407.664062 761.441406 404.59375 C 773.292969 402.105469 785.003906 399.117188 795.945312 394.691406 C 797.957031 393.878906 798.003906 390.125 795.371094 390.460938 C 786.761719 391.546875 778.167969 393.492188 769.636719 395.875 C 775.066406 390.332031 780.707031 384.882812 786.488281 379.34375 C 787.429688 378.429688 786.183594 376.769531 785.066406 377.503906 C 776.394531 383.160156 768.535156 390.316406 761.425781 398.285156 C 758.105469 399.308594 754.78125 400.363281 751.476562 401.464844 C 756.792969 396.671875 762.097656 391.914062 767.304688 387.023438 C 777.082031 377.839844 787.078125 368.6875 798.722656 361.898438 C 800.097656 361.101562 799.1875 358.753906 797.605469 359.28125 C 796.855469 359.519531 796.136719 359.824219 795.402344 360.09375 C 795.945312 359.566406 796.503906 359.023438 797.03125 358.480469 C 797.941406 357.554688 796.757812 355.941406 795.609375 356.644531 C 795.175781 356.914062 794.761719 357.203125 794.332031 357.476562 C 795.753906 356.230469 797.160156 354.949219 798.53125 353.640625 C 799.761719 352.492188 798.277344 350.796875 796.886719 351.355469 C 800.671875 348.800781 804.234375 346.007812 807.492188 342.859375 C 809.839844 340.589844 806.871094 337.429688 804.21875 338.625 C 787.046875 346.324219 771.601562 357.363281 754.269531 364.980469 C 751.394531 366.242188 753.441406 371.148438 756.410156 370.078125 C 766.136719 366.578125 776.328125 362.761719 785.816406 357.859375 C 777.113281 363.910156 769.238281 371.453125 761.808594 378.671875 C 757.800781 382.570312 753.96875 386.625 750.214844 390.746094 C 747.339844 393.078125 744.445312 395.394531 741.554688 397.664062 C 742.625 391.160156 743.953125 384.691406 745.53125 378.304688 C 754.238281 361.691406 766.554688 347.140625 781.25 334.058594 C 782.253906 333.179688 780.960938 331.519531 779.828125 332.222656 C 767.847656 339.664062 757.992188 349.855469 750.261719 361.546875 C 752.355469 355.0625 754.667969 348.640625 757.257812 342.316406 C 757.371094 342.042969 756.890625 341.835938 756.761719 342.109375 C 753.566406 349.441406 750.820312 356.851562 748.457031 364.375 C 741.652344 375.363281 736.714844 387.585938 733.664062 400.121094 C 733.410156 398.878906 733.167969 397.617188 732.929688 396.371094 C 733.027344 395.714844 733.105469 395.074219 733.167969 394.484375 C 734.082031 385.699219 735.328125 376.882812 736.890625 368.175781 C 739.65625 352.683594 744.289062 337.765625 748.199219 322.558594 C 748.664062 320.753906 745.882812 319.394531 745.085938 321.230469 C 737.339844 338.992188 733.3125 358.527344 730.835938 377.695312 C 730.679688 378.957031 730.550781 380.21875 730.40625 381.480469 C 728.871094 371.59375 727.5 361.644531 725.644531 351.722656 C 725.34375 350.09375 722.628906 350.078125 722.339844 351.722656 C 719.878906 365.492188 721.332031 379.4375 724.992188 392.886719 C 724.402344 391.976562 723.792969 391.066406 723.21875 390.15625 C 722.898438 389.070312 722.613281 388 722.324219 386.898438 C 722.277344 386.320312 722.210938 385.746094 722.179688 385.15625 C 721.558594 375.84375 720.855469 366.515625 720.628906 357.1875 C 720.582031 354.757812 716.667969 353.992188 716.222656 356.582031 C 716.109375 357.234375 716.015625 357.875 715.917969 358.511719 C 715.457031 358.625 715.039062 358.976562 715.054688 359.535156 C 715.070312 360.878906 715.121094 362.25 715.183594 363.640625 C 714.753906 366.945312 714.433594 370.238281 714.242188 373.542969 C 709.800781 364.136719 706.078125 354.3125 702.246094 344.167969 C 701.589844 342.445312 699.082031 343.097656 699.464844 344.9375 C 702.359375 358.929688 706.285156 374.535156 713.890625 387.457031 C 711.894531 386.785156 709.929688 386.082031 707.996094 385.285156 C 704.417969 376.753906 700.984375 368.144531 696.382812 360.703125 C 695.554688 358.527344 694.738281 356.339844 693.90625 354.152344 C 693.398438 352.746094 690.9375 352.792969 691.082031 354.535156 C 691.558594 360.238281 692.644531 365.71875 694.242188 370.988281 C 693.8125 370.03125 693.398438 369.070312 692.980469 368.097656 C 692.519531 366.960938 690.746094 367.347656 691.082031 368.625 C 691.960938 371.976562 693.09375 375.222656 694.449219 378.335938 C 691.351562 376.386719 688.363281 374.261719 685.523438 371.882812 C 678.558594 366.085938 673.589844 356.835938 666.066406 352.1875 C 664.628906 351.292969 663.160156 352.761719 663.414062 354.214844 C 664.996094 362.730469 674.386719 370.398438 681.527344 375.636719 C 682.757812 380.921875 685.171875 385.90625 688.140625 390.601562 C 680.28125 388.988281 672.265625 388.304688 664.390625 389.230469 C 664.070312 389.261719 663.8125 389.390625 663.605469 389.53125 C 662.007812 388.78125 660.394531 388.046875 658.796875 387.28125 C 657.441406 386.65625 655.652344 388.480469 657.042969 389.550781 C 660.523438 392.25 664.183594 394.582031 667.96875 396.625 C 666.371094 397.664062 665.601562 400.089844 667.296875 401.496094 C 671.226562 404.769531 675.90625 406.925781 680.808594 408.621094 C 678.125 409.707031 675.554688 410.953125 673.175781 412.421875 C 672.34375 412.933594 672.054688 413.796875 672.152344 414.609375 C 668.605469 416.015625 665.171875 417.773438 661.945312 420.027344 C 660.269531 421.175781 660.667969 424.386719 663.078125 424.210938 C 666.019531 424.003906 668.925781 423.714844 671.832031 423.363281 C 668.75 426.878906 666.050781 430.679688 663.925781 434.832031 C 663.238281 436.191406 664.789062 438.28125 666.273438 437.164062 C 672.617188 432.355469 678.253906 426.8125 684.226562 421.605469 C 686.433594 421.253906 688.636719 420.921875 690.824219 420.570312 C 686.640625 423.1875 682.613281 426.144531 678.910156 429.402344 C 670.332031 433.746094 662.21875 439.195312 659.949219 449.082031 C 659.515625 451.011719 661.5 451.925781 662.855469 451.046875 C 662.839844 451.078125 662.824219 451.109375 662.808594 451.15625 C 661.929688 453.34375 665.21875 455.085938 666.722656 453.425781 C 672.917969 446.621094 678 439.128906 684.929688 432.980469 C 685.730469 432.292969 686.527344 431.621094 687.328125 430.96875 C 688.238281 430.457031 689.148438 429.976562 690.058594 429.496094 C 680.601562 438.859375 672.808594 449.65625 668.734375 461.636719 C 668.046875 463.648438 670.9375 465.359375 672.34375 463.726562 C 674.164062 461.636719 675.90625 459.449219 677.597656 457.242188 C 677.3125 458.328125 677.070312 459.414062 676.878906 460.519531 C 676.65625 461.9375 678.558594 462.992188 679.355469 461.554688 C 680.25 459.957031 681.128906 458.378906 682.039062 456.828125 C 682.328125 456.78125 682.613281 456.652344 682.933594 456.429688 C 683.492188 456.027344 684.066406 455.597656 684.613281 455.167969 C 683.015625 460.691406 682.214844 466.378906 682.613281 472.097656 C 682.742188 474.046875 685.3125 474.398438 685.96875 472.546875 C 689.339844 463.121094 692.277344 454.207031 696.113281 445.789062 C 697.34375 444.847656 698.589844 443.9375 699.898438 443.074219 C 700.824219 442.46875 701.78125 441.910156 702.726562 441.351562 C 701.144531 447.484375 700.21875 453.761719 700.074219 459.992188 C 697.46875 467.992188 696.253906 476.316406 697.039062 484.621094 C 697.199219 486.234375 699.609375 486.824219 700.042969 485.035156 C 700.28125 484.0625 700.519531 483.121094 700.777344 482.175781 C 701.289062 482.386719 701.957031 482.304688 702.261719 481.730469 C 702.644531 481.011719 703.027344 480.308594 703.410156 479.589844 C 704.128906 479.667969 704.914062 479.191406 704.945312 478.28125 C 704.976562 477.703125 705.007812 477.128906 705.023438 476.570312 C 708.042969 470.917969 711.109375 465.339844 714.273438 459.832031 C 713.507812 472.976562 713.714844 486.074219 716.175781 499.125 C 716.75 502.238281 721.316406 501.296875 721.476562 498.40625 C 721.621094 495.625 721.71875 492.863281 721.78125 490.082031 C 722.070312 490.132812 722.371094 489.972656 722.386719 489.605469 C 722.675781 474.925781 723.699219 460.535156 726.445312 446.09375 C 726.636719 445.070312 725.070312 444.640625 724.878906 445.664062 C 723.664062 452.292969 722.691406 458.96875 722.035156 465.660156 C 722.101562 460.214844 722.210938 454.765625 722.53125 449.320312 C 722.613281 448.136719 722.707031 447.003906 722.804688 445.855469 C 724 444 725.214844 442.164062 726.476562 440.34375 C 727.433594 440.726562 728.410156 441.09375 729.382812 441.460938 C 729.765625 442.597656 730.167969 443.714844 730.582031 444.832031 C 734.496094 464.605469 740.726562 483.949219 750.917969 500.785156 C 751.953125 502.496094 754.796875 501.394531 754.207031 499.394531 C 752.320312 493.085938 750.390625 486.839844 748.472656 480.613281 C 749.398438 482.71875 750.371094 484.796875 751.441406 486.808594 C 752.464844 488.726562 755.4375 487.398438 754.894531 485.355469 C 754.574219 484.09375 754.238281 482.863281 753.902344 481.617188 C 754.492188 482.160156 755.070312 482.734375 755.675781 483.261719 C 757.066406 484.476562 759.460938 482.929688 758.359375 481.203125 C 755.5625 476.859375 752.816406 472.578125 750.164062 468.296875 C 749.160156 464.832031 748.183594 461.378906 747.226562 457.914062 C 750.054688 461.1875 753.152344 464.191406 756.554688 466.777344 C 762.640625 475.898438 769.8125 484.109375 778.167969 490.324219 C 780.339844 491.9375 782.414062 488.597656 780.882812 486.792969 C 777.160156 482.367188 773.214844 478.214844 769.347656 474.03125 C 770.449219 474.445312 771.554688 474.863281 772.703125 475.195312 C 775.640625 476.105469 776.761719 472.210938 774.636719 470.597656 C 767.527344 465.183594 760.371094 460.292969 753.855469 454.496094 C 752.242188 451.972656 750.691406 449.417969 749.238281 446.828125 C 750.230469 446.988281 751.21875 447.117188 752.210938 447.226562 C 761.9375 455.710938 773.550781 461.492188 785.578125 460.582031 C 787.703125 460.421875 788.773438 457.546875 786.710938 456.378906 C 780.371094 452.820312 773.535156 450.453125 766.921875 447.53125 C 769.253906 447.324219 771.601562 446.988281 773.949219 446.523438 C 778.214844 447.417969 782.542969 447.738281 786.839844 447.277344 C 787.144531 447.242188 787.398438 447.164062 787.652344 447.066406 C 787.910156 447.179688 788.148438 447.324219 788.421875 447.4375 C 790.703125 448.347656 792.574219 445.34375 791.472656 443.472656 C 790.53125 441.84375 789.300781 440.390625 787.972656 438.984375 C 789.027344 439.242188 790.066406 439.496094 791.105469 439.71875 C 793.851562 440.296875 795.878906 436.367188 793.117188 434.945312 C 791.742188 434.242188 790.320312 433.585938 788.917969 432.933594 C 796.390625 433.316406 803.785156 433.074219 811.007812 431.8125 C 812.621094 431.527344 812.652344 428.777344 811.007812 428.507812 Z M 917.132812 135.097656 C 916.84375 134.765625 916.542969 134.441406 916.238281 134.109375 C 916.589844 133.933594 916.957031 133.765625 917.324219 133.601562 C 917.386719 133.609375 917.453125 133.625 917.53125 133.636719 C 917.613281 133.886719 917.707031 134.128906 917.789062 134.378906 C 917.5625 134.617188 917.355469 134.859375 917.132812 135.097656 Z M 916.683594 144.113281 C 916.527344 144.085938 916.351562 144.070312 916.175781 144.042969 C 916.335938 143.855469 916.476562 143.664062 916.621094 143.476562 C 916.667969 143.53125 916.71875 143.585938 916.765625 143.644531 C 916.734375 143.800781 916.71875 143.957031 916.683594 144.113281 Z M 910.3125 142.914062 C 907.980469 142.320312 905.664062 141.578125 903.394531 140.644531 C 906.015625 139.226562 908.652344 137.855469 911.285156 136.519531 C 911.972656 137.472656 912.660156 138.414062 913.363281 139.34375 C 912.324219 140.523438 911.320312 141.71875 910.3125 142.914062 Z M 930.855469 156.652344 C 935.5 159.800781 940.597656 162.226562 946.25 163.65625 C 948.3125 164.171875 949.574219 161.300781 947.707031 160.199219 C 941.523438 156.546875 935.917969 152.523438 930.710938 148.167969 C 937.816406 147.820312 944.78125 145.890625 951.011719 142.003906 C 951.9375 141.421875 951.347656 139.84375 950.246094 140.195312 C 942.304688 142.703125 934.367188 144.3125 926.589844 144.582031 C 926.316406 144.324219 926.03125 144.074219 925.742188 143.824219 C 925.980469 142.140625 926.222656 140.457031 926.460938 138.757812 C 926.621094 137.523438 926.796875 136.289062 926.972656 135.054688 C 932.945312 135.777344 938.96875 136.175781 945.023438 136.058594 C 946.570312 136.027344 947.066406 133.480469 945.40625 133.230469 C 939.464844 132.320312 933.503906 131.570312 927.546875 130.847656 C 927.578125 130.703125 927.59375 130.554688 927.609375 130.410156 C 928.121094 129.828125 928.632812 129.242188 929.144531 128.664062 C 931.925781 127.640625 934.734375 126.671875 937.640625 125.832031 C 940.644531 124.96875 939.367188 120.265625 936.363281 121.144531 C 936.109375 121.21875 935.871094 121.292969 935.644531 121.363281 C 938.265625 118.457031 940.902344 115.5625 943.585938 112.695312 C 945.164062 111.011719 942.65625 108.480469 941.042969 110.152344 C 937.019531 114.320312 932.820312 118.566406 928.601562 122.910156 C 928.890625 119.023438 929.066406 109.832031 930.566406 108.058594 C 932.371094 105.925781 930.710938 101.566406 927.5 102.808594 C 920.070312 105.691406 920.214844 119.117188 919.417969 127.003906 C 919.097656 127.128906 918.792969 127.261719 918.472656 127.390625 C 915.632812 119.484375 913.140625 111.449219 911.09375 103.21875 C 910.839844 102.203125 909.320312 102.640625 909.511719 103.648438 C 911.238281 112.046875 913.363281 120.339844 915.886719 128.496094 C 915.34375 128.734375 914.800781 128.96875 914.257812 129.210938 C 913.441406 129.113281 912.613281 129.007812 911.796875 128.902344 C 906.589844 122.554688 901.765625 115.761719 897.070312 108.515625 C 896.429688 107.550781 894.976562 108.398438 895.503906 109.425781 C 898.621094 115.441406 901.988281 121.84375 905.792969 128.082031 C 901.589844 127.488281 897.390625 126.835938 893.222656 126.066406 C 892.085938 125.863281 891.609375 127.488281 892.742188 127.808594 C 897.804688 129.21875 902.917969 130.53125 908.042969 131.695312 C 908.140625 131.832031 908.234375 131.976562 908.316406 132.121094 C 904.847656 133.933594 901.480469 135.945312 898.269531 138.148438 C 895.265625 136.5 892.34375 134.554688 889.5 132.183594 C 889.148438 131.882812 888.636719 132.375 888.988281 132.6875 C 891.496094 134.953125 894.257812 137.023438 897.199219 138.871094 C 894.386719 140.855469 891.6875 142.988281 889.148438 145.304688 C 887.917969 146.429688 889.5 148.347656 890.890625 147.5625 C 894.578125 145.511719 898.1875 143.476562 901.816406 141.503906 C 904.097656 142.683594 906.460938 143.738281 908.890625 144.628906 C 903.363281 151.375 898.316406 158.363281 894.242188 165.664062 C 893.363281 167.253906 895.472656 168.953125 896.800781 167.628906 C 903.269531 161.140625 908.714844 153.644531 914.371094 146.367188 C 914.992188 146.527344 915.648438 146.691406 916.285156 146.832031 C 915.105469 154.644531 914.210938 162.46875 914.226562 170.449219 C 914.242188 173.941406 919.226562 174.542969 920.246094 171.261719 C 922.226562 164.832031 923.507812 158.394531 924.542969 151.882812 C 925.839844 154.835938 927.179688 157.777344 928.601562 160.679688 C 929.6875 162.863281 932.945312 160.949219 931.875 158.769531 C 931.523438 158.070312 931.1875 157.359375 930.855469 156.652344 Z M 410.242188 373.695312 C 409.203125 373.777344 408.164062 373.839844 407.121094 373.921875 C 407.164062 386.011719 407.769531 398.121094 407.089844 410.179688 C 406.964844 412.382812 403.363281 413.152344 403.019531 410.722656 C 401.753906 401.792969 401.472656 392.800781 401.535156 383.792969 C 398.296875 391.171875 394.785156 398.40625 390.765625 405.308594 C 390.054688 406.523438 388.035156 405.707031 388.464844 404.332031 C 391.671875 394.207031 395.601562 384.320312 399.722656 374.480469 C 399.601562 374.480469 399.476562 374.496094 399.351562 374.496094 C 392.78125 380.117188 386.460938 386.058594 379.867188 392.019531 C 378.90625 392.898438 377.320312 391.777344 378.03125 390.613281 C 381.429688 385.007812 385.675781 379.941406 390.449219 375.34375 C 386.484375 375.789062 382.511719 376.347656 378.53125 377.113281 C 375.46875 377.691406 374.171875 373.011719 377.238281 372.417969 C 383.429688 371.238281 389.898438 370.054688 396.4375 369.175781 C 389.320312 367.515625 382.179688 365.902344 374.980469 364.542969 C 373.265625 364.226562 374.007812 361.652344 375.699219 361.941406 C 384.058594 363.347656 392.488281 364.816406 400.851562 366.574219 C 401.199219 366.316406 401.554688 366.0625 401.90625 365.804688 C 401.910156 365.597656 401.917969 365.40625 401.921875 365.199219 C 394.621094 357.613281 387.417969 349.914062 379.890625 342.613281 C 379.554688 342.277344 380.054688 341.796875 380.402344 342.101562 C 387.605469 348.1875 394.941406 354.351562 402.023438 360.773438 C 402.273438 349.832031 402.746094 338.300781 405.726562 328.207031 C 406.042969 327.152344 407.382812 327.488281 407.5 328.445312 C 408.585938 337.246094 408.117188 346.605469 407.648438 355.808594 C 410.078125 350.105469 412.460938 344.386719 414.703125 338.621094 C 415.613281 336.273438 419.414062 337.261719 418.511719 339.65625 C 416.0625 346.269531 413.644531 352.964844 411.164062 359.65625 C 414.875 357.386719 418.652344 355.28125 422.40625 353.347656 C 424.667969 352.179688 426.65625 355.550781 424.402344 356.765625 C 418.769531 359.816406 413.617188 363.296875 408.679688 367.003906 C 409.015625 367.324219 409.359375 367.644531 409.691406 367.960938 C 414.828125 367.738281 419.917969 367.851562 424.859375 368.472656 C 427.394531 368.792969 427.417969 372.148438 424.859375 372.433594 C 424.617188 372.46875 424.371094 372.484375 424.128906 372.515625 C 426.246094 373.167969 428.347656 373.871094 430.429688 374.605469 C 431.855469 375.101562 431.292969 377.164062 429.8125 376.859375 C 424.957031 375.871094 420.136719 374.78125 415.320312 373.664062 C 419.175781 377.722656 422.851562 381.921875 426.246094 386.332031 C 426.90625 387.195312 425.546875 388.039062 424.828125 387.417969 C 419.785156 383.058594 414.96875 378.425781 410.242188 373.695312 Z M 966.058594 679.359375 C 965.226562 678.671875 964.414062 677.953125 963.628906 677.21875 C 963.597656 676.707031 963.582031 676.164062 963.566406 675.652344 C 963.566406 674.871094 963.535156 674.089844 963.519531 673.320312 C 964.316406 675.351562 965.164062 677.363281 966.058594 679.359375 Z M 959.125 672.714844 C 958.261719 671.789062 957.433594 670.84375 956.617188 669.886719 C 957.878906 669.632812 959.15625 669.375 960.4375 669.121094 C 960.003906 670.320312 959.558594 671.515625 959.125 672.714844 Z M 988.53125 659.503906 C 982.078125 660.496094 975.691406 661.726562 969.316406 663.066406 C 972.957031 658.59375 976.519531 654.121094 980.132812 649.871094 C 980.433594 649.503906 979.9375 649.011719 979.621094 649.363281 C 975.640625 653.867188 971.664062 658.65625 967.59375 663.433594 C 966.921875 663.578125 966.25 663.722656 965.59375 663.867188 C 968.117188 655.078125 970.082031 646.136719 971.679688 637.191406 C 971.761719 636.742188 971.121094 636.535156 970.996094 637 C 968.710938 645.257812 966.027344 653.355469 963.199219 661.390625 C 962.929688 652.027344 962.609375 642.683594 962.210938 633.308594 C 962.210938 633.085938 961.859375 633.085938 961.859375 633.308594 C 961.410156 641.886719 961.105469 650.433594 960.914062 658.992188 C 958.648438 652.394531 956.667969 645.671875 955.085938 638.707031 C 954.878906 637.796875 953.519531 638.179688 953.695312 639.089844 C 955.355469 647.316406 957.417969 655.558594 960.035156 663.609375 C 956.457031 661.261719 952.992188 658.691406 949.652344 655.71875 C 948.695312 654.871094 947.320312 656.214844 948.25 657.109375 C 951.21875 660.015625 954.445312 662.90625 957.832031 665.605469 C 956.507812 665.925781 955.179688 666.214844 953.855469 666.53125 C 951.683594 663.769531 949.574219 660.910156 947.515625 658.035156 C 947.242188 657.667969 946.636719 658.003906 946.890625 658.402344 C 948.695312 661.183594 950.566406 664.039062 952.527344 666.835938 C 948.933594 667.683594 945.324219 668.53125 941.714844 669.375 C 939.558594 669.871094 940.484375 673.097656 942.625 672.667969 C 946.746094 671.851562 950.851562 671.039062 954.957031 670.222656 C 955.949219 671.53125 956.96875 672.824219 958.007812 674.070312 C 951.285156 681.066406 944 687.363281 935.597656 691.722656 C 935.070312 691.992188 935.535156 692.746094 936.046875 692.503906 C 944.382812 688.609375 951.441406 682.777344 957.847656 676.148438 C 955.867188 681.5625 953.855469 686.945312 951.90625 692.378906 C 951.476562 693.625 953.441406 694.453125 954.046875 693.289062 C 956.585938 688.464844 958.773438 683.464844 960.738281 678.386719 C 960.738281 691.546875 959.894531 705.21875 962.273438 718.191406 C 962.433594 719.050781 963.597656 718.71875 963.695312 717.980469 C 965.277344 705.617188 964.15625 692.730469 963.710938 680.171875 C 965.117188 681.5 966.601562 682.730469 968.152344 683.863281 C 969.109375 685.828125 970.117188 687.746094 971.1875 689.660156 C 971.808594 690.796875 973.390625 689.789062 972.894531 688.65625 C 972.542969 687.890625 972.207031 687.105469 971.871094 686.339844 C 974.460938 687.839844 977.238281 689.070312 980.242188 689.917969 C 981.488281 690.253906 981.953125 688.433594 980.769531 688 C 976.886719 686.546875 973.390625 684.664062 970.164062 682.441406 C 968.519531 678.65625 966.9375 674.886719 965.417969 671.085938 C 969.730469 673.847656 974.269531 676.164062 978.996094 677.714844 C 980.464844 678.191406 981.375 675.988281 980.050781 675.253906 C 975.53125 672.714844 971.089844 670.316406 966.761719 667.777344 C 974.316406 666.164062 981.839844 664.390625 989.300781 662.285156 C 991.136719 661.757812 990.320312 659.234375 988.53125 659.503906 Z M 575.820312 610.449219 C 576.152344 610.722656 576.503906 610.976562 576.855469 611.234375 C 573.101562 610.800781 569.429688 610.164062 565.851562 609.269531 C 565.722656 608.597656 565.613281 607.925781 565.484375 607.257812 C 565.789062 607.144531 566.074219 607.03125 566.378906 606.9375 C 569.476562 608.3125 572.625 609.507812 575.820312 610.449219 Z M 564.046875 599.542969 C 564.046875 599.492188 564.03125 599.429688 564.015625 599.382812 L 564.222656 599.589844 C 564.15625 599.574219 564.09375 599.558594 564.046875 599.542969 Z M 562.367188 608.3125 C 562.527344 608.246094 562.703125 608.199219 562.878906 608.136719 C 562.894531 608.246094 562.929688 608.359375 562.945312 608.46875 C 562.753906 608.421875 562.5625 608.359375 562.367188 608.3125 Z M 560.707031 598.40625 C 560.820312 597.960938 560.914062 597.496094 561.027344 597.050781 C 561.105469 597.5625 561.1875 598.085938 561.265625 598.597656 C 561.074219 598.535156 560.882812 598.472656 560.707031 598.40625 Z M 558.917969 605.117188 C 559.078125 604.589844 559.222656 604.0625 559.367188 603.519531 C 559.878906 603.804688 560.40625 604.0625 560.929688 604.332031 C 560.261719 604.589844 559.589844 604.859375 558.917969 605.117188 Z M 550.628906 608.34375 C 549.847656 608.628906 549.078125 608.933594 548.296875 609.222656 C 549.429688 608.054688 550.550781 606.90625 551.652344 605.769531 C 551.300781 606.632812 550.949219 607.480469 550.628906 608.34375 Z M 594.746094 591.507812 C 586.839844 594.140625 579.078125 597.128906 571.328125 600.195312 C 569.191406 597.785156 566.984375 595.421875 564.765625 593.054688 C 569.414062 588.582031 574.078125 584.128906 578.804688 579.734375 C 580.097656 578.535156 578.214844 576.746094 576.886719 577.816406 C 572.496094 581.410156 568.101562 585.003906 563.742188 588.632812 C 566.25 584.863281 569.015625 581.203125 572.128906 577.625 C 573.054688 576.589844 571.523438 575.054688 570.609375 576.109375 C 568.167969 578.902344 565.820312 581.84375 563.613281 584.878906 C 564.589844 579.734375 565.453125 574.640625 566.25 569.6875 C 566.472656 568.347656 564.507812 567.722656 564.175781 569.113281 C 563.121094 573.328125 561.90625 577.5 560.613281 581.667969 C 558.902344 572.738281 557.242188 563.824219 555.789062 554.878906 C 555.738281 554.578125 555.214844 554.640625 555.261719 554.945312 C 556.601562 565.183594 557.878906 575.5 559.335938 585.804688 C 559.222656 586.171875 559.09375 586.554688 558.984375 586.921875 C 554.015625 581.699219 549.09375 576.445312 544.589844 570.902344 C 544.144531 570.34375 543.21875 571.078125 543.601562 571.667969 C 547.914062 578.183594 552.464844 585.039062 557.480469 591.507812 C 557.113281 592.640625 556.730469 593.757812 556.363281 594.878906 C 555.789062 595.355469 555.230469 595.851562 554.652344 596.347656 C 549.175781 594.445312 543.777344 592.402344 538.601562 589.925781 C 538.1875 589.734375 537.851562 590.292969 538.234375 590.546875 C 542.433594 593.328125 546.890625 596.265625 551.523438 599.0625 C 551.332031 599.222656 551.15625 599.382812 550.964844 599.542969 C 549.988281 600.402344 548.96875 601.265625 547.929688 602.144531 C 546.953125 601.601562 545.980469 601.027344 545.007812 600.421875 C 544.703125 600.226562 544.445312 600.691406 544.734375 600.882812 C 545.597656 601.488281 546.476562 602.066406 547.355469 602.640625 C 543.21875 606.136719 538.730469 609.84375 535.007812 613.902344 C 534.097656 614.1875 533.203125 614.507812 532.308594 614.796875 C 531.046875 615.195312 531.269531 616.839844 532.226562 617.191406 C 531.207031 618.515625 530.277344 619.875 529.496094 621.28125 C 528.777344 622.574219 530.199219 623.917969 531.460938 623.261719 C 535.710938 621.089844 539.605469 617.796875 543.3125 614.238281 C 545.261719 613.660156 547.210938 613.101562 549.160156 612.511719 C 548.664062 614.046875 548.199219 615.578125 547.800781 617.144531 C 547.609375 617.832031 548.214844 618.199219 548.726562 618.101562 C 547.273438 622.878906 545.902344 627.671875 544.765625 632.511719 C 544.429688 633.980469 546.445312 634.890625 547.242188 633.546875 C 551.554688 626.296875 554.863281 618.261719 557.480469 609.925781 C 558.296875 609.667969 559.09375 609.398438 559.910156 609.125 C 561.027344 609.574219 562.144531 609.988281 563.296875 610.386719 C 564.683594 617.972656 566.25 625.515625 568.136719 632.972656 C 568.40625 634.011719 569.84375 633.53125 569.699219 632.542969 C 568.695312 625.449219 567.496094 618.375 566.234375 611.328125 C 572.304688 613.101562 578.613281 613.996094 585.066406 613.820312 C 585.832031 613.804688 586.121094 613.101562 585.960938 612.527344 C 586.824219 612.625 587.671875 612.71875 588.53125 612.765625 C 590.050781 612.832031 590.59375 610.625 589.300781 609.90625 C 584.84375 607.449219 580.164062 605.402344 575.355469 603.566406 C 582.414062 600.769531 589.300781 597.640625 595.785156 593.964844 C 597.09375 593.230469 596.230469 591.011719 594.746094 591.507812 " fill-opacity="1" fill-rule="nonzero"/></g><g clip-path="url(#d910351d2c)"><path fill="#ed0700" d="M 772.898438 113.0625 C 777.789062 82.089844 784.527344 53.011719 804.941406 28.324219 C 806.125 26.894531 804.351562 25.183594 802.929688 26.3125 C 777.675781 46.128906 774.066406 83.199219 770.839844 112.785156 C 770.710938 113.949219 772.707031 114.234375 772.898438 113.0625 Z M 401.332031 423.355469 C 399.367188 424.984375 401.921875 428.242188 404.050781 426.886719 C 449.570312 397.863281 499.46875 381.730469 553.011719 376.074219 C 554.351562 375.933594 554.367188 374.09375 553.011719 373.984375 C 499.003906 369.621094 442.929688 388.917969 401.332031 423.355469 Z M 955.679688 269.3125 C 954.609375 270.316406 955.984375 272.011719 957.230469 271.308594 C 971.878906 263.242188 986.011719 255.0625 1001.796875 249.214844 C 1016.96875 243.609375 1032.496094 241.34375 1048.195312 237.859375 C 1051.617188 237.109375 1050.816406 231.820312 1047.382812 231.835938 C 1030.433594 231.917969 1013.039062 237.460938 997.464844 243.800781 C 982.53125 249.902344 967.46875 258.175781 955.679688 269.3125 Z M 807.128906 144.824219 C 806.667969 145.976562 808.34375 146.78125 809.125 145.984375 C 815.40625 139.695312 820.355469 132.117188 826.523438 125.667969 C 832.878906 119.039062 839.652344 112.882812 847.046875 107.429688 C 861.773438 96.574219 878.289062 89.046875 895.238281 82.394531 C 897.011719 81.699219 896.355469 79.132812 894.441406 79.507812 C 875.351562 83.246094 857.8125 92.671875 842.496094 104.460938 C 829.1875 114.699219 813.421875 128.792969 807.128906 144.824219 Z M 679.089844 57.40625 C 682.539062 89.308594 691.867188 120.84375 699.597656 151.933594 C 700.015625 153.644531 702.472656 152.898438 702.203125 151.21875 C 696.929688 119.820312 692.984375 87.25 683.496094 56.8125 C 682.777344 54.519531 678.800781 54.78125 679.089844 57.40625 Z M 441.871094 267.101562 C 439.957031 267.230469 439.929688 270.011719 441.871094 270.089844 C 467.910156 271.175781 494.070312 274.867188 518.859375 283.0625 C 520.363281 283.554688 520.890625 281.320312 519.5 280.761719 C 494.582031 270.601562 468.808594 265.296875 441.871094 267.101562 Z M 455.175781 190.113281 C 474.421875 188.960938 491.820312 197.09375 507.519531 207.570312 C 523.71875 218.386719 540.296875 228.433594 556.621094 239.007812 C 556.972656 239.230469 557.40625 238.6875 557.070312 238.414062 C 540.136719 224.105469 524.578125 208.515625 506.019531 196.152344 C 490.460938 185.800781 472.316406 177.589844 454.003906 185.785156 C 451.894531 186.726562 452.960938 190.242188 455.175781 190.113281 Z M 518.253906 104.207031 C 532.085938 110.222656 542.070312 120.761719 551.925781 131.839844 C 563.25 144.542969 575.710938 156.230469 586.953125 168.921875 C 587.800781 169.871094 589.09375 168.496094 588.328125 167.542969 C 576.476562 152.910156 566.238281 137.03125 553.96875 122.667969 C 544.769531 111.875 534.195312 101.492188 519.226562 100.582031 C 517.390625 100.464844 516.464844 103.433594 518.253906 104.207031 Z M 561.910156 529.828125 C 525.730469 556.359375 494.789062 599.261719 485.078125 643.425781 C 484.679688 645.214844 487.410156 646.621094 488.226562 644.753906 C 497.167969 624.101562 506.050781 603.351562 518.316406 584.40625 C 530.984375 564.855469 546.367188 547.429688 562.820312 530.992188 C 563.394531 530.417969 562.613281 529.300781 561.910156 529.828125 Z M 605.003906 599.613281 C 588.792969 612.328125 584.847656 633.890625 580.726562 652.949219 C 575.804688 675.835938 570.628906 701.632812 573.058594 725.066406 C 573.28125 727.160156 576.523438 728.023438 577.035156 725.609375 C 581.730469 703.820312 582.386719 681.21875 586.460938 659.257812 C 590.039062 639.898438 592.480469 616.175781 606.699219 601.304688 C 607.800781 600.15625 606.1875 598.671875 605.003906 599.613281 Z M 796.824219 530.480469 C 795.964844 529.109375 793.839844 530.320312 794.636719 531.757812 C 813.132812 565.527344 837.382812 595.300781 858.609375 627.261719 C 868.625 642.375 878.144531 657.820312 885.796875 674.273438 C 893.816406 691.523438 899.132812 709.714844 904.421875 727.910156 C 905.042969 730.113281 908.351562 729.683594 908.382812 727.382812 C 908.972656 690.996094 888.082031 655.519531 867.90625 626.65625 C 845.082031 593.976562 818.183594 564.21875 796.824219 530.480469 Z M 789.191406 566.324219 C 788.632812 564.566406 786.109375 565.304688 786.445312 567.074219 C 792.257812 598.289062 803.214844 628.011719 812.605469 658.25 C 822.128906 688.917969 829.265625 719.585938 832.511719 751.582031 C 832.941406 755.847656 838.996094 755.992188 839.234375 751.582031 C 840.992188 719.90625 832.03125 688.328125 821.808594 658.648438 C 811.167969 627.789062 799.015625 597.457031 789.191406 566.324219 Z M 990.039062 475.871094 C 975.484375 470.292969 957.070312 464.671875 941.320312 467.035156 C 939.722656 467.277344 939.914062 469.6875 941.320312 470.054688 C 956.703125 474.191406 972.148438 475.34375 987.160156 481.332031 C 1002.367188 487.386719 1016.710938 495.882812 1029.9375 505.453125 C 1031.679688 506.714844 1033.707031 503.964844 1032.207031 502.511719 C 1020.019531 490.722656 1005.882812 481.957031 990.039062 475.871094 Z M 577.660156 439.898438 C 578.058594 439.722656 577.753906 439.132812 577.371094 439.210938 C 546.972656 445.390625 518.636719 458.125 491.851562 473.601562 C 465.089844 489.0625 440.058594 507.945312 419.460938 531.054688 C 417.324219 533.453125 420.539062 536.617188 422.953125 534.554688 C 446.414062 514.621094 470.492188 495.484375 496.785156 479.398438 C 522.421875 463.730469 550.074219 451.671875 577.660156 439.898438 Z M 973.3125 599.613281 C 964.082031 588.128906 954.480469 576.867188 944.113281 566.421875 C 934.019531 556.246094 923.316406 544.105469 910.652344 537.109375 C 910.15625 536.839844 909.46875 537.414062 909.835938 537.925781 C 917.519531 549.25 928.683594 558.625 937.789062 568.816406 C 947.628906 579.839844 957.355469 590.925781 966.554688 602.488281 C 985.261719 626 1002.066406 651.269531 1018.164062 676.636719 C 1019.714844 679.078125 1023.324219 676.9375 1022.046875 674.367188 C 1008.660156 647.46875 992.128906 622.980469 973.3125 599.613281 Z M 688.351562 684.78125 C 687.265625 652.4375 688.527344 619.453125 692.457031 587.328125 C 692.503906 586.980469 691.945312 586.914062 691.867188 587.234375 C 684.964844 619.5625 681.132812 651.703125 681.050781 684.78125 C 681.019531 701.105469 682.042969 717.414062 683.734375 733.628906 C 685.445312 750.160156 687.441406 766.835938 693.160156 782.539062 C 693.925781 784.628906 697.394531 784.488281 697.28125 781.980469 C 696.578125 765.734375 693.480469 749.761719 691.675781 733.628906 C 689.871094 717.398438 688.894531 701.105469 688.351562 684.78125 Z M 889.007812 116.042969 C 890.621094 114.84375 889.277344 112.441406 887.425781 113.328125 C 856.789062 127.996094 831.152344 152.011719 809.621094 178.011719 C 788.359375 203.699219 772.035156 232.851562 760.980469 264.300781 C 760.855469 264.699219 761.492188 264.972656 761.667969 264.589844 C 775.183594 234.480469 793.136719 206.304688 814.652344 181.277344 C 836.359375 156.039062 862.492188 135.910156 889.007812 116.042969 Z M 750.664062 247.496094 C 760.199219 210.359375 771.890625 173.402344 787.707031 138.421875 C 795.402344 121.402344 803.789062 104.710938 813.183594 88.550781 C 817.878906 80.476562 822.796875 72.527344 827.765625 64.628906 C 832.828125 56.59375 837.191406 47.132812 845.75 42.296875 C 847.523438 41.292969 846.34375 38.464844 844.363281 39.015625 C 828.054688 43.546875 818.773438 62.300781 810.769531 75.773438 C 800.019531 93.816406 790.261719 112.542969 781.953125 131.839844 C 766.046875 168.867188 754.5625 207.292969 749.625 247.355469 C 749.5625 247.945312 750.519531 248.054688 750.664062 247.496094 Z M 624.507812 80.050781 C 623.628906 78.777344 621.808594 79.859375 622.445312 81.261719 C 635.609375 109.996094 651.710938 137.222656 665.207031 165.789062 C 671.996094 180.132812 678.113281 194.808594 683.542969 209.726562 C 689.070312 224.886719 692.824219 240.554688 697.855469 255.855469 C 697.984375 256.238281 698.605469 256.191406 698.589844 255.761719 C 697.679688 225.011719 685.222656 194.023438 672.828125 166.28125 C 659.34375 136.109375 643.5 107.125 624.507812 80.050781 Z M 494.039062 151.863281 C 520.523438 159.304688 544.867188 176.257812 564.207031 195.496094 C 585.085938 216.242188 600.546875 240.96875 619.109375 263.585938 C 619.570312 264.148438 620.304688 263.429688 620.050781 262.851562 C 596.332031 210.988281 554.402344 157.726562 495.222656 147.53125 C 492.425781 147.050781 491.195312 151.0625 494.039062 151.863281 Z M 607.609375 334.308594 C 608.550781 334.707031 609.398438 333.363281 608.4375 332.886719 C 528.109375 293.144531 433.164062 288.382812 352.117188 329.226562 C 349.722656 330.425781 351.394531 334.5625 353.957031 333.605469 C 434.140625 303.496094 527.984375 300.378906 607.609375 334.308594 Z M 809.476562 299.167969 C 809.171875 299.535156 809.636719 300.027344 810.003906 299.710938 C 839.808594 273.050781 867.808594 244.554688 898.558594 218.933594 C 929.707031 192.992188 963.539062 173.058594 999.492188 154.632812 C 1002.800781 152.933594 1000.515625 147.476562 996.953125 148.605469 C 959.242188 160.597656 925.871094 185.375 895.972656 210.675781 C 864.550781 237.253906 835.671875 267.492188 809.476562 299.167969 Z M 1000.691406 279.742188 C 981.601562 283.542969 962.851562 288.671875 944.546875 295.300781 C 927.328125 301.53125 910.457031 308.878906 894.183594 317.28125 C 885.558594 321.71875 877.011719 326.402344 868.816406 331.609375 C 861.199219 336.449219 852.1875 341.320312 846.007812 347.933594 C 845.542969 348.445312 846.007812 349.480469 846.742188 349.195312 C 854.441406 346.191406 861.453125 340.921875 868.722656 336.941406 C 876.851562 332.519531 884.996094 328.109375 893.320312 324.019531 C 910.9375 315.394531 929.164062 308.015625 947.820312 301.960938 C 965.40625 296.242188 983.359375 291.453125 1001.503906 287.875 C 1020.003906 284.230469 1038.914062 282.394531 1057.316406 278.433594 C 1059.503906 277.96875 1058.800781 274.917969 1056.820312 274.757812 C 1038.277344 273.179688 1018.851562 276.117188 1000.691406 279.742188 Z M 1075.589844 421.570312 C 1016.808594 381.667969 933.203125 372.5 866.292969 395.085938 C 865.75 395.277344 865.972656 396.074219 866.53125 395.964844 C 901.59375 389.015625 937.421875 386.636719 972.914062 391.554688 C 1008.359375 396.457031 1041.933594 408.773438 1074.070312 424.15625 C 1075.8125 424.988281 1077.1875 422.671875 1075.589844 421.570312 Z M 844.3125 458.609375 C 843.835938 458.515625 843.660156 459.167969 844.105469 459.34375 C 879.917969 471.996094 914.5625 488.367188 945.664062 510.332031 C 976.460938 532.101562 1003.582031 559.402344 1027.351562 588.582031 C 1028.53125 590.039062 1030.914062 588.152344 1029.9375 586.585938 C 989.734375 522.3125 918.699219 473.386719 844.3125 458.609375 Z M 675.925781 514.132812 C 649.21875 542.148438 640.511719 585.070312 632.574219 621.648438 C 623.390625 663.898438 618.34375 706.417969 619.988281 749.625 C 620.097656 752.546875 624.269531 752.5 624.476562 749.625 C 627.574219 708.09375 631.933594 666.199219 640.335938 625.371094 C 648.148438 587.480469 657.90625 548.9375 677.089844 515.042969 C 677.507812 514.324219 676.515625 513.511719 675.925781 514.132812 Z M 626.550781 462.125 C 626.933594 462.027344 626.777344 461.484375 626.390625 461.550781 C 553.523438 474.886719 480.621094 515.109375 436.265625 575.421875 C 434.589844 577.707031 438.234375 580.40625 440.148438 578.425781 C 465.96875 551.652344 493.03125 526.511719 524.820312 506.898438 C 556.398438 487.394531 590.773438 472.074219 626.550781 462.125 Z M 639.539062 366.015625 C 640.097656 366.191406 640.496094 365.3125 639.9375 365.054688 C 563.203125 329.996094 472.15625 334.355469 397.351562 372.226562 C 395.5625 373.136719 396.835938 376.285156 398.730469 375.519531 C 475.222656 344.019531 560.730469 342.246094 639.542969 366.015625 Z M 691.5 316.59375 C 691.660156 316.976562 692.296875 316.703125 692.167969 316.289062 C 671.246094 249.761719 646.261719 181.84375 595.246094 132.085938 C 593.214844 130.097656 590.4375 133.039062 592.179688 135.152344 C 636.457031 188.742188 663.164062 253.851562 691.5 316.589844 Z M 387.882812 220.785156 C 435.339844 224.9375 481.824219 231.710938 526.375 249.3125 C 570.332031 266.675781 613.875 291.707031 648.121094 324.546875 C 649.589844 325.953125 651.792969 323.75 650.339844 322.328125 C 615.3125 288.144531 576.785156 260.144531 531.230469 241.457031 C 486.503906 223.085938 436.417969 211.136719 387.882812 215.707031 C 384.625 216.011719 384.597656 220.5 387.882812 220.785156 Z M 840.832031 214.0625 C 867.300781 183.847656 898.269531 158.050781 930.089844 133.675781 C 933.429688 131.117188 930.585938 125.636719 926.6875 127.851562 C 889.902344 148.796875 858.640625 178.070312 831.695312 210.515625 C 818.515625 226.394531 806.632812 243.226562 796.011719 260.910156 C 785.515625 278.417969 775.933594 296.929688 774.65625 317.648438 C 774.65625 317.808594 774.925781 317.839844 774.957031 317.679688 C 779.367188 297.265625 792.128906 279.375 803.613281 262.300781 C 814.941406 245.464844 827.445312 229.332031 840.832031 214.0625 Z M 668.355469 476.246094 C 668.609375 476.019531 668.257812 475.574219 667.988281 475.765625 C 607.066406 519.707031 559.175781 587.480469 541.941406 661.023438 C 541.496094 662.90625 544.226562 663.640625 544.832031 661.820312 C 556.765625 625.914062 571.796875 591.410156 592.976562 559.945312 C 614.027344 528.652344 639.472656 500.507812 668.355469 476.246094 Z M 889.613281 571.171875 C 876.4375 555.296875 862.699219 539.867188 848.5 524.914062 C 841.375 517.421875 834.027344 510.203125 826.488281 503.128906 C 819.171875 496.226562 811.632812 487.730469 802.832031 482.792969 C 802.382812 482.554688 801.824219 483.050781 802.113281 483.511719 C 807.046875 491.355469 814.714844 497.855469 820.992188 504.644531 C 828.003906 512.230469 834.875 519.964844 841.804688 527.628906 C 855.671875 542.964844 869.007812 558.777344 881.820312 575.007812 C 907.792969 607.894531 931.734375 642.332031 955.503906 676.835938 C 957.402344 679.582031 961.636719 677.1875 960.039062 674.183594 C 940.359375 637.382812 916.257812 603.296875 889.613281 571.171875 Z M 938.347656 336.320312 C 917.742188 339.976562 897.695312 346.222656 878.480469 354.496094 C 859.234375 362.769531 838.546875 373.027344 823.789062 388.234375 C 823.117188 388.917969 823.964844 389.910156 824.792969 389.527344 C 843.898438 380.46875 861.613281 369.207031 881.46875 361.589844 C 900.269531 354.371094 919.851562 349.289062 939.691406 345.984375 C 959.929688 342.613281 980.597656 341.589844 1001.089844 342.789062 C 1022.09375 344.019531 1042.523438 348.269531 1063.144531 352.164062 C 1068.335938 353.15625 1070.078125 346.304688 1065.285156 344.371094 C 1026.136719 328.523438 979.351562 329.085938 938.347656 336.320312 Z M 908.09375 259.058594 C 870.957031 286.980469 834.300781 317.582031 807.015625 355.535156 C 806.523438 356.238281 807.609375 357.035156 808.199219 356.445312 C 840.320312 323.316406 875.636719 294.375 912.726562 266.980469 C 930.136719 254.121094 947.835938 241.421875 966.925781 231.136719 C 986.730469 220.464844 1007.496094 214.269531 1029.265625 209.140625 C 1032.621094 208.359375 1031.664062 203.597656 1028.5 203.40625 C 1006.855469 202.035156 985.722656 210.277344 966.828125 220.113281 C 945.953125 230.992188 926.863281 244.9375 908.09375 259.058594 Z M 731.03125 55.496094 C 730.824219 52.894531 727.199219 52.898438 726.992188 55.496094 C 723.367188 98.050781 725.15625 141.113281 725.632812 183.78125 C 726.113281 226.359375 725.058594 269.707031 730.042969 312.054688 C 730.234375 313.667969 732.453125 313.714844 732.582031 312.054688 C 735.855469 269.550781 733.492188 226.375 733.1875 183.78125 C 732.902344 141.082031 734.449219 98.082031 731.03125 55.496094 Z M 514.675781 431.550781 C 555.3125 417.113281 598.582031 405.308594 641.871094 413.871094 C 642.460938 413.980469 642.636719 413.214844 642.109375 412.992188 C 600.707031 395.628906 554.113281 408.375 513.75 422.78125 C 473.886719 437.015625 431.988281 455.160156 398.8125 481.914062 C 397.203125 483.210938 399.25 485.414062 400.898438 484.613281 C 419.460938 475.542969 437.21875 464.953125 455.90625 456.101562 C 475.097656 446.996094 494.660156 438.675781 514.675781 431.550781 Z M 1057.621094 465.335938 C 986.699219 425.148438 898.429688 412.320312 819.140625 431.058594 C 819.058594 431.074219 819.078125 431.214844 819.171875 431.199219 C 859.441406 428.023438 901.035156 428.46875 940.953125 434.984375 C 980.53125 441.472656 1019.21875 453.257812 1056.230469 468.609375 C 1058.128906 469.390625 1059.359375 466.308594 1057.621094 465.335938 Z M 748.089844 632.335938 C 750.726562 675.316406 756.765625 717.949219 759.625 760.886719 C 759.800781 763.347656 755.902344 763.808594 755.375 761.460938 C 745.792969 719.753906 742.867188 676.5625 740.585938 633.914062 C 739.433594 612.414062 738.636719 590.867188 738.585938 569.335938 C 738.570312 558.296875 738.78125 547.261719 739.066406 536.222656 C 739.324219 526.207031 739.289062 515.808594 741.8125 506.050781 C 742.023438 505.21875 743.378906 505.15625 743.539062 506.050781 C 745.457031 515.921875 744.992188 526.207031 745.058594 536.222656 C 745.105469 547.261719 745.34375 558.296875 745.601562 569.335938 C 746.109375 590.355469 746.796875 611.34375 748.089844 632.335938 " fill-opacity="1" fill-rule="nonzero"/></g><path fill="#fbcd6b" d="M 663.804688 461.492188 C 663.867188 461.429688 663.769531 461.332031 663.691406 461.394531 C 651.214844 472.355469 640.832031 485.101562 632.625 499.539062 C 632.480469 499.78125 632.863281 500.019531 633.007812 499.761719 C 641.121094 485.308594 651.40625 472.511719 663.804688 461.492188 Z M 648.148438 435.886719 C 647.445312 436.238281 648.070312 437.210938 648.757812 436.925781 C 664.746094 430.152344 681.007812 423.972656 697.730469 419.308594 C 698.210938 419.179688 698 418.476562 697.539062 418.589844 C 680.398438 422.535156 663.882812 427.964844 648.148438 435.886719 Z M 719.917969 431.542969 C 716.800781 431.8125 716.097656 433.890625 715.636719 436.894531 C 714.277344 445.582031 714.851562 455.117188 714.742188 463.917969 C 714.453125 483.34375 713.800781 502.863281 715.300781 522.238281 C 715.394531 523.292969 716.882812 523.308594 716.945312 522.238281 C 717.808594 507.527344 717.425781 492.832031 717.441406 478.105469 C 717.441406 472.816406 715.027344 433.699219 719.917969 433.042969 C 720.84375 432.914062 720.890625 431.445312 719.917969 431.542969 Z M 742.839844 430.550781 C 762.484375 431.558594 782.402344 433.1875 802.066406 432.4375 C 804.015625 432.371094 803.96875 429.609375 802.066406 429.449219 C 782.484375 427.707031 762.5 428.300781 742.839844 428.316406 C 741.386719 428.316406 741.402344 430.488281 742.839844 430.550781 Z M 711.867188 400.890625 C 700.367188 387.566406 689.871094 373.113281 677.683594 360.414062 C 676.742188 359.4375 675.097656 360.703125 675.800781 361.867188 C 685.078125 376.929688 698.097656 389.789062 710.925781 401.847656 C 711.5625 402.4375 712.441406 401.542969 711.867188 400.890625 Z M 730.140625 394.003906 C 733.046875 376.003906 734.773438 357.171875 734.371094 338.914062 C 734.355469 337.621094 732.230469 337.203125 732.023438 338.59375 C 729.308594 356.675781 728.542969 375.621094 729.117188 393.878906 C 729.132812 394.4375 730.058594 394.613281 730.140625 394.003906 Z M 767.4375 351.371094 C 768.539062 349.328125 765.566406 347.601562 764.339844 349.566406 C 762.324219 352.746094 760.328125 355.941406 758.347656 359.136719 C 757.167969 327.78125 774.351562 298.359375 790.789062 272.785156 C 807.929688 246.125 829.15625 223.011719 850.433594 199.675781 C 851.34375 198.667969 850.097656 196.753906 848.882812 197.679688 C 822.785156 217.757812 801.890625 244.511719 784.511719 272.304688 C 768.109375 298.535156 750.21875 330.066406 756.574219 362.042969 C 752.4375 368.800781 748.382812 375.589844 744.402344 382.472656 C 739.46875 391.019531 732.390625 400.523438 732.792969 410.824219 C 732.855469 412.023438 734.484375 412.230469 734.851562 411.113281 C 738.558594 400.1875 744.996094 390.746094 750.839844 380.875 C 756.605469 371.164062 762.070312 361.324219 767.4375 351.371094 Z M 649.554688 410.011719 C 648.644531 410.152344 648.851562 411.6875 649.777344 411.625 C 675.082031 409.804688 700.84375 411.289062 725.9375 414.976562 C 726.304688 415.042969 726.464844 414.515625 726.082031 414.402344 C 700.875 406.816406 675.527344 405.761719 649.554688 410.011719 Z M 726.066406 417.117188 C 714.277344 413.445312 703.050781 421.894531 694.617188 430.953125 C 651.359375 433.042969 625.085938 475.773438 595.503906 501.855469 C 594.6875 502.574219 595.789062 504.058594 596.683594 503.390625 C 628.789062 479.351562 652.160156 440.535156 693.609375 432.054688 C 691.195312 434.722656 689.039062 437.40625 687.1875 439.800781 C 673.675781 457.371094 662.652344 476.921875 655.738281 497.992188 C 655.257812 499.429688 657.527344 500.417969 658.195312 499.027344 C 666.328125 482.273438 675.03125 465.835938 685.496094 450.390625 C 690.429688 443.105469 695.652344 435.773438 702.203125 429.832031 C 709.359375 423.332031 716.914062 420.695312 726.066406 418.414062 C 726.738281 418.253906 726.691406 417.308594 726.066406 417.117188 Z M 676.152344 284.507812 C 684.632812 305.113281 691.933594 326.136719 700.765625 346.597656 C 701.210938 347.636719 702.824219 346.902344 702.554688 345.847656 C 696.070312 322.078125 689.296875 297.941406 679.425781 275.308594 C 670.832031 255.550781 658.882812 237.773438 638.628906 228.796875 C 637.222656 228.171875 636.1875 229.945312 637.429688 230.871094 C 655.449219 244.191406 667.734375 264.0625 676.152344 284.507812 Z M 670.925781 351.773438 C 671.199219 351.882812 671.421875 351.46875 671.214844 351.261719 C 650.609375 333.210938 627.496094 316.808594 602.976562 304.539062 C 601.09375 303.597656 598.902344 306.023438 600.613281 307.605469 C 620.898438 326.359375 645.433594 341.199219 670.925781 351.773438 Z M 645.546875 436.6875 C 646.25 436.703125 646.199219 435.710938 645.546875 435.648438 C 629.171875 433.875 614.03125 440.328125 599.238281 446.558594 C 583.90625 453.011719 568.746094 460.054688 554.625 468.917969 C 553.140625 469.847656 554.433594 471.96875 555.984375 471.234375 C 570.023438 464.671875 583.824219 457.578125 597.992188 451.285156 C 612.847656 444.6875 628.949219 436.429688 645.546875 436.6875 Z M 789.320312 557.363281 C 783.855469 547.652344 779.863281 537.1875 774.433594 527.492188 C 774.035156 526.773438 772.644531 527.03125 772.757812 527.941406 C 774.175781 538.898438 778.667969 549.296875 783.472656 559.152344 C 788.679688 569.835938 794.734375 580.347656 803.21875 588.78125 C 805.148438 590.714844 808.328125 588.269531 806.988281 585.890625 C 801.429688 576.179688 794.800781 567.121094 789.320312 557.363281 Z M 881.675781 521.167969 C 861.054688 509.636719 839.285156 497.160156 816.617188 490.179688 C 816.1875 490.050781 815.996094 490.625 816.316406 490.867188 C 835.675781 504.445312 858.789062 514.011719 880.464844 523.226562 C 881.835938 523.820312 883.050781 521.949219 881.675781 521.167969 Z M 892.953125 451.75 C 877.238281 447.484375 860.6875 446.382812 844.554688 444.417969 C 827.734375 442.386719 810.5 439.417969 793.554688 439.304688 C 791.714844 439.289062 791.300781 442.085938 793.121094 442.53125 C 808.808594 446.492188 825.4375 447.929688 841.472656 450.070312 C 858.324219 452.324219 875.414062 455.613281 892.457031 455.421875 C 894.550781 455.40625 895.03125 452.308594 892.953125 451.75 Z M 863.914062 377.28125 C 842.222656 382.9375 821.507812 391.625 802.148438 402.886719 C 800.40625 403.910156 801.972656 406.59375 803.742188 405.601562 C 822.992188 394.738281 843.515625 386.449219 864.96875 381.148438 C 886.613281 375.8125 908.351562 374.933594 930.425781 373.175781 C 932.105469 373.046875 932.039062 370.828125 930.425781 370.636719 C 908.433594 367.839844 885.238281 371.722656 863.914062 377.28125 Z M 785.820312 379.214844 C 778.9375 387.566406 771.8125 395.476562 769.847656 406.449219 C 769.753906 406.925781 770.425781 407.121094 770.566406 406.65625 C 774.242188 394.371094 784.910156 384.773438 793.121094 375.332031 C 801.796875 365.347656 810.546875 355.429688 819.109375 345.367188 C 836.328125 325.191406 853.308594 304.890625 869.648438 284 C 870.449219 282.960938 869.089844 281.492188 868.164062 282.511719 C 848.882812 303.597656 830.277344 325.257812 812.082031 347.285156 C 803.296875 357.90625 794.574219 368.558594 785.820312 379.214844 Z M 578.746094 336.550781 C 622.578125 343.242188 665.625 362.730469 697.265625 394.308594 C 697.378906 394.4375 697.601562 394.277344 697.492188 394.132812 C 683.242188 375.554688 666.855469 360.652344 645.929688 349.839844 C 625.277344 339.167969 602.5625 333.050781 579.273438 332.714844 C 577.132812 332.699219 576.527344 336.214844 578.746094 336.550781 Z M 568.042969 373.367188 C 600.484375 372.488281 633.246094 373.144531 665.417969 377.664062 C 665.878906 377.730469 666.101562 377.074219 665.625 376.929688 C 633.484375 368.050781 600.710938 365.191406 567.660156 370.574219 C 566.078125 370.828125 566.460938 373.398438 568.042969 373.367188 Z M 658.261719 418.605469 C 615.421875 413.046875 572.980469 425.9375 539.402344 452.898438 C 538.476562 453.632812 539.691406 455.183594 540.683594 454.542969 C 575.519531 431.828125 616.761719 420.121094 658.261719 419.515625 C 658.851562 419.5 658.804688 418.683594 658.261719 418.605469 Z M 709.292969 483.855469 C 704.070312 500.148438 702.265625 518.40625 700.75 535.382812 C 699.214844 552.492188 697.332031 570.574219 700.253906 587.585938 C 700.621094 589.757812 703.558594 588.925781 703.785156 587.105469 C 705.8125 570.03125 704.664062 552.570312 705.910156 535.382812 C 707.136719 518.261719 710.253906 501.234375 711.339844 484.140625 C 711.417969 482.910156 709.628906 482.769531 709.292969 483.855469 Z M 820.851562 535.304688 C 799.320312 512.367188 777.660156 489.605469 754.851562 467.945312 C 754.210938 467.339844 753.347656 468.234375 753.890625 468.886719 C 772.933594 491.3125 792.5 513.230469 812.242188 535.015625 C 829.90625 554.519531 849.699219 574.023438 859.777344 598.828125 C 860.433594 600.410156 862.734375 599.851562 862.382812 598.109375 C 857.191406 572.3125 838.199219 553.800781 820.851562 535.304688 Z M 761.464844 555.316406 C 756.480469 534.761719 754.433594 513.738281 755.042969 492.625 C 755.074219 491.585938 753.683594 491.488281 753.332031 492.289062 C 749.195312 472.511719 743.332031 453.136719 738.253906 433.585938 C 738.332031 433.652344 738.414062 433.699219 738.507812 433.730469 C 783.121094 448.171875 823.839844 469.191406 864.171875 492.800781 C 865.59375 493.628906 867.300781 491.585938 865.992188 490.453125 C 830.277344 460.070312 784.71875 441.015625 738.910156 432.292969 C 738.460938 432.214844 738.160156 432.453125 738.046875 432.773438 C 737.726562 431.558594 737.40625 430.34375 737.105469 429.128906 C 736.960938 428.570312 735.984375 428.667969 736.066406 429.273438 C 739.035156 453.3125 742.839844 477.257812 751.816406 499.90625 C 752.054688 500.480469 752.46875 500.785156 752.933594 500.898438 C 752.519531 519.011719 754.019531 537.125 757.582031 554.917969 C 761.589844 575.0625 767.660156 596.226562 779.160156 613.476562 C 779.960938 614.675781 782.179688 613.957031 781.621094 612.4375 C 774.578125 593.398438 766.253906 575.140625 761.464844 555.316406 Z M 778.347656 398.460938 C 777.324219 399.4375 778.683594 401.289062 779.878906 400.457031 C 804.09375 383.605469 826.394531 364.28125 851.550781 348.722656 C 876.949219 332.988281 904.3125 321.503906 933.574219 315.304688 C 935.105469 314.96875 934.804688 312.335938 933.191406 312.511719 C 903.753906 315.703125 876.484375 327.875 851.359375 343.097656 C 825.46875 358.800781 800.308594 377.617188 778.347656 398.460938 Z M 746.160156 374.214844 C 746.351562 346.933594 745.347656 319.683594 746.113281 292.382812 C 746.878906 265.117188 748.574219 237.898438 750.121094 210.679688 C 750.152344 209.996094 749.164062 210.027344 749.066406 210.679688 C 745.457031 237.789062 743.8125 265.054688 743.367188 292.382812 C 742.917969 319.617188 742.804688 347.125 745.714844 374.214844 C 745.746094 374.503906 746.160156 374.519531 746.160156 374.214844 Z M 709.199219 306.917969 C 715.652344 330.992188 720.554688 355.320312 724.613281 379.902344 C 724.742188 380.730469 726.128906 380.554688 726.082031 379.710938 C 722.953125 330.609375 711.195312 278.789062 688.082031 235.121094 C 687.570312 234.160156 685.957031 234.816406 686.308594 235.871094 C 694.121094 259.480469 702.761719 282.863281 709.199219 306.917969 Z M 625.4375 293.214844 C 671.375 307.847656 693.371094 350.988281 714.390625 390.714844 C 716.226562 394.453125 718.449219 398.0625 721.195312 401.496094 C 721.417969 401.769531 721.832031 401.417969 721.675781 401.128906 C 709.804688 379.902344 715.921875 353.832031 709.679688 331.070312 C 709.199219 329.363281 706.59375 329.699219 706.578125 331.488281 C 706.53125 347.203125 705.988281 363.609375 709.964844 378.640625 C 693.816406 340.222656 669.792969 299.027344 625.945312 291.328125 C 624.734375 291.121094 624.222656 292.816406 625.4375 293.214844 Z M 791.730469 331.726562 C 782.964844 343.226562 774.609375 355.015625 766.238281 366.804688 C 759.195312 376.738281 750.824219 386.914062 749.46875 399.4375 C 749.355469 400.523438 750.890625 400.539062 751.242188 399.675781 C 756.207031 387.328125 763.777344 377.25 771.703125 366.660156 C 780.296875 355.144531 788.953125 343.65625 797.722656 332.285156 C 814.703125 310.304688 832.527344 288.757812 851.855469 268.808594 C 852.878906 267.753906 851.34375 266.269531 850.273438 267.210938 C 828.261719 286.539062 809.460938 308.5 791.730469 331.726562 Z M 716.273438 429.339844 C 716.675781 428.921875 716.066406 428.332031 715.636719 428.699219 C 698.019531 444.191406 693.082031 471.347656 686.691406 492.765625 C 678.660156 519.761719 670.703125 547.507812 669.648438 575.8125 C 669.585938 577.554688 672.414062 577.984375 672.75 576.226562 C 677.730469 550.09375 682.859375 524.121094 689.886719 498.4375 C 693.289062 485.980469 696.996094 473.632812 700.414062 461.171875 C 703.625 449.480469 707.632812 438.171875 716.273438 429.339844 Z M 558.109375 394.019531 C 583.363281 392.074219 608.296875 390.332031 633.582031 393.0625 C 659.265625 395.828125 684.953125 401.527344 709.261719 410.296875 C 709.421875 410.363281 709.519531 410.105469 709.375 410.027344 C 663.898438 387.183594 607.546875 377.25 557.710938 391.082031 C 556.144531 391.511719 556.382812 394.164062 558.109375 394.019531 Z M 952.964844 399.949219 C 917.761719 396.546875 881.867188 399.980469 846.792969 403.382812 C 812.242188 406.71875 778.089844 411.941406 744.277344 419.738281 C 743.636719 419.882812 743.75 420.984375 744.4375 420.921875 C 779.035156 417.34375 813.664062 413.699219 848.339844 410.90625 C 883.148438 408.109375 918.289062 408.078125 952.964844 403.988281 C 955.535156 403.683594 955.601562 400.1875 952.964844 399.949219 Z M 733.84375 470.851562 C 733.878906 486.746094 733.972656 502.640625 733.8125 518.53125 C 733.476562 550.382812 732.933594 582.105469 731.019531 613.90625 C 730.890625 616.113281 727.664062 616.128906 727.585938 613.90625 C 726.320312 582.074219 726.433594 550.382812 726.769531 518.53125 C 726.929688 502.640625 727.359375 486.746094 727.710938 470.851562 C 728.03125 456.011719 727.34375 440.632812 729.867188 425.96875 C 730.09375 424.625 732.40625 424.59375 732.617188 425.96875 C 734.820312 440.679688 733.828125 456.011719 733.84375 470.851562 " fill-opacity="1" fill-rule="nonzero"/></svg>