<svg xmlns="http://www.w3.org/2000/svg" xmlns:xlink="http://www.w3.org/1999/xlink" width="1920" zoomAndPan="magnify" viewBox="0 0 1440 809.999993" height="1080" preserveAspectRatio="xMidYMid meet" version="1.0"><defs><clipPath id="2ed9ab6774"><path d="M 475.621094 22.277344 L 964.445312 22.277344 L 964.445312 788.015625 L 475.621094 788.015625 Z M 475.621094 22.277344 " clip-rule="nonzero"/></clipPath></defs><g clip-path="url(#2ed9ab6774)"><path fill="#000000" d="M 904.824219 747.230469 C 904.648438 742.007812 891.695312 735.855469 883.742188 733.523438 C 860.34375 726.664062 829.703125 726.363281 807.832031 727.191406 C 820.101562 743.039062 838.867188 752.390625 852.109375 767.265625 C 865.507812 765.410156 905.285156 761.335938 904.824219 747.230469 Z M 536.875 724.03125 C 519.613281 729.257812 496.148438 728.289062 491.539062 746.175781 C 514.714844 758.496094 555.761719 758.566406 581.152344 765.160156 C 565.597656 752.246094 549.613281 739.761719 536.875 724.03125 Z M 818.371094 751.449219 C 798.835938 731.9375 784.3125 715.503906 773.035156 688.175781 C 759.511719 655.398438 741.285156 620.222656 741.410156 577.445312 C 722.65625 545.410156 698.109375 517.222656 669.714844 495.191406 C 633.640625 467.199219 590.921875 444.867188 525.277344 447.738281 C 502.464844 471.515625 492.046875 514.265625 489.429688 557.410156 C 485.144531 628.085938 517.179688 691.925781 554.796875 729.304688 C 561.976562 736.433594 588.140625 765.304688 595.914062 768.324219 C 604.5 771.65625 622.359375 770.269531 635.980469 771.484375 C 702.820312 777.449219 769.289062 772.164062 836.292969 769.378906 C 832.554688 761.167969 824.351562 757.417969 818.371094 751.449219 Z M 807.832031 463.554688 C 815.546875 456.878906 845.9375 436.335938 847.894531 426.644531 C 850.523438 413.609375 836.667969 394.0625 831.027344 387.628906 C 820.722656 375.875 803.660156 362.609375 787.796875 352.824219 C 768.878906 341.164062 750.441406 334.34375 728.757812 332.792969 C 719.199219 332.105469 711.144531 332.949219 707.667969 334.902344 C 696.804688 340.992188 683.75 345.53125 670.769531 350.71875 C 657.757812 355.917969 643.199219 358.191406 630.707031 363.371094 C 621.960938 367.003906 612.839844 375.089844 603.292969 380.242188 C 574.976562 395.535156 545.738281 415.578125 529.496094 439.300781 C 640.664062 436.378906 694.351562 500.070312 744.570312 561.628906 C 753.730469 514.699219 778 489.34375 807.832031 463.554688 Z M 921.691406 347.554688 C 936.148438 324.355469 949.710938 299.984375 952.261719 266.351562 C 960.847656 153.113281 903.980469 58.0625 805.71875 38.570312 C 739.742188 25.484375 673.824219 52.886719 640.195312 79.695312 C 618.023438 97.375 602.339844 125.492188 600.132812 161.949219 C 598.304688 192.101562 601.566406 226.613281 613.839844 251.589844 C 630.621094 285.746094 667.230469 315.734375 717.15625 316.972656 C 724.753906 317.160156 732.242188 314.402344 739.296875 313.808594 C 758.746094 312.179688 777.871094 312.15625 798.339844 309.589844 C 781.75 319.714844 755.820312 320.492188 734.027344 325.410156 C 769 325.988281 799.484375 348.484375 820.480469 366.535156 C 836.957031 380.703125 854.160156 395.808594 854.214844 421.375 C 879.257812 401.640625 904.4375 375.238281 921.691406 347.554688 Z M 799.394531 711.375 C 824.164062 713.066406 853.324219 711.726562 881.628906 718.753906 C 898.429688 722.929688 918.738281 732.371094 918.53125 748.285156 C 918.335938 762.777344 901.515625 770.351562 889.007812 774.648438 C 862.992188 783.589844 822.285156 785.34375 784.636719 786.25 C 748.238281 787.125 712.394531 789.058594 670.769531 787.304688 C 638.160156 785.933594 598.953125 785.453125 565.34375 777.8125 C 552.410156 774.871094 534.910156 770.601562 516.84375 768.324219 C 500.171875 766.21875 480.929688 759.507812 478.886719 749.34375 C 473.582031 722.875 504.929688 719.554688 523.167969 713.488281 C 498.800781 673.007812 473.808594 628.75 475.726562 563.742188 C 478.777344 460.398438 529.871094 404.140625 602.242188 364.429688 C 629.507812 349.464844 659.449219 341.070312 690.796875 327.515625 C 625.816406 309.792969 586.691406 260.605469 586.425781 178.824219 C 586.1875 105.058594 623.527344 68.617188 680.257812 42.789062 C 702.5 32.660156 724.4375 24.242188 749.84375 22.75 C 792.957031 20.21875 829.539062 27.949219 858.433594 42.789062 C 926.507812 77.746094 970.050781 157.003906 963.863281 258.972656 C 962.566406 280.304688 958.507812 303.109375 950.152344 321.1875 C 946.402344 329.3125 939.554688 337.6875 934.339844 346.5 C 907.847656 391.25 868.46875 427.242188 828.914062 459.335938 C 795.332031 486.589844 758.246094 521.371094 753.003906 575.339844 C 750.320312 602.980469 761.972656 628.808594 769.871094 650.210938 C 778.257812 672.910156 787.703125 694.675781 799.394531 711.375 " fill-opacity="1" fill-rule="evenodd"/></g><path fill="#fcd8c0" d="M 816.261719 343.335938 C 824.527344 354.410156 837.535156 366.34375 850 369.699219 C 841.210938 359.121094 830.835938 344.625 816.261719 343.335938 Z M 757.222656 154.574219 C 746.648438 166.136719 730.101562 171.738281 706.617188 170.390625 C 704.945312 176.988281 711.386719 175.460938 712.941406 178.828125 C 715.390625 196.765625 720.714844 209.269531 727.703125 224.175781 C 733.121094 235.734375 738.941406 248.800781 744.570312 255.808594 C 748.957031 261.273438 758.460938 269.425781 767.765625 266.355469 C 778.617188 234.414062 761.414062 196.832031 754.058594 169.335938 C 757.582031 165.828125 763.746094 164.96875 762.492188 156.683594 C 760.480469 156.230469 760.582031 153.671875 757.222656 154.574219 Z M 664.441406 121.882812 C 642.648438 114.558594 628.523438 139.386719 626.488281 156.683594 C 625.15625 168 625.371094 186.6875 638.085938 188.320312 C 642.144531 183.539062 637.652344 177.800781 637.03125 171.449219 C 635.214844 152.785156 643.203125 130.769531 658.117188 132.425781 C 675.765625 134.390625 681.175781 169.488281 691.855469 177.773438 C 696.847656 157.816406 679.101562 126.804688 664.441406 121.882812 Z M 812.046875 83.914062 C 801.25 73.175781 783.621094 71.5 773.035156 83.914062 C 765.65625 92.574219 756.351562 146.792969 774.089844 147.191406 C 778.027344 126.804688 768.558594 86.914062 794.125 84.972656 C 802.351562 88.644531 807.605469 94.386719 812.046875 101.839844 C 820.597656 116.222656 821.328125 137.277344 834.1875 147.191406 C 835.710938 126.78125 825.253906 97.0625 812.046875 83.914062 Z M 854.214844 421.375 C 854.160156 395.808594 836.957031 380.707031 820.480469 366.535156 C 799.480469 348.484375 769 325.992188 734.027344 325.410156 C 755.820312 320.492188 781.75 319.714844 798.339844 309.589844 C 777.867188 312.160156 758.742188 312.183594 739.296875 313.8125 C 732.242188 314.402344 724.75 317.160156 717.15625 316.972656 C 667.230469 315.734375 630.621094 285.746094 613.839844 251.59375 C 601.566406 226.617188 598.304688 192.101562 600.132812 161.953125 C 602.339844 125.496094 618.019531 97.378906 640.195312 79.699219 C 673.824219 52.886719 739.742188 25.484375 805.71875 38.570312 C 903.976562 58.0625 960.847656 153.113281 952.261719 266.355469 C 949.710938 299.988281 936.148438 324.355469 921.691406 347.554688 C 904.4375 375.238281 879.257812 401.640625 854.214844 421.375 " fill-opacity="1" fill-rule="evenodd"/><path fill="#000000" d="M 834.1875 147.1875 C 821.328125 137.277344 820.597656 116.21875 812.046875 101.839844 C 807.605469 94.386719 802.351562 88.644531 794.125 84.96875 C 768.558594 86.914062 778.027344 126.804688 774.089844 147.1875 C 756.351562 146.792969 765.65625 92.574219 773.035156 83.914062 C 783.621094 71.496094 801.25 73.175781 812.046875 83.914062 C 825.253906 97.058594 835.710938 126.785156 834.1875 147.1875 " fill-opacity="1" fill-rule="evenodd"/><path fill="#000000" d="M 691.855469 177.769531 C 681.175781 169.484375 675.769531 134.386719 658.117188 132.425781 C 643.203125 130.769531 635.214844 152.785156 637.03125 171.445312 C 637.652344 177.792969 642.144531 183.539062 638.085938 188.316406 C 625.371094 186.6875 625.15625 168 626.488281 156.679688 C 628.523438 139.386719 642.648438 114.554688 664.441406 121.882812 C 679.101562 126.800781 696.847656 157.8125 691.855469 177.769531 " fill-opacity="1" fill-rule="evenodd"/><path fill="#000000" d="M 763.550781 258.96875 C 764.832031 240.234375 761.046875 220.894531 755.117188 206.246094 C 740.769531 220.503906 741.503906 253.84375 763.550781 258.96875 Z M 746.675781 173.550781 C 739.195312 176.261719 731.789062 179.042969 720.320312 177.769531 C 724.386719 194.445312 728.183594 211.386719 737.191406 223.121094 C 739.972656 211.132812 746.9375 203.34375 753.003906 194.644531 C 751.695312 186.816406 748.621094 180.746094 746.675781 173.550781 Z M 762.492188 156.679688 C 763.746094 164.96875 757.582031 165.832031 754.058594 169.335938 C 761.414062 196.832031 778.617188 234.414062 767.765625 266.351562 C 758.460938 269.425781 748.957031 261.269531 744.570312 255.804688 C 738.941406 248.800781 733.121094 235.734375 727.703125 224.171875 C 720.714844 209.269531 715.390625 196.761719 712.941406 178.828125 C 711.386719 175.457031 704.945312 176.988281 706.617188 170.390625 C 730.101562 171.734375 746.648438 166.136719 757.222656 154.570312 C 760.585938 153.667969 760.484375 156.230469 762.492188 156.679688 " fill-opacity="1" fill-rule="evenodd"/><path fill="#d86161" d="M 753.003906 194.644531 C 746.941406 203.339844 739.972656 211.132812 737.191406 223.117188 C 728.183594 211.382812 724.386719 194.441406 720.320312 177.769531 C 731.789062 179.042969 739.195312 176.257812 746.679688 173.550781 C 748.621094 180.746094 751.699219 186.8125 753.003906 194.644531 " fill-opacity="1" fill-rule="evenodd"/><path fill="#ff9999" d="M 755.117188 206.242188 C 761.046875 220.890625 764.832031 240.234375 763.550781 258.972656 C 741.503906 253.847656 740.769531 220.503906 755.117188 206.242188 " fill-opacity="1" fill-rule="evenodd"/><path fill="#efceb9" d="M 744.570312 561.628906 C 694.351562 500.070312 640.664062 436.378906 529.496094 439.304688 C 545.738281 415.578125 574.976562 395.539062 603.292969 380.246094 C 612.839844 375.09375 621.960938 367.003906 630.707031 363.375 C 643.199219 358.195312 657.757812 355.917969 670.769531 350.71875 C 683.75 345.53125 696.804688 340.992188 707.667969 334.902344 C 711.144531 332.949219 719.195312 332.105469 728.753906 332.792969 C 750.4375 334.347656 768.875 341.164062 787.792969 352.828125 C 803.660156 362.609375 820.71875 375.875 831.023438 387.628906 C 836.667969 394.0625 850.523438 413.609375 847.894531 426.644531 C 845.9375 436.335938 815.546875 456.878906 807.828125 463.554688 C 777.996094 489.34375 753.730469 514.699219 744.570312 561.628906 " fill-opacity="1" fill-rule="evenodd"/><path fill="#000000" d="M 849.996094 369.699219 C 837.535156 366.34375 824.527344 354.410156 816.261719 343.335938 C 830.835938 344.628906 841.210938 359.125 849.996094 369.699219 " fill-opacity="1" fill-rule="evenodd"/><path fill="#fcd8c0" d="M 615.945312 492.03125 C 631.105469 499.363281 647.050781 511.53125 662.335938 515.230469 C 647.824219 501.25 629.242188 485.789062 606.457031 483.589844 C 606.996094 488.496094 621.535156 500.488281 615.945312 492.03125 Z M 836.292969 769.378906 C 769.289062 772.164062 702.816406 777.449219 635.976562 771.484375 C 622.359375 770.269531 604.496094 771.65625 595.914062 768.324219 C 588.140625 765.304688 561.976562 736.433594 554.796875 729.304688 C 517.179688 691.925781 485.144531 628.085938 489.429688 557.410156 C 492.046875 514.269531 502.464844 471.515625 525.277344 447.738281 C 590.921875 444.867188 633.640625 467.203125 669.714844 495.191406 C 698.109375 517.222656 722.65625 545.410156 741.410156 577.445312 C 741.285156 620.222656 759.511719 655.398438 773.035156 688.175781 C 784.3125 715.503906 798.835938 731.9375 818.367188 751.449219 C 824.347656 757.417969 832.550781 761.167969 836.292969 769.378906 " fill-opacity="1" fill-rule="evenodd"/><path fill="#896c31" d="M 581.152344 765.160156 C 555.761719 758.566406 514.714844 758.496094 491.539062 746.175781 C 496.148438 728.289062 519.613281 729.257812 536.875 724.03125 C 549.613281 739.761719 565.597656 752.246094 581.152344 765.160156 " fill-opacity="1" fill-rule="evenodd"/><path fill="#896c31" d="M 852.113281 767.265625 C 838.867188 752.390625 820.101562 743.039062 807.832031 727.191406 C 829.703125 726.363281 860.34375 726.664062 883.742188 733.523438 C 891.695312 735.855469 904.648438 742.007812 904.824219 747.230469 C 905.289062 761.335938 865.507812 765.410156 852.113281 767.265625 " fill-opacity="1" fill-rule="evenodd"/><path fill="#000000" d="M 606.457031 483.589844 C 629.242188 485.785156 647.824219 501.25 662.335938 515.230469 C 647.050781 511.53125 631.105469 499.363281 615.945312 492.03125 C 621.535156 500.488281 606.996094 488.492188 606.457031 483.589844 " fill-opacity="1" fill-rule="evenodd"/></svg>